solid OpenSCAD_Model
  facet normal -0.951057 0.309017 0
    outer loop
      vertex 11.9708 42.2947 0
      vertex 12.2 43 3
      vertex 12.2 43 0
    endloop
  endfacet
  facet normal -0.951057 0.309017 0
    outer loop
      vertex 12.2 43 3
      vertex 11.9708 42.2947 0
      vertex 11.9708 42.2947 3
    endloop
  endfacet
  facet normal -0.587785 -0.809017 0
    outer loop
      vertex 11.3708 44.1413 0
      vertex 11.9708 43.7053 3
      vertex 11.3708 44.1413 3
    endloop
  endfacet
  facet normal -0.587785 -0.809017 -0
    outer loop
      vertex 11.9708 43.7053 3
      vertex 11.3708 44.1413 0
      vertex 11.9708 43.7053 0
    endloop
  endfacet
  facet normal 0.951057 0.309017 0
    outer loop
      vertex 10.0292 42.2947 3
      vertex 9.8 43 0
      vertex 9.8 43 3
    endloop
  endfacet
  facet normal 0.951057 0.309017 0
    outer loop
      vertex 9.8 43 0
      vertex 10.0292 42.2947 3
      vertex 10.0292 42.2947 0
    endloop
  endfacet
  facet normal -0.951056 -0.309018 0
    outer loop
      vertex 12.2 43 0
      vertex 11.9708 43.7053 3
      vertex 11.9708 43.7053 0
    endloop
  endfacet
  facet normal -0.951056 -0.309018 0
    outer loop
      vertex 11.9708 43.7053 3
      vertex 12.2 43 0
      vertex 12.2 43 3
    endloop
  endfacet
  facet normal 0.587785 -0.809017 0
    outer loop
      vertex 10.0292 43.7053 0
      vertex 10.6292 44.1413 3
      vertex 10.0292 43.7053 3
    endloop
  endfacet
  facet normal 0.587785 -0.809017 0
    outer loop
      vertex 10.6292 44.1413 3
      vertex 10.0292 43.7053 0
      vertex 10.6292 44.1413 0
    endloop
  endfacet
  facet normal 0.587785 0.809017 -0
    outer loop
      vertex 10.6292 41.8587 0
      vertex 10.0292 42.2947 3
      vertex 10.6292 41.8587 3
    endloop
  endfacet
  facet normal 0.587785 0.809017 0
    outer loop
      vertex 10.0292 42.2947 3
      vertex 10.6292 41.8587 0
      vertex 10.0292 42.2947 0
    endloop
  endfacet
  facet normal -0.587785 0.809017 0
    outer loop
      vertex 11.9708 42.2947 0
      vertex 11.3708 41.8587 3
      vertex 11.9708 42.2947 3
    endloop
  endfacet
  facet normal -0.587785 0.809017 0
    outer loop
      vertex 11.3708 41.8587 3
      vertex 11.9708 42.2947 0
      vertex 11.3708 41.8587 0
    endloop
  endfacet
  facet normal 0.951056 -0.309018 0
    outer loop
      vertex 9.8 43 3
      vertex 10.0292 43.7053 0
      vertex 10.0292 43.7053 3
    endloop
  endfacet
  facet normal 0.951056 -0.309018 0
    outer loop
      vertex 10.0292 43.7053 0
      vertex 9.8 43 3
      vertex 9.8 43 0
    endloop
  endfacet
  facet normal 0 0 -1
    outer loop
      vertex 16 48 0
      vertex 11.9708 42.2947 0
      vertex 12.2 43 0
    endloop
  endfacet
  facet normal 0 0 -1
    outer loop
      vertex 12.25 28.5 0
      vertex 11.3708 41.8587 0
      vertex 11.9708 42.2947 0
    endloop
  endfacet
  facet normal 0 0 -1
    outer loop
      vertex 6.97081 31.2053 0
      vertex 11.3708 41.8587 0
      vertex 12.25 28.5 0
    endloop
  endfacet
  facet normal -0 0 -1
    outer loop
      vertex 11.3708 41.8587 0
      vertex 6.97081 31.2053 0
      vertex 10.6292 41.8587 0
    endloop
  endfacet
  facet normal 0 0 -1
    outer loop
      vertex 6.37082 31.6413 0
      vertex 10.6292 41.8587 0
      vertex 6.97081 31.2053 0
    endloop
  endfacet
  facet normal 0 0 -1
    outer loop
      vertex 6.97081 31.2053 0
      vertex 12.25 28.5 0
      vertex 7.2 30.5 0
    endloop
  endfacet
  facet normal 0 0 -1
    outer loop
      vertex 12.25 28.5 0
      vertex 6.97081 29.7946 0
      vertex 7.2 30.5 0
    endloop
  endfacet
  facet normal 0 0 -1
    outer loop
      vertex 12.25 28.5 0
      vertex 6.37082 29.3587 0
      vertex 6.97081 29.7946 0
    endloop
  endfacet
  facet normal 0 0 -1
    outer loop
      vertex 12.25 28.5 0
      vertex 5.62918 29.3587 0
      vertex 6.37082 29.3587 0
    endloop
  endfacet
  facet normal -0 0 -1
    outer loop
      vertex 5.02919 29.7946 0
      vertex 0 28.5 0
      vertex 4.8 30.5 0
    endloop
  endfacet
  facet normal -0 0 -1
    outer loop
      vertex 5.62918 29.3587 0
      vertex 0 28.5 0
      vertex 5.02919 29.7946 0
    endloop
  endfacet
  facet normal 0 0 -1
    outer loop
      vertex 0 28.5 0
      vertex 5.62918 29.3587 0
      vertex 12.25 28.5 0
    endloop
  endfacet
  facet normal 0 0 -1
    outer loop
      vertex 12.25 28.5 0
      vertex 16 0 0
      vertex 12.25 5 0
    endloop
  endfacet
  facet normal 0 0 -1
    outer loop
      vertex 6.97081 1.79466 0
      vertex 12.25 5 0
      vertex 16 0 0
    endloop
  endfacet
  facet normal 0 0 -1
    outer loop
      vertex 12.25 5 0
      vertex 6.97081 1.79466 0
      vertex 7.2 2.5 0
    endloop
  endfacet
  facet normal 0 0 -1
    outer loop
      vertex 16 0 0
      vertex 6.37082 1.35873 0
      vertex 6.97081 1.79466 0
    endloop
  endfacet
  facet normal 0 0 -1
    outer loop
      vertex 0 0 0
      vertex 6.37082 1.35873 0
      vertex 16 0 0
    endloop
  endfacet
  facet normal -0 0 -1
    outer loop
      vertex 5.02919 1.79466 0
      vertex 0 0 0
      vertex 4.8 2.5 0
    endloop
  endfacet
  facet normal -0 0 -1
    outer loop
      vertex 5.62918 1.35873 0
      vertex 0 0 0
      vertex 5.02919 1.79466 0
    endloop
  endfacet
  facet normal -0 0 -1
    outer loop
      vertex 6.37082 1.35873 0
      vertex 0 0 0
      vertex 5.62918 1.35873 0
    endloop
  endfacet
  facet normal 0 0 -1
    outer loop
      vertex 16 0 0
      vertex 12.25 28.5 0
      vertex 16 48 0
    endloop
  endfacet
  facet normal 0 0 -1
    outer loop
      vertex 11.9708 42.2947 0
      vertex 16 48 0
      vertex 12.25 28.5 0
    endloop
  endfacet
  facet normal 0 0 -1
    outer loop
      vertex 11.9708 43.7053 0
      vertex 16 48 0
      vertex 12.2 43 0
    endloop
  endfacet
  facet normal 0 0 -1
    outer loop
      vertex 11.3708 44.1413 0
      vertex 16 48 0
      vertex 11.9708 43.7053 0
    endloop
  endfacet
  facet normal 0 0 -1
    outer loop
      vertex 10.6292 44.1413 0
      vertex 16 48 0
      vertex 11.3708 44.1413 0
    endloop
  endfacet
  facet normal -0 0 -1
    outer loop
      vertex 10.6292 41.8587 0
      vertex 6.37082 31.6413 0
      vertex 10.0292 42.2947 0
    endloop
  endfacet
  facet normal 0 0 -1
    outer loop
      vertex 5.62918 31.6413 0
      vertex 10.0292 42.2947 0
      vertex 6.37082 31.6413 0
    endloop
  endfacet
  facet normal 0 0 -1
    outer loop
      vertex 0 48 0
      vertex 10.0292 42.2947 0
      vertex 5.62918 31.6413 0
    endloop
  endfacet
  facet normal 0 0 -1
    outer loop
      vertex 10.0292 42.2947 0
      vertex 0 48 0
      vertex 9.8 43 0
    endloop
  endfacet
  facet normal 0 0 -1
    outer loop
      vertex 0 48 0
      vertex 5.62918 31.6413 0
      vertex 5.02919 31.2053 0
    endloop
  endfacet
  facet normal 0 0 -1
    outer loop
      vertex 0 28.5 0
      vertex 5.02919 31.2053 0
      vertex 4.8 30.5 0
    endloop
  endfacet
  facet normal 0 0 -1
    outer loop
      vertex 0 48 0
      vertex 5.02919 31.2053 0
      vertex 0 28.5 0
    endloop
  endfacet
  facet normal 0 0 -1
    outer loop
      vertex 10.6292 44.1413 0
      vertex 0 48 0
      vertex 16 48 0
    endloop
  endfacet
  facet normal 0 0 -1
    outer loop
      vertex 10.0292 43.7053 0
      vertex 0 48 0
      vertex 10.6292 44.1413 0
    endloop
  endfacet
  facet normal 0 0 -1
    outer loop
      vertex 9.8 43 0
      vertex 0 48 0
      vertex 10.0292 43.7053 0
    endloop
  endfacet
  facet normal 0 0 -1
    outer loop
      vertex 6.97081 3.20534 0
      vertex 12.25 5 0
      vertex 7.2 2.5 0
    endloop
  endfacet
  facet normal 0 0 -1
    outer loop
      vertex 6.37082 3.64127 0
      vertex 12.25 5 0
      vertex 6.97081 3.20534 0
    endloop
  endfacet
  facet normal 0 0 -1
    outer loop
      vertex 5.62918 3.64127 0
      vertex 12.25 5 0
      vertex 6.37082 3.64127 0
    endloop
  endfacet
  facet normal 0 0 -1
    outer loop
      vertex 0 5 0
      vertex 4.8 2.5 0
      vertex 0 0 0
    endloop
  endfacet
  facet normal 0 0 -1
    outer loop
      vertex 4.8 2.5 0
      vertex 0 5 0
      vertex 5.02919 3.20534 0
    endloop
  endfacet
  facet normal 0 0 -1
    outer loop
      vertex 5.62918 3.64127 0
      vertex 0 5 0
      vertex 12.25 5 0
    endloop
  endfacet
  facet normal 0 0 -1
    outer loop
      vertex 5.02919 3.20534 0
      vertex 0 5 0
      vertex 5.62918 3.64127 0
    endloop
  endfacet
  facet normal 0 0 1
    outer loop
      vertex 12.2 43 3
      vertex 13.5 43 3
      vertex 13.0225 44.4695 3
    endloop
  endfacet
  facet normal 0 0 1
    outer loop
      vertex 13.5 43 3
      vertex 12.2 43 3
      vertex 13.0225 41.5305 3
    endloop
  endfacet
  facet normal 0 0 1
    outer loop
      vertex 13.0225 44.4695 3
      vertex 11.9708 43.7053 3
      vertex 12.2 43 3
    endloop
  endfacet
  facet normal 0 0 1
    outer loop
      vertex 11.7725 45.3776 3
      vertex 11.9708 43.7053 3
      vertex 13.0225 44.4695 3
    endloop
  endfacet
  facet normal 0 0 1
    outer loop
      vertex 11.7725 45.3776 3
      vertex 11.3708 44.1413 3
      vertex 11.9708 43.7053 3
    endloop
  endfacet
  facet normal 0 0 1
    outer loop
      vertex 11.7725 45.3776 3
      vertex 10.6292 44.1413 3
      vertex 11.3708 44.1413 3
    endloop
  endfacet
  facet normal -0 0 1
    outer loop
      vertex 10.2275 45.3776 3
      vertex 10.6292 44.1413 3
      vertex 11.7725 45.3776 3
    endloop
  endfacet
  facet normal 0 0 1
    outer loop
      vertex 10.2275 45.3776 3
      vertex 10.0292 43.7053 3
      vertex 10.6292 44.1413 3
    endloop
  endfacet
  facet normal -0 0 1
    outer loop
      vertex 8.97746 44.4695 3
      vertex 10.0292 43.7053 3
      vertex 10.2275 45.3776 3
    endloop
  endfacet
  facet normal 0 0 1
    outer loop
      vertex 10.0292 43.7053 3
      vertex 8.97746 44.4695 3
      vertex 9.8 43 3
    endloop
  endfacet
  facet normal -0 0 1
    outer loop
      vertex 11.9708 42.2947 3
      vertex 13.0225 41.5305 3
      vertex 12.2 43 3
    endloop
  endfacet
  facet normal 0 0 1
    outer loop
      vertex 11.9708 42.2947 3
      vertex 11.7725 40.6224 3
      vertex 13.0225 41.5305 3
    endloop
  endfacet
  facet normal -0 0 1
    outer loop
      vertex 11.3708 41.8587 3
      vertex 11.7725 40.6224 3
      vertex 11.9708 42.2947 3
    endloop
  endfacet
  facet normal -0 0 1
    outer loop
      vertex 10.6292 41.8587 3
      vertex 11.7725 40.6224 3
      vertex 11.3708 41.8587 3
    endloop
  endfacet
  facet normal 0 0 1
    outer loop
      vertex 10.6292 41.8587 3
      vertex 10.2275 40.6224 3
      vertex 11.7725 40.6224 3
    endloop
  endfacet
  facet normal 0 0 1
    outer loop
      vertex 10.0292 42.2947 3
      vertex 10.2275 40.6224 3
      vertex 10.6292 41.8587 3
    endloop
  endfacet
  facet normal 0 0 1
    outer loop
      vertex 8.97746 41.5305 3
      vertex 10.0292 42.2947 3
      vertex 9.8 43 3
    endloop
  endfacet
  facet normal 0 0 1
    outer loop
      vertex 8.5 43 3
      vertex 9.8 43 3
      vertex 8.97746 44.4695 3
    endloop
  endfacet
  facet normal 0 0 1
    outer loop
      vertex 10.0292 42.2947 3
      vertex 8.97746 41.5305 3
      vertex 10.2275 40.6224 3
    endloop
  endfacet
  facet normal 0 0 1
    outer loop
      vertex 9.8 43 3
      vertex 8.5 43 3
      vertex 8.97746 41.5305 3
    endloop
  endfacet
  facet normal 0 -1 0
    outer loop
      vertex 10.6292 44.1413 0
      vertex 11.3708 44.1413 3
      vertex 10.6292 44.1413 3
    endloop
  endfacet
  facet normal 0 -1 -0
    outer loop
      vertex 11.3708 44.1413 3
      vertex 10.6292 44.1413 0
      vertex 11.3708 44.1413 0
    endloop
  endfacet
  facet normal 0 1 -0
    outer loop
      vertex 11.3708 41.8587 0
      vertex 10.6292 41.8587 3
      vertex 11.3708 41.8587 3
    endloop
  endfacet
  facet normal 0 1 0
    outer loop
      vertex 10.6292 41.8587 3
      vertex 11.3708 41.8587 0
      vertex 10.6292 41.8587 0
    endloop
  endfacet
  facet normal -0.587785 -0.809018 0
    outer loop
      vertex 11.7725 45.3776 3
      vertex 13.0225 44.4695 5
      vertex 11.7725 45.3776 5
    endloop
  endfacet
  facet normal -0.587785 -0.809018 -0
    outer loop
      vertex 13.0225 44.4695 5
      vertex 11.7725 45.3776 3
      vertex 13.0225 44.4695 3
    endloop
  endfacet
  facet normal -0.951056 -0.309017 0
    outer loop
      vertex 13.5 43 3
      vertex 13.0225 44.4695 5
      vertex 13.0225 44.4695 3
    endloop
  endfacet
  facet normal -0.951056 -0.309017 0
    outer loop
      vertex 13.0225 44.4695 5
      vertex 13.5 43 3
      vertex 13.5 43 5
    endloop
  endfacet
  facet normal 0.587785 -0.809018 0
    outer loop
      vertex 8.97746 44.4695 3
      vertex 10.2275 45.3776 5
      vertex 8.97746 44.4695 5
    endloop
  endfacet
  facet normal 0.587785 -0.809018 0
    outer loop
      vertex 10.2275 45.3776 5
      vertex 8.97746 44.4695 3
      vertex 10.2275 45.3776 3
    endloop
  endfacet
  facet normal 0.587785 0.809018 -0
    outer loop
      vertex 10.2275 40.6224 3
      vertex 8.97746 41.5305 5
      vertex 10.2275 40.6224 5
    endloop
  endfacet
  facet normal 0.587785 0.809018 0
    outer loop
      vertex 8.97746 41.5305 5
      vertex 10.2275 40.6224 3
      vertex 8.97746 41.5305 3
    endloop
  endfacet
  facet normal -0.587785 0.809018 0
    outer loop
      vertex 13.0225 41.5305 3
      vertex 11.7725 40.6224 5
      vertex 13.0225 41.5305 5
    endloop
  endfacet
  facet normal -0.587785 0.809018 0
    outer loop
      vertex 11.7725 40.6224 5
      vertex 13.0225 41.5305 3
      vertex 11.7725 40.6224 3
    endloop
  endfacet
  facet normal 0.951057 -0.309017 0
    outer loop
      vertex 8.5 43 5
      vertex 8.97746 44.4695 3
      vertex 8.97746 44.4695 5
    endloop
  endfacet
  facet normal 0.951057 -0.309017 0
    outer loop
      vertex 8.97746 44.4695 3
      vertex 8.5 43 5
      vertex 8.5 43 3
    endloop
  endfacet
  facet normal 0 0 1
    outer loop
      vertex 12.25 5 5
      vertex 6.97081 3.20534 5
      vertex 7.2 2.5 5
    endloop
  endfacet
  facet normal 0 0 1
    outer loop
      vertex 12.25 5 5
      vertex 6.37082 3.64127 5
      vertex 6.97081 3.20534 5
    endloop
  endfacet
  facet normal 0 0 1
    outer loop
      vertex 12.25 5 5
      vertex 5.62918 3.64127 5
      vertex 6.37082 3.64127 5
    endloop
  endfacet
  facet normal 0 0 1
    outer loop
      vertex 5.02919 3.20534 5
      vertex 0 5 5
      vertex 4.8 2.5 5
    endloop
  endfacet
  facet normal 0 0 1
    outer loop
      vertex 5.62918 3.64127 5
      vertex 0 5 5
      vertex 5.02919 3.20534 5
    endloop
  endfacet
  facet normal -0 0 1
    outer loop
      vertex 0 5 5
      vertex 5.62918 3.64127 5
      vertex 12.25 5 5
    endloop
  endfacet
  facet normal -0 0 1
    outer loop
      vertex 11.7725 40.6224 5
      vertex 12.25 28.5 5
      vertex 13.0225 41.5305 5
    endloop
  endfacet
  facet normal 0 0 1
    outer loop
      vertex 6.97081 31.2053 5
      vertex 11.7725 40.6224 5
      vertex 10.2275 40.6224 5
    endloop
  endfacet
  facet normal 0 0 1
    outer loop
      vertex 6.37082 31.6413 5
      vertex 10.2275 40.6224 5
      vertex 8.97746 41.5305 5
    endloop
  endfacet
  facet normal 0 0 1
    outer loop
      vertex 0 48 5
      vertex 8.97746 41.5305 5
      vertex 8.5 43 5
    endloop
  endfacet
  facet normal 0 0 1
    outer loop
      vertex 11.7725 40.6224 5
      vertex 6.97081 31.2053 5
      vertex 12.25 28.5 5
    endloop
  endfacet
  facet normal -0 0 1
    outer loop
      vertex 6.97081 29.7946 5
      vertex 12.25 28.5 5
      vertex 7.2 30.5 5
    endloop
  endfacet
  facet normal -0 0 1
    outer loop
      vertex 6.37082 29.3587 5
      vertex 12.25 28.5 5
      vertex 6.97081 29.7946 5
    endloop
  endfacet
  facet normal -0 0 1
    outer loop
      vertex 5.62918 29.3587 5
      vertex 12.25 28.5 5
      vertex 6.37082 29.3587 5
    endloop
  endfacet
  facet normal 0 0 1
    outer loop
      vertex 5.62918 29.3587 5
      vertex 0 28.5 5
      vertex 12.25 28.5 5
    endloop
  endfacet
  facet normal 0 0 1
    outer loop
      vertex 5.02919 29.7946 5
      vertex 0 28.5 5
      vertex 5.62918 29.3587 5
    endloop
  endfacet
  facet normal 0 0 1
    outer loop
      vertex 4.8 30.5 5
      vertex 0 28.5 5
      vertex 5.02919 29.7946 5
    endloop
  endfacet
  facet normal 0 0 1
    outer loop
      vertex 5.02919 31.2053 5
      vertex 0 28.5 5
      vertex 4.8 30.5 5
    endloop
  endfacet
  facet normal 0 0 1
    outer loop
      vertex 13.0225 41.5305 5
      vertex 16 48 5
      vertex 13.5 43 5
    endloop
  endfacet
  facet normal 0 0 1
    outer loop
      vertex 16 48 5
      vertex 13.0225 44.4695 5
      vertex 13.5 43 5
    endloop
  endfacet
  facet normal 0 0 1
    outer loop
      vertex 16 48 5
      vertex 11.7725 45.3776 5
      vertex 13.0225 44.4695 5
    endloop
  endfacet
  facet normal 0 0 1
    outer loop
      vertex 16 48 5
      vertex 10.2275 45.3776 5
      vertex 11.7725 45.3776 5
    endloop
  endfacet
  facet normal 0 0 1
    outer loop
      vertex 12.25 28.5 5
      vertex 6.97081 31.2053 5
      vertex 7.2 30.5 5
    endloop
  endfacet
  facet normal 0 0 1
    outer loop
      vertex 10.2275 40.6224 5
      vertex 6.37082 31.6413 5
      vertex 6.97081 31.2053 5
    endloop
  endfacet
  facet normal 0 0 1
    outer loop
      vertex 8.97746 41.5305 5
      vertex 5.62918 31.6413 5
      vertex 6.37082 31.6413 5
    endloop
  endfacet
  facet normal 0 0 1
    outer loop
      vertex 8.97746 41.5305 5
      vertex 0 48 5
      vertex 5.62918 31.6413 5
    endloop
  endfacet
  facet normal 0 0 1
    outer loop
      vertex 5.62918 31.6413 5
      vertex 0 48 5
      vertex 5.02919 31.2053 5
    endloop
  endfacet
  facet normal 0 0 1
    outer loop
      vertex 0 28.5 5
      vertex 5.02919 31.2053 5
      vertex 0 48 5
    endloop
  endfacet
  facet normal 0 0 1
    outer loop
      vertex 8.97746 44.4695 5
      vertex 0 48 5
      vertex 8.5 43 5
    endloop
  endfacet
  facet normal 0 0 1
    outer loop
      vertex 10.2275 45.3776 5
      vertex 0 48 5
      vertex 8.97746 44.4695 5
    endloop
  endfacet
  facet normal -0 0 1
    outer loop
      vertex 0 48 5
      vertex 10.2275 45.3776 5
      vertex 16 48 5
    endloop
  endfacet
  facet normal 0 0 1
    outer loop
      vertex 16 48 5
      vertex 13.0225 41.5305 5
      vertex 12.25 28.5 5
    endloop
  endfacet
  facet normal 0 0 1
    outer loop
      vertex 16 48 5
      vertex 12.25 28.5 5
      vertex 16 0 5
    endloop
  endfacet
  facet normal -0 0 1
    outer loop
      vertex 12.25 5 5
      vertex 16 0 5
      vertex 12.25 28.5 5
    endloop
  endfacet
  facet normal 0 0 1
    outer loop
      vertex 6.97081 1.79466 5
      vertex 12.25 5 5
      vertex 7.2 2.5 5
    endloop
  endfacet
  facet normal 0 0 1
    outer loop
      vertex 12.25 5 5
      vertex 6.97081 1.79466 5
      vertex 16 0 5
    endloop
  endfacet
  facet normal -0 0 1
    outer loop
      vertex 6.37082 1.35873 5
      vertex 16 0 5
      vertex 6.97081 1.79466 5
    endloop
  endfacet
  facet normal 0 0 1
    outer loop
      vertex 0 0 5
      vertex 6.37082 1.35873 5
      vertex 5.62918 1.35873 5
    endloop
  endfacet
  facet normal 0 0 1
    outer loop
      vertex 0 0 5
      vertex 4.8 2.5 5
      vertex 0 5 5
    endloop
  endfacet
  facet normal 0 0 1
    outer loop
      vertex 4.8 2.5 5
      vertex 0 0 5
      vertex 5.02919 1.79466 5
    endloop
  endfacet
  facet normal 0 0 1
    outer loop
      vertex 6.37082 1.35873 5
      vertex 0 0 5
      vertex 16 0 5
    endloop
  endfacet
  facet normal 0 0 1
    outer loop
      vertex 5.02919 1.79466 5
      vertex 0 0 5
      vertex 5.62918 1.35873 5
    endloop
  endfacet
  facet normal 0 -1 0
    outer loop
      vertex 10.2275 45.3776 3
      vertex 11.7725 45.3776 5
      vertex 10.2275 45.3776 5
    endloop
  endfacet
  facet normal 0 -1 -0
    outer loop
      vertex 11.7725 45.3776 5
      vertex 10.2275 45.3776 3
      vertex 11.7725 45.3776 3
    endloop
  endfacet
  facet normal 0 1 -0
    outer loop
      vertex 11.7725 40.6224 3
      vertex 10.2275 40.6224 5
      vertex 11.7725 40.6224 5
    endloop
  endfacet
  facet normal 0 1 0
    outer loop
      vertex 10.2275 40.6224 5
      vertex 11.7725 40.6224 3
      vertex 10.2275 40.6224 3
    endloop
  endfacet
  facet normal -0.951056 0.309017 0
    outer loop
      vertex 13.0225 41.5305 3
      vertex 13.5 43 5
      vertex 13.5 43 3
    endloop
  endfacet
  facet normal -0.951056 0.309017 0
    outer loop
      vertex 13.5 43 5
      vertex 13.0225 41.5305 3
      vertex 13.0225 41.5305 5
    endloop
  endfacet
  facet normal 0.951057 0.309017 0
    outer loop
      vertex 8.97746 41.5305 5
      vertex 8.5 43 3
      vertex 8.5 43 5
    endloop
  endfacet
  facet normal 0.951057 0.309017 0
    outer loop
      vertex 8.5 43 3
      vertex 8.97746 41.5305 5
      vertex 8.97746 41.5305 3
    endloop
  endfacet
  facet normal 0 1 -0
    outer loop
      vertex 16 48 0
      vertex 0 48 5
      vertex 16 48 5
    endloop
  endfacet
  facet normal 0 1 0
    outer loop
      vertex 0 48 5
      vertex 16 48 0
      vertex 0 48 0
    endloop
  endfacet
  facet normal -1 0 0
    outer loop
      vertex 0 28.5 0
      vertex 0 48 5
      vertex 0 48 0
    endloop
  endfacet
  facet normal -1 -0 0
    outer loop
      vertex 0 48 5
      vertex 0 28.5 0
      vertex 0 28.5 5
    endloop
  endfacet
  facet normal 0 -1 0
    outer loop
      vertex 0 28.5 0
      vertex 12.25 28.5 5
      vertex 0 28.5 5
    endloop
  endfacet
  facet normal 0 -1 -0
    outer loop
      vertex 12.25 28.5 5
      vertex 0 28.5 0
      vertex 12.25 28.5 0
    endloop
  endfacet
  facet normal -1 0 0
    outer loop
      vertex 12.25 5 0
      vertex 12.25 28.5 5
      vertex 12.25 28.5 0
    endloop
  endfacet
  facet normal -1 -0 0
    outer loop
      vertex 12.25 28.5 5
      vertex 12.25 5 0
      vertex 12.25 5 5
    endloop
  endfacet
  facet normal 0 1 -0
    outer loop
      vertex 12.25 5 0
      vertex 0 5 5
      vertex 12.25 5 5
    endloop
  endfacet
  facet normal 0 1 0
    outer loop
      vertex 0 5 5
      vertex 12.25 5 0
      vertex 0 5 0
    endloop
  endfacet
  facet normal -1 0 0
    outer loop
      vertex 0 0 0
      vertex 0 5 5
      vertex 0 5 0
    endloop
  endfacet
  facet normal -1 -0 0
    outer loop
      vertex 0 5 5
      vertex 0 0 0
      vertex 0 0 5
    endloop
  endfacet
  facet normal 0 -1 0
    outer loop
      vertex 0 0 0
      vertex 16 0 5
      vertex 0 0 5
    endloop
  endfacet
  facet normal 0 -1 -0
    outer loop
      vertex 16 0 5
      vertex 0 0 0
      vertex 16 0 0
    endloop
  endfacet
  facet normal 1 -0 0
    outer loop
      vertex 16 0 5
      vertex 16 48 0
      vertex 16 48 5
    endloop
  endfacet
  facet normal 1 0 0
    outer loop
      vertex 16 48 0
      vertex 16 0 5
      vertex 16 0 0
    endloop
  endfacet
  facet normal 0.587794 0.809011 -0
    outer loop
      vertex 5.62918 29.3587 0
      vertex 5.02919 29.7946 5
      vertex 5.62918 29.3587 5
    endloop
  endfacet
  facet normal 0.587794 0.809011 0
    outer loop
      vertex 5.02919 29.7946 5
      vertex 5.62918 29.3587 0
      vertex 5.02919 29.7946 0
    endloop
  endfacet
  facet normal 0.951055 0.309022 0
    outer loop
      vertex 5.02919 29.7946 5
      vertex 4.8 30.5 0
      vertex 4.8 30.5 5
    endloop
  endfacet
  facet normal 0.951055 0.309022 0
    outer loop
      vertex 4.8 30.5 0
      vertex 5.02919 29.7946 5
      vertex 5.02919 29.7946 0
    endloop
  endfacet
  facet normal 0.951053 -0.309028 0
    outer loop
      vertex 4.8 30.5 5
      vertex 5.02919 31.2053 0
      vertex 5.02919 31.2053 5
    endloop
  endfacet
  facet normal 0.951053 -0.309028 0
    outer loop
      vertex 5.02919 31.2053 0
      vertex 4.8 30.5 5
      vertex 4.8 30.5 0
    endloop
  endfacet
  facet normal 0.587794 -0.809011 0
    outer loop
      vertex 5.02919 31.2053 0
      vertex 5.62918 31.6413 5
      vertex 5.02919 31.2053 5
    endloop
  endfacet
  facet normal 0.587794 -0.809011 0
    outer loop
      vertex 5.62918 31.6413 5
      vertex 5.02919 31.2053 0
      vertex 5.62918 31.6413 0
    endloop
  endfacet
  facet normal 0 -1 0
    outer loop
      vertex 5.62918 31.6413 0
      vertex 6.37082 31.6413 5
      vertex 5.62918 31.6413 5
    endloop
  endfacet
  facet normal 0 -1 -0
    outer loop
      vertex 6.37082 31.6413 5
      vertex 5.62918 31.6413 0
      vertex 6.37082 31.6413 0
    endloop
  endfacet
  facet normal -0.587794 -0.809011 0
    outer loop
      vertex 6.37082 31.6413 0
      vertex 6.97081 31.2053 5
      vertex 6.37082 31.6413 5
    endloop
  endfacet
  facet normal -0.587794 -0.809011 -0
    outer loop
      vertex 6.97081 31.2053 5
      vertex 6.37082 31.6413 0
      vertex 6.97081 31.2053 0
    endloop
  endfacet
  facet normal -0.951053 -0.309028 0
    outer loop
      vertex 7.2 30.5 0
      vertex 6.97081 31.2053 5
      vertex 6.97081 31.2053 0
    endloop
  endfacet
  facet normal -0.951053 -0.309028 0
    outer loop
      vertex 6.97081 31.2053 5
      vertex 7.2 30.5 0
      vertex 7.2 30.5 5
    endloop
  endfacet
  facet normal -0.951055 0.309022 0
    outer loop
      vertex 6.97081 29.7946 0
      vertex 7.2 30.5 5
      vertex 7.2 30.5 0
    endloop
  endfacet
  facet normal -0.951055 0.309022 0
    outer loop
      vertex 7.2 30.5 5
      vertex 6.97081 29.7946 0
      vertex 6.97081 29.7946 5
    endloop
  endfacet
  facet normal -0.587794 0.809011 0
    outer loop
      vertex 6.97081 29.7946 0
      vertex 6.37082 29.3587 5
      vertex 6.97081 29.7946 5
    endloop
  endfacet
  facet normal -0.587794 0.809011 0
    outer loop
      vertex 6.37082 29.3587 5
      vertex 6.97081 29.7946 0
      vertex 6.37082 29.3587 0
    endloop
  endfacet
  facet normal 0 1 -0
    outer loop
      vertex 6.37082 29.3587 0
      vertex 5.62918 29.3587 5
      vertex 6.37082 29.3587 5
    endloop
  endfacet
  facet normal 0 1 0
    outer loop
      vertex 5.62918 29.3587 5
      vertex 6.37082 29.3587 0
      vertex 5.62918 29.3587 0
    endloop
  endfacet
  facet normal 0.587794 0.809011 -0
    outer loop
      vertex 5.62918 1.35873 0
      vertex 5.02919 1.79466 5
      vertex 5.62918 1.35873 5
    endloop
  endfacet
  facet normal 0.587794 0.809011 0
    outer loop
      vertex 5.02919 1.79466 5
      vertex 5.62918 1.35873 0
      vertex 5.02919 1.79466 0
    endloop
  endfacet
  facet normal 0.951053 0.309028 0
    outer loop
      vertex 5.02919 1.79466 5
      vertex 4.8 2.5 0
      vertex 4.8 2.5 5
    endloop
  endfacet
  facet normal 0.951053 0.309028 0
    outer loop
      vertex 4.8 2.5 0
      vertex 5.02919 1.79466 5
      vertex 5.02919 1.79466 0
    endloop
  endfacet
  facet normal 0.951053 -0.309028 0
    outer loop
      vertex 4.8 2.5 5
      vertex 5.02919 3.20534 0
      vertex 5.02919 3.20534 5
    endloop
  endfacet
  facet normal 0.951053 -0.309028 0
    outer loop
      vertex 5.02919 3.20534 0
      vertex 4.8 2.5 5
      vertex 4.8 2.5 0
    endloop
  endfacet
  facet normal 0.587794 -0.809011 0
    outer loop
      vertex 5.02919 3.20534 0
      vertex 5.62918 3.64127 5
      vertex 5.02919 3.20534 5
    endloop
  endfacet
  facet normal 0.587794 -0.809011 0
    outer loop
      vertex 5.62918 3.64127 5
      vertex 5.02919 3.20534 0
      vertex 5.62918 3.64127 0
    endloop
  endfacet
  facet normal 0 -1 0
    outer loop
      vertex 5.62918 3.64127 0
      vertex 6.37082 3.64127 5
      vertex 5.62918 3.64127 5
    endloop
  endfacet
  facet normal 0 -1 -0
    outer loop
      vertex 6.37082 3.64127 5
      vertex 5.62918 3.64127 0
      vertex 6.37082 3.64127 0
    endloop
  endfacet
  facet normal -0.587794 -0.809011 0
    outer loop
      vertex 6.37082 3.64127 0
      vertex 6.97081 3.20534 5
      vertex 6.37082 3.64127 5
    endloop
  endfacet
  facet normal -0.587794 -0.809011 -0
    outer loop
      vertex 6.97081 3.20534 5
      vertex 6.37082 3.64127 0
      vertex 6.97081 3.20534 0
    endloop
  endfacet
  facet normal -0.951053 -0.309028 0
    outer loop
      vertex 7.2 2.5 0
      vertex 6.97081 3.20534 5
      vertex 6.97081 3.20534 0
    endloop
  endfacet
  facet normal -0.951053 -0.309028 0
    outer loop
      vertex 6.97081 3.20534 5
      vertex 7.2 2.5 0
      vertex 7.2 2.5 5
    endloop
  endfacet
  facet normal -0.951053 0.309028 0
    outer loop
      vertex 6.97081 1.79466 0
      vertex 7.2 2.5 5
      vertex 7.2 2.5 0
    endloop
  endfacet
  facet normal -0.951053 0.309028 0
    outer loop
      vertex 7.2 2.5 5
      vertex 6.97081 1.79466 0
      vertex 6.97081 1.79466 5
    endloop
  endfacet
  facet normal -0.587794 0.809011 0
    outer loop
      vertex 6.97081 1.79466 0
      vertex 6.37082 1.35873 5
      vertex 6.97081 1.79466 5
    endloop
  endfacet
  facet normal -0.587794 0.809011 0
    outer loop
      vertex 6.37082 1.35873 5
      vertex 6.97081 1.79466 0
      vertex 6.37082 1.35873 0
    endloop
  endfacet
  facet normal 0 1 -0
    outer loop
      vertex 6.37082 1.35873 0
      vertex 5.62918 1.35873 5
      vertex 6.37082 1.35873 5
    endloop
  endfacet
  facet normal 0 1 0
    outer loop
      vertex 5.62918 1.35873 5
      vertex 6.37082 1.35873 0
      vertex 5.62918 1.35873 0
    endloop
  endfacet
endsolid OpenSCAD_Model
