solid OpenSCAD_Model
  facet normal 0 0 -1
    outer loop
      vertex 12.25 28.25 0
      vertex 6.97081 29.7946 0
      vertex 7.2 30.5 0
    endloop
  endfacet
  facet normal 0 0 -1
    outer loop
      vertex 12.25 28.25 0
      vertex 6.37082 29.3587 0
      vertex 6.97081 29.7946 0
    endloop
  endfacet
  facet normal 0 0 -1
    outer loop
      vertex 12.25 28.25 0
      vertex 5.62918 29.3587 0
      vertex 6.37082 29.3587 0
    endloop
  endfacet
  facet normal 0 0 -1
    outer loop
      vertex 0 28.25 0
      vertex 5.62918 29.3587 0
      vertex 12.25 28.25 0
    endloop
  endfacet
  facet normal 0 0 -1
    outer loop
      vertex 0 28.25 0
      vertex 5.02919 29.7946 0
      vertex 5.62918 29.3587 0
    endloop
  endfacet
  facet normal 0 0 -1
    outer loop
      vertex 0 28.25 0
      vertex 4.8 30.5 0
      vertex 5.02919 29.7946 0
    endloop
  endfacet
  facet normal 0 0 -1
    outer loop
      vertex 0 60 0
      vertex 5.02919 31.2053 0
      vertex 0 28.25 0
    endloop
  endfacet
  facet normal 0 0 -1
    outer loop
      vertex 5.02919 31.2053 0
      vertex 0 60 0
      vertex 1 60 0
    endloop
  endfacet
  facet normal 0 0 -1
    outer loop
      vertex 16 0 0
      vertex 12.25 4.75 0
      vertex 16 30 0
    endloop
  endfacet
  facet normal 0 0 -1
    outer loop
      vertex 6.97081 1.79466 0
      vertex 12.25 4.75 0
      vertex 16 0 0
    endloop
  endfacet
  facet normal 0 0 -1
    outer loop
      vertex 12.25 4.75 0
      vertex 6.97081 1.79466 0
      vertex 7.2 2.5 0
    endloop
  endfacet
  facet normal 0 0 -1
    outer loop
      vertex 16 0 0
      vertex 6.37082 1.35873 0
      vertex 6.97081 1.79466 0
    endloop
  endfacet
  facet normal 0 0 -1
    outer loop
      vertex 0 0 0
      vertex 6.37082 1.35873 0
      vertex 16 0 0
    endloop
  endfacet
  facet normal -0 0 -1
    outer loop
      vertex 5.02919 1.79466 0
      vertex 0 0 0
      vertex 4.8 2.5 0
    endloop
  endfacet
  facet normal -0 0 -1
    outer loop
      vertex 5.62918 1.35873 0
      vertex 0 0 0
      vertex 5.02919 1.79466 0
    endloop
  endfacet
  facet normal -0 0 -1
    outer loop
      vertex 6.37082 1.35873 0
      vertex 0 0 0
      vertex 5.62918 1.35873 0
    endloop
  endfacet
  facet normal 0 0 -1
    outer loop
      vertex 12.25 28.25 0
      vertex 16 30 0
      vertex 12.25 4.75 0
    endloop
  endfacet
  facet normal 0 0 -1
    outer loop
      vertex 6.97081 31.2053 0
      vertex 12.25 28.25 0
      vertex 7.2 30.5 0
    endloop
  endfacet
  facet normal 0 0 -1
    outer loop
      vertex 12.25 28.25 0
      vertex 6.97081 31.2053 0
      vertex 16 30 0
    endloop
  endfacet
  facet normal 0 0 -1
    outer loop
      vertex 6.37082 31.6413 0
      vertex 16 30 0
      vertex 6.97081 31.2053 0
    endloop
  endfacet
  facet normal 0 0 -1
    outer loop
      vertex 6.37082 31.6413 0
      vertex 1 60 0
      vertex 16 30 0
    endloop
  endfacet
  facet normal 0 0 -1
    outer loop
      vertex 5.62918 31.6413 0
      vertex 1 60 0
      vertex 6.37082 31.6413 0
    endloop
  endfacet
  facet normal 0 0 -1
    outer loop
      vertex 5.02919 31.2053 0
      vertex 1 60 0
      vertex 5.62918 31.6413 0
    endloop
  endfacet
  facet normal 0 0 -1
    outer loop
      vertex 0 28.25 0
      vertex 5.02919 31.2053 0
      vertex 4.8 30.5 0
    endloop
  endfacet
  facet normal 0 0 -1
    outer loop
      vertex 6.97081 3.20534 0
      vertex 12.25 4.75 0
      vertex 7.2 2.5 0
    endloop
  endfacet
  facet normal 0 0 -1
    outer loop
      vertex 6.37082 3.64127 0
      vertex 12.25 4.75 0
      vertex 6.97081 3.20534 0
    endloop
  endfacet
  facet normal 0 0 -1
    outer loop
      vertex 5.62918 3.64127 0
      vertex 12.25 4.75 0
      vertex 6.37082 3.64127 0
    endloop
  endfacet
  facet normal 0 0 -1
    outer loop
      vertex 0 4.75 0
      vertex 4.8 2.5 0
      vertex 0 0 0
    endloop
  endfacet
  facet normal 0 0 -1
    outer loop
      vertex 4.8 2.5 0
      vertex 0 4.75 0
      vertex 5.02919 3.20534 0
    endloop
  endfacet
  facet normal 0 0 -1
    outer loop
      vertex 5.62918 3.64127 0
      vertex 0 4.75 0
      vertex 12.25 4.75 0
    endloop
  endfacet
  facet normal 0 0 -1
    outer loop
      vertex 5.02919 3.20534 0
      vertex 0 4.75 0
      vertex 5.62918 3.64127 0
    endloop
  endfacet
  facet normal 0 0 1
    outer loop
      vertex 12.25 4.75 5
      vertex 6.97081 3.20534 5
      vertex 7.2 2.5 5
    endloop
  endfacet
  facet normal 0 0 1
    outer loop
      vertex 12.25 4.75 5
      vertex 6.37082 3.64127 5
      vertex 6.97081 3.20534 5
    endloop
  endfacet
  facet normal 0 0 1
    outer loop
      vertex 12.25 4.75 5
      vertex 5.62918 3.64127 5
      vertex 6.37082 3.64127 5
    endloop
  endfacet
  facet normal 0 0 1
    outer loop
      vertex 5.02919 3.20534 5
      vertex 0 4.75 5
      vertex 4.8 2.5 5
    endloop
  endfacet
  facet normal 0 0 1
    outer loop
      vertex 5.62918 3.64127 5
      vertex 0 4.75 5
      vertex 5.02919 3.20534 5
    endloop
  endfacet
  facet normal -0 0 1
    outer loop
      vertex 0 4.75 5
      vertex 5.62918 3.64127 5
      vertex 12.25 4.75 5
    endloop
  endfacet
  facet normal -0 0 1
    outer loop
      vertex 12.7322 6.427 5
      vertex 13.2756 6.15417 5
      vertex 13.2756 6.427 5
    endloop
  endfacet
  facet normal 0 0 1
    outer loop
      vertex 12.25 4.75 5
      vertex 12.7322 6.427 5
      vertex 12.5088 6.79688 5
    endloop
  endfacet
  facet normal 0 0 1
    outer loop
      vertex 12.25 4.75 5
      vertex 13.2756 6.15417 5
      vertex 12.7322 6.427 5
    endloop
  endfacet
  facet normal -0 0 1
    outer loop
      vertex 12.7322 8.4895 5
      vertex 13.2756 8.21667 5
      vertex 13.2756 8.4895 5
    endloop
  endfacet
  facet normal 0 0 1
    outer loop
      vertex 13.2756 8.21667 5
      vertex 12.7322 8.4895 5
      vertex 13.2756 7.17114 5
    endloop
  endfacet
  facet normal 0 0 1
    outer loop
      vertex 12.5088 6.79688 5
      vertex 13.2756 7.17114 5
      vertex 12.7322 8.4895 5
    endloop
  endfacet
  facet normal 0 0 1
    outer loop
      vertex 12.5088 6.79688 5
      vertex 12.7322 8.4895 5
      vertex 12.5088 8.85938 5
    endloop
  endfacet
  facet normal 0 0 1
    outer loop
      vertex 13.2756 7.17114 5
      vertex 12.5088 6.79688 5
      vertex 13.2756 6.79688 5
    endloop
  endfacet
  facet normal 0 0 1
    outer loop
      vertex 13.2551 13.3652 5
      vertex 13.3562 12.7581 5
      vertex 13.6396 12.9067 5
    endloop
  endfacet
  facet normal 0 0 1
    outer loop
      vertex 13.3562 12.7581 5
      vertex 13.2551 13.3652 5
      vertex 13.2551 12.4874 5
    endloop
  endfacet
  facet normal 0 0 1
    outer loop
      vertex 13.3533 12.2234 5
      vertex 13.3046 12.0377 5
      vertex 13.6125 12.0377 5
    endloop
  endfacet
  facet normal 0 0 1
    outer loop
      vertex 13.3046 12.0377 5
      vertex 13.2551 12.4874 5
      vertex 13.3046 11.8125 5
    endloop
  endfacet
  facet normal 0 0 1
    outer loop
      vertex 13.2551 12.4874 5
      vertex 13.3046 12.0377 5
      vertex 13.3533 12.2234 5
    endloop
  endfacet
  facet normal 0 0 1
    outer loop
      vertex 15.5 2.45508 5
      vertex 15.1755 1.84534 5
      vertex 15.4502 1.84534 5
    endloop
  endfacet
  facet normal -0 0 1
    outer loop
      vertex 15.2045 3.84668 5
      vertex 15.5 2.45508 5
      vertex 15.5 4.59192 5
    endloop
  endfacet
  facet normal 0 0 1
    outer loop
      vertex 15.2045 3.84668 5
      vertex 15.192 3.12488 5
      vertex 15.5 2.45508 5
    endloop
  endfacet
  facet normal -0 0 1
    outer loop
      vertex 14.3527 3.5625 5
      vertex 15.192 3.12488 5
      vertex 15.2045 3.84668 5
    endloop
  endfacet
  facet normal 0 0 1
    outer loop
      vertex 14.3527 3.5625 5
      vertex 14.3197 3.40393 5
      vertex 15.192 3.12488 5
    endloop
  endfacet
  facet normal 0 0 1
    outer loop
      vertex 14.3527 3.5625 5
      vertex 13.8733 3.33765 5
      vertex 14.3197 3.40393 5
    endloop
  endfacet
  facet normal 0 0 1
    outer loop
      vertex 13.4492 3.90161 5
      vertex 13.8733 3.33765 5
      vertex 14.3527 3.5625 5
    endloop
  endfacet
  facet normal 0 0 1
    outer loop
      vertex 13.4492 3.90161 5
      vertex 13.5166 3.15491 5
      vertex 13.8733 3.33765 5
    endloop
  endfacet
  facet normal 0 0 1
    outer loop
      vertex 13.4492 3.90161 5
      vertex 13.287 2.85718 5
      vertex 13.5166 3.15491 5
    endloop
  endfacet
  facet normal 0 0 1
    outer loop
      vertex 13.2053 4.59192 5
      vertex 13.287 2.85718 5
      vertex 13.4492 3.90161 5
    endloop
  endfacet
  facet normal 0 0 1
    outer loop
      vertex 13.287 2.85718 5
      vertex 13.2053 4.59192 5
      vertex 13.2053 2.47375 5
    endloop
  endfacet
  facet normal -0 0 1
    outer loop
      vertex 15.4359 6.62952 5
      vertex 15.5 4.59192 5
      vertex 15.5 6.94373 5
    endloop
  endfacet
  facet normal 0 0 1
    outer loop
      vertex 15.4359 6.62952 5
      vertex 15.3656 5.12219 5
      vertex 15.5 4.59192 5
    endloop
  endfacet
  facet normal -0 0 1
    outer loop
      vertex 15.2675 6.47241 5
      vertex 15.3656 5.12219 5
      vertex 15.4359 6.62952 5
    endloop
  endfacet
  facet normal 0 0 1
    outer loop
      vertex 15.2675 6.47241 5
      vertex 14.9884 5.49207 5
      vertex 15.3656 5.12219 5
    endloop
  endfacet
  facet normal -0 0 1
    outer loop
      vertex 14.828 6.427 5
      vertex 14.9884 5.49207 5
      vertex 15.2675 6.47241 5
    endloop
  endfacet
  facet normal 0 0 1
    outer loop
      vertex 14.828 6.427 5
      vertex 14.3215 5.61951 5
      vertex 14.9884 5.49207 5
    endloop
  endfacet
  facet normal 0 0 1
    outer loop
      vertex 13.5653 6.15417 5
      vertex 14.828 6.427 5
      vertex 13.5653 6.427 5
    endloop
  endfacet
  facet normal 0 0 1
    outer loop
      vertex 14.828 6.427 5
      vertex 13.5653 6.15417 5
      vertex 14.3215 5.61951 5
    endloop
  endfacet
  facet normal 0 0 1
    outer loop
      vertex 13.5653 6.15417 5
      vertex 13.502 5.33203 5
      vertex 14.3215 5.61951 5
    endloop
  endfacet
  facet normal -0 0 1
    outer loop
      vertex 13.2756 6.15417 5
      vertex 13.502 5.33203 5
      vertex 13.5653 6.15417 5
    endloop
  endfacet
  facet normal 0 0 1
    outer loop
      vertex 13.502 5.33203 5
      vertex 13.2756 6.15417 5
      vertex 13.2053 4.59192 5
    endloop
  endfacet
  facet normal 0 0 1
    outer loop
      vertex 15.5 9.00623 5
      vertex 15.4667 7.22498 5
      vertex 15.5 6.94373 5
    endloop
  endfacet
  facet normal -0 0 1
    outer loop
      vertex 15.4359 8.69202 5
      vertex 15.4667 7.22498 5
      vertex 15.5 9.00623 5
    endloop
  endfacet
  facet normal -0 0 1
    outer loop
      vertex 15.2675 8.53491 5
      vertex 15.4667 7.22498 5
      vertex 15.4359 8.69202 5
    endloop
  endfacet
  facet normal 0 0 1
    outer loop
      vertex 15.2675 8.53491 5
      vertex 15.1382 7.17114 5
      vertex 15.4667 7.22498 5
    endloop
  endfacet
  facet normal 0 0 1
    outer loop
      vertex 15.1525 7.00781 5
      vertex 15.0536 6.81665 5
      vertex 15.1257 6.88074 5
    endloop
  endfacet
  facet normal -0 0 1
    outer loop
      vertex 14.828 8.4895 5
      vertex 15.1382 7.17114 5
      vertex 15.2675 8.53491 5
    endloop
  endfacet
  facet normal 0 0 1
    outer loop
      vertex 13.5653 7.17114 5
      vertex 15.1382 7.17114 5
      vertex 14.828 8.4895 5
    endloop
  endfacet
  facet normal 0 0 1
    outer loop
      vertex 15.1525 7.00781 5
      vertex 14.8489 6.79688 5
      vertex 15.0536 6.81665 5
    endloop
  endfacet
  facet normal 0 0 1
    outer loop
      vertex 13.5653 8.21667 5
      vertex 14.828 8.4895 5
      vertex 13.5653 8.4895 5
    endloop
  endfacet
  facet normal 0 0 1
    outer loop
      vertex 13.5653 7.17114 5
      vertex 14.828 8.4895 5
      vertex 13.5653 8.21667 5
    endloop
  endfacet
  facet normal 0 0 1
    outer loop
      vertex 15.1382 7.17114 5
      vertex 13.5653 7.17114 5
      vertex 14.8489 6.79688 5
    endloop
  endfacet
  facet normal 0 0 1
    outer loop
      vertex 14.8489 6.79688 5
      vertex 13.5653 7.17114 5
      vertex 13.5653 6.79688 5
    endloop
  endfacet
  facet normal 0 0 1
    outer loop
      vertex 15.5 10.7794 5
      vertex 15.4667 9.28748 5
      vertex 15.5 9.00623 5
    endloop
  endfacet
  facet normal -0 0 1
    outer loop
      vertex 15.2045 10.0342 5
      vertex 15.4667 9.28748 5
      vertex 15.5 10.7794 5
    endloop
  endfacet
  facet normal 0 0 1
    outer loop
      vertex 15.2045 10.0342 5
      vertex 15.1382 9.23364 5
      vertex 15.4667 9.28748 5
    endloop
  endfacet
  facet normal 0 0 1
    outer loop
      vertex 15.1525 9.07031 5
      vertex 15.0536 8.87915 5
      vertex 15.1257 8.94324 5
    endloop
  endfacet
  facet normal -0 0 1
    outer loop
      vertex 14.3527 9.75 5
      vertex 15.1382 9.23364 5
      vertex 15.2045 10.0342 5
    endloop
  endfacet
  facet normal 0 -0 1
    outer loop
      vertex 14.8489 8.85938 5
      vertex 15.1382 9.23364 5
      vertex 14.3527 9.75 5
    endloop
  endfacet
  facet normal 0 0 1
    outer loop
      vertex 15.1525 9.07031 5
      vertex 14.8489 8.85938 5
      vertex 15.0536 8.87915 5
    endloop
  endfacet
  facet normal -0 0 1
    outer loop
      vertex 13.5653 9.23364 5
      vertex 14.8489 8.85938 5
      vertex 14.3527 9.75 5
    endloop
  endfacet
  facet normal 0 0 1
    outer loop
      vertex 14.8489 8.85938 5
      vertex 13.5653 9.23364 5
      vertex 13.5653 8.85938 5
    endloop
  endfacet
  facet normal 0 0 1
    outer loop
      vertex 15.5 11.8125 5
      vertex 15.3656 11.3097 5
      vertex 15.5 10.7794 5
    endloop
  endfacet
  facet normal 0 0 1
    outer loop
      vertex 15.5 11.8125 5
      vertex 14.9884 11.6796 5
      vertex 15.3656 11.3097 5
    endloop
  endfacet
  facet normal 0 0 1
    outer loop
      vertex 15.5 11.8125 5
      vertex 14.3215 11.807 5
      vertex 14.9884 11.6796 5
    endloop
  endfacet
  facet normal -0 0 1
    outer loop
      vertex 13.3046 11.8125 5
      vertex 14.3215 11.807 5
      vertex 15.5 11.8125 5
    endloop
  endfacet
  facet normal 0 0 1
    outer loop
      vertex 13.3046 11.8125 5
      vertex 13.502 11.5195 5
      vertex 14.3215 11.807 5
    endloop
  endfacet
  facet normal 0 0 1
    outer loop
      vertex 13.3046 11.8125 5
      vertex 13.2053 10.7794 5
      vertex 13.502 11.5195 5
    endloop
  endfacet
  facet normal 0 0 1
    outer loop
      vertex 13.2053 10.7794 5
      vertex 13.3046 11.8125 5
      vertex 13.2551 12.4874 5
    endloop
  endfacet
  facet normal 0 0 1
    outer loop
      vertex 15.5187 12.657 5
      vertex 15.4813 12.1952 5
      vertex 15.5 11.8125 5
    endloop
  endfacet
  facet normal 0 0 1
    outer loop
      vertex 15.5187 12.657 5
      vertex 14.3798 12.1765 5
      vertex 15.4813 12.1952 5
    endloop
  endfacet
  facet normal -0 0 1
    outer loop
      vertex 14.1296 12.6196 5
      vertex 14.3798 12.1765 5
      vertex 15.5187 12.657 5
    endloop
  endfacet
  facet normal 0 0 1
    outer loop
      vertex 14.1296 12.6196 5
      vertex 13.9209 12.1608 5
      vertex 14.3798 12.1765 5
    endloop
  endfacet
  facet normal 0 0 1
    outer loop
      vertex 14.1296 12.6196 5
      vertex 13.7913 12.3102 5
      vertex 13.9209 12.1608 5
    endloop
  endfacet
  facet normal -0 0 1
    outer loop
      vertex 13.7762 12.5768 5
      vertex 13.7913 12.3102 5
      vertex 14.1296 12.6196 5
    endloop
  endfacet
  facet normal 0 0 1
    outer loop
      vertex 13.7913 12.3102 5
      vertex 13.7762 12.5768 5
      vertex 13.6898 12.4318 5
    endloop
  endfacet
  facet normal 0 0 1
    outer loop
      vertex 16 30 5
      vertex 15.5187 12.657 5
      vertex 16 0 5
    endloop
  endfacet
  facet normal 0 0 1
    outer loop
      vertex 16 30 5
      vertex 15.5 13.8234 5
      vertex 15.5187 12.657 5
    endloop
  endfacet
  facet normal -0 0 1
    outer loop
      vertex 12.25 28.25 5
      vertex 15.5 13.8234 5
      vertex 16 30 5
    endloop
  endfacet
  facet normal 0 0 1
    outer loop
      vertex 15.5 13.8234 5
      vertex 12.25 28.25 5
      vertex 13.993 13.8234 5
    endloop
  endfacet
  facet normal 0 0 1
    outer loop
      vertex 13.993 13.8234 5
      vertex 12.25 28.25 5
      vertex 13.436 13.7047 5
    endloop
  endfacet
  facet normal 0 0 1
    outer loop
      vertex 12.5088 8.85938 5
      vertex 13.2551 12.4874 5
      vertex 13.2551 13.3652 5
    endloop
  endfacet
  facet normal 0 0 1
    outer loop
      vertex 13.2551 12.4874 5
      vertex 12.5088 8.85938 5
      vertex 13.2053 10.7794 5
    endloop
  endfacet
  facet normal 0 0 1
    outer loop
      vertex 13.436 13.7047 5
      vertex 12.25 28.25 5
      vertex 13.2551 13.3652 5
    endloop
  endfacet
  facet normal 0 0 1
    outer loop
      vertex 12.25 4.75 5
      vertex 12.5088 6.79688 5
      vertex 12.5088 8.85938 5
    endloop
  endfacet
  facet normal 0 0 1
    outer loop
      vertex 13.2053 4.59192 5
      vertex 12.25 4.75 5
      vertex 12.4198 1.87207 5
    endloop
  endfacet
  facet normal 0 0 1
    outer loop
      vertex 12.25 4.75 5
      vertex 12.5088 8.85938 5
      vertex 12.25 28.25 5
    endloop
  endfacet
  facet normal 0 0 1
    outer loop
      vertex 13.2551 13.3652 5
      vertex 12.25 28.25 5
      vertex 12.5088 8.85938 5
    endloop
  endfacet
  facet normal 0 0 1
    outer loop
      vertex 6.97081 31.2053 5
      vertex 12.25 28.25 5
      vertex 16 30 5
    endloop
  endfacet
  facet normal 0 0 1
    outer loop
      vertex 12.25 28.25 5
      vertex 6.97081 31.2053 5
      vertex 7.2 30.5 5
    endloop
  endfacet
  facet normal 0 0 1
    outer loop
      vertex 16 30 5
      vertex 6.37082 31.6413 5
      vertex 6.97081 31.2053 5
    endloop
  endfacet
  facet normal 0 0 1
    outer loop
      vertex 5.62918 31.6413 5
      vertex 0 56 5
      vertex 5.02919 31.2053 5
    endloop
  endfacet
  facet normal -0 0 1
    outer loop
      vertex 0 56 5
      vertex 5.62918 31.6413 5
      vertex 3 56 5
    endloop
  endfacet
  facet normal 0 0 1
    outer loop
      vertex 6.37082 31.6413 5
      vertex 3 56 5
      vertex 5.62918 31.6413 5
    endloop
  endfacet
  facet normal 0 0 1
    outer loop
      vertex 3 56 5
      vertex 6.37082 31.6413 5
      vertex 16 30 5
    endloop
  endfacet
  facet normal 0 0 1
    outer loop
      vertex 15.5 10.7794 5
      vertex 15.5187 12.657 5
      vertex 15.5 11.8125 5
    endloop
  endfacet
  facet normal 0 0 1
    outer loop
      vertex 15.5187 12.657 5
      vertex 15.5 10.7794 5
      vertex 16 0 5
    endloop
  endfacet
  facet normal -0 0 1
    outer loop
      vertex 15.5 9.00623 5
      vertex 16 0 5
      vertex 15.5 10.7794 5
    endloop
  endfacet
  facet normal -0 0 1
    outer loop
      vertex 15.5 6.94373 5
      vertex 16 0 5
      vertex 15.5 9.00623 5
    endloop
  endfacet
  facet normal -0 0 1
    outer loop
      vertex 15.5 4.59192 5
      vertex 16 0 5
      vertex 15.5 6.94373 5
    endloop
  endfacet
  facet normal -0 0 1
    outer loop
      vertex 15.5 2.45508 5
      vertex 16 0 5
      vertex 15.5 4.59192 5
    endloop
  endfacet
  facet normal -0 0 1
    outer loop
      vertex 15.4502 1.84534 5
      vertex 16 0 5
      vertex 15.5 2.45508 5
    endloop
  endfacet
  facet normal -0 0 1
    outer loop
      vertex 15.4502 1.5 5
      vertex 16 0 5
      vertex 15.4502 1.84534 5
    endloop
  endfacet
  facet normal -0 0 1
    outer loop
      vertex 12.4198 1.5 5
      vertex 16 0 5
      vertex 15.4502 1.5 5
    endloop
  endfacet
  facet normal -0 0 1
    outer loop
      vertex 7.2 2.5 5
      vertex 12.4198 1.87207 5
      vertex 12.25 4.75 5
    endloop
  endfacet
  facet normal 0 0 1
    outer loop
      vertex 12.4198 1.87207 5
      vertex 7.2 2.5 5
      vertex 12.4198 1.5 5
    endloop
  endfacet
  facet normal -0 0 1
    outer loop
      vertex 6.97081 1.79466 5
      vertex 12.4198 1.5 5
      vertex 7.2 2.5 5
    endloop
  endfacet
  facet normal 0 0 1
    outer loop
      vertex 6.37082 1.35873 5
      vertex 12.4198 1.5 5
      vertex 6.97081 1.79466 5
    endloop
  endfacet
  facet normal 0 0 1
    outer loop
      vertex 12.4198 1.5 5
      vertex 6.37082 1.35873 5
      vertex 16 0 5
    endloop
  endfacet
  facet normal 0 0 1
    outer loop
      vertex 0 0 5
      vertex 6.37082 1.35873 5
      vertex 5.62918 1.35873 5
    endloop
  endfacet
  facet normal 0 0 1
    outer loop
      vertex 0 0 5
      vertex 4.8 2.5 5
      vertex 0 4.75 5
    endloop
  endfacet
  facet normal 0 0 1
    outer loop
      vertex 4.8 2.5 5
      vertex 0 0 5
      vertex 5.02919 1.79466 5
    endloop
  endfacet
  facet normal 0 0 1
    outer loop
      vertex 6.37082 1.35873 5
      vertex 0 0 5
      vertex 16 0 5
    endloop
  endfacet
  facet normal 0 0 1
    outer loop
      vertex 5.02919 1.79466 5
      vertex 0 0 5
      vertex 5.62918 1.35873 5
    endloop
  endfacet
  facet normal -0 0 1
    outer loop
      vertex 15.5 13.4799 5
      vertex 15.5187 12.657 5
      vertex 15.5 13.8234 5
    endloop
  endfacet
  facet normal 0 0 1
    outer loop
      vertex 15.5 13.4799 5
      vertex 15.5 12.9459 5
      vertex 15.5187 12.657 5
    endloop
  endfacet
  facet normal 0 0 1
    outer loop
      vertex 15.5 13.4799 5
      vertex 14.2245 12.9459 5
      vertex 15.5 12.9459 5
    endloop
  endfacet
  facet normal -0 0 1
    outer loop
      vertex 14.1359 13.4612 5
      vertex 14.2245 12.9459 5
      vertex 15.5 13.4799 5
    endloop
  endfacet
  facet normal 0 0 1
    outer loop
      vertex 14.1359 13.4612 5
      vertex 13.8813 13.0118 5
      vertex 14.2245 12.9459 5
    endloop
  endfacet
  facet normal 0 0 1
    outer loop
      vertex 13.833 13.474 5
      vertex 13.8813 13.0118 5
      vertex 14.1359 13.4612 5
    endloop
  endfacet
  facet normal 0 0 1
    outer loop
      vertex 13.833 13.474 5
      vertex 13.7085 13.2345 5
      vertex 13.8813 13.0118 5
    endloop
  endfacet
  facet normal 0 -0 1
    outer loop
      vertex 13.7085 13.2345 5
      vertex 13.833 13.474 5
      vertex 13.6748 13.3854 5
    endloop
  endfacet
  facet normal 0 0 1
    outer loop
      vertex 14.8489 8.85938 5
      vertex 15.1525 9.07031 5
      vertex 15.1382 9.23364 5
    endloop
  endfacet
  facet normal 0 0 1
    outer loop
      vertex 14.8489 6.79688 5
      vertex 15.1525 7.00781 5
      vertex 15.1382 7.17114 5
    endloop
  endfacet
  facet normal -0 0 1
    outer loop
      vertex 13.2756 8.21667 5
      vertex 13.5653 7.17114 5
      vertex 13.5653 8.21667 5
    endloop
  endfacet
  facet normal 0 0 1
    outer loop
      vertex 13.5653 7.17114 5
      vertex 13.2756 8.21667 5
      vertex 13.2756 7.17114 5
    endloop
  endfacet
  facet normal 0 0 1
    outer loop
      vertex 13.4492 10.0891 5
      vertex 13.5653 9.23364 5
      vertex 14.3527 9.75 5
    endloop
  endfacet
  facet normal 0 0 1
    outer loop
      vertex 13.4492 10.0891 5
      vertex 13.2756 9.23364 5
      vertex 13.5653 9.23364 5
    endloop
  endfacet
  facet normal 0 0 1
    outer loop
      vertex 12.5088 8.85938 5
      vertex 13.4492 10.0891 5
      vertex 13.2053 10.7794 5
    endloop
  endfacet
  facet normal 0 0 1
    outer loop
      vertex 13.4492 10.0891 5
      vertex 12.5088 8.85938 5
      vertex 13.2756 9.23364 5
    endloop
  endfacet
  facet normal 0 0 1
    outer loop
      vertex 13.2756 9.23364 5
      vertex 12.5088 8.85938 5
      vertex 13.2756 8.85938 5
    endloop
  endfacet
  facet normal 0 0 1
    outer loop
      vertex 13.2756 6.15417 5
      vertex 12.25 4.75 5
      vertex 13.2053 4.59192 5
    endloop
  endfacet
  facet normal 0 0 1
    outer loop
      vertex 13.2053 2.47375 5
      vertex 12.4198 1.87207 5
      vertex 13.5012 1.87207 5
    endloop
  endfacet
  facet normal 0 0 1
    outer loop
      vertex 13.2053 4.59192 5
      vertex 12.4198 1.87207 5
      vertex 13.2053 2.47375 5
    endloop
  endfacet
  facet normal -0 0 1
    outer loop
      vertex 6.97081 29.7946 5
      vertex 12.25 28.25 5
      vertex 7.2 30.5 5
    endloop
  endfacet
  facet normal -0 0 1
    outer loop
      vertex 6.37082 29.3587 5
      vertex 12.25 28.25 5
      vertex 6.97081 29.7946 5
    endloop
  endfacet
  facet normal -0 0 1
    outer loop
      vertex 5.62918 29.3587 5
      vertex 12.25 28.25 5
      vertex 6.37082 29.3587 5
    endloop
  endfacet
  facet normal 0 0 1
    outer loop
      vertex 0 28.25 5
      vertex 5.02919 31.2053 5
      vertex 0 56 5
    endloop
  endfacet
  facet normal 0 0 1
    outer loop
      vertex 5.62918 29.3587 5
      vertex 0 28.25 5
      vertex 12.25 28.25 5
    endloop
  endfacet
  facet normal 0 0 1
    outer loop
      vertex 5.02919 29.7946 5
      vertex 0 28.25 5
      vertex 5.62918 29.3587 5
    endloop
  endfacet
  facet normal 0 0 1
    outer loop
      vertex 4.8 30.5 5
      vertex 0 28.25 5
      vertex 5.02919 29.7946 5
    endloop
  endfacet
  facet normal 0 0 1
    outer loop
      vertex 5.02919 31.2053 5
      vertex 0 28.25 5
      vertex 4.8 30.5 5
    endloop
  endfacet
  facet normal 0 0 1
    outer loop
      vertex 14.9822 2.84583 5
      vertex 14.9067 1.94861 5
      vertex 15.1938 2.42395 5
    endloop
  endfacet
  facet normal 0 0 1
    outer loop
      vertex 14.3505 3.02344 5
      vertex 14.9067 1.94861 5
      vertex 14.9822 2.84583 5
    endloop
  endfacet
  facet normal 0 0 1
    outer loop
      vertex 14.3505 3.02344 5
      vertex 14.3362 1.84131 5
      vertex 14.9067 1.94861 5
    endloop
  endfacet
  facet normal 0 0 1
    outer loop
      vertex 14.3505 3.02344 5
      vertex 13.7231 2.01892 5
      vertex 14.3362 1.84131 5
    endloop
  endfacet
  facet normal -0 0 1
    outer loop
      vertex 13.7162 2.85315 5
      vertex 13.7231 2.01892 5
      vertex 14.3505 3.02344 5
    endloop
  endfacet
  facet normal 0 0 1
    outer loop
      vertex 13.7231 2.01892 5
      vertex 13.7162 2.85315 5
      vertex 13.5115 2.4408 5
    endloop
  endfacet
  facet normal 0 0 1
    outer loop
      vertex 14.9833 5.05298 5
      vertex 14.984 4.12903 5
      vertex 15.1938 4.59192 5
    endloop
  endfacet
  facet normal 0 0 1
    outer loop
      vertex 14.9833 5.05298 5
      vertex 14.3527 3.94519 5
      vertex 14.984 4.12903 5
    endloop
  endfacet
  facet normal 0 0 1
    outer loop
      vertex 14.3402 5.23682 5
      vertex 14.3527 3.94519 5
      vertex 14.9833 5.05298 5
    endloop
  endfacet
  facet normal -0 0 1
    outer loop
      vertex 13.7231 5.05188 5
      vertex 14.3527 3.94519 5
      vertex 14.3402 5.23682 5
    endloop
  endfacet
  facet normal 0 0 1
    outer loop
      vertex 13.7231 5.05188 5
      vertex 13.722 4.12903 5
      vertex 14.3527 3.94519 5
    endloop
  endfacet
  facet normal 0 -0 1
    outer loop
      vertex 13.722 4.12903 5
      vertex 13.7231 5.05188 5
      vertex 13.5133 4.59192 5
    endloop
  endfacet
  facet normal 0 0 1
    outer loop
      vertex 14.9833 11.2405 5
      vertex 14.984 10.3165 5
      vertex 15.1938 10.7794 5
    endloop
  endfacet
  facet normal 0 0 1
    outer loop
      vertex 14.9833 11.2405 5
      vertex 14.3527 10.1327 5
      vertex 14.984 10.3165 5
    endloop
  endfacet
  facet normal 0 0 1
    outer loop
      vertex 14.3402 11.4243 5
      vertex 14.3527 10.1327 5
      vertex 14.9833 11.2405 5
    endloop
  endfacet
  facet normal -0 0 1
    outer loop
      vertex 13.7231 11.2394 5
      vertex 14.3527 10.1327 5
      vertex 14.3402 11.4243 5
    endloop
  endfacet
  facet normal 0 0 1
    outer loop
      vertex 13.7231 11.2394 5
      vertex 13.722 10.3165 5
      vertex 14.3527 10.1327 5
    endloop
  endfacet
  facet normal 0 -0 1
    outer loop
      vertex 13.722 10.3165 5
      vertex 13.7231 11.2394 5
      vertex 13.5133 10.7794 5
    endloop
  endfacet
  facet normal 0.894427 0.447214 0
    outer loop
      vertex 3 56 5
      vertex 1 60 0
      vertex 1 60 1
    endloop
  endfacet
  facet normal 0.894427 0.447214 -0
    outer loop
      vertex 16 30 0
      vertex 3 56 5
      vertex 16 30 5
    endloop
  endfacet
  facet normal 0.894427 0.447214 0
    outer loop
      vertex 3 56 5
      vertex 16 30 0
      vertex 1 60 0
    endloop
  endfacet
  facet normal 0 1 -0
    outer loop
      vertex 1 60 0
      vertex 0 60 1
      vertex 1 60 1
    endloop
  endfacet
  facet normal 0 1 0
    outer loop
      vertex 0 60 1
      vertex 1 60 0
      vertex 0 60 0
    endloop
  endfacet
  facet normal -1 0 0
    outer loop
      vertex 0 60 0
      vertex 0 56 5
      vertex 0 60 1
    endloop
  endfacet
  facet normal -1 0 0
    outer loop
      vertex 0 28.25 0
      vertex 0 56 5
      vertex 0 60 0
    endloop
  endfacet
  facet normal -1 -0 0
    outer loop
      vertex 0 56 5
      vertex 0 28.25 0
      vertex 0 28.25 5
    endloop
  endfacet
  facet normal 0 -1 0
    outer loop
      vertex 0 28.25 0
      vertex 12.25 28.25 5
      vertex 0 28.25 5
    endloop
  endfacet
  facet normal 0 -1 -0
    outer loop
      vertex 12.25 28.25 5
      vertex 0 28.25 0
      vertex 12.25 28.25 0
    endloop
  endfacet
  facet normal -1 0 0
    outer loop
      vertex 12.25 4.75 0
      vertex 12.25 28.25 5
      vertex 12.25 28.25 0
    endloop
  endfacet
  facet normal -1 -0 0
    outer loop
      vertex 12.25 28.25 5
      vertex 12.25 4.75 0
      vertex 12.25 4.75 5
    endloop
  endfacet
  facet normal 0 1 -0
    outer loop
      vertex 12.25 4.75 0
      vertex 0 4.75 5
      vertex 12.25 4.75 5
    endloop
  endfacet
  facet normal 0 1 0
    outer loop
      vertex 0 4.75 5
      vertex 12.25 4.75 0
      vertex 0 4.75 0
    endloop
  endfacet
  facet normal -1 0 0
    outer loop
      vertex 0 0 0
      vertex 0 4.75 5
      vertex 0 4.75 0
    endloop
  endfacet
  facet normal -1 -0 0
    outer loop
      vertex 0 4.75 5
      vertex 0 0 0
      vertex 0 0 5
    endloop
  endfacet
  facet normal 0 -1 0
    outer loop
      vertex 0 0 0
      vertex 16 0 5
      vertex 0 0 5
    endloop
  endfacet
  facet normal 0 -1 -0
    outer loop
      vertex 16 0 5
      vertex 0 0 0
      vertex 16 0 0
    endloop
  endfacet
  facet normal 1 -0 0
    outer loop
      vertex 16 0 5
      vertex 16 30 0
      vertex 16 30 5
    endloop
  endfacet
  facet normal 1 0 0
    outer loop
      vertex 16 30 0
      vertex 16 0 5
      vertex 16 0 0
    endloop
  endfacet
  facet normal 0.587794 0.809011 -0
    outer loop
      vertex 5.62918 29.3587 0
      vertex 5.02919 29.7946 5
      vertex 5.62918 29.3587 5
    endloop
  endfacet
  facet normal 0.587794 0.809011 0
    outer loop
      vertex 5.02919 29.7946 5
      vertex 5.62918 29.3587 0
      vertex 5.02919 29.7946 0
    endloop
  endfacet
  facet normal 0.951055 0.309022 0
    outer loop
      vertex 5.02919 29.7946 5
      vertex 4.8 30.5 0
      vertex 4.8 30.5 5
    endloop
  endfacet
  facet normal 0.951055 0.309022 0
    outer loop
      vertex 4.8 30.5 0
      vertex 5.02919 29.7946 5
      vertex 5.02919 29.7946 0
    endloop
  endfacet
  facet normal 0.951053 -0.309028 0
    outer loop
      vertex 4.8 30.5 5
      vertex 5.02919 31.2053 0
      vertex 5.02919 31.2053 5
    endloop
  endfacet
  facet normal 0.951053 -0.309028 0
    outer loop
      vertex 5.02919 31.2053 0
      vertex 4.8 30.5 5
      vertex 4.8 30.5 0
    endloop
  endfacet
  facet normal 0.587794 -0.809011 0
    outer loop
      vertex 5.02919 31.2053 0
      vertex 5.62918 31.6413 5
      vertex 5.02919 31.2053 5
    endloop
  endfacet
  facet normal 0.587794 -0.809011 0
    outer loop
      vertex 5.62918 31.6413 5
      vertex 5.02919 31.2053 0
      vertex 5.62918 31.6413 0
    endloop
  endfacet
  facet normal 0 -1 0
    outer loop
      vertex 5.62918 31.6413 0
      vertex 6.37082 31.6413 5
      vertex 5.62918 31.6413 5
    endloop
  endfacet
  facet normal 0 -1 -0
    outer loop
      vertex 6.37082 31.6413 5
      vertex 5.62918 31.6413 0
      vertex 6.37082 31.6413 0
    endloop
  endfacet
  facet normal -0.587794 -0.809011 0
    outer loop
      vertex 6.37082 31.6413 0
      vertex 6.97081 31.2053 5
      vertex 6.37082 31.6413 5
    endloop
  endfacet
  facet normal -0.587794 -0.809011 -0
    outer loop
      vertex 6.97081 31.2053 5
      vertex 6.37082 31.6413 0
      vertex 6.97081 31.2053 0
    endloop
  endfacet
  facet normal -0.951053 -0.309028 0
    outer loop
      vertex 7.2 30.5 0
      vertex 6.97081 31.2053 5
      vertex 6.97081 31.2053 0
    endloop
  endfacet
  facet normal -0.951053 -0.309028 0
    outer loop
      vertex 6.97081 31.2053 5
      vertex 7.2 30.5 0
      vertex 7.2 30.5 5
    endloop
  endfacet
  facet normal -0.951055 0.309022 0
    outer loop
      vertex 6.97081 29.7946 0
      vertex 7.2 30.5 5
      vertex 7.2 30.5 0
    endloop
  endfacet
  facet normal -0.951055 0.309022 0
    outer loop
      vertex 7.2 30.5 5
      vertex 6.97081 29.7946 0
      vertex 6.97081 29.7946 5
    endloop
  endfacet
  facet normal -0.587794 0.809011 0
    outer loop
      vertex 6.97081 29.7946 0
      vertex 6.37082 29.3587 5
      vertex 6.97081 29.7946 5
    endloop
  endfacet
  facet normal -0.587794 0.809011 0
    outer loop
      vertex 6.37082 29.3587 5
      vertex 6.97081 29.7946 0
      vertex 6.37082 29.3587 0
    endloop
  endfacet
  facet normal 0 1 -0
    outer loop
      vertex 6.37082 29.3587 0
      vertex 5.62918 29.3587 5
      vertex 6.37082 29.3587 5
    endloop
  endfacet
  facet normal 0 1 0
    outer loop
      vertex 5.62918 29.3587 5
      vertex 6.37082 29.3587 0
      vertex 5.62918 29.3587 0
    endloop
  endfacet
  facet normal 0.587794 0.809011 -0
    outer loop
      vertex 5.62918 1.35873 0
      vertex 5.02919 1.79466 5
      vertex 5.62918 1.35873 5
    endloop
  endfacet
  facet normal 0.587794 0.809011 0
    outer loop
      vertex 5.02919 1.79466 5
      vertex 5.62918 1.35873 0
      vertex 5.02919 1.79466 0
    endloop
  endfacet
  facet normal 0.951053 0.309028 0
    outer loop
      vertex 5.02919 1.79466 5
      vertex 4.8 2.5 0
      vertex 4.8 2.5 5
    endloop
  endfacet
  facet normal 0.951053 0.309028 0
    outer loop
      vertex 4.8 2.5 0
      vertex 5.02919 1.79466 5
      vertex 5.02919 1.79466 0
    endloop
  endfacet
  facet normal 0.951053 -0.309028 0
    outer loop
      vertex 4.8 2.5 5
      vertex 5.02919 3.20534 0
      vertex 5.02919 3.20534 5
    endloop
  endfacet
  facet normal 0.951053 -0.309028 0
    outer loop
      vertex 5.02919 3.20534 0
      vertex 4.8 2.5 5
      vertex 4.8 2.5 0
    endloop
  endfacet
  facet normal 0.587794 -0.809011 0
    outer loop
      vertex 5.02919 3.20534 0
      vertex 5.62918 3.64127 5
      vertex 5.02919 3.20534 5
    endloop
  endfacet
  facet normal 0.587794 -0.809011 0
    outer loop
      vertex 5.62918 3.64127 5
      vertex 5.02919 3.20534 0
      vertex 5.62918 3.64127 0
    endloop
  endfacet
  facet normal 0 -1 0
    outer loop
      vertex 5.62918 3.64127 0
      vertex 6.37082 3.64127 5
      vertex 5.62918 3.64127 5
    endloop
  endfacet
  facet normal 0 -1 -0
    outer loop
      vertex 6.37082 3.64127 5
      vertex 5.62918 3.64127 0
      vertex 6.37082 3.64127 0
    endloop
  endfacet
  facet normal -0.587794 -0.809011 0
    outer loop
      vertex 6.37082 3.64127 0
      vertex 6.97081 3.20534 5
      vertex 6.37082 3.64127 5
    endloop
  endfacet
  facet normal -0.587794 -0.809011 -0
    outer loop
      vertex 6.97081 3.20534 5
      vertex 6.37082 3.64127 0
      vertex 6.97081 3.20534 0
    endloop
  endfacet
  facet normal -0.951053 -0.309028 0
    outer loop
      vertex 7.2 2.5 0
      vertex 6.97081 3.20534 5
      vertex 6.97081 3.20534 0
    endloop
  endfacet
  facet normal -0.951053 -0.309028 0
    outer loop
      vertex 6.97081 3.20534 5
      vertex 7.2 2.5 0
      vertex 7.2 2.5 5
    endloop
  endfacet
  facet normal -0.951053 0.309028 0
    outer loop
      vertex 6.97081 1.79466 0
      vertex 7.2 2.5 5
      vertex 7.2 2.5 0
    endloop
  endfacet
  facet normal -0.951053 0.309028 0
    outer loop
      vertex 7.2 2.5 5
      vertex 6.97081 1.79466 0
      vertex 6.97081 1.79466 5
    endloop
  endfacet
  facet normal -0.587794 0.809011 0
    outer loop
      vertex 6.97081 1.79466 0
      vertex 6.37082 1.35873 5
      vertex 6.97081 1.79466 5
    endloop
  endfacet
  facet normal -0.587794 0.809011 0
    outer loop
      vertex 6.37082 1.35873 5
      vertex 6.97081 1.79466 0
      vertex 6.37082 1.35873 0
    endloop
  endfacet
  facet normal 0 1 -0
    outer loop
      vertex 6.37082 1.35873 0
      vertex 5.62918 1.35873 5
      vertex 6.37082 1.35873 5
    endloop
  endfacet
  facet normal 0 1 0
    outer loop
      vertex 5.62918 1.35873 5
      vertex 6.37082 1.35873 0
      vertex 5.62918 1.35873 0
    endloop
  endfacet
  facet normal 0 0.707107 0.707107
    outer loop
      vertex 1 60 1
      vertex 0 56 5
      vertex 3 56 5
    endloop
  endfacet
  facet normal 0 0.707107 0.707107
    outer loop
      vertex 0 56 5
      vertex 1 60 1
      vertex 0 60 1
    endloop
  endfacet
  facet normal -0 0 1
    outer loop
      vertex 14.9822 2.84583 4.5
      vertex 15.5 2.45508 4.5
      vertex 15.192 3.12488 4.5
    endloop
  endfacet
  facet normal 0 0 1
    outer loop
      vertex 15.5 2.45508 4.5
      vertex 14.9822 2.84583 4.5
      vertex 15.1938 2.42395 4.5
    endloop
  endfacet
  facet normal 0 0 1
    outer loop
      vertex 15.192 3.12488 4.5
      vertex 14.3505 3.02344 4.5
      vertex 14.9822 2.84583 4.5
    endloop
  endfacet
  facet normal 0 0 1
    outer loop
      vertex 14.3197 3.40393 4.5
      vertex 14.3505 3.02344 4.5
      vertex 15.192 3.12488 4.5
    endloop
  endfacet
  facet normal -0 0 1
    outer loop
      vertex 13.8733 3.33765 4.5
      vertex 14.3505 3.02344 4.5
      vertex 14.3197 3.40393 4.5
    endloop
  endfacet
  facet normal 0 0 1
    outer loop
      vertex 13.8733 3.33765 4.5
      vertex 13.7162 2.85315 4.5
      vertex 14.3505 3.02344 4.5
    endloop
  endfacet
  facet normal -0 0 1
    outer loop
      vertex 13.5166 3.15491 4.5
      vertex 13.7162 2.85315 4.5
      vertex 13.8733 3.33765 4.5
    endloop
  endfacet
  facet normal -0 0 1
    outer loop
      vertex 13.287 2.85718 4.5
      vertex 13.7162 2.85315 4.5
      vertex 13.5166 3.15491 4.5
    endloop
  endfacet
  facet normal 0 0 1
    outer loop
      vertex 13.7162 2.85315 4.5
      vertex 13.287 2.85718 4.5
      vertex 13.5115 2.4408 4.5
    endloop
  endfacet
  facet normal -0 0 1
    outer loop
      vertex 13.2053 2.47375 4.5
      vertex 13.5115 2.4408 4.5
      vertex 13.287 2.85718 4.5
    endloop
  endfacet
  facet normal 0 0 1
    outer loop
      vertex 13.5115 2.4408 4.5
      vertex 13.2053 2.47375 4.5
      vertex 13.5012 1.87207 4.5
    endloop
  endfacet
  facet normal -0 0 1
    outer loop
      vertex 15.1938 2.42395 4.5
      vertex 15.1755 1.84534 4.5
      vertex 15.5 2.45508 4.5
    endloop
  endfacet
  facet normal 0 -0 1
    outer loop
      vertex 15.1755 1.84534 4.5
      vertex 15.1938 2.42395 4.5
      vertex 14.9067 1.94861 4.5
    endloop
  endfacet
  facet normal -0 0 1
    outer loop
      vertex 15.1755 1.84534 4.5
      vertex 15.4502 1.5 4.5
      vertex 15.4502 1.84534 4.5
    endloop
  endfacet
  facet normal 0 0 1
    outer loop
      vertex 14.9067 1.94861 4.5
      vertex 15.4502 1.5 4.5
      vertex 15.1755 1.84534 4.5
    endloop
  endfacet
  facet normal -0 0 1
    outer loop
      vertex 14.3362 1.84131 4.5
      vertex 15.4502 1.5 4.5
      vertex 14.9067 1.94861 4.5
    endloop
  endfacet
  facet normal -0 0 1
    outer loop
      vertex 13.5012 1.87207 4.5
      vertex 14.3362 1.84131 4.5
      vertex 13.7231 2.01892 4.5
    endloop
  endfacet
  facet normal 0 0 1
    outer loop
      vertex 13.5012 1.87207 4.5
      vertex 13.7231 2.01892 4.5
      vertex 13.5115 2.4408 4.5
    endloop
  endfacet
  facet normal 0 0 1
    outer loop
      vertex 12.4198 1.5 4.5
      vertex 14.3362 1.84131 4.5
      vertex 13.5012 1.87207 4.5
    endloop
  endfacet
  facet normal 0 0 1
    outer loop
      vertex 12.4198 1.5 4.5
      vertex 13.5012 1.87207 4.5
      vertex 12.4198 1.87207 4.5
    endloop
  endfacet
  facet normal 0 0 1
    outer loop
      vertex 14.3362 1.84131 4.5
      vertex 12.4198 1.5 4.5
      vertex 15.4502 1.5 4.5
    endloop
  endfacet
  facet normal -0.304689 -0.952452 0
    outer loop
      vertex 14.3197 3.40393 4.5
      vertex 15.192 3.12488 5
      vertex 14.3197 3.40393 5
    endloop
  endfacet
  facet normal -0.304689 -0.952452 -0
    outer loop
      vertex 15.192 3.12488 5
      vertex 14.3197 3.40393 4.5
      vertex 15.192 3.12488 4.5
    endloop
  endfacet
  facet normal 0.146872 -0.989155 0
    outer loop
      vertex 13.8733 3.33765 4.5
      vertex 14.3197 3.40393 5
      vertex 13.8733 3.33765 5
    endloop
  endfacet
  facet normal 0.146872 -0.989155 0
    outer loop
      vertex 14.3197 3.40393 5
      vertex 13.8733 3.33765 4.5
      vertex 14.3197 3.40393 4.5
    endloop
  endfacet
  facet normal 0.455964 -0.889998 0
    outer loop
      vertex 13.5166 3.15491 4.5
      vertex 13.8733 3.33765 5
      vertex 13.5166 3.15491 5
    endloop
  endfacet
  facet normal 0.455964 -0.889998 0
    outer loop
      vertex 13.8733 3.33765 5
      vertex 13.5166 3.15491 4.5
      vertex 13.8733 3.33765 4.5
    endloop
  endfacet
  facet normal 0.791863 -0.610699 0
    outer loop
      vertex 13.287 2.85718 5
      vertex 13.5166 3.15491 4.5
      vertex 13.5166 3.15491 5
    endloop
  endfacet
  facet normal 0.791863 -0.610699 0
    outer loop
      vertex 13.5166 3.15491 4.5
      vertex 13.287 2.85718 5
      vertex 13.287 2.85718 4.5
    endloop
  endfacet
  facet normal 0.978061 -0.208317 0
    outer loop
      vertex 13.2053 2.47375 5
      vertex 13.287 2.85718 4.5
      vertex 13.287 2.85718 5
    endloop
  endfacet
  facet normal 0.978061 -0.208317 0
    outer loop
      vertex 13.287 2.85718 4.5
      vertex 13.2053 2.47375 5
      vertex 13.2053 2.47375 4.5
    endloop
  endfacet
  facet normal 0.897357 0.441305 0
    outer loop
      vertex 13.5012 1.87207 5
      vertex 13.2053 2.47375 4.5
      vertex 13.2053 2.47375 5
    endloop
  endfacet
  facet normal 0.897357 0.441305 0
    outer loop
      vertex 13.2053 2.47375 4.5
      vertex 13.5012 1.87207 5
      vertex 13.5012 1.87207 4.5
    endloop
  endfacet
  facet normal 0 -1 0
    outer loop
      vertex 12.4198 1.87207 4.5
      vertex 13.5012 1.87207 5
      vertex 12.4198 1.87207 5
    endloop
  endfacet
  facet normal 0 -1 -0
    outer loop
      vertex 13.5012 1.87207 5
      vertex 12.4198 1.87207 4.5
      vertex 13.5012 1.87207 4.5
    endloop
  endfacet
  facet normal 1 -0 0
    outer loop
      vertex 12.4198 1.5 5
      vertex 12.4198 1.87207 4.5
      vertex 12.4198 1.87207 5
    endloop
  endfacet
  facet normal 1 0 0
    outer loop
      vertex 12.4198 1.87207 4.5
      vertex 12.4198 1.5 5
      vertex 12.4198 1.5 4.5
    endloop
  endfacet
  facet normal 0 1 -0
    outer loop
      vertex 15.4502 1.5 4.5
      vertex 12.4198 1.5 5
      vertex 15.4502 1.5 5
    endloop
  endfacet
  facet normal 0 1 0
    outer loop
      vertex 12.4198 1.5 5
      vertex 15.4502 1.5 4.5
      vertex 12.4198 1.5 4.5
    endloop
  endfacet
  facet normal -1 0 0
    outer loop
      vertex 15.4502 1.5 4.5
      vertex 15.4502 1.84534 5
      vertex 15.4502 1.84534 4.5
    endloop
  endfacet
  facet normal -1 -0 0
    outer loop
      vertex 15.4502 1.84534 5
      vertex 15.4502 1.5 4.5
      vertex 15.4502 1.5 5
    endloop
  endfacet
  facet normal 0 -1 0
    outer loop
      vertex 15.1755 1.84534 4.5
      vertex 15.4502 1.84534 5
      vertex 15.1755 1.84534 5
    endloop
  endfacet
  facet normal 0 -1 -0
    outer loop
      vertex 15.4502 1.84534 5
      vertex 15.1755 1.84534 4.5
      vertex 15.4502 1.84534 4.5
    endloop
  endfacet
  facet normal -0.882793 0.469762 0
    outer loop
      vertex 15.1755 1.84534 4.5
      vertex 15.5 2.45508 5
      vertex 15.5 2.45508 4.5
    endloop
  endfacet
  facet normal -0.882793 0.469762 0
    outer loop
      vertex 15.5 2.45508 5
      vertex 15.1755 1.84534 4.5
      vertex 15.1755 1.84534 5
    endloop
  endfacet
  facet normal -0.908555 -0.417766 0
    outer loop
      vertex 15.5 2.45508 4.5
      vertex 15.192 3.12488 5
      vertex 15.192 3.12488 4.5
    endloop
  endfacet
  facet normal -0.908555 -0.417766 0
    outer loop
      vertex 15.192 3.12488 5
      vertex 15.5 2.45508 4.5
      vertex 15.5 2.45508 5
    endloop
  endfacet
  facet normal 0.184822 -0.982772 0
    outer loop
      vertex 14.3362 1.84131 4.5
      vertex 14.9067 1.94861 5
      vertex 14.3362 1.84131 5
    endloop
  endfacet
  facet normal 0.184822 -0.982772 0
    outer loop
      vertex 14.9067 1.94861 5
      vertex 14.3362 1.84131 4.5
      vertex 14.9067 1.94861 4.5
    endloop
  endfacet
  facet normal -0.278281 -0.9605 0
    outer loop
      vertex 13.7231 2.01892 4.5
      vertex 14.3362 1.84131 5
      vertex 13.7231 2.01892 5
    endloop
  endfacet
  facet normal -0.278281 -0.9605 -0
    outer loop
      vertex 14.3362 1.84131 5
      vertex 13.7231 2.01892 4.5
      vertex 14.3362 1.84131 4.5
    endloop
  endfacet
  facet normal -0.893806 -0.448455 0
    outer loop
      vertex 13.7231 2.01892 4.5
      vertex 13.5115 2.4408 5
      vertex 13.5115 2.4408 4.5
    endloop
  endfacet
  facet normal -0.893806 -0.448455 0
    outer loop
      vertex 13.5115 2.4408 5
      vertex 13.7231 2.01892 4.5
      vertex 13.7231 2.01892 5
    endloop
  endfacet
  facet normal -0.895696 0.444666 0
    outer loop
      vertex 13.5115 2.4408 4.5
      vertex 13.7162 2.85315 5
      vertex 13.7162 2.85315 4.5
    endloop
  endfacet
  facet normal -0.895696 0.444666 0
    outer loop
      vertex 13.7162 2.85315 5
      vertex 13.5115 2.4408 4.5
      vertex 13.5115 2.4408 5
    endloop
  endfacet
  facet normal -0.259293 0.965799 0
    outer loop
      vertex 14.3505 3.02344 4.5
      vertex 13.7162 2.85315 5
      vertex 14.3505 3.02344 5
    endloop
  endfacet
  facet normal -0.259293 0.965799 0
    outer loop
      vertex 13.7162 2.85315 5
      vertex 14.3505 3.02344 4.5
      vertex 13.7162 2.85315 4.5
    endloop
  endfacet
  facet normal 0.270665 0.962674 -0
    outer loop
      vertex 14.9822 2.84583 4.5
      vertex 14.3505 3.02344 5
      vertex 14.9822 2.84583 5
    endloop
  endfacet
  facet normal 0.270665 0.962674 0
    outer loop
      vertex 14.3505 3.02344 5
      vertex 14.9822 2.84583 4.5
      vertex 14.3505 3.02344 4.5
    endloop
  endfacet
  facet normal 0.893806 0.448455 0
    outer loop
      vertex 15.1938 2.42395 5
      vertex 14.9822 2.84583 4.5
      vertex 14.9822 2.84583 5
    endloop
  endfacet
  facet normal 0.893806 0.448455 0
    outer loop
      vertex 14.9822 2.84583 4.5
      vertex 15.1938 2.42395 5
      vertex 15.1938 2.42395 4.5
    endloop
  endfacet
  facet normal 0.855976 -0.517015 0
    outer loop
      vertex 14.9067 1.94861 5
      vertex 15.1938 2.42395 4.5
      vertex 15.1938 2.42395 5
    endloop
  endfacet
  facet normal 0.855976 -0.517015 0
    outer loop
      vertex 15.1938 2.42395 4.5
      vertex 14.9067 1.94861 5
      vertex 14.9067 1.94861 4.5
    endloop
  endfacet
  facet normal 0 0 1
    outer loop
      vertex 15.1938 4.59192 4.5
      vertex 15.5 4.59192 4.5
      vertex 15.3656 5.12219 4.5
    endloop
  endfacet
  facet normal 0 0 1
    outer loop
      vertex 14.984 4.12903 4.5
      vertex 15.5 4.59192 4.5
      vertex 15.1938 4.59192 4.5
    endloop
  endfacet
  facet normal 0 0 1
    outer loop
      vertex 14.9833 5.05298 4.5
      vertex 15.3656 5.12219 4.5
      vertex 14.9884 5.49207 4.5
    endloop
  endfacet
  facet normal 0 0 1
    outer loop
      vertex 15.3656 5.12219 4.5
      vertex 14.9833 5.05298 4.5
      vertex 15.1938 4.59192 4.5
    endloop
  endfacet
  facet normal 0 0 1
    outer loop
      vertex 14.9884 5.49207 4.5
      vertex 14.3402 5.23682 4.5
      vertex 14.9833 5.05298 4.5
    endloop
  endfacet
  facet normal 0 0 1
    outer loop
      vertex 14.3215 5.61951 4.5
      vertex 14.3402 5.23682 4.5
      vertex 14.9884 5.49207 4.5
    endloop
  endfacet
  facet normal 0 0 1
    outer loop
      vertex 14.3215 5.61951 4.5
      vertex 13.7231 5.05188 4.5
      vertex 14.3402 5.23682 4.5
    endloop
  endfacet
  facet normal 0 0 1
    outer loop
      vertex 13.2053 4.59192 4.5
      vertex 13.7231 5.05188 4.5
      vertex 13.502 5.33203 4.5
    endloop
  endfacet
  facet normal -0 0 1
    outer loop
      vertex 13.502 5.33203 4.5
      vertex 13.7231 5.05188 4.5
      vertex 14.3215 5.61951 4.5
    endloop
  endfacet
  facet normal 0 0 1
    outer loop
      vertex 15.5 4.59192 4.5
      vertex 14.984 4.12903 4.5
      vertex 15.2045 3.84668 4.5
    endloop
  endfacet
  facet normal 0 0 1
    outer loop
      vertex 14.3527 3.5625 4.5
      vertex 14.984 4.12903 4.5
      vertex 14.3527 3.94519 4.5
    endloop
  endfacet
  facet normal 0 0 1
    outer loop
      vertex 14.984 4.12903 4.5
      vertex 14.3527 3.5625 4.5
      vertex 15.2045 3.84668 4.5
    endloop
  endfacet
  facet normal 0 0 1
    outer loop
      vertex 13.722 4.12903 4.5
      vertex 14.3527 3.5625 4.5
      vertex 14.3527 3.94519 4.5
    endloop
  endfacet
  facet normal 0 0 1
    outer loop
      vertex 13.722 4.12903 4.5
      vertex 13.4492 3.90161 4.5
      vertex 14.3527 3.5625 4.5
    endloop
  endfacet
  facet normal 0 0 1
    outer loop
      vertex 13.5133 4.59192 4.5
      vertex 13.4492 3.90161 4.5
      vertex 13.722 4.12903 4.5
    endloop
  endfacet
  facet normal 0 0 1
    outer loop
      vertex 13.7231 5.05188 4.5
      vertex 13.2053 4.59192 4.5
      vertex 13.5133 4.59192 4.5
    endloop
  endfacet
  facet normal 0 0 1
    outer loop
      vertex 13.5133 4.59192 4.5
      vertex 13.2053 4.59192 4.5
      vertex 13.4492 3.90161 4.5
    endloop
  endfacet
  facet normal -0.700141 -0.714005 0
    outer loop
      vertex 14.9884 5.49207 4.5
      vertex 15.3656 5.12219 5
      vertex 14.9884 5.49207 5
    endloop
  endfacet
  facet normal -0.700141 -0.714005 -0
    outer loop
      vertex 15.3656 5.12219 5
      vertex 14.9884 5.49207 4.5
      vertex 15.3656 5.12219 4.5
    endloop
  endfacet
  facet normal -0.187707 -0.982225 0
    outer loop
      vertex 14.3215 5.61951 4.5
      vertex 14.9884 5.49207 5
      vertex 14.3215 5.61951 5
    endloop
  endfacet
  facet normal -0.187707 -0.982225 -0
    outer loop
      vertex 14.9884 5.49207 5
      vertex 14.3215 5.61951 4.5
      vertex 14.9884 5.49207 4.5
    endloop
  endfacet
  facet normal 0.330989 -0.943635 0
    outer loop
      vertex 13.502 5.33203 4.5
      vertex 14.3215 5.61951 5
      vertex 13.502 5.33203 5
    endloop
  endfacet
  facet normal 0.330989 -0.943635 0
    outer loop
      vertex 14.3215 5.61951 5
      vertex 13.502 5.33203 4.5
      vertex 14.3215 5.61951 4.5
    endloop
  endfacet
  facet normal 0.928223 -0.372024 0
    outer loop
      vertex 13.2053 4.59192 5
      vertex 13.502 5.33203 4.5
      vertex 13.502 5.33203 5
    endloop
  endfacet
  facet normal 0.928223 -0.372024 0
    outer loop
      vertex 13.502 5.33203 4.5
      vertex 13.2053 4.59192 5
      vertex 13.2053 4.59192 4.5
    endloop
  endfacet
  facet normal 0.942879 0.333134 0
    outer loop
      vertex 13.4492 3.90161 5
      vertex 13.2053 4.59192 4.5
      vertex 13.2053 4.59192 5
    endloop
  endfacet
  facet normal 0.942879 0.333134 0
    outer loop
      vertex 13.2053 4.59192 4.5
      vertex 13.4492 3.90161 5
      vertex 13.4492 3.90161 4.5
    endloop
  endfacet
  facet normal 0.351415 0.93622 -0
    outer loop
      vertex 14.3527 3.5625 4.5
      vertex 13.4492 3.90161 5
      vertex 14.3527 3.5625 5
    endloop
  endfacet
  facet normal 0.351415 0.93622 0
    outer loop
      vertex 13.4492 3.90161 5
      vertex 14.3527 3.5625 4.5
      vertex 13.4492 3.90161 4.5
    endloop
  endfacet
  facet normal -0.316472 0.948602 0
    outer loop
      vertex 15.2045 3.84668 4.5
      vertex 14.3527 3.5625 5
      vertex 15.2045 3.84668 5
    endloop
  endfacet
  facet normal -0.316472 0.948602 0
    outer loop
      vertex 14.3527 3.5625 5
      vertex 15.2045 3.84668 4.5
      vertex 14.3527 3.5625 4.5
    endloop
  endfacet
  facet normal -0.929575 0.368633 0
    outer loop
      vertex 15.2045 3.84668 4.5
      vertex 15.5 4.59192 5
      vertex 15.5 4.59192 4.5
    endloop
  endfacet
  facet normal -0.929575 0.368633 0
    outer loop
      vertex 15.5 4.59192 5
      vertex 15.2045 3.84668 4.5
      vertex 15.2045 3.84668 5
    endloop
  endfacet
  facet normal -0.96935 -0.245685 0
    outer loop
      vertex 15.5 4.59192 4.5
      vertex 15.3656 5.12219 5
      vertex 15.3656 5.12219 4.5
    endloop
  endfacet
  facet normal -0.96935 -0.245685 0
    outer loop
      vertex 15.3656 5.12219 5
      vertex 15.5 4.59192 4.5
      vertex 15.5 4.59192 5
    endloop
  endfacet
  facet normal 0.279572 -0.960125 0
    outer loop
      vertex 14.3527 3.94519 4.5
      vertex 14.984 4.12903 5
      vertex 14.3527 3.94519 5
    endloop
  endfacet
  facet normal 0.279572 -0.960125 0
    outer loop
      vertex 14.984 4.12903 5
      vertex 14.3527 3.94519 4.5
      vertex 14.984 4.12903 4.5
    endloop
  endfacet
  facet normal -0.279872 -0.960037 0
    outer loop
      vertex 13.722 4.12903 4.5
      vertex 14.3527 3.94519 5
      vertex 13.722 4.12903 5
    endloop
  endfacet
  facet normal -0.279872 -0.960037 -0
    outer loop
      vertex 14.3527 3.94519 5
      vertex 13.722 4.12903 4.5
      vertex 14.3527 3.94519 4.5
    endloop
  endfacet
  facet normal -0.911597 -0.411084 0
    outer loop
      vertex 13.722 4.12903 4.5
      vertex 13.5133 4.59192 5
      vertex 13.5133 4.59192 4.5
    endloop
  endfacet
  facet normal -0.911597 -0.411084 0
    outer loop
      vertex 13.5133 4.59192 5
      vertex 13.722 4.12903 4.5
      vertex 13.722 4.12903 5
    endloop
  endfacet
  facet normal -0.909795 0.415058 0
    outer loop
      vertex 13.5133 4.59192 4.5
      vertex 13.7231 5.05188 5
      vertex 13.7231 5.05188 4.5
    endloop
  endfacet
  facet normal -0.909795 0.415058 0
    outer loop
      vertex 13.7231 5.05188 5
      vertex 13.5133 4.59192 4.5
      vertex 13.5133 4.59192 5
    endloop
  endfacet
  facet normal -0.287087 0.957904 0
    outer loop
      vertex 14.3402 5.23682 4.5
      vertex 13.7231 5.05188 5
      vertex 14.3402 5.23682 5
    endloop
  endfacet
  facet normal -0.287087 0.957904 0
    outer loop
      vertex 13.7231 5.05188 5
      vertex 14.3402 5.23682 4.5
      vertex 13.7231 5.05188 4.5
    endloop
  endfacet
  facet normal 0.274866 0.961483 -0
    outer loop
      vertex 14.9833 5.05298 4.5
      vertex 14.3402 5.23682 5
      vertex 14.9833 5.05298 5
    endloop
  endfacet
  facet normal 0.274866 0.961483 0
    outer loop
      vertex 14.3402 5.23682 5
      vertex 14.9833 5.05298 4.5
      vertex 14.3402 5.23682 4.5
    endloop
  endfacet
  facet normal 0.909623 0.415435 0
    outer loop
      vertex 15.1938 4.59192 5
      vertex 14.9833 5.05298 4.5
      vertex 14.9833 5.05298 5
    endloop
  endfacet
  facet normal 0.909623 0.415435 0
    outer loop
      vertex 14.9833 5.05298 4.5
      vertex 15.1938 4.59192 5
      vertex 15.1938 4.59192 4.5
    endloop
  endfacet
  facet normal 0.910786 -0.41288 0
    outer loop
      vertex 14.984 4.12903 5
      vertex 15.1938 4.59192 4.5
      vertex 15.1938 4.59192 5
    endloop
  endfacet
  facet normal 0.910786 -0.41288 0
    outer loop
      vertex 15.1938 4.59192 4.5
      vertex 14.984 4.12903 5
      vertex 14.984 4.12903 4.5
    endloop
  endfacet
  facet normal 0 0 1
    outer loop
      vertex 13.2756 6.79688 4.5
      vertex 12.7322 6.427 4.5
      vertex 13.2756 6.427 4.5
    endloop
  endfacet
  facet normal 0 -0 1
    outer loop
      vertex 12.7322 6.427 4.5
      vertex 13.2756 6.79688 4.5
      vertex 12.5088 6.79688 4.5
    endloop
  endfacet
  facet normal 0 0 1
    outer loop
      vertex 13.2756 6.79688 4.5
      vertex 13.5653 6.79688 4.5
      vertex 13.5653 7.17114 4.5
    endloop
  endfacet
  facet normal 0 0 1
    outer loop
      vertex 13.5653 6.79688 4.5
      vertex 13.2756 6.79688 4.5
      vertex 13.5653 6.427 4.5
    endloop
  endfacet
  facet normal 0 0 1
    outer loop
      vertex 13.2756 6.79688 4.5
      vertex 13.5653 7.17114 4.5
      vertex 13.2756 7.17114 4.5
    endloop
  endfacet
  facet normal 0 0 1
    outer loop
      vertex 13.2756 6.427 4.5
      vertex 13.5653 6.427 4.5
      vertex 13.2756 6.79688 4.5
    endloop
  endfacet
  facet normal 0 0 1
    outer loop
      vertex 13.5653 6.427 4.5
      vertex 13.2756 6.427 4.5
      vertex 13.5653 6.15417 4.5
    endloop
  endfacet
  facet normal 0 0 1
    outer loop
      vertex 13.5653 6.15417 4.5
      vertex 13.2756 6.427 4.5
      vertex 13.2756 6.15417 4.5
    endloop
  endfacet
  facet normal -0 0 1
    outer loop
      vertex 15.1525 7.00781 4.5
      vertex 15.5 6.94373 4.5
      vertex 15.4667 7.22498 4.5
    endloop
  endfacet
  facet normal 0 0 1
    outer loop
      vertex 15.1257 6.88074 4.5
      vertex 15.5 6.94373 4.5
      vertex 15.1525 7.00781 4.5
    endloop
  endfacet
  facet normal 0 0 1
    outer loop
      vertex 15.5 6.94373 4.5
      vertex 15.1257 6.88074 4.5
      vertex 15.4359 6.62952 4.5
    endloop
  endfacet
  facet normal 0 -0 1
    outer loop
      vertex 15.1525 7.00781 4.5
      vertex 15.4667 7.22498 4.5
      vertex 15.1382 7.17114 4.5
    endloop
  endfacet
  facet normal -0 0 1
    outer loop
      vertex 15.0536 6.81665 4.5
      vertex 15.4359 6.62952 4.5
      vertex 15.1257 6.88074 4.5
    endloop
  endfacet
  facet normal 0 0 1
    outer loop
      vertex 15.4359 6.62952 4.5
      vertex 15.0536 6.81665 4.5
      vertex 15.2675 6.47241 4.5
    endloop
  endfacet
  facet normal 0 0 1
    outer loop
      vertex 14.828 6.427 4.5
      vertex 15.0536 6.81665 4.5
      vertex 14.8489 6.79688 4.5
    endloop
  endfacet
  facet normal 0 0 1
    outer loop
      vertex 15.0536 6.81665 4.5
      vertex 14.828 6.427 4.5
      vertex 15.2675 6.47241 4.5
    endloop
  endfacet
  facet normal -0 0 1
    outer loop
      vertex 13.5653 6.79688 4.5
      vertex 14.828 6.427 4.5
      vertex 14.8489 6.79688 4.5
    endloop
  endfacet
  facet normal 0 0 1
    outer loop
      vertex 14.828 6.427 4.5
      vertex 13.5653 6.79688 4.5
      vertex 13.5653 6.427 4.5
    endloop
  endfacet
  facet normal 0.161722 -0.986836 0
    outer loop
      vertex 15.1382 7.17114 4.5
      vertex 15.4667 7.22498 5
      vertex 15.1382 7.17114 5
    endloop
  endfacet
  facet normal 0.161722 -0.986836 0
    outer loop
      vertex 15.4667 7.22498 5
      vertex 15.1382 7.17114 4.5
      vertex 15.4667 7.22498 4.5
    endloop
  endfacet
  facet normal 0.996199 0.0871115 0
    outer loop
      vertex 15.1525 7.00781 5
      vertex 15.1382 7.17114 4.5
      vertex 15.1382 7.17114 5
    endloop
  endfacet
  facet normal 0.996199 0.0871115 0
    outer loop
      vertex 15.1382 7.17114 4.5
      vertex 15.1525 7.00781 5
      vertex 15.1525 7.00781 4.5
    endloop
  endfacet
  facet normal 0.97858 -0.205868 0
    outer loop
      vertex 15.1257 6.88074 5
      vertex 15.1525 7.00781 4.5
      vertex 15.1525 7.00781 5
    endloop
  endfacet
  facet normal 0.97858 -0.205868 0
    outer loop
      vertex 15.1525 7.00781 4.5
      vertex 15.1257 6.88074 5
      vertex 15.1257 6.88074 4.5
    endloop
  endfacet
  facet normal 0.664128 -0.747619 0
    outer loop
      vertex 15.0536 6.81665 4.5
      vertex 15.1257 6.88074 5
      vertex 15.0536 6.81665 5
    endloop
  endfacet
  facet normal 0.664128 -0.747619 0
    outer loop
      vertex 15.1257 6.88074 5
      vertex 15.0536 6.81665 4.5
      vertex 15.1257 6.88074 4.5
    endloop
  endfacet
  facet normal 0.0961535 -0.995367 0
    outer loop
      vertex 14.8489 6.79688 4.5
      vertex 15.0536 6.81665 5
      vertex 14.8489 6.79688 5
    endloop
  endfacet
  facet normal 0.0961535 -0.995367 0
    outer loop
      vertex 15.0536 6.81665 5
      vertex 14.8489 6.79688 4.5
      vertex 15.0536 6.81665 4.5
    endloop
  endfacet
  facet normal 0 -1 0
    outer loop
      vertex 13.5653 6.79688 4.5
      vertex 14.8489 6.79688 5
      vertex 13.5653 6.79688 5
    endloop
  endfacet
  facet normal 0 -1 -0
    outer loop
      vertex 14.8489 6.79688 5
      vertex 13.5653 6.79688 4.5
      vertex 14.8489 6.79688 4.5
    endloop
  endfacet
  facet normal -1 0 0
    outer loop
      vertex 13.5653 6.79688 4.5
      vertex 13.5653 7.17114 5
      vertex 13.5653 7.17114 4.5
    endloop
  endfacet
  facet normal -1 -0 0
    outer loop
      vertex 13.5653 7.17114 5
      vertex 13.5653 6.79688 4.5
      vertex 13.5653 6.79688 5
    endloop
  endfacet
  facet normal 0 -1 0
    outer loop
      vertex 13.2756 7.17114 4.5
      vertex 13.5653 7.17114 5
      vertex 13.2756 7.17114 5
    endloop
  endfacet
  facet normal 0 -1 -0
    outer loop
      vertex 13.5653 7.17114 5
      vertex 13.2756 7.17114 4.5
      vertex 13.5653 7.17114 4.5
    endloop
  endfacet
  facet normal 1 -0 0
    outer loop
      vertex 13.2756 6.79688 5
      vertex 13.2756 7.17114 4.5
      vertex 13.2756 7.17114 5
    endloop
  endfacet
  facet normal 1 0 0
    outer loop
      vertex 13.2756 7.17114 4.5
      vertex 13.2756 6.79688 5
      vertex 13.2756 6.79688 4.5
    endloop
  endfacet
  facet normal 0 -1 0
    outer loop
      vertex 12.5088 6.79688 4.5
      vertex 13.2756 6.79688 5
      vertex 12.5088 6.79688 5
    endloop
  endfacet
  facet normal 0 -1 -0
    outer loop
      vertex 13.2756 6.79688 5
      vertex 12.5088 6.79688 4.5
      vertex 13.2756 6.79688 4.5
    endloop
  endfacet
  facet normal 0.855994 0.516986 0
    outer loop
      vertex 12.7322 6.427 5
      vertex 12.5088 6.79688 4.5
      vertex 12.5088 6.79688 5
    endloop
  endfacet
  facet normal 0.855994 0.516986 0
    outer loop
      vertex 12.5088 6.79688 4.5
      vertex 12.7322 6.427 5
      vertex 12.7322 6.427 4.5
    endloop
  endfacet
  facet normal 0 1 -0
    outer loop
      vertex 13.2756 6.427 4.5
      vertex 12.7322 6.427 5
      vertex 13.2756 6.427 5
    endloop
  endfacet
  facet normal 0 1 0
    outer loop
      vertex 12.7322 6.427 5
      vertex 13.2756 6.427 4.5
      vertex 12.7322 6.427 4.5
    endloop
  endfacet
  facet normal 1 -0 0
    outer loop
      vertex 13.2756 6.15417 5
      vertex 13.2756 6.427 4.5
      vertex 13.2756 6.427 5
    endloop
  endfacet
  facet normal 1 0 0
    outer loop
      vertex 13.2756 6.427 4.5
      vertex 13.2756 6.15417 5
      vertex 13.2756 6.15417 4.5
    endloop
  endfacet
  facet normal 0 1 -0
    outer loop
      vertex 13.5653 6.15417 4.5
      vertex 13.2756 6.15417 5
      vertex 13.5653 6.15417 5
    endloop
  endfacet
  facet normal 0 1 0
    outer loop
      vertex 13.2756 6.15417 5
      vertex 13.5653 6.15417 4.5
      vertex 13.2756 6.15417 4.5
    endloop
  endfacet
  facet normal -1 0 0
    outer loop
      vertex 13.5653 6.15417 4.5
      vertex 13.5653 6.427 5
      vertex 13.5653 6.427 4.5
    endloop
  endfacet
  facet normal -1 -0 0
    outer loop
      vertex 13.5653 6.427 5
      vertex 13.5653 6.15417 4.5
      vertex 13.5653 6.15417 5
    endloop
  endfacet
  facet normal 0 1 -0
    outer loop
      vertex 14.828 6.427 4.5
      vertex 13.5653 6.427 5
      vertex 14.828 6.427 5
    endloop
  endfacet
  facet normal 0 1 0
    outer loop
      vertex 13.5653 6.427 5
      vertex 14.828 6.427 4.5
      vertex 13.5653 6.427 4.5
    endloop
  endfacet
  facet normal -0.102786 0.994703 0
    outer loop
      vertex 15.2675 6.47241 4.5
      vertex 14.828 6.427 5
      vertex 15.2675 6.47241 5
    endloop
  endfacet
  facet normal -0.102786 0.994703 0
    outer loop
      vertex 14.828 6.427 5
      vertex 15.2675 6.47241 4.5
      vertex 14.828 6.427 4.5
    endloop
  endfacet
  facet normal -0.682035 0.73132 0
    outer loop
      vertex 15.4359 6.62952 4.5
      vertex 15.2675 6.47241 5
      vertex 15.4359 6.62952 5
    endloop
  endfacet
  facet normal -0.682035 0.73132 0
    outer loop
      vertex 15.2675 6.47241 5
      vertex 15.4359 6.62952 4.5
      vertex 15.2675 6.47241 4.5
    endloop
  endfacet
  facet normal -0.979827 0.199848 0
    outer loop
      vertex 15.4359 6.62952 4.5
      vertex 15.5 6.94373 5
      vertex 15.5 6.94373 4.5
    endloop
  endfacet
  facet normal -0.979827 0.199848 0
    outer loop
      vertex 15.5 6.94373 5
      vertex 15.4359 6.62952 4.5
      vertex 15.4359 6.62952 5
    endloop
  endfacet
  facet normal -0.993053 -0.117666 0
    outer loop
      vertex 15.5 6.94373 4.5
      vertex 15.4667 7.22498 5
      vertex 15.4667 7.22498 4.5
    endloop
  endfacet
  facet normal -0.993053 -0.117666 0
    outer loop
      vertex 15.4667 7.22498 5
      vertex 15.5 6.94373 4.5
      vertex 15.5 6.94373 5
    endloop
  endfacet
  facet normal 0 0 1
    outer loop
      vertex 13.2756 8.85938 4.5
      vertex 12.7322 8.4895 4.5
      vertex 13.2756 8.4895 4.5
    endloop
  endfacet
  facet normal 0 -0 1
    outer loop
      vertex 12.7322 8.4895 4.5
      vertex 13.2756 8.85938 4.5
      vertex 12.5088 8.85938 4.5
    endloop
  endfacet
  facet normal 0 0 1
    outer loop
      vertex 13.2756 8.85938 4.5
      vertex 13.5653 8.85938 4.5
      vertex 13.5653 9.23364 4.5
    endloop
  endfacet
  facet normal 0 0 1
    outer loop
      vertex 13.5653 8.85938 4.5
      vertex 13.2756 8.85938 4.5
      vertex 13.5653 8.4895 4.5
    endloop
  endfacet
  facet normal 0 0 1
    outer loop
      vertex 13.2756 8.85938 4.5
      vertex 13.5653 9.23364 4.5
      vertex 13.2756 9.23364 4.5
    endloop
  endfacet
  facet normal 0 0 1
    outer loop
      vertex 13.2756 8.4895 4.5
      vertex 13.5653 8.4895 4.5
      vertex 13.2756 8.85938 4.5
    endloop
  endfacet
  facet normal 0 0 1
    outer loop
      vertex 13.5653 8.4895 4.5
      vertex 13.2756 8.4895 4.5
      vertex 13.5653 8.21667 4.5
    endloop
  endfacet
  facet normal 0 0 1
    outer loop
      vertex 13.5653 8.21667 4.5
      vertex 13.2756 8.4895 4.5
      vertex 13.2756 8.21667 4.5
    endloop
  endfacet
  facet normal -0 0 1
    outer loop
      vertex 15.1525 9.07031 4.5
      vertex 15.5 9.00623 4.5
      vertex 15.4667 9.28748 4.5
    endloop
  endfacet
  facet normal 0 0 1
    outer loop
      vertex 15.1257 8.94324 4.5
      vertex 15.5 9.00623 4.5
      vertex 15.1525 9.07031 4.5
    endloop
  endfacet
  facet normal 0 0 1
    outer loop
      vertex 15.5 9.00623 4.5
      vertex 15.1257 8.94324 4.5
      vertex 15.4359 8.69202 4.5
    endloop
  endfacet
  facet normal 0 -0 1
    outer loop
      vertex 15.1525 9.07031 4.5
      vertex 15.4667 9.28748 4.5
      vertex 15.1382 9.23364 4.5
    endloop
  endfacet
  facet normal -0 0 1
    outer loop
      vertex 15.0536 8.87915 4.5
      vertex 15.4359 8.69202 4.5
      vertex 15.1257 8.94324 4.5
    endloop
  endfacet
  facet normal 0 0 1
    outer loop
      vertex 15.4359 8.69202 4.5
      vertex 15.0536 8.87915 4.5
      vertex 15.2675 8.53491 4.5
    endloop
  endfacet
  facet normal 0 0 1
    outer loop
      vertex 14.828 8.4895 4.5
      vertex 15.0536 8.87915 4.5
      vertex 14.8489 8.85938 4.5
    endloop
  endfacet
  facet normal 0 0 1
    outer loop
      vertex 15.0536 8.87915 4.5
      vertex 14.828 8.4895 4.5
      vertex 15.2675 8.53491 4.5
    endloop
  endfacet
  facet normal -0 0 1
    outer loop
      vertex 13.5653 8.85938 4.5
      vertex 14.828 8.4895 4.5
      vertex 14.8489 8.85938 4.5
    endloop
  endfacet
  facet normal 0 0 1
    outer loop
      vertex 14.828 8.4895 4.5
      vertex 13.5653 8.85938 4.5
      vertex 13.5653 8.4895 4.5
    endloop
  endfacet
  facet normal 0.161722 -0.986836 0
    outer loop
      vertex 15.1382 9.23364 4.5
      vertex 15.4667 9.28748 5
      vertex 15.1382 9.23364 5
    endloop
  endfacet
  facet normal 0.161722 -0.986836 0
    outer loop
      vertex 15.4667 9.28748 5
      vertex 15.1382 9.23364 4.5
      vertex 15.4667 9.28748 4.5
    endloop
  endfacet
  facet normal 0.996199 0.0871115 0
    outer loop
      vertex 15.1525 9.07031 5
      vertex 15.1382 9.23364 4.5
      vertex 15.1382 9.23364 5
    endloop
  endfacet
  facet normal 0.996199 0.0871115 0
    outer loop
      vertex 15.1382 9.23364 4.5
      vertex 15.1525 9.07031 5
      vertex 15.1525 9.07031 4.5
    endloop
  endfacet
  facet normal 0.97858 -0.205868 0
    outer loop
      vertex 15.1257 8.94324 5
      vertex 15.1525 9.07031 4.5
      vertex 15.1525 9.07031 5
    endloop
  endfacet
  facet normal 0.97858 -0.205868 0
    outer loop
      vertex 15.1525 9.07031 4.5
      vertex 15.1257 8.94324 5
      vertex 15.1257 8.94324 4.5
    endloop
  endfacet
  facet normal 0.664128 -0.747619 0
    outer loop
      vertex 15.0536 8.87915 4.5
      vertex 15.1257 8.94324 5
      vertex 15.0536 8.87915 5
    endloop
  endfacet
  facet normal 0.664128 -0.747619 0
    outer loop
      vertex 15.1257 8.94324 5
      vertex 15.0536 8.87915 4.5
      vertex 15.1257 8.94324 4.5
    endloop
  endfacet
  facet normal 0.0961535 -0.995367 0
    outer loop
      vertex 14.8489 8.85938 4.5
      vertex 15.0536 8.87915 5
      vertex 14.8489 8.85938 5
    endloop
  endfacet
  facet normal 0.0961535 -0.995367 0
    outer loop
      vertex 15.0536 8.87915 5
      vertex 14.8489 8.85938 4.5
      vertex 15.0536 8.87915 4.5
    endloop
  endfacet
  facet normal 0 -1 0
    outer loop
      vertex 13.5653 8.85938 4.5
      vertex 14.8489 8.85938 5
      vertex 13.5653 8.85938 5
    endloop
  endfacet
  facet normal 0 -1 -0
    outer loop
      vertex 14.8489 8.85938 5
      vertex 13.5653 8.85938 4.5
      vertex 14.8489 8.85938 4.5
    endloop
  endfacet
  facet normal -1 0 0
    outer loop
      vertex 13.5653 8.85938 4.5
      vertex 13.5653 9.23364 5
      vertex 13.5653 9.23364 4.5
    endloop
  endfacet
  facet normal -1 -0 0
    outer loop
      vertex 13.5653 9.23364 5
      vertex 13.5653 8.85938 4.5
      vertex 13.5653 8.85938 5
    endloop
  endfacet
  facet normal 0 -1 0
    outer loop
      vertex 13.2756 9.23364 4.5
      vertex 13.5653 9.23364 5
      vertex 13.2756 9.23364 5
    endloop
  endfacet
  facet normal 0 -1 -0
    outer loop
      vertex 13.5653 9.23364 5
      vertex 13.2756 9.23364 4.5
      vertex 13.5653 9.23364 4.5
    endloop
  endfacet
  facet normal 1 -0 0
    outer loop
      vertex 13.2756 8.85938 5
      vertex 13.2756 9.23364 4.5
      vertex 13.2756 9.23364 5
    endloop
  endfacet
  facet normal 1 0 0
    outer loop
      vertex 13.2756 9.23364 4.5
      vertex 13.2756 8.85938 5
      vertex 13.2756 8.85938 4.5
    endloop
  endfacet
  facet normal 0 -1 0
    outer loop
      vertex 12.5088 8.85938 4.5
      vertex 13.2756 8.85938 5
      vertex 12.5088 8.85938 5
    endloop
  endfacet
  facet normal 0 -1 -0
    outer loop
      vertex 13.2756 8.85938 5
      vertex 12.5088 8.85938 4.5
      vertex 13.2756 8.85938 4.5
    endloop
  endfacet
  facet normal 0.855994 0.516986 0
    outer loop
      vertex 12.7322 8.4895 5
      vertex 12.5088 8.85938 4.5
      vertex 12.5088 8.85938 5
    endloop
  endfacet
  facet normal 0.855994 0.516986 0
    outer loop
      vertex 12.5088 8.85938 4.5
      vertex 12.7322 8.4895 5
      vertex 12.7322 8.4895 4.5
    endloop
  endfacet
  facet normal 0 1 -0
    outer loop
      vertex 13.2756 8.4895 4.5
      vertex 12.7322 8.4895 5
      vertex 13.2756 8.4895 5
    endloop
  endfacet
  facet normal 0 1 0
    outer loop
      vertex 12.7322 8.4895 5
      vertex 13.2756 8.4895 4.5
      vertex 12.7322 8.4895 4.5
    endloop
  endfacet
  facet normal 1 -0 0
    outer loop
      vertex 13.2756 8.21667 5
      vertex 13.2756 8.4895 4.5
      vertex 13.2756 8.4895 5
    endloop
  endfacet
  facet normal 1 0 0
    outer loop
      vertex 13.2756 8.4895 4.5
      vertex 13.2756 8.21667 5
      vertex 13.2756 8.21667 4.5
    endloop
  endfacet
  facet normal 0 1 -0
    outer loop
      vertex 13.5653 8.21667 4.5
      vertex 13.2756 8.21667 5
      vertex 13.5653 8.21667 5
    endloop
  endfacet
  facet normal 0 1 0
    outer loop
      vertex 13.2756 8.21667 5
      vertex 13.5653 8.21667 4.5
      vertex 13.2756 8.21667 4.5
    endloop
  endfacet
  facet normal -1 0 0
    outer loop
      vertex 13.5653 8.21667 4.5
      vertex 13.5653 8.4895 5
      vertex 13.5653 8.4895 4.5
    endloop
  endfacet
  facet normal -1 -0 0
    outer loop
      vertex 13.5653 8.4895 5
      vertex 13.5653 8.21667 4.5
      vertex 13.5653 8.21667 5
    endloop
  endfacet
  facet normal 0 1 -0
    outer loop
      vertex 14.828 8.4895 4.5
      vertex 13.5653 8.4895 5
      vertex 14.828 8.4895 5
    endloop
  endfacet
  facet normal 0 1 0
    outer loop
      vertex 13.5653 8.4895 5
      vertex 14.828 8.4895 4.5
      vertex 13.5653 8.4895 4.5
    endloop
  endfacet
  facet normal -0.102786 0.994703 0
    outer loop
      vertex 15.2675 8.53491 4.5
      vertex 14.828 8.4895 5
      vertex 15.2675 8.53491 5
    endloop
  endfacet
  facet normal -0.102786 0.994703 0
    outer loop
      vertex 14.828 8.4895 5
      vertex 15.2675 8.53491 4.5
      vertex 14.828 8.4895 4.5
    endloop
  endfacet
  facet normal -0.682035 0.73132 0
    outer loop
      vertex 15.4359 8.69202 4.5
      vertex 15.2675 8.53491 5
      vertex 15.4359 8.69202 5
    endloop
  endfacet
  facet normal -0.682035 0.73132 0
    outer loop
      vertex 15.2675 8.53491 5
      vertex 15.4359 8.69202 4.5
      vertex 15.2675 8.53491 4.5
    endloop
  endfacet
  facet normal -0.979827 0.199848 0
    outer loop
      vertex 15.4359 8.69202 4.5
      vertex 15.5 9.00623 5
      vertex 15.5 9.00623 4.5
    endloop
  endfacet
  facet normal -0.979827 0.199848 0
    outer loop
      vertex 15.5 9.00623 5
      vertex 15.4359 8.69202 4.5
      vertex 15.4359 8.69202 5
    endloop
  endfacet
  facet normal -0.993053 -0.117666 0
    outer loop
      vertex 15.5 9.00623 4.5
      vertex 15.4667 9.28748 5
      vertex 15.4667 9.28748 4.5
    endloop
  endfacet
  facet normal -0.993053 -0.117666 0
    outer loop
      vertex 15.4667 9.28748 5
      vertex 15.5 9.00623 4.5
      vertex 15.5 9.00623 5
    endloop
  endfacet
  facet normal 0 0 1
    outer loop
      vertex 15.1938 10.7794 4.5
      vertex 15.5 10.7794 4.5
      vertex 15.3656 11.3097 4.5
    endloop
  endfacet
  facet normal 0 0 1
    outer loop
      vertex 14.984 10.3165 4.5
      vertex 15.5 10.7794 4.5
      vertex 15.1938 10.7794 4.5
    endloop
  endfacet
  facet normal 0 0 1
    outer loop
      vertex 14.9833 11.2405 4.5
      vertex 15.3656 11.3097 4.5
      vertex 14.9884 11.6796 4.5
    endloop
  endfacet
  facet normal 0 0 1
    outer loop
      vertex 15.3656 11.3097 4.5
      vertex 14.9833 11.2405 4.5
      vertex 15.1938 10.7794 4.5
    endloop
  endfacet
  facet normal 0 0 1
    outer loop
      vertex 14.9884 11.6796 4.5
      vertex 14.3402 11.4243 4.5
      vertex 14.9833 11.2405 4.5
    endloop
  endfacet
  facet normal 0 0 1
    outer loop
      vertex 14.3215 11.807 4.5
      vertex 14.3402 11.4243 4.5
      vertex 14.9884 11.6796 4.5
    endloop
  endfacet
  facet normal 0 0 1
    outer loop
      vertex 14.3215 11.807 4.5
      vertex 13.7231 11.2394 4.5
      vertex 14.3402 11.4243 4.5
    endloop
  endfacet
  facet normal 0 0 1
    outer loop
      vertex 13.2053 10.7794 4.5
      vertex 13.7231 11.2394 4.5
      vertex 13.502 11.5195 4.5
    endloop
  endfacet
  facet normal -0 0 1
    outer loop
      vertex 13.502 11.5195 4.5
      vertex 13.7231 11.2394 4.5
      vertex 14.3215 11.807 4.5
    endloop
  endfacet
  facet normal 0 0 1
    outer loop
      vertex 15.5 10.7794 4.5
      vertex 14.984 10.3165 4.5
      vertex 15.2045 10.0342 4.5
    endloop
  endfacet
  facet normal 0 0 1
    outer loop
      vertex 14.3527 9.75 4.5
      vertex 14.984 10.3165 4.5
      vertex 14.3527 10.1327 4.5
    endloop
  endfacet
  facet normal 0 0 1
    outer loop
      vertex 14.984 10.3165 4.5
      vertex 14.3527 9.75 4.5
      vertex 15.2045 10.0342 4.5
    endloop
  endfacet
  facet normal 0 0 1
    outer loop
      vertex 13.722 10.3165 4.5
      vertex 14.3527 9.75 4.5
      vertex 14.3527 10.1327 4.5
    endloop
  endfacet
  facet normal 0 0 1
    outer loop
      vertex 13.722 10.3165 4.5
      vertex 13.4492 10.0891 4.5
      vertex 14.3527 9.75 4.5
    endloop
  endfacet
  facet normal 0 0 1
    outer loop
      vertex 13.5133 10.7794 4.5
      vertex 13.4492 10.0891 4.5
      vertex 13.722 10.3165 4.5
    endloop
  endfacet
  facet normal 0 0 1
    outer loop
      vertex 13.7231 11.2394 4.5
      vertex 13.2053 10.7794 4.5
      vertex 13.5133 10.7794 4.5
    endloop
  endfacet
  facet normal 0 0 1
    outer loop
      vertex 13.5133 10.7794 4.5
      vertex 13.2053 10.7794 4.5
      vertex 13.4492 10.0891 4.5
    endloop
  endfacet
  facet normal -0.700141 -0.714005 0
    outer loop
      vertex 14.9884 11.6796 4.5
      vertex 15.3656 11.3097 5
      vertex 14.9884 11.6796 5
    endloop
  endfacet
  facet normal -0.700141 -0.714005 -0
    outer loop
      vertex 15.3656 11.3097 5
      vertex 14.9884 11.6796 4.5
      vertex 15.3656 11.3097 4.5
    endloop
  endfacet
  facet normal -0.187707 -0.982225 0
    outer loop
      vertex 14.3215 11.807 4.5
      vertex 14.9884 11.6796 5
      vertex 14.3215 11.807 5
    endloop
  endfacet
  facet normal -0.187707 -0.982225 -0
    outer loop
      vertex 14.9884 11.6796 5
      vertex 14.3215 11.807 4.5
      vertex 14.9884 11.6796 4.5
    endloop
  endfacet
  facet normal 0.330989 -0.943635 0
    outer loop
      vertex 13.502 11.5195 4.5
      vertex 14.3215 11.807 5
      vertex 13.502 11.5195 5
    endloop
  endfacet
  facet normal 0.330989 -0.943635 0
    outer loop
      vertex 14.3215 11.807 5
      vertex 13.502 11.5195 4.5
      vertex 14.3215 11.807 4.5
    endloop
  endfacet
  facet normal 0.928223 -0.372024 0
    outer loop
      vertex 13.2053 10.7794 5
      vertex 13.502 11.5195 4.5
      vertex 13.502 11.5195 5
    endloop
  endfacet
  facet normal 0.928223 -0.372024 0
    outer loop
      vertex 13.502 11.5195 4.5
      vertex 13.2053 10.7794 5
      vertex 13.2053 10.7794 4.5
    endloop
  endfacet
  facet normal 0.942879 0.333134 0
    outer loop
      vertex 13.4492 10.0891 5
      vertex 13.2053 10.7794 4.5
      vertex 13.2053 10.7794 5
    endloop
  endfacet
  facet normal 0.942879 0.333134 0
    outer loop
      vertex 13.2053 10.7794 4.5
      vertex 13.4492 10.0891 5
      vertex 13.4492 10.0891 4.5
    endloop
  endfacet
  facet normal 0.351415 0.93622 -0
    outer loop
      vertex 14.3527 9.75 4.5
      vertex 13.4492 10.0891 5
      vertex 14.3527 9.75 5
    endloop
  endfacet
  facet normal 0.351415 0.93622 0
    outer loop
      vertex 13.4492 10.0891 5
      vertex 14.3527 9.75 4.5
      vertex 13.4492 10.0891 4.5
    endloop
  endfacet
  facet normal -0.316472 0.948602 0
    outer loop
      vertex 15.2045 10.0342 4.5
      vertex 14.3527 9.75 5
      vertex 15.2045 10.0342 5
    endloop
  endfacet
  facet normal -0.316472 0.948602 0
    outer loop
      vertex 14.3527 9.75 5
      vertex 15.2045 10.0342 4.5
      vertex 14.3527 9.75 4.5
    endloop
  endfacet
  facet normal -0.929575 0.368633 0
    outer loop
      vertex 15.2045 10.0342 4.5
      vertex 15.5 10.7794 5
      vertex 15.5 10.7794 4.5
    endloop
  endfacet
  facet normal -0.929575 0.368633 0
    outer loop
      vertex 15.5 10.7794 5
      vertex 15.2045 10.0342 4.5
      vertex 15.2045 10.0342 5
    endloop
  endfacet
  facet normal -0.96935 -0.245685 0
    outer loop
      vertex 15.5 10.7794 4.5
      vertex 15.3656 11.3097 5
      vertex 15.3656 11.3097 4.5
    endloop
  endfacet
  facet normal -0.96935 -0.245685 0
    outer loop
      vertex 15.3656 11.3097 5
      vertex 15.5 10.7794 4.5
      vertex 15.5 10.7794 5
    endloop
  endfacet
  facet normal 0.279572 -0.960125 0
    outer loop
      vertex 14.3527 10.1327 4.5
      vertex 14.984 10.3165 5
      vertex 14.3527 10.1327 5
    endloop
  endfacet
  facet normal 0.279572 -0.960125 0
    outer loop
      vertex 14.984 10.3165 5
      vertex 14.3527 10.1327 4.5
      vertex 14.984 10.3165 4.5
    endloop
  endfacet
  facet normal -0.279872 -0.960037 0
    outer loop
      vertex 13.722 10.3165 4.5
      vertex 14.3527 10.1327 5
      vertex 13.722 10.3165 5
    endloop
  endfacet
  facet normal -0.279872 -0.960037 -0
    outer loop
      vertex 14.3527 10.1327 5
      vertex 13.722 10.3165 4.5
      vertex 14.3527 10.1327 4.5
    endloop
  endfacet
  facet normal -0.911597 -0.411084 0
    outer loop
      vertex 13.722 10.3165 4.5
      vertex 13.5133 10.7794 5
      vertex 13.5133 10.7794 4.5
    endloop
  endfacet
  facet normal -0.911597 -0.411084 0
    outer loop
      vertex 13.5133 10.7794 5
      vertex 13.722 10.3165 4.5
      vertex 13.722 10.3165 5
    endloop
  endfacet
  facet normal -0.909795 0.415058 0
    outer loop
      vertex 13.5133 10.7794 4.5
      vertex 13.7231 11.2394 5
      vertex 13.7231 11.2394 4.5
    endloop
  endfacet
  facet normal -0.909795 0.415058 0
    outer loop
      vertex 13.7231 11.2394 5
      vertex 13.5133 10.7794 4.5
      vertex 13.5133 10.7794 5
    endloop
  endfacet
  facet normal -0.287087 0.957904 0
    outer loop
      vertex 14.3402 11.4243 4.5
      vertex 13.7231 11.2394 5
      vertex 14.3402 11.4243 5
    endloop
  endfacet
  facet normal -0.287087 0.957904 0
    outer loop
      vertex 13.7231 11.2394 5
      vertex 14.3402 11.4243 4.5
      vertex 13.7231 11.2394 4.5
    endloop
  endfacet
  facet normal 0.274866 0.961483 -0
    outer loop
      vertex 14.9833 11.2405 4.5
      vertex 14.3402 11.4243 5
      vertex 14.9833 11.2405 5
    endloop
  endfacet
  facet normal 0.274866 0.961483 0
    outer loop
      vertex 14.3402 11.4243 5
      vertex 14.9833 11.2405 4.5
      vertex 14.3402 11.4243 4.5
    endloop
  endfacet
  facet normal 0.909623 0.415435 0
    outer loop
      vertex 15.1938 10.7794 5
      vertex 14.9833 11.2405 4.5
      vertex 14.9833 11.2405 5
    endloop
  endfacet
  facet normal 0.909623 0.415435 0
    outer loop
      vertex 14.9833 11.2405 4.5
      vertex 15.1938 10.7794 5
      vertex 15.1938 10.7794 4.5
    endloop
  endfacet
  facet normal 0.910786 -0.41288 0
    outer loop
      vertex 14.984 10.3165 5
      vertex 15.1938 10.7794 4.5
      vertex 15.1938 10.7794 5
    endloop
  endfacet
  facet normal 0.910786 -0.41288 0
    outer loop
      vertex 15.1938 10.7794 4.5
      vertex 14.984 10.3165 5
      vertex 14.984 10.3165 4.5
    endloop
  endfacet
  facet normal -0 0 1
    outer loop
      vertex 14.2245 12.9459 4.5
      vertex 15.5187 12.657 4.5
      vertex 15.5 12.9459 4.5
    endloop
  endfacet
  facet normal 0 0 1
    outer loop
      vertex 14.2245 12.9459 4.5
      vertex 14.1296 12.6196 4.5
      vertex 15.5187 12.657 4.5
    endloop
  endfacet
  facet normal 0 0 1
    outer loop
      vertex 13.8813 13.0118 4.5
      vertex 14.1296 12.6196 4.5
      vertex 14.2245 12.9459 4.5
    endloop
  endfacet
  facet normal 0 0 1
    outer loop
      vertex 13.8813 13.0118 4.5
      vertex 13.7762 12.5768 4.5
      vertex 14.1296 12.6196 4.5
    endloop
  endfacet
  facet normal 0 0 1
    outer loop
      vertex 13.6396 12.9067 4.5
      vertex 13.8813 13.0118 4.5
      vertex 13.7085 13.2345 4.5
    endloop
  endfacet
  facet normal 0 0 1
    outer loop
      vertex 13.8813 13.0118 4.5
      vertex 13.6396 12.9067 4.5
      vertex 13.7762 12.5768 4.5
    endloop
  endfacet
  facet normal -0 0 1
    outer loop
      vertex 13.2551 13.3652 4.5
      vertex 13.7085 13.2345 4.5
      vertex 13.6748 13.3854 4.5
    endloop
  endfacet
  facet normal -0 0 1
    outer loop
      vertex 14.3798 12.1765 4.5
      vertex 15.5 11.8125 4.5
      vertex 15.4813 12.1952 4.5
    endloop
  endfacet
  facet normal 0 0 1
    outer loop
      vertex 13.6125 12.0377 4.5
      vertex 14.3798 12.1765 4.5
      vertex 13.9209 12.1608 4.5
    endloop
  endfacet
  facet normal -0 0 1
    outer loop
      vertex 13.3562 12.7581 4.5
      vertex 13.7762 12.5768 4.5
      vertex 13.6396 12.9067 4.5
    endloop
  endfacet
  facet normal 0 0 1
    outer loop
      vertex 13.7762 12.5768 4.5
      vertex 13.3562 12.7581 4.5
      vertex 13.6898 12.4318 4.5
    endloop
  endfacet
  facet normal 0 0 1
    outer loop
      vertex 13.6125 12.0377 4.5
      vertex 13.7913 12.3102 4.5
      vertex 13.6898 12.4318 4.5
    endloop
  endfacet
  facet normal 0 0 1
    outer loop
      vertex 13.6125 12.0377 4.5
      vertex 13.9209 12.1608 4.5
      vertex 13.7913 12.3102 4.5
    endloop
  endfacet
  facet normal 0 0 1
    outer loop
      vertex 14.3798 12.1765 4.5
      vertex 13.6125 12.0377 4.5
      vertex 13.3046 11.8125 4.5
    endloop
  endfacet
  facet normal 0 0 1
    outer loop
      vertex 13.3046 11.8125 4.5
      vertex 13.6125 12.0377 4.5
      vertex 13.3046 12.0377 4.5
    endloop
  endfacet
  facet normal 0 0 1
    outer loop
      vertex 14.3798 12.1765 4.5
      vertex 13.3046 11.8125 4.5
      vertex 15.5 11.8125 4.5
    endloop
  endfacet
  facet normal -0 0 1
    outer loop
      vertex 13.2551 12.4874 4.5
      vertex 13.6898 12.4318 4.5
      vertex 13.3562 12.7581 4.5
    endloop
  endfacet
  facet normal 0 0 1
    outer loop
      vertex 13.6898 12.4318 4.5
      vertex 13.3533 12.2234 4.5
      vertex 13.6125 12.0377 4.5
    endloop
  endfacet
  facet normal 0 0 1
    outer loop
      vertex 13.6898 12.4318 4.5
      vertex 13.2551 12.4874 4.5
      vertex 13.3533 12.2234 4.5
    endloop
  endfacet
  facet normal 0 0 1
    outer loop
      vertex 15.5 13.8234 4.5
      vertex 14.1359 13.4612 4.5
      vertex 15.5 13.4799 4.5
    endloop
  endfacet
  facet normal -0 0 1
    outer loop
      vertex 13.993 13.8234 4.5
      vertex 14.1359 13.4612 4.5
      vertex 15.5 13.8234 4.5
    endloop
  endfacet
  facet normal 0 0 1
    outer loop
      vertex 13.993 13.8234 4.5
      vertex 13.833 13.474 4.5
      vertex 14.1359 13.4612 4.5
    endloop
  endfacet
  facet normal -0 0 1
    outer loop
      vertex 13.436 13.7047 4.5
      vertex 13.833 13.474 4.5
      vertex 13.993 13.8234 4.5
    endloop
  endfacet
  facet normal 0 0 1
    outer loop
      vertex 13.833 13.474 4.5
      vertex 13.436 13.7047 4.5
      vertex 13.6748 13.3854 4.5
    endloop
  endfacet
  facet normal 0 0 1
    outer loop
      vertex 13.2551 13.3652 4.5
      vertex 13.6748 13.3854 4.5
      vertex 13.436 13.7047 4.5
    endloop
  endfacet
  facet normal 0 0 1
    outer loop
      vertex 13.7085 13.2345 4.5
      vertex 13.2551 13.3652 4.5
      vertex 13.6396 12.9067 4.5
    endloop
  endfacet
  facet normal 0 -1 0
    outer loop
      vertex 14.2245 12.9459 4.5
      vertex 15.5 12.9459 5
      vertex 14.2245 12.9459 5
    endloop
  endfacet
  facet normal 0 -1 -0
    outer loop
      vertex 15.5 12.9459 5
      vertex 14.2245 12.9459 4.5
      vertex 15.5 12.9459 4.5
    endloop
  endfacet
  facet normal -0.188653 -0.982044 0
    outer loop
      vertex 13.8813 13.0118 4.5
      vertex 14.2245 12.9459 5
      vertex 13.8813 13.0118 5
    endloop
  endfacet
  facet normal -0.188653 -0.982044 -0
    outer loop
      vertex 14.2245 12.9459 5
      vertex 13.8813 13.0118 4.5
      vertex 14.2245 12.9459 4.5
    endloop
  endfacet
  facet normal -0.789912 -0.613221 0
    outer loop
      vertex 13.8813 13.0118 4.5
      vertex 13.7085 13.2345 5
      vertex 13.7085 13.2345 4.5
    endloop
  endfacet
  facet normal -0.789912 -0.613221 0
    outer loop
      vertex 13.7085 13.2345 5
      vertex 13.8813 13.0118 4.5
      vertex 13.8813 13.0118 5
    endloop
  endfacet
  facet normal -0.975964 -0.217934 0
    outer loop
      vertex 13.7085 13.2345 4.5
      vertex 13.6748 13.3854 5
      vertex 13.6748 13.3854 4.5
    endloop
  endfacet
  facet normal -0.975964 -0.217934 0
    outer loop
      vertex 13.6748 13.3854 5
      vertex 13.7085 13.2345 4.5
      vertex 13.7085 13.2345 5
    endloop
  endfacet
  facet normal -0.488726 0.872437 0
    outer loop
      vertex 13.833 13.474 4.5
      vertex 13.6748 13.3854 5
      vertex 13.833 13.474 5
    endloop
  endfacet
  facet normal -0.488726 0.872437 0
    outer loop
      vertex 13.6748 13.3854 5
      vertex 13.833 13.474 4.5
      vertex 13.6748 13.3854 4.5
    endloop
  endfacet
  facet normal 0.0422838 0.999106 -0
    outer loop
      vertex 14.1359 13.4612 4.5
      vertex 13.833 13.474 5
      vertex 14.1359 13.4612 5
    endloop
  endfacet
  facet normal 0.0422838 0.999106 0
    outer loop
      vertex 13.833 13.474 5
      vertex 14.1359 13.4612 4.5
      vertex 13.833 13.474 4.5
    endloop
  endfacet
  facet normal -0.01369 0.999906 0
    outer loop
      vertex 15.5 13.4799 4.5
      vertex 14.1359 13.4612 5
      vertex 15.5 13.4799 5
    endloop
  endfacet
  facet normal -0.01369 0.999906 0
    outer loop
      vertex 14.1359 13.4612 5
      vertex 15.5 13.4799 4.5
      vertex 14.1359 13.4612 4.5
    endloop
  endfacet
  facet normal -1 0 0
    outer loop
      vertex 15.5 13.4799 4.5
      vertex 15.5 13.8234 5
      vertex 15.5 13.8234 4.5
    endloop
  endfacet
  facet normal -1 -0 0
    outer loop
      vertex 15.5 13.8234 5
      vertex 15.5 13.4799 4.5
      vertex 15.5 13.4799 5
    endloop
  endfacet
  facet normal 0 -1 0
    outer loop
      vertex 13.993 13.8234 4.5
      vertex 15.5 13.8234 5
      vertex 13.993 13.8234 5
    endloop
  endfacet
  facet normal 0 -1 -0
    outer loop
      vertex 15.5 13.8234 5
      vertex 13.993 13.8234 4.5
      vertex 15.5 13.8234 4.5
    endloop
  endfacet
  facet normal 0.208343 -0.978056 0
    outer loop
      vertex 13.436 13.7047 4.5
      vertex 13.993 13.8234 5
      vertex 13.436 13.7047 5
    endloop
  endfacet
  facet normal 0.208343 -0.978056 0
    outer loop
      vertex 13.993 13.8234 5
      vertex 13.436 13.7047 4.5
      vertex 13.993 13.8234 4.5
    endloop
  endfacet
  facet normal 0.882511 -0.470292 0
    outer loop
      vertex 13.2551 13.3652 5
      vertex 13.436 13.7047 4.5
      vertex 13.436 13.7047 5
    endloop
  endfacet
  facet normal 0.882511 -0.470292 0
    outer loop
      vertex 13.436 13.7047 4.5
      vertex 13.2551 13.3652 5
      vertex 13.2551 13.3652 4.5
    endloop
  endfacet
  facet normal 0.766211 0.642589 0
    outer loop
      vertex 13.6396 12.9067 5
      vertex 13.2551 13.3652 4.5
      vertex 13.2551 13.3652 5
    endloop
  endfacet
  facet normal 0.766211 0.642589 0
    outer loop
      vertex 13.2551 13.3652 4.5
      vertex 13.6396 12.9067 5
      vertex 13.6396 12.9067 4.5
    endloop
  endfacet
  facet normal 0.46452 -0.885563 0
    outer loop
      vertex 13.3562 12.7581 4.5
      vertex 13.6396 12.9067 5
      vertex 13.3562 12.7581 5
    endloop
  endfacet
  facet normal 0.46452 -0.885563 0
    outer loop
      vertex 13.6396 12.9067 5
      vertex 13.3562 12.7581 4.5
      vertex 13.6396 12.9067 4.5
    endloop
  endfacet
  facet normal 0.936797 -0.349873 0
    outer loop
      vertex 13.2551 12.4874 5
      vertex 13.3562 12.7581 4.5
      vertex 13.3562 12.7581 5
    endloop
  endfacet
  facet normal 0.936797 -0.349873 0
    outer loop
      vertex 13.3562 12.7581 4.5
      vertex 13.2551 12.4874 5
      vertex 13.2551 12.4874 4.5
    endloop
  endfacet
  facet normal 0.93734 0.348415 0
    outer loop
      vertex 13.3533 12.2234 5
      vertex 13.2551 12.4874 4.5
      vertex 13.2551 12.4874 5
    endloop
  endfacet
  facet normal 0.93734 0.348415 0
    outer loop
      vertex 13.2551 12.4874 4.5
      vertex 13.3533 12.2234 5
      vertex 13.3533 12.2234 4.5
    endloop
  endfacet
  facet normal 0.582215 0.813035 -0
    outer loop
      vertex 13.6125 12.0377 4.5
      vertex 13.3533 12.2234 5
      vertex 13.6125 12.0377 5
    endloop
  endfacet
  facet normal 0.582215 0.813035 0
    outer loop
      vertex 13.3533 12.2234 5
      vertex 13.6125 12.0377 4.5
      vertex 13.3533 12.2234 4.5
    endloop
  endfacet
  facet normal 0 -1 0
    outer loop
      vertex 13.3046 12.0377 4.5
      vertex 13.6125 12.0377 5
      vertex 13.3046 12.0377 5
    endloop
  endfacet
  facet normal 0 -1 -0
    outer loop
      vertex 13.6125 12.0377 5
      vertex 13.3046 12.0377 4.5
      vertex 13.6125 12.0377 4.5
    endloop
  endfacet
  facet normal 1 -0 0
    outer loop
      vertex 13.3046 11.8125 5
      vertex 13.3046 12.0377 4.5
      vertex 13.3046 12.0377 5
    endloop
  endfacet
  facet normal 1 0 0
    outer loop
      vertex 13.3046 12.0377 4.5
      vertex 13.3046 11.8125 5
      vertex 13.3046 11.8125 4.5
    endloop
  endfacet
  facet normal 0 1 -0
    outer loop
      vertex 15.5 11.8125 4.5
      vertex 13.3046 11.8125 5
      vertex 15.5 11.8125 5
    endloop
  endfacet
  facet normal 0 1 0
    outer loop
      vertex 13.3046 11.8125 5
      vertex 15.5 11.8125 4.5
      vertex 13.3046 11.8125 4.5
    endloop
  endfacet
  facet normal -0.998811 -0.0487458 0
    outer loop
      vertex 15.5 11.8125 4.5
      vertex 15.4813 12.1952 5
      vertex 15.4813 12.1952 4.5
    endloop
  endfacet
  facet normal -0.998811 -0.0487458 0
    outer loop
      vertex 15.4813 12.1952 5
      vertex 15.5 11.8125 4.5
      vertex 15.5 11.8125 5
    endloop
  endfacet
  facet normal 0.0169524 -0.999856 0
    outer loop
      vertex 14.3798 12.1765 4.5
      vertex 15.4813 12.1952 5
      vertex 14.3798 12.1765 5
    endloop
  endfacet
  facet normal 0.0169524 -0.999856 0
    outer loop
      vertex 15.4813 12.1952 5
      vertex 14.3798 12.1765 4.5
      vertex 15.4813 12.1952 4.5
    endloop
  endfacet
  facet normal 0.0342974 -0.999412 0
    outer loop
      vertex 13.9209 12.1608 4.5
      vertex 14.3798 12.1765 5
      vertex 13.9209 12.1608 5
    endloop
  endfacet
  facet normal 0.0342974 -0.999412 0
    outer loop
      vertex 14.3798 12.1765 5
      vertex 13.9209 12.1608 4.5
      vertex 14.3798 12.1765 4.5
    endloop
  endfacet
  facet normal -0.755322 -0.655353 0
    outer loop
      vertex 13.9209 12.1608 4.5
      vertex 13.7913 12.3102 5
      vertex 13.7913 12.3102 4.5
    endloop
  endfacet
  facet normal -0.755322 -0.655353 0
    outer loop
      vertex 13.7913 12.3102 5
      vertex 13.9209 12.1608 4.5
      vertex 13.9209 12.1608 5
    endloop
  endfacet
  facet normal -0.767842 -0.640639 0
    outer loop
      vertex 13.7913 12.3102 4.5
      vertex 13.6898 12.4318 5
      vertex 13.6898 12.4318 4.5
    endloop
  endfacet
  facet normal -0.767842 -0.640639 0
    outer loop
      vertex 13.6898 12.4318 5
      vertex 13.7913 12.3102 4.5
      vertex 13.7913 12.3102 5
    endloop
  endfacet
  facet normal -0.85902 0.511941 0
    outer loop
      vertex 13.6898 12.4318 4.5
      vertex 13.7762 12.5768 5
      vertex 13.7762 12.5768 4.5
    endloop
  endfacet
  facet normal -0.85902 0.511941 0
    outer loop
      vertex 13.7762 12.5768 5
      vertex 13.6898 12.4318 4.5
      vertex 13.6898 12.4318 5
    endloop
  endfacet
  facet normal -0.120362 0.99273 0
    outer loop
      vertex 14.1296 12.6196 4.5
      vertex 13.7762 12.5768 5
      vertex 14.1296 12.6196 5
    endloop
  endfacet
  facet normal -0.120362 0.99273 0
    outer loop
      vertex 13.7762 12.5768 5
      vertex 14.1296 12.6196 4.5
      vertex 13.7762 12.5768 4.5
    endloop
  endfacet
  facet normal -0.0268819 0.999639 0
    outer loop
      vertex 15.5187 12.657 4.5
      vertex 14.1296 12.6196 5
      vertex 15.5187 12.657 5
    endloop
  endfacet
  facet normal -0.0268819 0.999639 0
    outer loop
      vertex 14.1296 12.6196 5
      vertex 15.5187 12.657 4.5
      vertex 14.1296 12.6196 4.5
    endloop
  endfacet
  facet normal -0.997917 -0.0645042 0
    outer loop
      vertex 15.5187 12.657 4.5
      vertex 15.5 12.9459 5
      vertex 15.5 12.9459 4.5
    endloop
  endfacet
  facet normal -0.997917 -0.0645042 0
    outer loop
      vertex 15.5 12.9459 5
      vertex 15.5187 12.657 4.5
      vertex 15.5187 12.657 5
    endloop
  endfacet
endsolid OpenSCAD_Model
