solid OpenSCAD_Model
  facet normal -0.951057 0.309017 0
    outer loop
      vertex 5.97082 42.2947 0
      vertex 6.2 43 3
      vertex 6.2 43 0
    endloop
  endfacet
  facet normal -0.951057 0.309017 0
    outer loop
      vertex 6.2 43 3
      vertex 5.97082 42.2947 0
      vertex 5.97082 42.2947 3
    endloop
  endfacet
  facet normal -0.587785 -0.809017 0
    outer loop
      vertex 5.37082 44.1413 0
      vertex 5.97082 43.7053 3
      vertex 5.37082 44.1413 3
    endloop
  endfacet
  facet normal -0.587785 -0.809017 -0
    outer loop
      vertex 5.97082 43.7053 3
      vertex 5.37082 44.1413 0
      vertex 5.97082 43.7053 0
    endloop
  endfacet
  facet normal 0.951057 0.309017 0
    outer loop
      vertex 4.02918 42.2947 3
      vertex 3.8 43 0
      vertex 3.8 43 3
    endloop
  endfacet
  facet normal 0.951057 0.309017 0
    outer loop
      vertex 3.8 43 0
      vertex 4.02918 42.2947 3
      vertex 4.02918 42.2947 0
    endloop
  endfacet
  facet normal -0.951056 -0.309018 0
    outer loop
      vertex 6.2 43 0
      vertex 5.97082 43.7053 3
      vertex 5.97082 43.7053 0
    endloop
  endfacet
  facet normal -0.951056 -0.309018 0
    outer loop
      vertex 5.97082 43.7053 3
      vertex 6.2 43 0
      vertex 6.2 43 3
    endloop
  endfacet
  facet normal 0.587785 -0.809017 0
    outer loop
      vertex 4.02918 43.7053 0
      vertex 4.62918 44.1413 3
      vertex 4.02918 43.7053 3
    endloop
  endfacet
  facet normal 0.587785 -0.809017 0
    outer loop
      vertex 4.62918 44.1413 3
      vertex 4.02918 43.7053 0
      vertex 4.62918 44.1413 0
    endloop
  endfacet
  facet normal 0.587785 0.809017 -0
    outer loop
      vertex 4.62918 41.8587 0
      vertex 4.02918 42.2947 3
      vertex 4.62918 41.8587 3
    endloop
  endfacet
  facet normal 0.587785 0.809017 0
    outer loop
      vertex 4.02918 42.2947 3
      vertex 4.62918 41.8587 0
      vertex 4.02918 42.2947 0
    endloop
  endfacet
  facet normal -0.587785 0.809017 0
    outer loop
      vertex 5.97082 42.2947 0
      vertex 5.37082 41.8587 3
      vertex 5.97082 42.2947 3
    endloop
  endfacet
  facet normal -0.587785 0.809017 0
    outer loop
      vertex 5.37082 41.8587 3
      vertex 5.97082 42.2947 0
      vertex 5.37082 41.8587 0
    endloop
  endfacet
  facet normal 0.951056 -0.309018 0
    outer loop
      vertex 3.8 43 3
      vertex 4.02918 43.7053 0
      vertex 4.02918 43.7053 3
    endloop
  endfacet
  facet normal 0.951056 -0.309018 0
    outer loop
      vertex 4.02918 43.7053 0
      vertex 3.8 43 3
      vertex 3.8 43 0
    endloop
  endfacet
  facet normal 0 0 -1
    outer loop
      vertex 16 48 0
      vertex 5.97082 42.2947 0
      vertex 6.2 43 0
    endloop
  endfacet
  facet normal 0 0 -1
    outer loop
      vertex 5.37082 41.8587 0
      vertex 6.37082 31.6413 0
      vertex 5.62918 31.6413 0
    endloop
  endfacet
  facet normal 0 0 -1
    outer loop
      vertex 6.37082 31.6413 0
      vertex 5.37082 41.8587 0
      vertex 5.97082 42.2947 0
    endloop
  endfacet
  facet normal 0 0 -1
    outer loop
      vertex 4.62918 41.8587 0
      vertex 5.62918 31.6413 0
      vertex 5.02919 31.2053 0
    endloop
  endfacet
  facet normal 0 0 -1
    outer loop
      vertex 0 28.25 0
      vertex 5.02919 31.2053 0
      vertex 4.8 30.5 0
    endloop
  endfacet
  facet normal 0 0 -1
    outer loop
      vertex 5.62918 31.6413 0
      vertex 4.62918 41.8587 0
      vertex 5.37082 41.8587 0
    endloop
  endfacet
  facet normal 0 0 -1
    outer loop
      vertex 12.25 28.25 0
      vertex 6.97081 29.7946 0
      vertex 7.2 30.5 0
    endloop
  endfacet
  facet normal 0 0 -1
    outer loop
      vertex 12.25 28.25 0
      vertex 6.37082 29.3587 0
      vertex 6.97081 29.7946 0
    endloop
  endfacet
  facet normal 0 0 -1
    outer loop
      vertex 12.25 28.25 0
      vertex 5.62918 29.3587 0
      vertex 6.37082 29.3587 0
    endloop
  endfacet
  facet normal 0 0 -1
    outer loop
      vertex 5.02919 31.2053 0
      vertex 4.02918 42.2947 0
      vertex 4.62918 41.8587 0
    endloop
  endfacet
  facet normal -0 0 -1
    outer loop
      vertex 5.02919 31.2053 0
      vertex 0 28.25 0
      vertex 4.02918 42.2947 0
    endloop
  endfacet
  facet normal 0 0 -1
    outer loop
      vertex 0 48 0
      vertex 4.02918 42.2947 0
      vertex 0 28.25 0
    endloop
  endfacet
  facet normal -0 0 -1
    outer loop
      vertex 5.02919 29.7946 0
      vertex 0 28.25 0
      vertex 4.8 30.5 0
    endloop
  endfacet
  facet normal -0 0 -1
    outer loop
      vertex 5.62918 29.3587 0
      vertex 0 28.25 0
      vertex 5.02919 29.7946 0
    endloop
  endfacet
  facet normal 0 0 -1
    outer loop
      vertex 0 28.25 0
      vertex 5.62918 29.3587 0
      vertex 12.25 28.25 0
    endloop
  endfacet
  facet normal 0 0 -1
    outer loop
      vertex 12.25 28.25 0
      vertex 16 0 0
      vertex 12.25 4.75 0
    endloop
  endfacet
  facet normal 0 0 -1
    outer loop
      vertex 6.97081 1.79466 0
      vertex 12.25 4.75 0
      vertex 16 0 0
    endloop
  endfacet
  facet normal 0 0 -1
    outer loop
      vertex 12.25 4.75 0
      vertex 6.97081 1.79466 0
      vertex 7.2 2.5 0
    endloop
  endfacet
  facet normal 0 0 -1
    outer loop
      vertex 16 0 0
      vertex 6.37082 1.35873 0
      vertex 6.97081 1.79466 0
    endloop
  endfacet
  facet normal 0 0 -1
    outer loop
      vertex 0 0 0
      vertex 6.37082 1.35873 0
      vertex 16 0 0
    endloop
  endfacet
  facet normal -0 0 -1
    outer loop
      vertex 5.02919 1.79466 0
      vertex 0 0 0
      vertex 4.8 2.5 0
    endloop
  endfacet
  facet normal -0 0 -1
    outer loop
      vertex 5.62918 1.35873 0
      vertex 0 0 0
      vertex 5.02919 1.79466 0
    endloop
  endfacet
  facet normal -0 0 -1
    outer loop
      vertex 6.37082 1.35873 0
      vertex 0 0 0
      vertex 5.62918 1.35873 0
    endloop
  endfacet
  facet normal 0 0 -1
    outer loop
      vertex 16 0 0
      vertex 12.25 28.25 0
      vertex 16 48 0
    endloop
  endfacet
  facet normal 0 0 -1
    outer loop
      vertex 6.97081 31.2053 0
      vertex 12.25 28.25 0
      vertex 7.2 30.5 0
    endloop
  endfacet
  facet normal 0 0 -1
    outer loop
      vertex 5.97082 42.2947 0
      vertex 12.25 28.25 0
      vertex 6.97081 31.2053 0
    endloop
  endfacet
  facet normal 0 0 -1
    outer loop
      vertex 5.97082 42.2947 0
      vertex 6.97081 31.2053 0
      vertex 6.37082 31.6413 0
    endloop
  endfacet
  facet normal 0 0 -1
    outer loop
      vertex 5.97082 42.2947 0
      vertex 16 48 0
      vertex 12.25 28.25 0
    endloop
  endfacet
  facet normal 0 0 -1
    outer loop
      vertex 5.97082 43.7053 0
      vertex 16 48 0
      vertex 6.2 43 0
    endloop
  endfacet
  facet normal 0 0 -1
    outer loop
      vertex 5.37082 44.1413 0
      vertex 16 48 0
      vertex 5.97082 43.7053 0
    endloop
  endfacet
  facet normal 0 0 -1
    outer loop
      vertex 0 48 0
      vertex 5.37082 44.1413 0
      vertex 4.62918 44.1413 0
    endloop
  endfacet
  facet normal 0 0 -1
    outer loop
      vertex 5.37082 44.1413 0
      vertex 0 48 0
      vertex 16 48 0
    endloop
  endfacet
  facet normal 0 0 -1
    outer loop
      vertex 4.02918 43.7053 0
      vertex 0 48 0
      vertex 4.62918 44.1413 0
    endloop
  endfacet
  facet normal 0 0 -1
    outer loop
      vertex 3.8 43 0
      vertex 0 48 0
      vertex 4.02918 43.7053 0
    endloop
  endfacet
  facet normal 0 0 -1
    outer loop
      vertex 4.02918 42.2947 0
      vertex 0 48 0
      vertex 3.8 43 0
    endloop
  endfacet
  facet normal 0 0 -1
    outer loop
      vertex 6.97081 3.20534 0
      vertex 12.25 4.75 0
      vertex 7.2 2.5 0
    endloop
  endfacet
  facet normal 0 0 -1
    outer loop
      vertex 6.37082 3.64127 0
      vertex 12.25 4.75 0
      vertex 6.97081 3.20534 0
    endloop
  endfacet
  facet normal 0 0 -1
    outer loop
      vertex 5.62918 3.64127 0
      vertex 12.25 4.75 0
      vertex 6.37082 3.64127 0
    endloop
  endfacet
  facet normal 0 0 -1
    outer loop
      vertex 0 4.75 0
      vertex 4.8 2.5 0
      vertex 0 0 0
    endloop
  endfacet
  facet normal 0 0 -1
    outer loop
      vertex 4.8 2.5 0
      vertex 0 4.75 0
      vertex 5.02919 3.20534 0
    endloop
  endfacet
  facet normal 0 0 -1
    outer loop
      vertex 5.62918 3.64127 0
      vertex 0 4.75 0
      vertex 12.25 4.75 0
    endloop
  endfacet
  facet normal 0 0 -1
    outer loop
      vertex 5.02919 3.20534 0
      vertex 0 4.75 0
      vertex 5.62918 3.64127 0
    endloop
  endfacet
  facet normal 0 0 1
    outer loop
      vertex 6.2 43 3
      vertex 8 43 3
      vertex 7.42705 44.7634 3
    endloop
  endfacet
  facet normal 0 0 1
    outer loop
      vertex 8 43 3
      vertex 6.2 43 3
      vertex 7.42705 41.2366 3
    endloop
  endfacet
  facet normal 0 0 1
    outer loop
      vertex 7.42705 44.7634 3
      vertex 5.97082 43.7053 3
      vertex 6.2 43 3
    endloop
  endfacet
  facet normal 0 0 1
    outer loop
      vertex 5.92705 45.8532 3
      vertex 5.97082 43.7053 3
      vertex 7.42705 44.7634 3
    endloop
  endfacet
  facet normal 0 0 1
    outer loop
      vertex 5.92705 45.8532 3
      vertex 5.37082 44.1413 3
      vertex 5.97082 43.7053 3
    endloop
  endfacet
  facet normal 0 0 1
    outer loop
      vertex 5.92705 45.8532 3
      vertex 4.62918 44.1413 3
      vertex 5.37082 44.1413 3
    endloop
  endfacet
  facet normal -0 0 1
    outer loop
      vertex 4.07295 45.8532 3
      vertex 4.62918 44.1413 3
      vertex 5.92705 45.8532 3
    endloop
  endfacet
  facet normal 0 0 1
    outer loop
      vertex 4.07295 45.8532 3
      vertex 4.02918 43.7053 3
      vertex 4.62918 44.1413 3
    endloop
  endfacet
  facet normal -0 0 1
    outer loop
      vertex 2.57295 44.7634 3
      vertex 4.02918 43.7053 3
      vertex 4.07295 45.8532 3
    endloop
  endfacet
  facet normal 0 0 1
    outer loop
      vertex 4.02918 43.7053 3
      vertex 2.57295 44.7634 3
      vertex 3.8 43 3
    endloop
  endfacet
  facet normal -0 0 1
    outer loop
      vertex 5.97082 42.2947 3
      vertex 7.42705 41.2366 3
      vertex 6.2 43 3
    endloop
  endfacet
  facet normal 0 0 1
    outer loop
      vertex 5.97082 42.2947 3
      vertex 5.92705 40.1468 3
      vertex 7.42705 41.2366 3
    endloop
  endfacet
  facet normal -0 0 1
    outer loop
      vertex 5.37082 41.8587 3
      vertex 5.92705 40.1468 3
      vertex 5.97082 42.2947 3
    endloop
  endfacet
  facet normal -0 0 1
    outer loop
      vertex 4.62918 41.8587 3
      vertex 5.92705 40.1468 3
      vertex 5.37082 41.8587 3
    endloop
  endfacet
  facet normal 0 0 1
    outer loop
      vertex 4.62918 41.8587 3
      vertex 4.07295 40.1468 3
      vertex 5.92705 40.1468 3
    endloop
  endfacet
  facet normal 0 0 1
    outer loop
      vertex 4.02918 42.2947 3
      vertex 4.07295 40.1468 3
      vertex 4.62918 41.8587 3
    endloop
  endfacet
  facet normal 0 0 1
    outer loop
      vertex 2.57295 41.2366 3
      vertex 4.02918 42.2947 3
      vertex 3.8 43 3
    endloop
  endfacet
  facet normal 0 0 1
    outer loop
      vertex 2 43 3
      vertex 3.8 43 3
      vertex 2.57295 44.7634 3
    endloop
  endfacet
  facet normal 0 0 1
    outer loop
      vertex 4.02918 42.2947 3
      vertex 2.57295 41.2366 3
      vertex 4.07295 40.1468 3
    endloop
  endfacet
  facet normal 0 0 1
    outer loop
      vertex 3.8 43 3
      vertex 2 43 3
      vertex 2.57295 41.2366 3
    endloop
  endfacet
  facet normal 0 -1 0
    outer loop
      vertex 4.62918 44.1413 0
      vertex 5.37082 44.1413 3
      vertex 4.62918 44.1413 3
    endloop
  endfacet
  facet normal 0 -1 -0
    outer loop
      vertex 5.37082 44.1413 3
      vertex 4.62918 44.1413 0
      vertex 5.37082 44.1413 0
    endloop
  endfacet
  facet normal 0 1 -0
    outer loop
      vertex 5.37082 41.8587 0
      vertex 4.62918 41.8587 3
      vertex 5.37082 41.8587 3
    endloop
  endfacet
  facet normal 0 1 0
    outer loop
      vertex 4.62918 41.8587 3
      vertex 5.37082 41.8587 0
      vertex 4.62918 41.8587 0
    endloop
  endfacet
  facet normal -0.587785 -0.809017 0
    outer loop
      vertex 5.92705 45.8532 3
      vertex 7.42705 44.7634 5
      vertex 5.92705 45.8532 5
    endloop
  endfacet
  facet normal -0.587785 -0.809017 -0
    outer loop
      vertex 7.42705 44.7634 5
      vertex 5.92705 45.8532 3
      vertex 7.42705 44.7634 3
    endloop
  endfacet
  facet normal -0.951056 -0.309017 0
    outer loop
      vertex 8 43 3
      vertex 7.42705 44.7634 5
      vertex 7.42705 44.7634 3
    endloop
  endfacet
  facet normal -0.951056 -0.309017 0
    outer loop
      vertex 7.42705 44.7634 5
      vertex 8 43 3
      vertex 8 43 5
    endloop
  endfacet
  facet normal 0.587785 -0.809017 0
    outer loop
      vertex 2.57295 44.7634 3
      vertex 4.07295 45.8532 5
      vertex 2.57295 44.7634 5
    endloop
  endfacet
  facet normal 0.587785 -0.809017 0
    outer loop
      vertex 4.07295 45.8532 5
      vertex 2.57295 44.7634 3
      vertex 4.07295 45.8532 3
    endloop
  endfacet
  facet normal 0.587786 0.809016 -0
    outer loop
      vertex 4.07295 40.1468 3
      vertex 2.57295 41.2366 5
      vertex 4.07295 40.1468 5
    endloop
  endfacet
  facet normal 0.587786 0.809016 0
    outer loop
      vertex 2.57295 41.2366 5
      vertex 4.07295 40.1468 3
      vertex 2.57295 41.2366 3
    endloop
  endfacet
  facet normal -0.587786 0.809016 0
    outer loop
      vertex 7.42705 41.2366 3
      vertex 5.92705 40.1468 5
      vertex 7.42705 41.2366 5
    endloop
  endfacet
  facet normal -0.587786 0.809016 0
    outer loop
      vertex 5.92705 40.1468 5
      vertex 7.42705 41.2366 3
      vertex 5.92705 40.1468 3
    endloop
  endfacet
  facet normal 0.951057 -0.309017 0
    outer loop
      vertex 2 43 5
      vertex 2.57295 44.7634 3
      vertex 2.57295 44.7634 5
    endloop
  endfacet
  facet normal 0.951057 -0.309017 0
    outer loop
      vertex 2.57295 44.7634 3
      vertex 2 43 5
      vertex 2 43 3
    endloop
  endfacet
  facet normal 0 0 1
    outer loop
      vertex 12.25 4.75 5
      vertex 6.97081 3.20534 5
      vertex 7.2 2.5 5
    endloop
  endfacet
  facet normal 0 0 1
    outer loop
      vertex 12.25 4.75 5
      vertex 6.37082 3.64127 5
      vertex 6.97081 3.20534 5
    endloop
  endfacet
  facet normal 0 0 1
    outer loop
      vertex 12.25 4.75 5
      vertex 5.62918 3.64127 5
      vertex 6.37082 3.64127 5
    endloop
  endfacet
  facet normal 0 0 1
    outer loop
      vertex 5.02919 3.20534 5
      vertex 0 4.75 5
      vertex 4.8 2.5 5
    endloop
  endfacet
  facet normal 0 0 1
    outer loop
      vertex 5.62918 3.64127 5
      vertex 0 4.75 5
      vertex 5.02919 3.20534 5
    endloop
  endfacet
  facet normal -0 0 1
    outer loop
      vertex 0 4.75 5
      vertex 5.62918 3.64127 5
      vertex 12.25 4.75 5
    endloop
  endfacet
  facet normal 0 0 1
    outer loop
      vertex 12.25 28.25 5
      vertex 6.97081 31.2053 5
      vertex 7.2 30.5 5
    endloop
  endfacet
  facet normal 0 0 1
    outer loop
      vertex 7.42705 41.2366 5
      vertex 6.37082 31.6413 5
      vertex 6.97081 31.2053 5
    endloop
  endfacet
  facet normal -0 0 1
    outer loop
      vertex 5.92705 40.1468 5
      vertex 6.37082 31.6413 5
      vertex 7.42705 41.2366 5
    endloop
  endfacet
  facet normal 0 0 1
    outer loop
      vertex 5.92705 40.1468 5
      vertex 5.62918 31.6413 5
      vertex 6.37082 31.6413 5
    endloop
  endfacet
  facet normal -0 0 1
    outer loop
      vertex 4.07295 40.1468 5
      vertex 5.62918 31.6413 5
      vertex 5.92705 40.1468 5
    endloop
  endfacet
  facet normal 0 0 1
    outer loop
      vertex 5.62918 31.6413 5
      vertex 4.07295 40.1468 5
      vertex 5.02919 31.2053 5
    endloop
  endfacet
  facet normal 0 0 1
    outer loop
      vertex 0 28.25 5
      vertex 5.02919 31.2053 5
      vertex 4.07295 40.1468 5
    endloop
  endfacet
  facet normal 0 0 1
    outer loop
      vertex 16 48 5
      vertex 12.25 28.25 5
      vertex 16 0 5
    endloop
  endfacet
  facet normal 0 0 1
    outer loop
      vertex 7.42705 41.2366 5
      vertex 16 48 5
      vertex 8 43 5
    endloop
  endfacet
  facet normal 0 0 1
    outer loop
      vertex 16 48 5
      vertex 7.42705 44.7634 5
      vertex 8 43 5
    endloop
  endfacet
  facet normal 0 0 1
    outer loop
      vertex 16 48 5
      vertex 5.92705 45.8532 5
      vertex 7.42705 44.7634 5
    endloop
  endfacet
  facet normal -0 0 1
    outer loop
      vertex 0 48 5
      vertex 5.92705 45.8532 5
      vertex 16 48 5
    endloop
  endfacet
  facet normal 0 0 1
    outer loop
      vertex 2.57295 44.7634 5
      vertex 0 48 5
      vertex 2 43 5
    endloop
  endfacet
  facet normal 0 0 1
    outer loop
      vertex 4.07295 45.8532 5
      vertex 0 48 5
      vertex 2.57295 44.7634 5
    endloop
  endfacet
  facet normal 0 0 1
    outer loop
      vertex 5.92705 45.8532 5
      vertex 0 48 5
      vertex 4.07295 45.8532 5
    endloop
  endfacet
  facet normal -0 0 1
    outer loop
      vertex 12.25 4.75 5
      vertex 16 0 5
      vertex 12.25 28.25 5
    endloop
  endfacet
  facet normal 0 0 1
    outer loop
      vertex 6.97081 1.79466 5
      vertex 12.25 4.75 5
      vertex 7.2 2.5 5
    endloop
  endfacet
  facet normal 0 0 1
    outer loop
      vertex 12.25 4.75 5
      vertex 6.97081 1.79466 5
      vertex 16 0 5
    endloop
  endfacet
  facet normal -0 0 1
    outer loop
      vertex 6.37082 1.35873 5
      vertex 16 0 5
      vertex 6.97081 1.79466 5
    endloop
  endfacet
  facet normal 0 0 1
    outer loop
      vertex 0 0 5
      vertex 6.37082 1.35873 5
      vertex 5.62918 1.35873 5
    endloop
  endfacet
  facet normal 0 0 1
    outer loop
      vertex 0 0 5
      vertex 4.8 2.5 5
      vertex 0 4.75 5
    endloop
  endfacet
  facet normal 0 0 1
    outer loop
      vertex 4.8 2.5 5
      vertex 0 0 5
      vertex 5.02919 1.79466 5
    endloop
  endfacet
  facet normal 0 0 1
    outer loop
      vertex 6.37082 1.35873 5
      vertex 0 0 5
      vertex 16 0 5
    endloop
  endfacet
  facet normal 0 0 1
    outer loop
      vertex 5.02919 1.79466 5
      vertex 0 0 5
      vertex 5.62918 1.35873 5
    endloop
  endfacet
  facet normal 0 0 1
    outer loop
      vertex 16 48 5
      vertex 7.42705 41.2366 5
      vertex 12.25 28.25 5
    endloop
  endfacet
  facet normal -0 0 1
    outer loop
      vertex 6.97081 31.2053 5
      vertex 12.25 28.25 5
      vertex 7.42705 41.2366 5
    endloop
  endfacet
  facet normal -0 0 1
    outer loop
      vertex 6.97081 29.7946 5
      vertex 12.25 28.25 5
      vertex 7.2 30.5 5
    endloop
  endfacet
  facet normal -0 0 1
    outer loop
      vertex 6.37082 29.3587 5
      vertex 12.25 28.25 5
      vertex 6.97081 29.7946 5
    endloop
  endfacet
  facet normal -0 0 1
    outer loop
      vertex 5.62918 29.3587 5
      vertex 12.25 28.25 5
      vertex 6.37082 29.3587 5
    endloop
  endfacet
  facet normal 0 0 1
    outer loop
      vertex 0 28.25 5
      vertex 4.07295 40.1468 5
      vertex 2.57295 41.2366 5
    endloop
  endfacet
  facet normal 0 0 1
    outer loop
      vertex 0 28.25 5
      vertex 2.57295 41.2366 5
      vertex 2 43 5
    endloop
  endfacet
  facet normal 0 0 1
    outer loop
      vertex 0 28.25 5
      vertex 2 43 5
      vertex 0 48 5
    endloop
  endfacet
  facet normal 0 0 1
    outer loop
      vertex 5.62918 29.3587 5
      vertex 0 28.25 5
      vertex 12.25 28.25 5
    endloop
  endfacet
  facet normal 0 0 1
    outer loop
      vertex 5.02919 29.7946 5
      vertex 0 28.25 5
      vertex 5.62918 29.3587 5
    endloop
  endfacet
  facet normal 0 0 1
    outer loop
      vertex 4.8 30.5 5
      vertex 0 28.25 5
      vertex 5.02919 29.7946 5
    endloop
  endfacet
  facet normal 0 0 1
    outer loop
      vertex 5.02919 31.2053 5
      vertex 0 28.25 5
      vertex 4.8 30.5 5
    endloop
  endfacet
  facet normal 0 -1 0
    outer loop
      vertex 4.07295 45.8532 3
      vertex 5.92705 45.8532 5
      vertex 4.07295 45.8532 5
    endloop
  endfacet
  facet normal 0 -1 -0
    outer loop
      vertex 5.92705 45.8532 5
      vertex 4.07295 45.8532 3
      vertex 5.92705 45.8532 3
    endloop
  endfacet
  facet normal 0 1 -0
    outer loop
      vertex 5.92705 40.1468 3
      vertex 4.07295 40.1468 5
      vertex 5.92705 40.1468 5
    endloop
  endfacet
  facet normal 0 1 0
    outer loop
      vertex 4.07295 40.1468 5
      vertex 5.92705 40.1468 3
      vertex 4.07295 40.1468 3
    endloop
  endfacet
  facet normal -0.951056 0.309017 0
    outer loop
      vertex 7.42705 41.2366 3
      vertex 8 43 5
      vertex 8 43 3
    endloop
  endfacet
  facet normal -0.951056 0.309017 0
    outer loop
      vertex 8 43 5
      vertex 7.42705 41.2366 3
      vertex 7.42705 41.2366 5
    endloop
  endfacet
  facet normal 0.951057 0.309017 0
    outer loop
      vertex 2.57295 41.2366 5
      vertex 2 43 3
      vertex 2 43 5
    endloop
  endfacet
  facet normal 0.951057 0.309017 0
    outer loop
      vertex 2 43 3
      vertex 2.57295 41.2366 5
      vertex 2.57295 41.2366 3
    endloop
  endfacet
  facet normal 0 1 -0
    outer loop
      vertex 16 48 0
      vertex 0 48 5
      vertex 16 48 5
    endloop
  endfacet
  facet normal 0 1 0
    outer loop
      vertex 0 48 5
      vertex 16 48 0
      vertex 0 48 0
    endloop
  endfacet
  facet normal -1 0 0
    outer loop
      vertex 0 28.25 0
      vertex 0 48 5
      vertex 0 48 0
    endloop
  endfacet
  facet normal -1 -0 0
    outer loop
      vertex 0 48 5
      vertex 0 28.25 0
      vertex 0 28.25 5
    endloop
  endfacet
  facet normal 0 -1 0
    outer loop
      vertex 0 28.25 0
      vertex 12.25 28.25 5
      vertex 0 28.25 5
    endloop
  endfacet
  facet normal 0 -1 -0
    outer loop
      vertex 12.25 28.25 5
      vertex 0 28.25 0
      vertex 12.25 28.25 0
    endloop
  endfacet
  facet normal -1 0 0
    outer loop
      vertex 12.25 4.75 0
      vertex 12.25 28.25 5
      vertex 12.25 28.25 0
    endloop
  endfacet
  facet normal -1 -0 0
    outer loop
      vertex 12.25 28.25 5
      vertex 12.25 4.75 0
      vertex 12.25 4.75 5
    endloop
  endfacet
  facet normal 0 1 -0
    outer loop
      vertex 12.25 4.75 0
      vertex 0 4.75 5
      vertex 12.25 4.75 5
    endloop
  endfacet
  facet normal 0 1 0
    outer loop
      vertex 0 4.75 5
      vertex 12.25 4.75 0
      vertex 0 4.75 0
    endloop
  endfacet
  facet normal -1 0 0
    outer loop
      vertex 0 0 0
      vertex 0 4.75 5
      vertex 0 4.75 0
    endloop
  endfacet
  facet normal -1 -0 0
    outer loop
      vertex 0 4.75 5
      vertex 0 0 0
      vertex 0 0 5
    endloop
  endfacet
  facet normal 0 -1 0
    outer loop
      vertex 0 0 0
      vertex 16 0 5
      vertex 0 0 5
    endloop
  endfacet
  facet normal 0 -1 -0
    outer loop
      vertex 16 0 5
      vertex 0 0 0
      vertex 16 0 0
    endloop
  endfacet
  facet normal 1 0 0
    outer loop
      vertex 16 2.34448 1.48132
      vertex 16 1.86401 2.62024
      vertex 16 1.88269 1.51868
    endloop
  endfacet
  facet normal 1 0 0
    outer loop
      vertex 16 2.30713 2.87036
      vertex 16 1.84827 3.0791
      vertex 16 1.86401 2.62024
    endloop
  endfacet
  facet normal 1 0 0
    outer loop
      vertex 16 1.91089 3.64673
      vertex 16 1.72522 3.69543
      vertex 16 1.72522 3.38745
    endloop
  endfacet
  facet normal 1 -0 0
    outer loop
      vertex 16 2.922 3.2915
      vertex 16 3.1615 3.16699
      vertex 16 3.07288 3.3252
    endloop
  endfacet
  facet normal 1 -0 0
    outer loop
      vertex 16 4.40918 4.10266
      vertex 16 4.78125 3.69543
      vertex 16 4.78125 4.10266
    endloop
  endfacet
  facet normal 1 0 0
    outer loop
      vertex 16 4.78125 3.69543
      vertex 16 4.40918 4.10266
      vertex 16 4.40918 3.69543
    endloop
  endfacet
  facet normal 1 0 0
    outer loop
      vertex 16 7.18359 1.82666
      vertex 16 6.56982 1.5
      vertex 16 7.18359 1.5498
    endloop
  endfacet
  facet normal 1 0 0
    outer loop
      vertex 16 9.24609 1.82666
      vertex 16 8.63232 1.5
      vertex 16 9.24609 1.5498
    endloop
  endfacet
  facet normal 1 0 0
    outer loop
      vertex 16 13.8344 2.55212
      vertex 16 13.4392 2.25659
      vertex 16 13.8237 2.20898
    endloop
  endfacet
  facet normal 1 0 0
    outer loop
      vertex 16 13.4392 2.25659
      vertex 16 12.8606 1.80615
      vertex 16 13.21 1.91345
    endloop
  endfacet
  facet normal 1 0 0
    outer loop
      vertex 16 13.4392 2.25659
      vertex 16 12.4017 1.99841
      vertex 16 12.8606 1.80615
    endloop
  endfacet
  facet normal 1 -0 0
    outer loop
      vertex 16 12.197 2.55212
      vertex 16 13.4392 2.25659
      vertex 16 13.8344 2.55212
    endloop
  endfacet
  facet normal 1 0 0
    outer loop
      vertex 16 13.4392 2.25659
      vertex 16 12.197 2.55212
      vertex 16 12.4017 1.99841
    endloop
  endfacet
  facet normal 1 0 0
    outer loop
      vertex 16 48 5
      vertex 16 13.8362 2.65137
      vertex 16 48 0
    endloop
  endfacet
  facet normal 1 0 0
    outer loop
      vertex 16 48 5
      vertex 16 13.5571 3.49475
      vertex 16 13.8362 2.65137
    endloop
  endfacet
  facet normal 1 0 0
    outer loop
      vertex 16 48 5
      vertex 16 12.8379 3.79468
      vertex 16 13.5571 3.49475
    endloop
  endfacet
  facet normal 1 0 0
    outer loop
      vertex 16 12.0978 3.48853
      vertex 16 10.9688 4.5304
      vertex 16 11.8125 2.62866
    endloop
  endfacet
  facet normal 1 0 0
    outer loop
      vertex 16 12.8379 3.79468
      vertex 16 10.9688 4.5304
      vertex 16 12.0978 3.48853
    endloop
  endfacet
  facet normal 1 0 0
    outer loop
      vertex 16 48 5
      vertex 16 10.9688 4.5304
      vertex 16 12.8379 3.79468
    endloop
  endfacet
  facet normal 1 -0 0
    outer loop
      vertex 16 9.59143 4.5802
      vertex 16 10.9688 4.5304
      vertex 16 48 5
    endloop
  endfacet
  facet normal 1 0 0
    outer loop
      vertex 16 9.59143 1.5498
      vertex 16 10.5967 4.5304
      vertex 16 9.59143 4.5802
    endloop
  endfacet
  facet normal 1 0 0
    outer loop
      vertex 16 10.9688 4.5304
      vertex 16 9.59143 4.5802
      vertex 16 10.5967 4.5304
    endloop
  endfacet
  facet normal 1 -0 0
    outer loop
      vertex 16 0 5
      vertex 16 9.59143 4.5802
      vertex 16 48 5
    endloop
  endfacet
  facet normal 1 0 0
    outer loop
      vertex 16 9.22119 4.5802
      vertex 16 8.96924 3.71082
      vertex 16 9.22119 3.49292
    endloop
  endfacet
  facet normal 1 0 0
    outer loop
      vertex 16 9.22119 4.5802
      vertex 16 8.61584 3.79468
      vertex 16 8.96924 3.71082
    endloop
  endfacet
  facet normal 1 -0 0
    outer loop
      vertex 16 7.52893 4.5802
      vertex 16 8.61584 3.79468
      vertex 16 9.22119 4.5802
    endloop
  endfacet
  facet normal 1 0 0
    outer loop
      vertex 16 7.797 3.2417
      vertex 16 7.52893 4.5802
      vertex 16 7.6875 2.64514
    endloop
  endfacet
  facet normal 1 0 0
    outer loop
      vertex 16 8.12585 3.65186
      vertex 16 7.52893 4.5802
      vertex 16 7.797 3.2417
    endloop
  endfacet
  facet normal 1 0 0
    outer loop
      vertex 16 8.61584 3.79468
      vertex 16 7.52893 4.5802
      vertex 16 8.12585 3.65186
    endloop
  endfacet
  facet normal 1 0 0
    outer loop
      vertex 16 9.59143 4.5802
      vertex 16 0 5
      vertex 16 9.22119 4.5802
    endloop
  endfacet
  facet normal 1 0 0
    outer loop
      vertex 16 9.22119 4.5802
      vertex 16 0 5
      vertex 16 7.52893 4.5802
    endloop
  endfacet
  facet normal 1 0 0
    outer loop
      vertex 16 7.15869 4.5802
      vertex 16 6.90674 3.71082
      vertex 16 7.15869 3.49292
    endloop
  endfacet
  facet normal 1 0 0
    outer loop
      vertex 16 7.15869 4.5802
      vertex 16 6.55334 3.79468
      vertex 16 6.90674 3.71082
    endloop
  endfacet
  facet normal 1 0 0
    outer loop
      vertex 16 7.15869 4.5802
      vertex 16 6.06335 3.65186
      vertex 16 6.55334 3.79468
    endloop
  endfacet
  facet normal 1 -0 0
    outer loop
      vertex 16 4.78125 3.69543
      vertex 16 6.06335 3.65186
      vertex 16 4.78125 4.10266
    endloop
  endfacet
  facet normal 1 -0 0
    outer loop
      vertex 16 4.78125 4.10266
      vertex 16 6.06335 3.65186
      vertex 16 4.78125 4.5304
    endloop
  endfacet
  facet normal 1 0 0
    outer loop
      vertex 16 7.15869 4.5802
      vertex 16 4.78125 4.5304
      vertex 16 6.06335 3.65186
    endloop
  endfacet
  facet normal 1 0 0
    outer loop
      vertex 16 0 5
      vertex 16 4.78125 4.5304
      vertex 16 7.15869 4.5802
    endloop
  endfacet
  facet normal 1 0 0
    outer loop
      vertex 16 3.39221 3.56396
      vertex 16 4.40918 4.10266
      vertex 16 4.40918 4.5304
    endloop
  endfacet
  facet normal 1 0 0
    outer loop
      vertex 16 4.40918 4.10266
      vertex 16 3.39221 3.56396
      vertex 16 4.40918 3.69543
    endloop
  endfacet
  facet normal 1 0 0
    outer loop
      vertex 16 4.40918 3.69543
      vertex 16 3.51086 3.00696
      vertex 16 4.40918 1.5
    endloop
  endfacet
  facet normal 1 0 0
    outer loop
      vertex 16 4.40918 3.69543
      vertex 16 3.39221 3.56396
      vertex 16 3.51086 3.00696
    endloop
  endfacet
  facet normal 1 0 0
    outer loop
      vertex 16 4.40918 4.5304
      vertex 16 3.05273 3.74487
      vertex 16 3.39221 3.56396
    endloop
  endfacet
  facet normal 1 0 0
    outer loop
      vertex 16 3.05273 3.74487
      vertex 16 2.44556 3.6438
      vertex 16 2.59424 3.36035
    endloop
  endfacet
  facet normal 1 0 0
    outer loop
      vertex 16 2.17493 3.74487
      vertex 16 3.05273 3.74487
      vertex 16 4.40918 4.5304
    endloop
  endfacet
  facet normal 1 0 0
    outer loop
      vertex 16 3.05273 3.74487
      vertex 16 2.17493 3.74487
      vertex 16 2.44556 3.6438
    endloop
  endfacet
  facet normal 1 0 0
    outer loop
      vertex 16 2.17493 3.74487
      vertex 16 1.72522 3.69543
      vertex 16 1.91089 3.64673
    endloop
  endfacet
  facet normal 1 0 0
    outer loop
      vertex 16 0 5
      vertex 16 2.17493 3.74487
      vertex 16 4.40918 4.5304
    endloop
  endfacet
  facet normal 1 0 0
    outer loop
      vertex 16 2.17493 3.74487
      vertex 16 0 5
      vertex 16 1.72522 3.69543
    endloop
  endfacet
  facet normal 1 0 0
    outer loop
      vertex 16 1.5 3.69543
      vertex 16 0 5
      vertex 16 1.5 1.5
    endloop
  endfacet
  facet normal 1 0 0
    outer loop
      vertex 16 1.72522 3.69543
      vertex 16 0 5
      vertex 16 1.5 3.69543
    endloop
  endfacet
  facet normal 1 0 0
    outer loop
      vertex 16 4.78125 4.5304
      vertex 16 0 5
      vertex 16 4.40918 4.5304
    endloop
  endfacet
  facet normal 1 0 0
    outer loop
      vertex 16 7.52893 4.5802
      vertex 16 0 5
      vertex 16 7.15869 4.5802
    endloop
  endfacet
  facet normal 1 -0 0
    outer loop
      vertex 16 13.8344 2.55212
      vertex 16 48 0
      vertex 16 13.8362 2.65137
    endloop
  endfacet
  facet normal 1 -0 0
    outer loop
      vertex 16 13.8237 2.20898
      vertex 16 48 0
      vertex 16 13.8344 2.55212
    endloop
  endfacet
  facet normal 1 -0 0
    outer loop
      vertex 16 13.4868 1.68604
      vertex 16 48 0
      vertex 16 13.8237 2.20898
    endloop
  endfacet
  facet normal 1 -0 0
    outer loop
      vertex 16 12.8584 1.5
      vertex 16 48 0
      vertex 16 13.4868 1.68604
    endloop
  endfacet
  facet normal 1 0 0
    outer loop
      vertex 16 10.9688 1.5
      vertex 16 11.8125 2.62866
      vertex 16 10.9688 4.5304
    endloop
  endfacet
  facet normal 1 0 0
    outer loop
      vertex 16 11.8125 2.62866
      vertex 16 10.9688 1.5
      vertex 16 12.0948 1.79663
    endloop
  endfacet
  facet normal 1 0 0
    outer loop
      vertex 16 10.9688 1.5
      vertex 16 12.8584 1.5
      vertex 16 12.0948 1.79663
    endloop
  endfacet
  facet normal 1 0 0
    outer loop
      vertex 16 0 0
      vertex 16 12.8584 1.5
      vertex 16 10.9688 1.5
    endloop
  endfacet
  facet normal 1 0 0
    outer loop
      vertex 16 0 0
      vertex 16 10.9688 1.5
      vertex 16 10.5967 1.5
    endloop
  endfacet
  facet normal 1 0 0
    outer loop
      vertex 16 10.5967 4.5304
      vertex 16 9.59143 1.5498
      vertex 16 10.5967 1.5
    endloop
  endfacet
  facet normal 1 0 0
    outer loop
      vertex 16 8.63232 1.5
      vertex 16 9.59143 1.5498
      vertex 16 9.24609 1.5498
    endloop
  endfacet
  facet normal 1 0 0
    outer loop
      vertex 16 9.59143 1.5498
      vertex 16 8.63232 1.5
      vertex 16 10.5967 1.5
    endloop
  endfacet
  facet normal 1 0 0
    outer loop
      vertex 16 10.5967 1.5
      vertex 16 8.63232 1.5
      vertex 16 0 0
    endloop
  endfacet
  facet normal 1 0 0
    outer loop
      vertex 16 7.52893 1.5498
      vertex 16 7.6875 2.64514
      vertex 16 7.52893 4.5802
    endloop
  endfacet
  facet normal 1 0 0
    outer loop
      vertex 16 7.52893 1.5498
      vertex 16 7.80835 2.04895
      vertex 16 7.6875 2.64514
    endloop
  endfacet
  facet normal 1 0 0
    outer loop
      vertex 16 7.52893 1.5498
      vertex 16 8.14966 1.64465
      vertex 16 7.80835 2.04895
    endloop
  endfacet
  facet normal 1 -0 0
    outer loop
      vertex 16 7.52893 1.5498
      vertex 16 8.63232 1.5
      vertex 16 8.14966 1.64465
    endloop
  endfacet
  facet normal 1 0 0
    outer loop
      vertex 16 6.56982 1.5
      vertex 16 7.52893 1.5498
      vertex 16 7.18359 1.5498
    endloop
  endfacet
  facet normal 1 0 0
    outer loop
      vertex 16 7.52893 1.5498
      vertex 16 6.56982 1.5
      vertex 16 8.63232 1.5
    endloop
  endfacet
  facet normal 1 0 0
    outer loop
      vertex 16 8.63232 1.5
      vertex 16 6.56982 1.5
      vertex 16 0 0
    endloop
  endfacet
  facet normal 1 0 0
    outer loop
      vertex 16 6.06335 3.65186
      vertex 16 4.78125 3.69543
      vertex 16 5.7345 3.2417
    endloop
  endfacet
  facet normal 1 0 0
    outer loop
      vertex 16 5.7345 3.2417
      vertex 16 4.78125 3.69543
      vertex 16 5.625 2.64514
    endloop
  endfacet
  facet normal 1 0 0
    outer loop
      vertex 16 4.78125 1.5
      vertex 16 5.625 2.64514
      vertex 16 4.78125 3.69543
    endloop
  endfacet
  facet normal 1 0 0
    outer loop
      vertex 16 5.625 2.64514
      vertex 16 4.78125 1.5
      vertex 16 5.74585 2.04895
    endloop
  endfacet
  facet normal 1 0 0
    outer loop
      vertex 16 4.78125 1.5
      vertex 16 6.08716 1.64465
      vertex 16 5.74585 2.04895
    endloop
  endfacet
  facet normal 1 0 0
    outer loop
      vertex 16 4.78125 1.5
      vertex 16 6.56982 1.5
      vertex 16 6.08716 1.64465
    endloop
  endfacet
  facet normal 1 0 0
    outer loop
      vertex 16 0 0
      vertex 16 6.56982 1.5
      vertex 16 4.78125 1.5
    endloop
  endfacet
  facet normal 1 0 0
    outer loop
      vertex 16 0 0
      vertex 16 4.78125 1.5
      vertex 16 4.40918 1.5
    endloop
  endfacet
  facet normal 1 0 0
    outer loop
      vertex 16 3.51086 1.5
      vertex 16 4.40918 1.5
      vertex 16 3.51086 3.00696
    endloop
  endfacet
  facet normal 1 0 0
    outer loop
      vertex 16 0 0
      vertex 16 4.40918 1.5
      vertex 16 3.51086 1.5
    endloop
  endfacet
  facet normal 1 0 0
    outer loop
      vertex 16 0 0
      vertex 16 3.51086 1.5
      vertex 16 3.16736 1.5
    endloop
  endfacet
  facet normal 1 0 0
    outer loop
      vertex 16 2.69934 3.11865
      vertex 16 3.1615 3.16699
      vertex 16 2.922 3.2915
    endloop
  endfacet
  facet normal 1 0 0
    outer loop
      vertex 16 3.1615 3.16699
      vertex 16 2.69934 3.11865
      vertex 16 3.14868 2.86414
    endloop
  endfacet
  facet normal 1 0 0
    outer loop
      vertex 16 3.14868 2.86414
      vertex 16 2.69934 3.11865
      vertex 16 2.63342 2.77551
    endloop
  endfacet
  facet normal 1 0 0
    outer loop
      vertex 16 3.14868 2.86414
      vertex 16 2.63342 2.77551
      vertex 16 3.16736 1.5
    endloop
  endfacet
  facet normal 1 0 0
    outer loop
      vertex 16 2.63342 1.5
      vertex 16 3.16736 1.5
      vertex 16 2.63342 2.77551
    endloop
  endfacet
  facet normal 1 0 0
    outer loop
      vertex 16 0 0
      vertex 16 3.16736 1.5
      vertex 16 2.63342 1.5
    endloop
  endfacet
  facet normal 1 0 0
    outer loop
      vertex 16 0 0
      vertex 16 2.63342 1.5
      vertex 16 2.34448 1.48132
    endloop
  endfacet
  facet normal 1 -0 0
    outer loop
      vertex 16 1.99768 3.20874
      vertex 16 2.30713 2.87036
      vertex 16 2.26428 3.22375
    endloop
  endfacet
  facet normal 1 0 0
    outer loop
      vertex 16 1.99768 3.20874
      vertex 16 2.26428 3.22375
      vertex 16 2.11926 3.31018
    endloop
  endfacet
  facet normal 1 -0 0
    outer loop
      vertex 16 1.84827 3.0791
      vertex 16 2.30713 2.87036
      vertex 16 1.99768 3.20874
    endloop
  endfacet
  facet normal 1 -0 0
    outer loop
      vertex 16 1.86401 2.62024
      vertex 16 2.34448 1.48132
      vertex 16 2.30713 2.87036
    endloop
  endfacet
  facet normal 1 0 0
    outer loop
      vertex 16 0 0
      vertex 16 1.88269 1.51868
      vertex 16 1.5 1.5
    endloop
  endfacet
  facet normal 1 0 0
    outer loop
      vertex 16 1.88269 1.51868
      vertex 16 0 0
      vertex 16 2.34448 1.48132
    endloop
  endfacet
  facet normal 1 0 0
    outer loop
      vertex 16 12.8584 1.5
      vertex 16 0 0
      vertex 16 48 0
    endloop
  endfacet
  facet normal 1 0 0
    outer loop
      vertex 16 0 0
      vertex 16 1.5 1.5
      vertex 16 0 5
    endloop
  endfacet
  facet normal 1 -0 0
    outer loop
      vertex 16 6.00769 2.64514
      vertex 16 7.18982 2.61438
      vertex 16 7.01624 3.27576
    endloop
  endfacet
  facet normal 1 0 -0
    outer loop
      vertex 16 6.1853 2.01489
      vertex 16 7.18982 2.61438
      vertex 16 6.00769 2.64514
    endloop
  endfacet
  facet normal 1 -0 0
    outer loop
      vertex 16 6.17395 3.28381
      vertex 16 7.01624 3.27576
      vertex 16 6.5885 3.48669
    endloop
  endfacet
  facet normal 1 0 0
    outer loop
      vertex 16 7.18982 2.61438
      vertex 16 6.1853 2.01489
      vertex 16 7.01917 2.00537
    endloop
  endfacet
  facet normal 1 0 0
    outer loop
      vertex 16 7.01624 3.27576
      vertex 16 6.17395 3.28381
      vertex 16 6.00769 2.64514
    endloop
  endfacet
  facet normal 1 0 0
    outer loop
      vertex 16 7.01917 2.00537
      vertex 16 6.1853 2.01489
      vertex 16 6.60498 1.80615
    endloop
  endfacet
  facet normal 1 -0 0
    outer loop
      vertex 16 8.07019 2.64514
      vertex 16 9.25232 2.61438
      vertex 16 9.07874 3.27576
    endloop
  endfacet
  facet normal 1 0 -0
    outer loop
      vertex 16 8.2478 2.01489
      vertex 16 9.25232 2.61438
      vertex 16 8.07019 2.64514
    endloop
  endfacet
  facet normal 1 -0 0
    outer loop
      vertex 16 8.23645 3.28381
      vertex 16 9.07874 3.27576
      vertex 16 8.651 3.48669
    endloop
  endfacet
  facet normal 1 0 0
    outer loop
      vertex 16 9.25232 2.61438
      vertex 16 8.2478 2.01489
      vertex 16 9.08167 2.00537
    endloop
  endfacet
  facet normal 1 0 0
    outer loop
      vertex 16 9.07874 3.27576
      vertex 16 8.23645 3.28381
      vertex 16 8.07019 2.64514
    endloop
  endfacet
  facet normal 1 0 0
    outer loop
      vertex 16 9.08167 2.00537
      vertex 16 8.2478 2.01489
      vertex 16 8.66748 1.80615
    endloop
  endfacet
  facet normal 1 0 0
    outer loop
      vertex 16 12.8419 3.48853
      vertex 16 13.4436 2.85828
      vertex 16 13.303 3.27356
    endloop
  endfacet
  facet normal 1 -0 0
    outer loop
      vertex 16 12.4109 3.31714
      vertex 16 13.4436 2.85828
      vertex 16 12.8419 3.48853
    endloop
  endfacet
  facet normal 1 0 0
    outer loop
      vertex 16 13.4436 2.85828
      vertex 16 12.4109 3.31714
      vertex 16 12.2179 2.85828
    endloop
  endfacet
  facet normal 0.587794 0.809011 -0
    outer loop
      vertex 5.62918 29.3587 0
      vertex 5.02919 29.7946 5
      vertex 5.62918 29.3587 5
    endloop
  endfacet
  facet normal 0.587794 0.809011 0
    outer loop
      vertex 5.02919 29.7946 5
      vertex 5.62918 29.3587 0
      vertex 5.02919 29.7946 0
    endloop
  endfacet
  facet normal 0.951055 0.309022 0
    outer loop
      vertex 5.02919 29.7946 5
      vertex 4.8 30.5 0
      vertex 4.8 30.5 5
    endloop
  endfacet
  facet normal 0.951055 0.309022 0
    outer loop
      vertex 4.8 30.5 0
      vertex 5.02919 29.7946 5
      vertex 5.02919 29.7946 0
    endloop
  endfacet
  facet normal 0.951053 -0.309028 0
    outer loop
      vertex 4.8 30.5 5
      vertex 5.02919 31.2053 0
      vertex 5.02919 31.2053 5
    endloop
  endfacet
  facet normal 0.951053 -0.309028 0
    outer loop
      vertex 5.02919 31.2053 0
      vertex 4.8 30.5 5
      vertex 4.8 30.5 0
    endloop
  endfacet
  facet normal 0.587794 -0.809011 0
    outer loop
      vertex 5.02919 31.2053 0
      vertex 5.62918 31.6413 5
      vertex 5.02919 31.2053 5
    endloop
  endfacet
  facet normal 0.587794 -0.809011 0
    outer loop
      vertex 5.62918 31.6413 5
      vertex 5.02919 31.2053 0
      vertex 5.62918 31.6413 0
    endloop
  endfacet
  facet normal 0 -1 0
    outer loop
      vertex 5.62918 31.6413 0
      vertex 6.37082 31.6413 5
      vertex 5.62918 31.6413 5
    endloop
  endfacet
  facet normal 0 -1 -0
    outer loop
      vertex 6.37082 31.6413 5
      vertex 5.62918 31.6413 0
      vertex 6.37082 31.6413 0
    endloop
  endfacet
  facet normal -0.587794 -0.809011 0
    outer loop
      vertex 6.37082 31.6413 0
      vertex 6.97081 31.2053 5
      vertex 6.37082 31.6413 5
    endloop
  endfacet
  facet normal -0.587794 -0.809011 -0
    outer loop
      vertex 6.97081 31.2053 5
      vertex 6.37082 31.6413 0
      vertex 6.97081 31.2053 0
    endloop
  endfacet
  facet normal -0.951053 -0.309028 0
    outer loop
      vertex 7.2 30.5 0
      vertex 6.97081 31.2053 5
      vertex 6.97081 31.2053 0
    endloop
  endfacet
  facet normal -0.951053 -0.309028 0
    outer loop
      vertex 6.97081 31.2053 5
      vertex 7.2 30.5 0
      vertex 7.2 30.5 5
    endloop
  endfacet
  facet normal -0.951055 0.309022 0
    outer loop
      vertex 6.97081 29.7946 0
      vertex 7.2 30.5 5
      vertex 7.2 30.5 0
    endloop
  endfacet
  facet normal -0.951055 0.309022 0
    outer loop
      vertex 7.2 30.5 5
      vertex 6.97081 29.7946 0
      vertex 6.97081 29.7946 5
    endloop
  endfacet
  facet normal -0.587794 0.809011 0
    outer loop
      vertex 6.97081 29.7946 0
      vertex 6.37082 29.3587 5
      vertex 6.97081 29.7946 5
    endloop
  endfacet
  facet normal -0.587794 0.809011 0
    outer loop
      vertex 6.37082 29.3587 5
      vertex 6.97081 29.7946 0
      vertex 6.37082 29.3587 0
    endloop
  endfacet
  facet normal 0 1 -0
    outer loop
      vertex 6.37082 29.3587 0
      vertex 5.62918 29.3587 5
      vertex 6.37082 29.3587 5
    endloop
  endfacet
  facet normal 0 1 0
    outer loop
      vertex 5.62918 29.3587 5
      vertex 6.37082 29.3587 0
      vertex 5.62918 29.3587 0
    endloop
  endfacet
  facet normal 0.587794 0.809011 -0
    outer loop
      vertex 5.62918 1.35873 0
      vertex 5.02919 1.79466 5
      vertex 5.62918 1.35873 5
    endloop
  endfacet
  facet normal 0.587794 0.809011 0
    outer loop
      vertex 5.02919 1.79466 5
      vertex 5.62918 1.35873 0
      vertex 5.02919 1.79466 0
    endloop
  endfacet
  facet normal 0.951053 0.309028 0
    outer loop
      vertex 5.02919 1.79466 5
      vertex 4.8 2.5 0
      vertex 4.8 2.5 5
    endloop
  endfacet
  facet normal 0.951053 0.309028 0
    outer loop
      vertex 4.8 2.5 0
      vertex 5.02919 1.79466 5
      vertex 5.02919 1.79466 0
    endloop
  endfacet
  facet normal 0.951053 -0.309028 0
    outer loop
      vertex 4.8 2.5 5
      vertex 5.02919 3.20534 0
      vertex 5.02919 3.20534 5
    endloop
  endfacet
  facet normal 0.951053 -0.309028 0
    outer loop
      vertex 5.02919 3.20534 0
      vertex 4.8 2.5 5
      vertex 4.8 2.5 0
    endloop
  endfacet
  facet normal 0.587794 -0.809011 0
    outer loop
      vertex 5.02919 3.20534 0
      vertex 5.62918 3.64127 5
      vertex 5.02919 3.20534 5
    endloop
  endfacet
  facet normal 0.587794 -0.809011 0
    outer loop
      vertex 5.62918 3.64127 5
      vertex 5.02919 3.20534 0
      vertex 5.62918 3.64127 0
    endloop
  endfacet
  facet normal 0 -1 0
    outer loop
      vertex 5.62918 3.64127 0
      vertex 6.37082 3.64127 5
      vertex 5.62918 3.64127 5
    endloop
  endfacet
  facet normal 0 -1 -0
    outer loop
      vertex 6.37082 3.64127 5
      vertex 5.62918 3.64127 0
      vertex 6.37082 3.64127 0
    endloop
  endfacet
  facet normal -0.587794 -0.809011 0
    outer loop
      vertex 6.37082 3.64127 0
      vertex 6.97081 3.20534 5
      vertex 6.37082 3.64127 5
    endloop
  endfacet
  facet normal -0.587794 -0.809011 -0
    outer loop
      vertex 6.97081 3.20534 5
      vertex 6.37082 3.64127 0
      vertex 6.97081 3.20534 0
    endloop
  endfacet
  facet normal -0.951053 -0.309028 0
    outer loop
      vertex 7.2 2.5 0
      vertex 6.97081 3.20534 5
      vertex 6.97081 3.20534 0
    endloop
  endfacet
  facet normal -0.951053 -0.309028 0
    outer loop
      vertex 6.97081 3.20534 5
      vertex 7.2 2.5 0
      vertex 7.2 2.5 5
    endloop
  endfacet
  facet normal -0.951053 0.309028 0
    outer loop
      vertex 6.97081 1.79466 0
      vertex 7.2 2.5 5
      vertex 7.2 2.5 0
    endloop
  endfacet
  facet normal -0.951053 0.309028 0
    outer loop
      vertex 7.2 2.5 5
      vertex 6.97081 1.79466 0
      vertex 6.97081 1.79466 5
    endloop
  endfacet
  facet normal -0.587794 0.809011 0
    outer loop
      vertex 6.97081 1.79466 0
      vertex 6.37082 1.35873 5
      vertex 6.97081 1.79466 5
    endloop
  endfacet
  facet normal -0.587794 0.809011 0
    outer loop
      vertex 6.37082 1.35873 5
      vertex 6.97081 1.79466 0
      vertex 6.37082 1.35873 0
    endloop
  endfacet
  facet normal 0 1 -0
    outer loop
      vertex 6.37082 1.35873 0
      vertex 5.62918 1.35873 5
      vertex 6.37082 1.35873 5
    endloop
  endfacet
  facet normal 0 1 0
    outer loop
      vertex 5.62918 1.35873 5
      vertex 6.37082 1.35873 0
      vertex 5.62918 1.35873 0
    endloop
  endfacet
  facet normal 1 0 0
    outer loop
      vertex 16.5 1.72522 3.69543
      vertex 16.5 1.5 3.69543
      vertex 16.5 1.72522 3.38745
    endloop
  endfacet
  facet normal 1 -0 0
    outer loop
      vertex 16.5 3.1615 3.16699
      vertex 16.5 3.51086 3.00696
      vertex 16.5 3.39221 3.56396
    endloop
  endfacet
  facet normal 1 0 0
    outer loop
      vertex 16.5 3.51086 3.00696
      vertex 16.5 3.14868 2.86414
      vertex 16.5 3.51086 1.5
    endloop
  endfacet
  facet normal 1 0 0
    outer loop
      vertex 16.5 3.51086 3.00696
      vertex 16.5 3.1615 3.16699
      vertex 16.5 3.14868 2.86414
    endloop
  endfacet
  facet normal 1 0 0
    outer loop
      vertex 16.5 3.39221 3.56396
      vertex 16.5 3.07288 3.3252
      vertex 16.5 3.1615 3.16699
    endloop
  endfacet
  facet normal 1 0 0
    outer loop
      vertex 16.5 3.05273 3.74487
      vertex 16.5 3.07288 3.3252
      vertex 16.5 3.39221 3.56396
    endloop
  endfacet
  facet normal 1 0 0
    outer loop
      vertex 16.5 3.05273 3.74487
      vertex 16.5 2.922 3.2915
      vertex 16.5 3.07288 3.3252
    endloop
  endfacet
  facet normal 1 -0 0
    outer loop
      vertex 16.5 2.59424 3.36035
      vertex 16.5 2.922 3.2915
      vertex 16.5 3.05273 3.74487
    endloop
  endfacet
  facet normal 1 0 0
    outer loop
      vertex 16.5 2.922 3.2915
      vertex 16.5 2.59424 3.36035
      vertex 16.5 2.69934 3.11865
    endloop
  endfacet
  facet normal 1 -0 0
    outer loop
      vertex 16.5 2.26428 3.22375
      vertex 16.5 2.69934 3.11865
      vertex 16.5 2.59424 3.36035
    endloop
  endfacet
  facet normal 1 0 0
    outer loop
      vertex 16.5 2.69934 3.11865
      vertex 16.5 2.30713 2.87036
      vertex 16.5 2.63342 2.77551
    endloop
  endfacet
  facet normal 1 0 0
    outer loop
      vertex 16.5 2.26428 3.22375
      vertex 16.5 2.59424 3.36035
      vertex 16.5 2.44556 3.6438
    endloop
  endfacet
  facet normal 1 0 -0
    outer loop
      vertex 16.5 2.34448 1.48132
      vertex 16.5 2.63342 2.77551
      vertex 16.5 2.30713 2.87036
    endloop
  endfacet
  facet normal 1 0 0
    outer loop
      vertex 16.5 2.63342 2.77551
      vertex 16.5 2.34448 1.48132
      vertex 16.5 2.63342 1.5
    endloop
  endfacet
  facet normal 1 0 0
    outer loop
      vertex 16.5 2.69934 3.11865
      vertex 16.5 2.26428 3.22375
      vertex 16.5 2.30713 2.87036
    endloop
  endfacet
  facet normal 1 0 0
    outer loop
      vertex 16.5 2.11926 3.31018
      vertex 16.5 2.44556 3.6438
      vertex 16.5 2.17493 3.74487
    endloop
  endfacet
  facet normal 1 0 0
    outer loop
      vertex 16.5 2.44556 3.6438
      vertex 16.5 2.11926 3.31018
      vertex 16.5 2.26428 3.22375
    endloop
  endfacet
  facet normal 1 -0 0
    outer loop
      vertex 16.5 1.91089 3.64673
      vertex 16.5 2.11926 3.31018
      vertex 16.5 2.17493 3.74487
    endloop
  endfacet
  facet normal 1 -0 0
    outer loop
      vertex 16.5 1.72522 3.38745
      vertex 16.5 2.11926 3.31018
      vertex 16.5 1.91089 3.64673
    endloop
  endfacet
  facet normal 1 0 0
    outer loop
      vertex 16.5 2.11926 3.31018
      vertex 16.5 1.72522 3.38745
      vertex 16.5 1.99768 3.20874
    endloop
  endfacet
  facet normal 1 0 0
    outer loop
      vertex 16.5 1.99768 3.20874
      vertex 16.5 1.72522 3.38745
      vertex 16.5 1.84827 3.0791
    endloop
  endfacet
  facet normal 1 0 0
    outer loop
      vertex 16.5 3.51086 1.5
      vertex 16.5 3.14868 2.86414
      vertex 16.5 3.16736 1.5
    endloop
  endfacet
  facet normal 1 0 0
    outer loop
      vertex 16.5 1.72522 3.38745
      vertex 16.5 1.86401 2.62024
      vertex 16.5 1.84827 3.0791
    endloop
  endfacet
  facet normal 1 0 0
    outer loop
      vertex 16.5 1.86401 2.62024
      vertex 16.5 1.72522 3.38745
      vertex 16.5 1.5 3.69543
    endloop
  endfacet
  facet normal 1 0 0
    outer loop
      vertex 16.5 1.86401 2.62024
      vertex 16.5 1.5 3.69543
      vertex 16.5 1.5 1.5
    endloop
  endfacet
  facet normal 1 0 0
    outer loop
      vertex 16.5 1.86401 2.62024
      vertex 16.5 1.5 1.5
      vertex 16.5 1.88269 1.51868
    endloop
  endfacet
  facet normal 0 1 -0
    outer loop
      vertex 16.5 2.63342 1.5
      vertex 16 2.63342 2.77551
      vertex 16.5 2.63342 2.77551
    endloop
  endfacet
  facet normal 0 1 0
    outer loop
      vertex 16 2.63342 2.77551
      vertex 16.5 2.63342 1.5
      vertex 16 2.63342 1.5
    endloop
  endfacet
  facet normal 0 0.982044 -0.188653
    outer loop
      vertex 16.5 2.63342 2.77551
      vertex 16 2.69934 3.11865
      vertex 16.5 2.69934 3.11865
    endloop
  endfacet
  facet normal 0 0.982044 -0.188653
    outer loop
      vertex 16 2.69934 3.11865
      vertex 16.5 2.63342 2.77551
      vertex 16 2.63342 2.77551
    endloop
  endfacet
  facet normal 0 0.613221 -0.789912
    outer loop
      vertex 16 2.69934 3.11865
      vertex 16.5 2.922 3.2915
      vertex 16.5 2.69934 3.11865
    endloop
  endfacet
  facet normal 0 0.613221 -0.789912
    outer loop
      vertex 16.5 2.922 3.2915
      vertex 16 2.69934 3.11865
      vertex 16 2.922 3.2915
    endloop
  endfacet
  facet normal 0 0.217934 -0.975964
    outer loop
      vertex 16 2.922 3.2915
      vertex 16.5 3.07288 3.3252
      vertex 16.5 2.922 3.2915
    endloop
  endfacet
  facet normal 0 0.217934 -0.975964
    outer loop
      vertex 16.5 3.07288 3.3252
      vertex 16 2.922 3.2915
      vertex 16 3.07288 3.3252
    endloop
  endfacet
  facet normal 0 -0.872437 -0.488726
    outer loop
      vertex 16 3.1615 3.16699
      vertex 16.5 3.07288 3.3252
      vertex 16 3.07288 3.3252
    endloop
  endfacet
  facet normal 0 -0.872437 -0.488726
    outer loop
      vertex 16.5 3.07288 3.3252
      vertex 16 3.1615 3.16699
      vertex 16.5 3.1615 3.16699
    endloop
  endfacet
  facet normal 0 -0.999106 0.0422838
    outer loop
      vertex 16 3.14868 2.86414
      vertex 16.5 3.1615 3.16699
      vertex 16 3.1615 3.16699
    endloop
  endfacet
  facet normal 0 -0.999106 0.0422838
    outer loop
      vertex 16.5 3.1615 3.16699
      vertex 16 3.14868 2.86414
      vertex 16.5 3.14868 2.86414
    endloop
  endfacet
  facet normal 0 -0.999906 -0.01369
    outer loop
      vertex 16 3.16736 1.5
      vertex 16.5 3.14868 2.86414
      vertex 16 3.14868 2.86414
    endloop
  endfacet
  facet normal 0 -0.999906 -0.01369
    outer loop
      vertex 16.5 3.14868 2.86414
      vertex 16 3.16736 1.5
      vertex 16.5 3.16736 1.5
    endloop
  endfacet
  facet normal 0 0 -1
    outer loop
      vertex 16 3.16736 1.5
      vertex 16.5 3.51086 1.5
      vertex 16.5 3.16736 1.5
    endloop
  endfacet
  facet normal -0 0 -1
    outer loop
      vertex 16.5 3.51086 1.5
      vertex 16 3.16736 1.5
      vertex 16 3.51086 1.5
    endloop
  endfacet
  facet normal 0 1 -0
    outer loop
      vertex 16.5 3.51086 1.5
      vertex 16 3.51086 3.00696
      vertex 16.5 3.51086 3.00696
    endloop
  endfacet
  facet normal 0 1 0
    outer loop
      vertex 16 3.51086 3.00696
      vertex 16.5 3.51086 1.5
      vertex 16 3.51086 1.5
    endloop
  endfacet
  facet normal 0 0.978056 0.208343
    outer loop
      vertex 16.5 3.51086 3.00696
      vertex 16 3.39221 3.56396
      vertex 16.5 3.39221 3.56396
    endloop
  endfacet
  facet normal 0 0.978056 0.208343
    outer loop
      vertex 16 3.39221 3.56396
      vertex 16.5 3.51086 3.00696
      vertex 16 3.51086 3.00696
    endloop
  endfacet
  facet normal -0 0.470292 0.882511
    outer loop
      vertex 16 3.39221 3.56396
      vertex 16.5 3.05273 3.74487
      vertex 16.5 3.39221 3.56396
    endloop
  endfacet
  facet normal 0 0.470292 0.882511
    outer loop
      vertex 16.5 3.05273 3.74487
      vertex 16 3.39221 3.56396
      vertex 16 3.05273 3.74487
    endloop
  endfacet
  facet normal 0 -0.642589 0.766211
    outer loop
      vertex 16 3.05273 3.74487
      vertex 16.5 2.59424 3.36035
      vertex 16.5 3.05273 3.74487
    endloop
  endfacet
  facet normal 0 -0.642589 0.766211
    outer loop
      vertex 16.5 2.59424 3.36035
      vertex 16 3.05273 3.74487
      vertex 16 2.59424 3.36035
    endloop
  endfacet
  facet normal 0 0.885563 0.46452
    outer loop
      vertex 16.5 2.59424 3.36035
      vertex 16 2.44556 3.6438
      vertex 16.5 2.44556 3.6438
    endloop
  endfacet
  facet normal 0 0.885563 0.46452
    outer loop
      vertex 16 2.44556 3.6438
      vertex 16.5 2.59424 3.36035
      vertex 16 2.59424 3.36035
    endloop
  endfacet
  facet normal -0 0.349873 0.936797
    outer loop
      vertex 16 2.44556 3.6438
      vertex 16.5 2.17493 3.74487
      vertex 16.5 2.44556 3.6438
    endloop
  endfacet
  facet normal 0 0.349873 0.936797
    outer loop
      vertex 16.5 2.17493 3.74487
      vertex 16 2.44556 3.6438
      vertex 16 2.17493 3.74487
    endloop
  endfacet
  facet normal 0 -0.348415 0.93734
    outer loop
      vertex 16 2.17493 3.74487
      vertex 16.5 1.91089 3.64673
      vertex 16.5 2.17493 3.74487
    endloop
  endfacet
  facet normal 0 -0.348415 0.93734
    outer loop
      vertex 16.5 1.91089 3.64673
      vertex 16 2.17493 3.74487
      vertex 16 1.91089 3.64673
    endloop
  endfacet
  facet normal 0 -0.813035 0.582215
    outer loop
      vertex 16 1.72522 3.38745
      vertex 16.5 1.91089 3.64673
      vertex 16 1.91089 3.64673
    endloop
  endfacet
  facet normal 0 -0.813035 0.582215
    outer loop
      vertex 16.5 1.91089 3.64673
      vertex 16 1.72522 3.38745
      vertex 16.5 1.72522 3.38745
    endloop
  endfacet
  facet normal 0 1 -0
    outer loop
      vertex 16.5 1.72522 3.38745
      vertex 16 1.72522 3.69543
      vertex 16.5 1.72522 3.69543
    endloop
  endfacet
  facet normal 0 1 0
    outer loop
      vertex 16 1.72522 3.69543
      vertex 16.5 1.72522 3.38745
      vertex 16 1.72522 3.38745
    endloop
  endfacet
  facet normal -0 0 1
    outer loop
      vertex 16 1.72522 3.69543
      vertex 16.5 1.5 3.69543
      vertex 16.5 1.72522 3.69543
    endloop
  endfacet
  facet normal 0 0 1
    outer loop
      vertex 16.5 1.5 3.69543
      vertex 16 1.72522 3.69543
      vertex 16 1.5 3.69543
    endloop
  endfacet
  facet normal 0 -1 0
    outer loop
      vertex 16 1.5 1.5
      vertex 16.5 1.5 3.69543
      vertex 16 1.5 3.69543
    endloop
  endfacet
  facet normal 0 -1 -0
    outer loop
      vertex 16.5 1.5 3.69543
      vertex 16 1.5 1.5
      vertex 16.5 1.5 1.5
    endloop
  endfacet
  facet normal 0 0.0487458 -0.998811
    outer loop
      vertex 16 1.5 1.5
      vertex 16.5 1.88269 1.51868
      vertex 16.5 1.5 1.5
    endloop
  endfacet
  facet normal 0 0.0487458 -0.998811
    outer loop
      vertex 16.5 1.88269 1.51868
      vertex 16 1.5 1.5
      vertex 16 1.88269 1.51868
    endloop
  endfacet
  facet normal 0 0.999856 0.0169524
    outer loop
      vertex 16.5 1.88269 1.51868
      vertex 16 1.86401 2.62024
      vertex 16.5 1.86401 2.62024
    endloop
  endfacet
  facet normal 0 0.999856 0.0169524
    outer loop
      vertex 16 1.86401 2.62024
      vertex 16.5 1.88269 1.51868
      vertex 16 1.88269 1.51868
    endloop
  endfacet
  facet normal 0 0.999412 0.0342974
    outer loop
      vertex 16.5 1.86401 2.62024
      vertex 16 1.84827 3.0791
      vertex 16.5 1.84827 3.0791
    endloop
  endfacet
  facet normal 0 0.999412 0.0342974
    outer loop
      vertex 16 1.84827 3.0791
      vertex 16.5 1.86401 2.62024
      vertex 16 1.86401 2.62024
    endloop
  endfacet
  facet normal 0 0.655353 -0.755322
    outer loop
      vertex 16 1.84827 3.0791
      vertex 16.5 1.99768 3.20874
      vertex 16.5 1.84827 3.0791
    endloop
  endfacet
  facet normal 0 0.655353 -0.755322
    outer loop
      vertex 16.5 1.99768 3.20874
      vertex 16 1.84827 3.0791
      vertex 16 1.99768 3.20874
    endloop
  endfacet
  facet normal 0 0.640639 -0.767842
    outer loop
      vertex 16 1.99768 3.20874
      vertex 16.5 2.11926 3.31018
      vertex 16.5 1.99768 3.20874
    endloop
  endfacet
  facet normal 0 0.640639 -0.767842
    outer loop
      vertex 16.5 2.11926 3.31018
      vertex 16 1.99768 3.20874
      vertex 16 2.11926 3.31018
    endloop
  endfacet
  facet normal 0 -0.511941 -0.85902
    outer loop
      vertex 16 2.11926 3.31018
      vertex 16.5 2.26428 3.22375
      vertex 16.5 2.11926 3.31018
    endloop
  endfacet
  facet normal -0 -0.511941 -0.85902
    outer loop
      vertex 16.5 2.26428 3.22375
      vertex 16 2.11926 3.31018
      vertex 16 2.26428 3.22375
    endloop
  endfacet
  facet normal 0 -0.99273 -0.120362
    outer loop
      vertex 16 2.30713 2.87036
      vertex 16.5 2.26428 3.22375
      vertex 16 2.26428 3.22375
    endloop
  endfacet
  facet normal 0 -0.99273 -0.120362
    outer loop
      vertex 16.5 2.26428 3.22375
      vertex 16 2.30713 2.87036
      vertex 16.5 2.30713 2.87036
    endloop
  endfacet
  facet normal 0 -0.999639 -0.0268819
    outer loop
      vertex 16 2.34448 1.48132
      vertex 16.5 2.30713 2.87036
      vertex 16 2.30713 2.87036
    endloop
  endfacet
  facet normal 0 -0.999639 -0.0268819
    outer loop
      vertex 16.5 2.30713 2.87036
      vertex 16 2.34448 1.48132
      vertex 16.5 2.34448 1.48132
    endloop
  endfacet
  facet normal 0 0.0645042 -0.997917
    outer loop
      vertex 16 2.34448 1.48132
      vertex 16.5 2.63342 1.5
      vertex 16.5 2.34448 1.48132
    endloop
  endfacet
  facet normal 0 0.0645042 -0.997917
    outer loop
      vertex 16.5 2.63342 1.5
      vertex 16 2.34448 1.48132
      vertex 16 2.63342 1.5
    endloop
  endfacet
  facet normal 1 -0 0
    outer loop
      vertex 16.5 4.40918 4.5304
      vertex 16.5 4.78125 4.10266
      vertex 16.5 4.78125 4.5304
    endloop
  endfacet
  facet normal 1 0 0
    outer loop
      vertex 16.5 4.78125 4.10266
      vertex 16.5 4.40918 4.5304
      vertex 16.5 4.40918 4.10266
    endloop
  endfacet
  facet normal 1 -0 0
    outer loop
      vertex 16.5 4.40918 3.69543
      vertex 16.5 4.78125 1.5
      vertex 16.5 4.78125 3.69543
    endloop
  endfacet
  facet normal 1 0 0
    outer loop
      vertex 16.5 4.78125 1.5
      vertex 16.5 4.40918 3.69543
      vertex 16.5 4.40918 1.5
    endloop
  endfacet
  facet normal -0 0 1
    outer loop
      vertex 16 4.78125 4.5304
      vertex 16.5 4.40918 4.5304
      vertex 16.5 4.78125 4.5304
    endloop
  endfacet
  facet normal 0 0 1
    outer loop
      vertex 16.5 4.40918 4.5304
      vertex 16 4.78125 4.5304
      vertex 16 4.40918 4.5304
    endloop
  endfacet
  facet normal 0 -1 0
    outer loop
      vertex 16 4.40918 4.10266
      vertex 16.5 4.40918 4.5304
      vertex 16 4.40918 4.5304
    endloop
  endfacet
  facet normal 0 -1 -0
    outer loop
      vertex 16.5 4.40918 4.5304
      vertex 16 4.40918 4.10266
      vertex 16.5 4.40918 4.10266
    endloop
  endfacet
  facet normal 0 0 -1
    outer loop
      vertex 16 4.40918 4.10266
      vertex 16.5 4.78125 4.10266
      vertex 16.5 4.40918 4.10266
    endloop
  endfacet
  facet normal -0 0 -1
    outer loop
      vertex 16.5 4.78125 4.10266
      vertex 16 4.40918 4.10266
      vertex 16 4.78125 4.10266
    endloop
  endfacet
  facet normal 0 1 -0
    outer loop
      vertex 16.5 4.78125 4.10266
      vertex 16 4.78125 4.5304
      vertex 16.5 4.78125 4.5304
    endloop
  endfacet
  facet normal 0 1 0
    outer loop
      vertex 16 4.78125 4.5304
      vertex 16.5 4.78125 4.10266
      vertex 16 4.78125 4.10266
    endloop
  endfacet
  facet normal -0 0 1
    outer loop
      vertex 16 4.78125 3.69543
      vertex 16.5 4.40918 3.69543
      vertex 16.5 4.78125 3.69543
    endloop
  endfacet
  facet normal 0 0 1
    outer loop
      vertex 16.5 4.40918 3.69543
      vertex 16 4.78125 3.69543
      vertex 16 4.40918 3.69543
    endloop
  endfacet
  facet normal 0 -1 0
    outer loop
      vertex 16 4.40918 1.5
      vertex 16.5 4.40918 3.69543
      vertex 16 4.40918 3.69543
    endloop
  endfacet
  facet normal 0 -1 -0
    outer loop
      vertex 16.5 4.40918 3.69543
      vertex 16 4.40918 1.5
      vertex 16.5 4.40918 1.5
    endloop
  endfacet
  facet normal 0 0 -1
    outer loop
      vertex 16 4.40918 1.5
      vertex 16.5 4.78125 1.5
      vertex 16.5 4.40918 1.5
    endloop
  endfacet
  facet normal -0 0 -1
    outer loop
      vertex 16.5 4.78125 1.5
      vertex 16 4.40918 1.5
      vertex 16 4.78125 1.5
    endloop
  endfacet
  facet normal 0 1 -0
    outer loop
      vertex 16.5 4.78125 1.5
      vertex 16 4.78125 3.69543
      vertex 16.5 4.78125 3.69543
    endloop
  endfacet
  facet normal 0 1 0
    outer loop
      vertex 16 4.78125 3.69543
      vertex 16.5 4.78125 1.5
      vertex 16 4.78125 1.5
    endloop
  endfacet
  facet normal 1 -0 0
    outer loop
      vertex 16.5 7.01917 2.00537
      vertex 16.5 7.18359 1.82666
      vertex 16.5 7.18982 2.61438
    endloop
  endfacet
  facet normal 1 0 0
    outer loop
      vertex 16.5 6.60498 1.80615
      vertex 16.5 7.18359 1.82666
      vertex 16.5 7.01917 2.00537
    endloop
  endfacet
  facet normal 1 -0 0
    outer loop
      vertex 16.5 6.60498 1.80615
      vertex 16.5 6.56982 1.5
      vertex 16.5 7.18359 1.82666
    endloop
  endfacet
  facet normal 1 0 0
    outer loop
      vertex 16.5 6.08716 1.64465
      vertex 16.5 6.60498 1.80615
      vertex 16.5 6.1853 2.01489
    endloop
  endfacet
  facet normal 1 0 0
    outer loop
      vertex 16.5 6.60498 1.80615
      vertex 16.5 6.08716 1.64465
      vertex 16.5 6.56982 1.5
    endloop
  endfacet
  facet normal 1 -0 0
    outer loop
      vertex 16.5 5.74585 2.04895
      vertex 16.5 6.1853 2.01489
      vertex 16.5 6.00769 2.64514
    endloop
  endfacet
  facet normal 1 0 0
    outer loop
      vertex 16.5 6.1853 2.01489
      vertex 16.5 5.74585 2.04895
      vertex 16.5 6.08716 1.64465
    endloop
  endfacet
  facet normal 1 0 0
    outer loop
      vertex 16.5 7.52893 4.5802
      vertex 16.5 7.18982 2.61438
      vertex 16.5 7.52893 1.5498
    endloop
  endfacet
  facet normal 1 0 0
    outer loop
      vertex 16.5 7.15869 3.49292
      vertex 16.5 7.52893 4.5802
      vertex 16.5 7.15869 4.5802
    endloop
  endfacet
  facet normal 1 0 0
    outer loop
      vertex 16.5 7.52893 4.5802
      vertex 16.5 7.15869 3.49292
      vertex 16.5 7.18982 2.61438
    endloop
  endfacet
  facet normal 1 0 0
    outer loop
      vertex 16.5 7.15869 3.49292
      vertex 16.5 7.01624 3.27576
      vertex 16.5 7.18982 2.61438
    endloop
  endfacet
  facet normal 1 0 0
    outer loop
      vertex 16.5 6.90674 3.71082
      vertex 16.5 7.01624 3.27576
      vertex 16.5 7.15869 3.49292
    endloop
  endfacet
  facet normal 1 0 0
    outer loop
      vertex 16.5 6.90674 3.71082
      vertex 16.5 6.5885 3.48669
      vertex 16.5 7.01624 3.27576
    endloop
  endfacet
  facet normal 1 0 0
    outer loop
      vertex 16.5 6.55334 3.79468
      vertex 16.5 6.5885 3.48669
      vertex 16.5 6.90674 3.71082
    endloop
  endfacet
  facet normal 1 -0 0
    outer loop
      vertex 16.5 6.06335 3.65186
      vertex 16.5 6.5885 3.48669
      vertex 16.5 6.55334 3.79468
    endloop
  endfacet
  facet normal 1 0 0
    outer loop
      vertex 16.5 6.5885 3.48669
      vertex 16.5 6.06335 3.65186
      vertex 16.5 6.17395 3.28381
    endloop
  endfacet
  facet normal 1 0 0
    outer loop
      vertex 16.5 5.7345 3.2417
      vertex 16.5 6.17395 3.28381
      vertex 16.5 6.06335 3.65186
    endloop
  endfacet
  facet normal 1 0 0
    outer loop
      vertex 16.5 6.17395 3.28381
      vertex 16.5 5.7345 3.2417
      vertex 16.5 6.00769 2.64514
    endloop
  endfacet
  facet normal 1 0 0
    outer loop
      vertex 16.5 6.00769 2.64514
      vertex 16.5 5.7345 3.2417
      vertex 16.5 5.625 2.64514
    endloop
  endfacet
  facet normal 1 0 0
    outer loop
      vertex 16.5 6.00769 2.64514
      vertex 16.5 5.625 2.64514
      vertex 16.5 5.74585 2.04895
    endloop
  endfacet
  facet normal 1 -0 0
    outer loop
      vertex 16.5 7.18359 1.82666
      vertex 16.5 7.52893 1.5498
      vertex 16.5 7.18982 2.61438
    endloop
  endfacet
  facet normal 1 0 0
    outer loop
      vertex 16.5 7.52893 1.5498
      vertex 16.5 7.18359 1.82666
      vertex 16.5 7.18359 1.5498
    endloop
  endfacet
  facet normal 0 -1 0
    outer loop
      vertex 16 7.18359 1.5498
      vertex 16.5 7.18359 1.82666
      vertex 16 7.18359 1.82666
    endloop
  endfacet
  facet normal 0 -1 -0
    outer loop
      vertex 16.5 7.18359 1.82666
      vertex 16 7.18359 1.5498
      vertex 16.5 7.18359 1.5498
    endloop
  endfacet
  facet normal 0 0 -1
    outer loop
      vertex 16 7.18359 1.5498
      vertex 16.5 7.52893 1.5498
      vertex 16.5 7.18359 1.5498
    endloop
  endfacet
  facet normal -0 0 -1
    outer loop
      vertex 16.5 7.52893 1.5498
      vertex 16 7.18359 1.5498
      vertex 16 7.52893 1.5498
    endloop
  endfacet
  facet normal 0 1 -0
    outer loop
      vertex 16.5 7.52893 1.5498
      vertex 16 7.52893 4.5802
      vertex 16.5 7.52893 4.5802
    endloop
  endfacet
  facet normal 0 1 0
    outer loop
      vertex 16 7.52893 4.5802
      vertex 16.5 7.52893 1.5498
      vertex 16 7.52893 1.5498
    endloop
  endfacet
  facet normal -0 0 1
    outer loop
      vertex 16 7.52893 4.5802
      vertex 16.5 7.15869 4.5802
      vertex 16.5 7.52893 4.5802
    endloop
  endfacet
  facet normal 0 0 1
    outer loop
      vertex 16.5 7.15869 4.5802
      vertex 16 7.52893 4.5802
      vertex 16 7.15869 4.5802
    endloop
  endfacet
  facet normal 0 -1 0
    outer loop
      vertex 16 7.15869 3.49292
      vertex 16.5 7.15869 4.5802
      vertex 16 7.15869 4.5802
    endloop
  endfacet
  facet normal 0 -1 -0
    outer loop
      vertex 16.5 7.15869 4.5802
      vertex 16 7.15869 3.49292
      vertex 16.5 7.15869 3.49292
    endloop
  endfacet
  facet normal -0 0.654135 0.756378
    outer loop
      vertex 16 7.15869 3.49292
      vertex 16.5 6.90674 3.71082
      vertex 16.5 7.15869 3.49292
    endloop
  endfacet
  facet normal 0 0.654135 0.756378
    outer loop
      vertex 16.5 6.90674 3.71082
      vertex 16 7.15869 3.49292
      vertex 16 6.90674 3.71082
    endloop
  endfacet
  facet normal -0 0.230893 0.972979
    outer loop
      vertex 16 6.90674 3.71082
      vertex 16.5 6.55334 3.79468
      vertex 16.5 6.90674 3.71082
    endloop
  endfacet
  facet normal 0 0.230893 0.972979
    outer loop
      vertex 16.5 6.55334 3.79468
      vertex 16 6.90674 3.71082
      vertex 16 6.55334 3.79468
    endloop
  endfacet
  facet normal 0 -0.279835 0.960048
    outer loop
      vertex 16 6.55334 3.79468
      vertex 16.5 6.06335 3.65186
      vertex 16.5 6.55334 3.79468
    endloop
  endfacet
  facet normal 0 -0.279835 0.960048
    outer loop
      vertex 16.5 6.06335 3.65186
      vertex 16 6.55334 3.79468
      vertex 16 6.06335 3.65186
    endloop
  endfacet
  facet normal 0 -0.780189 0.625544
    outer loop
      vertex 16 5.7345 3.2417
      vertex 16.5 6.06335 3.65186
      vertex 16 6.06335 3.65186
    endloop
  endfacet
  facet normal 0 -0.780189 0.625544
    outer loop
      vertex 16.5 6.06335 3.65186
      vertex 16 5.7345 3.2417
      vertex 16.5 5.7345 3.2417
    endloop
  endfacet
  facet normal 0 -0.983569 0.180532
    outer loop
      vertex 16 5.625 2.64514
      vertex 16.5 5.7345 3.2417
      vertex 16 5.7345 3.2417
    endloop
  endfacet
  facet normal 0 -0.983569 0.180532
    outer loop
      vertex 16.5 5.7345 3.2417
      vertex 16 5.625 2.64514
      vertex 16.5 5.625 2.64514
    endloop
  endfacet
  facet normal 0 -0.980068 -0.198662
    outer loop
      vertex 16 5.74585 2.04895
      vertex 16.5 5.625 2.64514
      vertex 16 5.625 2.64514
    endloop
  endfacet
  facet normal 0 -0.980068 -0.198662
    outer loop
      vertex 16.5 5.625 2.64514
      vertex 16 5.74585 2.04895
      vertex 16.5 5.74585 2.04895
    endloop
  endfacet
  facet normal 0 -0.764121 -0.645073
    outer loop
      vertex 16 6.08716 1.64465
      vertex 16.5 5.74585 2.04895
      vertex 16 5.74585 2.04895
    endloop
  endfacet
  facet normal 0 -0.764121 -0.645073
    outer loop
      vertex 16.5 5.74585 2.04895
      vertex 16 6.08716 1.64465
      vertex 16.5 6.08716 1.64465
    endloop
  endfacet
  facet normal 0 -0.287081 -0.957906
    outer loop
      vertex 16 6.08716 1.64465
      vertex 16.5 6.56982 1.5
      vertex 16.5 6.08716 1.64465
    endloop
  endfacet
  facet normal -0 -0.287081 -0.957906
    outer loop
      vertex 16.5 6.56982 1.5
      vertex 16 6.08716 1.64465
      vertex 16 6.56982 1.5
    endloop
  endfacet
  facet normal 0 0.469823 -0.882761
    outer loop
      vertex 16 6.56982 1.5
      vertex 16.5 7.18359 1.82666
      vertex 16.5 6.56982 1.5
    endloop
  endfacet
  facet normal 0 0.469823 -0.882761
    outer loop
      vertex 16.5 7.18359 1.82666
      vertex 16 6.56982 1.5
      vertex 16 7.18359 1.82666
    endloop
  endfacet
  facet normal 0 0.96251 0.271248
    outer loop
      vertex 16.5 6.1853 2.01489
      vertex 16 6.00769 2.64514
      vertex 16.5 6.00769 2.64514
    endloop
  endfacet
  facet normal 0 0.96251 0.271248
    outer loop
      vertex 16 6.00769 2.64514
      vertex 16.5 6.1853 2.01489
      vertex 16 6.1853 2.01489
    endloop
  endfacet
  facet normal 0 0.967747 -0.251925
    outer loop
      vertex 16.5 6.00769 2.64514
      vertex 16 6.17395 3.28381
      vertex 16.5 6.17395 3.28381
    endloop
  endfacet
  facet normal 0 0.967747 -0.251925
    outer loop
      vertex 16 6.17395 3.28381
      vertex 16.5 6.00769 2.64514
      vertex 16 6.00769 2.64514
    endloop
  endfacet
  facet normal 0 0.43958 -0.898203
    outer loop
      vertex 16 6.17395 3.28381
      vertex 16.5 6.5885 3.48669
      vertex 16.5 6.17395 3.28381
    endloop
  endfacet
  facet normal 0 0.43958 -0.898203
    outer loop
      vertex 16.5 6.5885 3.48669
      vertex 16 6.17395 3.28381
      vertex 16 6.5885 3.48669
    endloop
  endfacet
  facet normal 0 -0.442292 -0.896871
    outer loop
      vertex 16 6.5885 3.48669
      vertex 16.5 7.01624 3.27576
      vertex 16.5 6.5885 3.48669
    endloop
  endfacet
  facet normal -0 -0.442292 -0.896871
    outer loop
      vertex 16.5 7.01624 3.27576
      vertex 16 6.5885 3.48669
      vertex 16 7.01624 3.27576
    endloop
  endfacet
  facet normal 0 -0.967241 -0.253861
    outer loop
      vertex 16 7.18982 2.61438
      vertex 16.5 7.01624 3.27576
      vertex 16 7.01624 3.27576
    endloop
  endfacet
  facet normal 0 -0.967241 -0.253861
    outer loop
      vertex 16.5 7.01624 3.27576
      vertex 16 7.18982 2.61438
      vertex 16.5 7.18982 2.61438
    endloop
  endfacet
  facet normal 0 -0.96291 0.269823
    outer loop
      vertex 16 7.01917 2.00537
      vertex 16.5 7.18982 2.61438
      vertex 16 7.18982 2.61438
    endloop
  endfacet
  facet normal 0 -0.96291 0.269823
    outer loop
      vertex 16.5 7.18982 2.61438
      vertex 16 7.01917 2.00537
      vertex 16.5 7.01917 2.00537
    endloop
  endfacet
  facet normal 0 -0.433456 0.901175
    outer loop
      vertex 16 7.01917 2.00537
      vertex 16.5 6.60498 1.80615
      vertex 16.5 7.01917 2.00537
    endloop
  endfacet
  facet normal 0 -0.433456 0.901175
    outer loop
      vertex 16.5 6.60498 1.80615
      vertex 16 7.01917 2.00537
      vertex 16 6.60498 1.80615
    endloop
  endfacet
  facet normal -0 0.445338 0.895363
    outer loop
      vertex 16 6.60498 1.80615
      vertex 16.5 6.1853 2.01489
      vertex 16.5 6.60498 1.80615
    endloop
  endfacet
  facet normal 0 0.445338 0.895363
    outer loop
      vertex 16.5 6.1853 2.01489
      vertex 16 6.60498 1.80615
      vertex 16 6.1853 2.01489
    endloop
  endfacet
  facet normal 1 -0 0
    outer loop
      vertex 16.5 9.08167 2.00537
      vertex 16.5 9.24609 1.82666
      vertex 16.5 9.25232 2.61438
    endloop
  endfacet
  facet normal 1 0 0
    outer loop
      vertex 16.5 8.66748 1.80615
      vertex 16.5 9.24609 1.82666
      vertex 16.5 9.08167 2.00537
    endloop
  endfacet
  facet normal 1 -0 0
    outer loop
      vertex 16.5 8.66748 1.80615
      vertex 16.5 8.63232 1.5
      vertex 16.5 9.24609 1.82666
    endloop
  endfacet
  facet normal 1 0 0
    outer loop
      vertex 16.5 8.14966 1.64465
      vertex 16.5 8.66748 1.80615
      vertex 16.5 8.2478 2.01489
    endloop
  endfacet
  facet normal 1 0 0
    outer loop
      vertex 16.5 8.66748 1.80615
      vertex 16.5 8.14966 1.64465
      vertex 16.5 8.63232 1.5
    endloop
  endfacet
  facet normal 1 -0 0
    outer loop
      vertex 16.5 7.80835 2.04895
      vertex 16.5 8.2478 2.01489
      vertex 16.5 8.07019 2.64514
    endloop
  endfacet
  facet normal 1 0 0
    outer loop
      vertex 16.5 8.2478 2.01489
      vertex 16.5 7.80835 2.04895
      vertex 16.5 8.14966 1.64465
    endloop
  endfacet
  facet normal 1 0 0
    outer loop
      vertex 16.5 9.59143 4.5802
      vertex 16.5 9.25232 2.61438
      vertex 16.5 9.59143 1.5498
    endloop
  endfacet
  facet normal 1 0 0
    outer loop
      vertex 16.5 9.22119 3.49292
      vertex 16.5 9.59143 4.5802
      vertex 16.5 9.22119 4.5802
    endloop
  endfacet
  facet normal 1 0 0
    outer loop
      vertex 16.5 9.59143 4.5802
      vertex 16.5 9.22119 3.49292
      vertex 16.5 9.25232 2.61438
    endloop
  endfacet
  facet normal 1 0 0
    outer loop
      vertex 16.5 9.22119 3.49292
      vertex 16.5 9.07874 3.27576
      vertex 16.5 9.25232 2.61438
    endloop
  endfacet
  facet normal 1 0 0
    outer loop
      vertex 16.5 8.96924 3.71082
      vertex 16.5 9.07874 3.27576
      vertex 16.5 9.22119 3.49292
    endloop
  endfacet
  facet normal 1 0 0
    outer loop
      vertex 16.5 8.96924 3.71082
      vertex 16.5 8.651 3.48669
      vertex 16.5 9.07874 3.27576
    endloop
  endfacet
  facet normal 1 0 0
    outer loop
      vertex 16.5 8.61584 3.79468
      vertex 16.5 8.651 3.48669
      vertex 16.5 8.96924 3.71082
    endloop
  endfacet
  facet normal 1 -0 0
    outer loop
      vertex 16.5 8.12585 3.65186
      vertex 16.5 8.651 3.48669
      vertex 16.5 8.61584 3.79468
    endloop
  endfacet
  facet normal 1 0 0
    outer loop
      vertex 16.5 8.651 3.48669
      vertex 16.5 8.12585 3.65186
      vertex 16.5 8.23645 3.28381
    endloop
  endfacet
  facet normal 1 0 0
    outer loop
      vertex 16.5 7.797 3.2417
      vertex 16.5 8.23645 3.28381
      vertex 16.5 8.12585 3.65186
    endloop
  endfacet
  facet normal 1 0 0
    outer loop
      vertex 16.5 8.23645 3.28381
      vertex 16.5 7.797 3.2417
      vertex 16.5 8.07019 2.64514
    endloop
  endfacet
  facet normal 1 0 0
    outer loop
      vertex 16.5 8.07019 2.64514
      vertex 16.5 7.797 3.2417
      vertex 16.5 7.6875 2.64514
    endloop
  endfacet
  facet normal 1 0 0
    outer loop
      vertex 16.5 8.07019 2.64514
      vertex 16.5 7.6875 2.64514
      vertex 16.5 7.80835 2.04895
    endloop
  endfacet
  facet normal 1 -0 0
    outer loop
      vertex 16.5 9.24609 1.82666
      vertex 16.5 9.59143 1.5498
      vertex 16.5 9.25232 2.61438
    endloop
  endfacet
  facet normal 1 0 0
    outer loop
      vertex 16.5 9.59143 1.5498
      vertex 16.5 9.24609 1.82666
      vertex 16.5 9.24609 1.5498
    endloop
  endfacet
  facet normal 0 -1 0
    outer loop
      vertex 16 9.24609 1.5498
      vertex 16.5 9.24609 1.82666
      vertex 16 9.24609 1.82666
    endloop
  endfacet
  facet normal 0 -1 -0
    outer loop
      vertex 16.5 9.24609 1.82666
      vertex 16 9.24609 1.5498
      vertex 16.5 9.24609 1.5498
    endloop
  endfacet
  facet normal 0 0 -1
    outer loop
      vertex 16 9.24609 1.5498
      vertex 16.5 9.59143 1.5498
      vertex 16.5 9.24609 1.5498
    endloop
  endfacet
  facet normal -0 0 -1
    outer loop
      vertex 16.5 9.59143 1.5498
      vertex 16 9.24609 1.5498
      vertex 16 9.59143 1.5498
    endloop
  endfacet
  facet normal 0 1 -0
    outer loop
      vertex 16.5 9.59143 1.5498
      vertex 16 9.59143 4.5802
      vertex 16.5 9.59143 4.5802
    endloop
  endfacet
  facet normal 0 1 0
    outer loop
      vertex 16 9.59143 4.5802
      vertex 16.5 9.59143 1.5498
      vertex 16 9.59143 1.5498
    endloop
  endfacet
  facet normal -0 0 1
    outer loop
      vertex 16 9.59143 4.5802
      vertex 16.5 9.22119 4.5802
      vertex 16.5 9.59143 4.5802
    endloop
  endfacet
  facet normal 0 0 1
    outer loop
      vertex 16.5 9.22119 4.5802
      vertex 16 9.59143 4.5802
      vertex 16 9.22119 4.5802
    endloop
  endfacet
  facet normal 0 -1 0
    outer loop
      vertex 16 9.22119 3.49292
      vertex 16.5 9.22119 4.5802
      vertex 16 9.22119 4.5802
    endloop
  endfacet
  facet normal 0 -1 -0
    outer loop
      vertex 16.5 9.22119 4.5802
      vertex 16 9.22119 3.49292
      vertex 16.5 9.22119 3.49292
    endloop
  endfacet
  facet normal -0 0.654135 0.756378
    outer loop
      vertex 16 9.22119 3.49292
      vertex 16.5 8.96924 3.71082
      vertex 16.5 9.22119 3.49292
    endloop
  endfacet
  facet normal 0 0.654135 0.756378
    outer loop
      vertex 16.5 8.96924 3.71082
      vertex 16 9.22119 3.49292
      vertex 16 8.96924 3.71082
    endloop
  endfacet
  facet normal -0 0.230893 0.972979
    outer loop
      vertex 16 8.96924 3.71082
      vertex 16.5 8.61584 3.79468
      vertex 16.5 8.96924 3.71082
    endloop
  endfacet
  facet normal 0 0.230893 0.972979
    outer loop
      vertex 16.5 8.61584 3.79468
      vertex 16 8.96924 3.71082
      vertex 16 8.61584 3.79468
    endloop
  endfacet
  facet normal 0 -0.279835 0.960048
    outer loop
      vertex 16 8.61584 3.79468
      vertex 16.5 8.12585 3.65186
      vertex 16.5 8.61584 3.79468
    endloop
  endfacet
  facet normal 0 -0.279835 0.960048
    outer loop
      vertex 16.5 8.12585 3.65186
      vertex 16 8.61584 3.79468
      vertex 16 8.12585 3.65186
    endloop
  endfacet
  facet normal 0 -0.780189 0.625544
    outer loop
      vertex 16 7.797 3.2417
      vertex 16.5 8.12585 3.65186
      vertex 16 8.12585 3.65186
    endloop
  endfacet
  facet normal 0 -0.780189 0.625544
    outer loop
      vertex 16.5 8.12585 3.65186
      vertex 16 7.797 3.2417
      vertex 16.5 7.797 3.2417
    endloop
  endfacet
  facet normal 0 -0.983569 0.180532
    outer loop
      vertex 16 7.6875 2.64514
      vertex 16.5 7.797 3.2417
      vertex 16 7.797 3.2417
    endloop
  endfacet
  facet normal 0 -0.983569 0.180532
    outer loop
      vertex 16.5 7.797 3.2417
      vertex 16 7.6875 2.64514
      vertex 16.5 7.6875 2.64514
    endloop
  endfacet
  facet normal 0 -0.980068 -0.198662
    outer loop
      vertex 16 7.80835 2.04895
      vertex 16.5 7.6875 2.64514
      vertex 16 7.6875 2.64514
    endloop
  endfacet
  facet normal 0 -0.980068 -0.198662
    outer loop
      vertex 16.5 7.6875 2.64514
      vertex 16 7.80835 2.04895
      vertex 16.5 7.80835 2.04895
    endloop
  endfacet
  facet normal 0 -0.764121 -0.645073
    outer loop
      vertex 16 8.14966 1.64465
      vertex 16.5 7.80835 2.04895
      vertex 16 7.80835 2.04895
    endloop
  endfacet
  facet normal 0 -0.764121 -0.645073
    outer loop
      vertex 16.5 7.80835 2.04895
      vertex 16 8.14966 1.64465
      vertex 16.5 8.14966 1.64465
    endloop
  endfacet
  facet normal 0 -0.287081 -0.957906
    outer loop
      vertex 16 8.14966 1.64465
      vertex 16.5 8.63232 1.5
      vertex 16.5 8.14966 1.64465
    endloop
  endfacet
  facet normal -0 -0.287081 -0.957906
    outer loop
      vertex 16.5 8.63232 1.5
      vertex 16 8.14966 1.64465
      vertex 16 8.63232 1.5
    endloop
  endfacet
  facet normal 0 0.469823 -0.882761
    outer loop
      vertex 16 8.63232 1.5
      vertex 16.5 9.24609 1.82666
      vertex 16.5 8.63232 1.5
    endloop
  endfacet
  facet normal 0 0.469823 -0.882761
    outer loop
      vertex 16.5 9.24609 1.82666
      vertex 16 8.63232 1.5
      vertex 16 9.24609 1.82666
    endloop
  endfacet
  facet normal 0 0.96251 0.271248
    outer loop
      vertex 16.5 8.2478 2.01489
      vertex 16 8.07019 2.64514
      vertex 16.5 8.07019 2.64514
    endloop
  endfacet
  facet normal 0 0.96251 0.271248
    outer loop
      vertex 16 8.07019 2.64514
      vertex 16.5 8.2478 2.01489
      vertex 16 8.2478 2.01489
    endloop
  endfacet
  facet normal 0 0.967747 -0.251925
    outer loop
      vertex 16.5 8.07019 2.64514
      vertex 16 8.23645 3.28381
      vertex 16.5 8.23645 3.28381
    endloop
  endfacet
  facet normal 0 0.967747 -0.251925
    outer loop
      vertex 16 8.23645 3.28381
      vertex 16.5 8.07019 2.64514
      vertex 16 8.07019 2.64514
    endloop
  endfacet
  facet normal 0 0.43958 -0.898203
    outer loop
      vertex 16 8.23645 3.28381
      vertex 16.5 8.651 3.48669
      vertex 16.5 8.23645 3.28381
    endloop
  endfacet
  facet normal 0 0.43958 -0.898203
    outer loop
      vertex 16.5 8.651 3.48669
      vertex 16 8.23645 3.28381
      vertex 16 8.651 3.48669
    endloop
  endfacet
  facet normal 0 -0.442292 -0.896871
    outer loop
      vertex 16 8.651 3.48669
      vertex 16.5 9.07874 3.27576
      vertex 16.5 8.651 3.48669
    endloop
  endfacet
  facet normal -0 -0.442292 -0.896871
    outer loop
      vertex 16.5 9.07874 3.27576
      vertex 16 8.651 3.48669
      vertex 16 9.07874 3.27576
    endloop
  endfacet
  facet normal 0 -0.967241 -0.253861
    outer loop
      vertex 16 9.25232 2.61438
      vertex 16.5 9.07874 3.27576
      vertex 16 9.07874 3.27576
    endloop
  endfacet
  facet normal 0 -0.967241 -0.253861
    outer loop
      vertex 16.5 9.07874 3.27576
      vertex 16 9.25232 2.61438
      vertex 16.5 9.25232 2.61438
    endloop
  endfacet
  facet normal 0 -0.96291 0.269823
    outer loop
      vertex 16 9.08167 2.00537
      vertex 16.5 9.25232 2.61438
      vertex 16 9.25232 2.61438
    endloop
  endfacet
  facet normal 0 -0.96291 0.269823
    outer loop
      vertex 16.5 9.25232 2.61438
      vertex 16 9.08167 2.00537
      vertex 16.5 9.08167 2.00537
    endloop
  endfacet
  facet normal 0 -0.433456 0.901175
    outer loop
      vertex 16 9.08167 2.00537
      vertex 16.5 8.66748 1.80615
      vertex 16.5 9.08167 2.00537
    endloop
  endfacet
  facet normal 0 -0.433456 0.901175
    outer loop
      vertex 16.5 8.66748 1.80615
      vertex 16 9.08167 2.00537
      vertex 16 8.66748 1.80615
    endloop
  endfacet
  facet normal -0 0.445338 0.895363
    outer loop
      vertex 16 8.66748 1.80615
      vertex 16.5 8.2478 2.01489
      vertex 16.5 8.66748 1.80615
    endloop
  endfacet
  facet normal 0 0.445338 0.895363
    outer loop
      vertex 16.5 8.2478 2.01489
      vertex 16 8.66748 1.80615
      vertex 16 8.2478 2.01489
    endloop
  endfacet
  facet normal 0 -1 0
    outer loop
      vertex 16 10.5967 1.5
      vertex 16.5 10.5967 4.5304
      vertex 16 10.5967 4.5304
    endloop
  endfacet
  facet normal 0 -1 -0
    outer loop
      vertex 16.5 10.5967 4.5304
      vertex 16 10.5967 1.5
      vertex 16.5 10.5967 1.5
    endloop
  endfacet
  facet normal 0 1 -0
    outer loop
      vertex 16.5 10.9688 1.5
      vertex 16 10.9688 4.5304
      vertex 16.5 10.9688 4.5304
    endloop
  endfacet
  facet normal 0 1 0
    outer loop
      vertex 16 10.9688 4.5304
      vertex 16.5 10.9688 1.5
      vertex 16 10.9688 1.5
    endloop
  endfacet
  facet normal 1 -0 0
    outer loop
      vertex 16.5 10.5967 4.5304
      vertex 16.5 10.9688 1.5
      vertex 16.5 10.9688 4.5304
    endloop
  endfacet
  facet normal 1 0 0
    outer loop
      vertex 16.5 10.9688 1.5
      vertex 16.5 10.5967 4.5304
      vertex 16.5 10.5967 1.5
    endloop
  endfacet
  facet normal -0 0 1
    outer loop
      vertex 16 10.9688 4.5304
      vertex 16.5 10.5967 4.5304
      vertex 16.5 10.9688 4.5304
    endloop
  endfacet
  facet normal 0 0 1
    outer loop
      vertex 16.5 10.5967 4.5304
      vertex 16 10.9688 4.5304
      vertex 16 10.5967 4.5304
    endloop
  endfacet
  facet normal 0 0 -1
    outer loop
      vertex 16 10.5967 1.5
      vertex 16.5 10.9688 1.5
      vertex 16.5 10.5967 1.5
    endloop
  endfacet
  facet normal -0 0 -1
    outer loop
      vertex 16.5 10.9688 1.5
      vertex 16 10.5967 1.5
      vertex 16 10.9688 1.5
    endloop
  endfacet
  facet normal 1 0 0
    outer loop
      vertex 16.5 13.5571 3.49475
      vertex 16.5 13.303 3.27356
      vertex 16.5 13.4436 2.85828
    endloop
  endfacet
  facet normal 1 0 0
    outer loop
      vertex 16.5 12.8379 3.79468
      vertex 16.5 13.303 3.27356
      vertex 16.5 13.5571 3.49475
    endloop
  endfacet
  facet normal 1 0 0
    outer loop
      vertex 16.5 13.303 3.27356
      vertex 16.5 12.8379 3.79468
      vertex 16.5 12.8419 3.48853
    endloop
  endfacet
  facet normal 1 0 0
    outer loop
      vertex 16.5 12.8379 3.79468
      vertex 16.5 12.4109 3.31714
      vertex 16.5 12.8419 3.48853
    endloop
  endfacet
  facet normal 1 0 0
    outer loop
      vertex 16.5 11.8125 2.62866
      vertex 16.5 12.2179 2.85828
      vertex 16.5 12.0978 3.48853
    endloop
  endfacet
  facet normal 1 0 0
    outer loop
      vertex 16.5 12.4109 3.31714
      vertex 16.5 12.0978 3.48853
      vertex 16.5 12.2179 2.85828
    endloop
  endfacet
  facet normal 1 -0 0
    outer loop
      vertex 16.5 12.0978 3.48853
      vertex 16.5 12.4109 3.31714
      vertex 16.5 12.8379 3.79468
    endloop
  endfacet
  facet normal 1 -0 0
    outer loop
      vertex 16.5 13.4436 2.85828
      vertex 16.5 13.8362 2.65137
      vertex 16.5 13.5571 3.49475
    endloop
  endfacet
  facet normal 1 0 0
    outer loop
      vertex 16.5 13.8362 2.65137
      vertex 16.5 13.4436 2.85828
      vertex 16.5 13.8344 2.55212
    endloop
  endfacet
  facet normal 1 0 0
    outer loop
      vertex 16.5 12.197 2.55212
      vertex 16.5 13.4436 2.85828
      vertex 16.5 12.2179 2.85828
    endloop
  endfacet
  facet normal 1 0 0
    outer loop
      vertex 16.5 13.4436 2.85828
      vertex 16.5 12.197 2.55212
      vertex 16.5 13.8344 2.55212
    endloop
  endfacet
  facet normal 1 0 0
    outer loop
      vertex 16.5 13.4392 2.25659
      vertex 16.5 13.4868 1.68604
      vertex 16.5 13.8237 2.20898
    endloop
  endfacet
  facet normal 1 -0 0
    outer loop
      vertex 16.5 13.21 1.91345
      vertex 16.5 13.4868 1.68604
      vertex 16.5 13.4392 2.25659
    endloop
  endfacet
  facet normal 1 0 0
    outer loop
      vertex 16.5 12.8584 1.5
      vertex 16.5 13.21 1.91345
      vertex 16.5 12.8606 1.80615
    endloop
  endfacet
  facet normal 1 0 0
    outer loop
      vertex 16.5 13.21 1.91345
      vertex 16.5 12.8584 1.5
      vertex 16.5 13.4868 1.68604
    endloop
  endfacet
  facet normal 1 0 0
    outer loop
      vertex 16.5 12.4017 1.99841
      vertex 16.5 12.8584 1.5
      vertex 16.5 12.8606 1.80615
    endloop
  endfacet
  facet normal 1 0 0
    outer loop
      vertex 16.5 12.4017 1.99841
      vertex 16.5 12.0948 1.79663
      vertex 16.5 12.8584 1.5
    endloop
  endfacet
  facet normal 1 0 0
    outer loop
      vertex 16.5 12.197 2.55212
      vertex 16.5 12.0948 1.79663
      vertex 16.5 12.4017 1.99841
    endloop
  endfacet
  facet normal 1 0 0
    outer loop
      vertex 16.5 12.2179 2.85828
      vertex 16.5 11.8125 2.62866
      vertex 16.5 12.197 2.55212
    endloop
  endfacet
  facet normal 1 0 0
    outer loop
      vertex 16.5 12.197 2.55212
      vertex 16.5 11.8125 2.62866
      vertex 16.5 12.0948 1.79663
    endloop
  endfacet
  facet normal 0 0.840643 -0.54159
    outer loop
      vertex 16.5 13.4868 1.68604
      vertex 16 13.8237 2.20898
      vertex 16.5 13.8237 2.20898
    endloop
  endfacet
  facet normal 0 0.840643 -0.54159
    outer loop
      vertex 16 13.8237 2.20898
      vertex 16.5 13.4868 1.68604
      vertex 16 13.4868 1.68604
    endloop
  endfacet
  facet normal -0 0.122871 0.992423
    outer loop
      vertex 16 13.8237 2.20898
      vertex 16.5 13.4392 2.25659
      vertex 16.5 13.8237 2.20898
    endloop
  endfacet
  facet normal 0 0.122871 0.992423
    outer loop
      vertex 16.5 13.4392 2.25659
      vertex 16 13.8237 2.20898
      vertex 16 13.4392 2.25659
    endloop
  endfacet
  facet normal 0 -0.831504 0.555519
    outer loop
      vertex 16 13.21 1.91345
      vertex 16.5 13.4392 2.25659
      vertex 16 13.4392 2.25659
    endloop
  endfacet
  facet normal 0 -0.831504 0.555519
    outer loop
      vertex 16.5 13.4392 2.25659
      vertex 16 13.21 1.91345
      vertex 16.5 13.21 1.91345
    endloop
  endfacet
  facet normal 0 -0.293593 0.955931
    outer loop
      vertex 16 13.21 1.91345
      vertex 16.5 12.8606 1.80615
      vertex 16.5 13.21 1.91345
    endloop
  endfacet
  facet normal 0 -0.293593 0.955931
    outer loop
      vertex 16.5 12.8606 1.80615
      vertex 16 13.21 1.91345
      vertex 16 12.8606 1.80615
    endloop
  endfacet
  facet normal -0 0.386444 0.922313
    outer loop
      vertex 16 12.8606 1.80615
      vertex 16.5 12.4017 1.99841
      vertex 16.5 12.8606 1.80615
    endloop
  endfacet
  facet normal 0 0.386444 0.922313
    outer loop
      vertex 16.5 12.4017 1.99841
      vertex 16 12.8606 1.80615
      vertex 16 12.4017 1.99841
    endloop
  endfacet
  facet normal 0 0.937951 0.346769
    outer loop
      vertex 16.5 12.4017 1.99841
      vertex 16 12.197 2.55212
      vertex 16.5 12.197 2.55212
    endloop
  endfacet
  facet normal 0 0.937951 0.346769
    outer loop
      vertex 16 12.197 2.55212
      vertex 16.5 12.4017 1.99841
      vertex 16 12.4017 1.99841
    endloop
  endfacet
  facet normal 0 0 -1
    outer loop
      vertex 16 12.197 2.55212
      vertex 16.5 13.8344 2.55212
      vertex 16.5 12.197 2.55212
    endloop
  endfacet
  facet normal -0 0 -1
    outer loop
      vertex 16.5 13.8344 2.55212
      vertex 16 12.197 2.55212
      vertex 16 13.8344 2.55212
    endloop
  endfacet
  facet normal 0 0.99983 -0.018447
    outer loop
      vertex 16.5 13.8344 2.55212
      vertex 16 13.8362 2.65137
      vertex 16.5 13.8362 2.65137
    endloop
  endfacet
  facet normal 0 0.99983 -0.018447
    outer loop
      vertex 16 13.8362 2.65137
      vertex 16.5 13.8344 2.55212
      vertex 16 13.8344 2.55212
    endloop
  endfacet
  facet normal 0 0.949382 0.314125
    outer loop
      vertex 16.5 13.8362 2.65137
      vertex 16 13.5571 3.49475
      vertex 16.5 13.5571 3.49475
    endloop
  endfacet
  facet normal 0 0.949382 0.314125
    outer loop
      vertex 16 13.5571 3.49475
      vertex 16.5 13.8362 2.65137
      vertex 16 13.8362 2.65137
    endloop
  endfacet
  facet normal -0 0.384882 0.922966
    outer loop
      vertex 16 13.5571 3.49475
      vertex 16.5 12.8379 3.79468
      vertex 16.5 13.5571 3.49475
    endloop
  endfacet
  facet normal 0 0.384882 0.922966
    outer loop
      vertex 16.5 12.8379 3.79468
      vertex 16 13.5571 3.49475
      vertex 16 12.8379 3.79468
    endloop
  endfacet
  facet normal 0 -0.382244 0.924061
    outer loop
      vertex 16 12.8379 3.79468
      vertex 16.5 12.0978 3.48853
      vertex 16.5 12.8379 3.79468
    endloop
  endfacet
  facet normal 0 -0.382244 0.924061
    outer loop
      vertex 16.5 12.0978 3.48853
      vertex 16 12.8379 3.79468
      vertex 16 12.0978 3.48853
    endloop
  endfacet
  facet normal 0 -0.949127 0.314894
    outer loop
      vertex 16 11.8125 2.62866
      vertex 16.5 12.0978 3.48853
      vertex 16 12.0978 3.48853
    endloop
  endfacet
  facet normal 0 -0.949127 0.314894
    outer loop
      vertex 16.5 12.0978 3.48853
      vertex 16 11.8125 2.62866
      vertex 16.5 11.8125 2.62866
    endloop
  endfacet
  facet normal 0 -0.946961 -0.32135
    outer loop
      vertex 16 12.0948 1.79663
      vertex 16.5 11.8125 2.62866
      vertex 16 11.8125 2.62866
    endloop
  endfacet
  facet normal 0 -0.946961 -0.32135
    outer loop
      vertex 16.5 11.8125 2.62866
      vertex 16 12.0948 1.79663
      vertex 16.5 12.0948 1.79663
    endloop
  endfacet
  facet normal 0 -0.362123 -0.93213
    outer loop
      vertex 16 12.0948 1.79663
      vertex 16.5 12.8584 1.5
      vertex 16.5 12.0948 1.79663
    endloop
  endfacet
  facet normal -0 -0.362123 -0.93213
    outer loop
      vertex 16.5 12.8584 1.5
      vertex 16 12.0948 1.79663
      vertex 16 12.8584 1.5
    endloop
  endfacet
  facet normal 0 0.28386 -0.958866
    outer loop
      vertex 16 12.8584 1.5
      vertex 16.5 13.4868 1.68604
      vertex 16.5 12.8584 1.5
    endloop
  endfacet
  facet normal 0 0.28386 -0.958866
    outer loop
      vertex 16.5 13.4868 1.68604
      vertex 16 12.8584 1.5
      vertex 16 13.4868 1.68604
    endloop
  endfacet
  facet normal 0 0.921788 -0.387695
    outer loop
      vertex 16.5 12.2179 2.85828
      vertex 16 12.4109 3.31714
      vertex 16.5 12.4109 3.31714
    endloop
  endfacet
  facet normal 0 0.921788 -0.387695
    outer loop
      vertex 16 12.4109 3.31714
      vertex 16.5 12.2179 2.85828
      vertex 16 12.2179 2.85828
    endloop
  endfacet
  facet normal 0 0.369484 -0.929237
    outer loop
      vertex 16 12.4109 3.31714
      vertex 16.5 12.8419 3.48853
      vertex 16.5 12.4109 3.31714
    endloop
  endfacet
  facet normal 0 0.369484 -0.929237
    outer loop
      vertex 16.5 12.8419 3.48853
      vertex 16 12.4109 3.31714
      vertex 16 12.8419 3.48853
    endloop
  endfacet
  facet normal 0 -0.42257 -0.90633
    outer loop
      vertex 16 12.8419 3.48853
      vertex 16.5 13.303 3.27356
      vertex 16.5 12.8419 3.48853
    endloop
  endfacet
  facet normal -0 -0.42257 -0.90633
    outer loop
      vertex 16.5 13.303 3.27356
      vertex 16 12.8419 3.48853
      vertex 16 13.303 3.27356
    endloop
  endfacet
  facet normal 0 -0.947169 -0.320735
    outer loop
      vertex 16 13.4436 2.85828
      vertex 16.5 13.303 3.27356
      vertex 16 13.303 3.27356
    endloop
  endfacet
  facet normal 0 -0.947169 -0.320735
    outer loop
      vertex 16.5 13.303 3.27356
      vertex 16 13.4436 2.85828
      vertex 16.5 13.4436 2.85828
    endloop
  endfacet
  facet normal -0 0 1
    outer loop
      vertex 16 13.4436 2.85828
      vertex 16.5 12.2179 2.85828
      vertex 16.5 13.4436 2.85828
    endloop
  endfacet
  facet normal 0 0 1
    outer loop
      vertex 16.5 12.2179 2.85828
      vertex 16 13.4436 2.85828
      vertex 16 12.2179 2.85828
    endloop
  endfacet
endsolid OpenSCAD_Model
