solid OpenSCAD_Model
  facet normal -0 0.309017 0.951057
    outer loop
      vertex 11 37 2.8
      vertex 14 36.2947 3.02918
      vertex 14 37 2.8
    endloop
  endfacet
  facet normal 0 0.309017 0.951057
    outer loop
      vertex 14 36.2947 3.02918
      vertex 11 37 2.8
      vertex 11 36.2947 3.02918
    endloop
  endfacet
  facet normal 0 -0.809017 0.587785
    outer loop
      vertex 11 37.7053 3.02918
      vertex 14 38.1413 3.62918
      vertex 11 38.1413 3.62918
    endloop
  endfacet
  facet normal 0 -0.809017 0.587785
    outer loop
      vertex 14 38.1413 3.62918
      vertex 11 37.7053 3.02918
      vertex 14 37.7053 3.02918
    endloop
  endfacet
  facet normal 0 0.309017 -0.951057
    outer loop
      vertex 11 36.2947 4.97082
      vertex 14 37 5.2
      vertex 14 36.2947 4.97082
    endloop
  endfacet
  facet normal 0 0.309017 -0.951057
    outer loop
      vertex 14 37 5.2
      vertex 11 36.2947 4.97082
      vertex 11 37 5.2
    endloop
  endfacet
  facet normal 0 -0.309018 0.951056
    outer loop
      vertex 11 37.7053 3.02918
      vertex 14 37 2.8
      vertex 14 37.7053 3.02918
    endloop
  endfacet
  facet normal 0 -0.309018 0.951056
    outer loop
      vertex 14 37 2.8
      vertex 11 37.7053 3.02918
      vertex 11 37 2.8
    endloop
  endfacet
  facet normal 0 -0.809017 -0.587785
    outer loop
      vertex 11 38.1413 4.37082
      vertex 14 37.7053 4.97082
      vertex 11 37.7053 4.97082
    endloop
  endfacet
  facet normal 0 -0.809017 -0.587785
    outer loop
      vertex 14 37.7053 4.97082
      vertex 11 38.1413 4.37082
      vertex 14 38.1413 4.37082
    endloop
  endfacet
  facet normal 0 0.809017 -0.587785
    outer loop
      vertex 14 35.8587 4.37082
      vertex 11 36.2947 4.97082
      vertex 14 36.2947 4.97082
    endloop
  endfacet
  facet normal 0 0.809017 -0.587785
    outer loop
      vertex 11 36.2947 4.97082
      vertex 14 35.8587 4.37082
      vertex 11 35.8587 4.37082
    endloop
  endfacet
  facet normal 0 0.809017 0.587785
    outer loop
      vertex 14 36.2947 3.02918
      vertex 11 35.8587 3.62918
      vertex 14 35.8587 3.62918
    endloop
  endfacet
  facet normal 0 0.809017 0.587785
    outer loop
      vertex 11 35.8587 3.62918
      vertex 14 36.2947 3.02918
      vertex 11 36.2947 3.02918
    endloop
  endfacet
  facet normal 0 -0.309018 -0.951056
    outer loop
      vertex 11 37 5.2
      vertex 14 37.7053 4.97082
      vertex 14 37 5.2
    endloop
  endfacet
  facet normal -0 -0.309018 -0.951056
    outer loop
      vertex 14 37.7053 4.97082
      vertex 11 37 5.2
      vertex 11 37.7053 4.97082
    endloop
  endfacet
  facet normal 1 0 0
    outer loop
      vertex 14 38.1413 4.37082
      vertex 14 39.8532 4.92705
      vertex 14 38.7634 6.42705
    endloop
  endfacet
  facet normal 1 0 0
    outer loop
      vertex 14 39.8532 4.92705
      vertex 14 38.1413 4.37082
      vertex 14 39.8532 3.07295
    endloop
  endfacet
  facet normal 1 -0 0
    outer loop
      vertex 14 38.1413 3.62918
      vertex 14 39.8532 3.07295
      vertex 14 38.1413 4.37082
    endloop
  endfacet
  facet normal 1 0 0
    outer loop
      vertex 14 38.7634 6.42705
      vertex 14 37.7053 4.97082
      vertex 14 38.1413 4.37082
    endloop
  endfacet
  facet normal 1 0 0
    outer loop
      vertex 14 37 7
      vertex 14 37.7053 4.97082
      vertex 14 38.7634 6.42705
    endloop
  endfacet
  facet normal 1 0 0
    outer loop
      vertex 14 37 7
      vertex 14 37 5.2
      vertex 14 37.7053 4.97082
    endloop
  endfacet
  facet normal 1 0 0
    outer loop
      vertex 14 37 7
      vertex 14 36.2947 4.97082
      vertex 14 37 5.2
    endloop
  endfacet
  facet normal 1 -0 0
    outer loop
      vertex 14 35.2366 6.42705
      vertex 14 36.2947 4.97082
      vertex 14 37 7
    endloop
  endfacet
  facet normal 1 -0 0
    outer loop
      vertex 14 34.1468 4.92705
      vertex 14 35.8587 4.37082
      vertex 14 35.2366 6.42705
    endloop
  endfacet
  facet normal 1 0 0
    outer loop
      vertex 14 36.2947 4.97082
      vertex 14 35.2366 6.42705
      vertex 14 35.8587 4.37082
    endloop
  endfacet
  facet normal 1 0 0
    outer loop
      vertex 14 39.8532 3.07295
      vertex 14 38.1413 3.62918
      vertex 14 38.7634 1.57295
    endloop
  endfacet
  facet normal 1 -0 0
    outer loop
      vertex 14 37.7053 3.02918
      vertex 14 38.7634 1.57295
      vertex 14 38.1413 3.62918
    endloop
  endfacet
  facet normal 1 -0 0
    outer loop
      vertex 14 37 2.8
      vertex 14 38.7634 1.57295
      vertex 14 37.7053 3.02918
    endloop
  endfacet
  facet normal 1 0 0
    outer loop
      vertex 14 37 2.8
      vertex 14 37 1
      vertex 14 38.7634 1.57295
    endloop
  endfacet
  facet normal 1 0 0
    outer loop
      vertex 14 36.2947 3.02918
      vertex 14 37 1
      vertex 14 37 2.8
    endloop
  endfacet
  facet normal 1 0 0
    outer loop
      vertex 14 35.2366 1.57295
      vertex 14 36.2947 3.02918
      vertex 14 35.8587 3.62918
    endloop
  endfacet
  facet normal 1 0 0
    outer loop
      vertex 14 36.2947 3.02918
      vertex 14 35.2366 1.57295
      vertex 14 37 1
    endloop
  endfacet
  facet normal 1 0 0
    outer loop
      vertex 14 35.8587 4.37082
      vertex 14 34.1468 4.92705
      vertex 14 35.8587 3.62918
    endloop
  endfacet
  facet normal 1 0 0
    outer loop
      vertex 14 34.1468 3.07295
      vertex 14 35.8587 3.62918
      vertex 14 34.1468 4.92705
    endloop
  endfacet
  facet normal 1 0 0
    outer loop
      vertex 14 35.8587 3.62918
      vertex 14 34.1468 3.07295
      vertex 14 35.2366 1.57295
    endloop
  endfacet
  facet normal 0 -1 0
    outer loop
      vertex 11 38.1413 3.62918
      vertex 14 38.1413 4.37082
      vertex 11 38.1413 4.37082
    endloop
  endfacet
  facet normal 0 -1 -0
    outer loop
      vertex 14 38.1413 4.37082
      vertex 11 38.1413 3.62918
      vertex 14 38.1413 3.62918
    endloop
  endfacet
  facet normal 0 1 -0
    outer loop
      vertex 14 35.8587 3.62918
      vertex 11 35.8587 4.37082
      vertex 14 35.8587 4.37082
    endloop
  endfacet
  facet normal 0 1 0
    outer loop
      vertex 11 35.8587 4.37082
      vertex 14 35.8587 3.62918
      vertex 11 35.8587 3.62918
    endloop
  endfacet
  facet normal 0 -0.809017 0.587785
    outer loop
      vertex 14 38.7634 1.57295
      vertex 16 39.8532 3.07295
      vertex 14 39.8532 3.07295
    endloop
  endfacet
  facet normal 0 -0.809017 0.587785
    outer loop
      vertex 16 39.8532 3.07295
      vertex 14 38.7634 1.57295
      vertex 16 38.7634 1.57295
    endloop
  endfacet
  facet normal 0 -0.309017 0.951057
    outer loop
      vertex 14 38.7634 1.57295
      vertex 16 37 1
      vertex 16 38.7634 1.57295
    endloop
  endfacet
  facet normal 0 -0.309017 0.951057
    outer loop
      vertex 16 37 1
      vertex 14 38.7634 1.57295
      vertex 14 37 1
    endloop
  endfacet
  facet normal 0 -0.809017 -0.587785
    outer loop
      vertex 14 39.8532 4.92705
      vertex 16 38.7634 6.42705
      vertex 14 38.7634 6.42705
    endloop
  endfacet
  facet normal 0 -0.809017 -0.587785
    outer loop
      vertex 16 38.7634 6.42705
      vertex 14 39.8532 4.92705
      vertex 16 39.8532 4.92705
    endloop
  endfacet
  facet normal 0 0.809016 -0.587786
    outer loop
      vertex 16 34.1468 4.92705
      vertex 14 35.2366 6.42705
      vertex 16 35.2366 6.42705
    endloop
  endfacet
  facet normal 0 0.809016 -0.587786
    outer loop
      vertex 14 35.2366 6.42705
      vertex 16 34.1468 4.92705
      vertex 14 34.1468 4.92705
    endloop
  endfacet
  facet normal 0 0.809016 0.587786
    outer loop
      vertex 16 35.2366 1.57295
      vertex 14 34.1468 3.07295
      vertex 16 34.1468 3.07295
    endloop
  endfacet
  facet normal 0 0.809016 0.587786
    outer loop
      vertex 14 34.1468 3.07295
      vertex 16 35.2366 1.57295
      vertex 14 35.2366 1.57295
    endloop
  endfacet
  facet normal 0 -0.309017 -0.951056
    outer loop
      vertex 14 37 7
      vertex 16 38.7634 6.42705
      vertex 16 37 7
    endloop
  endfacet
  facet normal -0 -0.309017 -0.951056
    outer loop
      vertex 16 38.7634 6.42705
      vertex 14 37 7
      vertex 14 38.7634 6.42705
    endloop
  endfacet
  facet normal 0 -1 0
    outer loop
      vertex 14 39.8532 3.07295
      vertex 16 39.8532 4.92705
      vertex 14 39.8532 4.92705
    endloop
  endfacet
  facet normal 0 -1 -0
    outer loop
      vertex 16 39.8532 4.92705
      vertex 14 39.8532 3.07295
      vertex 16 39.8532 3.07295
    endloop
  endfacet
  facet normal 0 1 0
    outer loop
      vertex 16 34.1468 3.07295
      vertex 14 34.1468 4.92705
      vertex 16 34.1468 4.92705
    endloop
  endfacet
  facet normal 0 1 0
    outer loop
      vertex 14 34.1468 4.92705
      vertex 16 34.1468 3.07295
      vertex 14 34.1468 3.07295
    endloop
  endfacet
  facet normal -0 0.309017 0.951057
    outer loop
      vertex 14 37 1
      vertex 16 35.2366 1.57295
      vertex 16 37 1
    endloop
  endfacet
  facet normal 0 0.309017 0.951057
    outer loop
      vertex 16 35.2366 1.57295
      vertex 14 37 1
      vertex 14 35.2366 1.57295
    endloop
  endfacet
  facet normal 0 0.309017 -0.951056
    outer loop
      vertex 14 35.2366 6.42705
      vertex 16 37 7
      vertex 16 35.2366 6.42705
    endloop
  endfacet
  facet normal 0 0.309017 -0.951056
    outer loop
      vertex 16 37 7
      vertex 14 35.2366 6.42705
      vertex 14 37 7
    endloop
  endfacet
  facet normal -1 -1.51337e-07 -1.19209e-07
    outer loop
      vertex 11 41 0
      vertex 11 38.1413 3.62918
      vertex 11 41 8
    endloop
  endfacet
  facet normal -1 0 0
    outer loop
      vertex 11 41 0
      vertex 11 37.7053 3.02918
      vertex 11 38.1413 3.62918
    endloop
  endfacet
  facet normal -1 0 0
    outer loop
      vertex 11 41 0
      vertex 11 37 2.8
      vertex 11 37.7053 3.02918
    endloop
  endfacet
  facet normal -1 0 0
    outer loop
      vertex 11 33 0
      vertex 11 37 2.8
      vertex 11 41 0
    endloop
  endfacet
  facet normal -1 2.42139e-07 -1.90735e-07
    outer loop
      vertex 11 33 5
      vertex 11 35.8587 3.62918
      vertex 11 33 0
    endloop
  endfacet
  facet normal -1 -0 0
    outer loop
      vertex 11 36.2947 3.02918
      vertex 11 33 0
      vertex 11 35.8587 3.62918
    endloop
  endfacet
  facet normal -1 -0 0
    outer loop
      vertex 11 37 2.8
      vertex 11 33 0
      vertex 11 36.2947 3.02918
    endloop
  endfacet
  facet normal -1 1.63245e-06 -1.2859e-06
    outer loop
      vertex 11 38.1413 4.37082
      vertex 11 41 8
      vertex 11 38.1413 3.62918
    endloop
  endfacet
  facet normal -1 0 0
    outer loop
      vertex 11 37.7053 4.97082
      vertex 11 41 8
      vertex 11 38.1413 4.37082
    endloop
  endfacet
  facet normal -1 0 0
    outer loop
      vertex 11 37 5.2
      vertex 11 41 8
      vertex 11 37.7053 4.97082
    endloop
  endfacet
  facet normal -1 0 0
    outer loop
      vertex 11 33 8
      vertex 11 37 5.2
      vertex 11 36.2947 4.97082
    endloop
  endfacet
  facet normal -1 -2.83014e-07 -1.2859e-06
    outer loop
      vertex 11 35.8587 3.62918
      vertex 11 33 5
      vertex 11 35.8587 4.37082
    endloop
  endfacet
  facet normal -1 0 0
    outer loop
      vertex 11 33 5
      vertex 11 36.2947 4.97082
      vertex 11 35.8587 4.37082
    endloop
  endfacet
  facet normal -1 0 0
    outer loop
      vertex 11 33 8
      vertex 11 36.2947 4.97082
      vertex 11 33 5
    endloop
  endfacet
  facet normal -1 0 0
    outer loop
      vertex 11 37 5.2
      vertex 11 33 8
      vertex 11 41 8
    endloop
  endfacet
  facet normal 0 0 -1
    outer loop
      vertex 12.25 28.5 0
      vertex 7.2 30.5 0
      vertex 11 33 0
    endloop
  endfacet
  facet normal 0 0 -1
    outer loop
      vertex 12.25 28.5 0
      vertex 6.97081 29.7946 0
      vertex 7.2 30.5 0
    endloop
  endfacet
  facet normal 0 0 -1
    outer loop
      vertex 12.25 28.5 0
      vertex 6.37082 29.3587 0
      vertex 6.97081 29.7946 0
    endloop
  endfacet
  facet normal 0 0 -1
    outer loop
      vertex 12.25 28.5 0
      vertex 5.62918 29.3587 0
      vertex 6.37082 29.3587 0
    endloop
  endfacet
  facet normal -0 0 -1
    outer loop
      vertex 5.02919 29.7946 0
      vertex 0 28.5 0
      vertex 4.8 30.5 0
    endloop
  endfacet
  facet normal -0 0 -1
    outer loop
      vertex 5.62918 29.3587 0
      vertex 0 28.5 0
      vertex 5.02919 29.7946 0
    endloop
  endfacet
  facet normal 0 0 -1
    outer loop
      vertex 0 28.5 0
      vertex 5.62918 29.3587 0
      vertex 12.25 28.5 0
    endloop
  endfacet
  facet normal 0 0 -1
    outer loop
      vertex 12.25 5 0
      vertex 16 33 0
      vertex 16 0 0
    endloop
  endfacet
  facet normal 0 0 -1
    outer loop
      vertex 16 33 0
      vertex 12.25 5 0
      vertex 12.25 28.5 0
    endloop
  endfacet
  facet normal 0 0 -1
    outer loop
      vertex 6.97081 1.79466 0
      vertex 12.25 5 0
      vertex 16 0 0
    endloop
  endfacet
  facet normal 0 0 -1
    outer loop
      vertex 12.25 5 0
      vertex 6.97081 1.79466 0
      vertex 7.2 2.5 0
    endloop
  endfacet
  facet normal 0 0 -1
    outer loop
      vertex 16 0 0
      vertex 6.37082 1.35873 0
      vertex 6.97081 1.79466 0
    endloop
  endfacet
  facet normal 0 0 -1
    outer loop
      vertex 0 0 0
      vertex 6.37082 1.35873 0
      vertex 16 0 0
    endloop
  endfacet
  facet normal -0 0 -1
    outer loop
      vertex 5.02919 1.79466 0
      vertex 0 0 0
      vertex 4.8 2.5 0
    endloop
  endfacet
  facet normal -0 0 -1
    outer loop
      vertex 5.62918 1.35873 0
      vertex 0 0 0
      vertex 5.02919 1.79466 0
    endloop
  endfacet
  facet normal -0 0 -1
    outer loop
      vertex 6.37082 1.35873 0
      vertex 0 0 0
      vertex 5.62918 1.35873 0
    endloop
  endfacet
  facet normal 0 0 -1
    outer loop
      vertex 11 33 0
      vertex 16 33 0
      vertex 12.25 28.5 0
    endloop
  endfacet
  facet normal 0 0 -1
    outer loop
      vertex 16 33 0
      vertex 11 33 0
      vertex 16 41 0
    endloop
  endfacet
  facet normal -0 0 -1
    outer loop
      vertex 16 41 0
      vertex 11 33 0
      vertex 11 41 0
    endloop
  endfacet
  facet normal 0 0 -1
    outer loop
      vertex 6.97081 3.20534 0
      vertex 12.25 5 0
      vertex 7.2 2.5 0
    endloop
  endfacet
  facet normal 0 0 -1
    outer loop
      vertex 6.37082 3.64127 0
      vertex 12.25 5 0
      vertex 6.97081 3.20534 0
    endloop
  endfacet
  facet normal 0 0 -1
    outer loop
      vertex 5.62918 3.64127 0
      vertex 12.25 5 0
      vertex 6.37082 3.64127 0
    endloop
  endfacet
  facet normal 0 0 -1
    outer loop
      vertex 0 5 0
      vertex 4.8 2.5 0
      vertex 0 0 0
    endloop
  endfacet
  facet normal 0 0 -1
    outer loop
      vertex 4.8 2.5 0
      vertex 0 5 0
      vertex 5.02919 3.20534 0
    endloop
  endfacet
  facet normal 0 0 -1
    outer loop
      vertex 5.62918 3.64127 0
      vertex 0 5 0
      vertex 12.25 5 0
    endloop
  endfacet
  facet normal 0 0 -1
    outer loop
      vertex 5.02919 3.20534 0
      vertex 0 5 0
      vertex 5.62918 3.64127 0
    endloop
  endfacet
  facet normal 0 0 -1
    outer loop
      vertex 6.97081 31.2053 0
      vertex 11 33 0
      vertex 7.2 30.5 0
    endloop
  endfacet
  facet normal 0 0 -1
    outer loop
      vertex 6.37082 31.6413 0
      vertex 11 33 0
      vertex 6.97081 31.2053 0
    endloop
  endfacet
  facet normal 0 0 -1
    outer loop
      vertex 5.62918 31.6413 0
      vertex 11 33 0
      vertex 6.37082 31.6413 0
    endloop
  endfacet
  facet normal 0 0 -1
    outer loop
      vertex 0 33 0
      vertex 4.8 30.5 0
      vertex 0 28.5 0
    endloop
  endfacet
  facet normal 0 0 -1
    outer loop
      vertex 4.8 30.5 0
      vertex 0 33 0
      vertex 5.02919 31.2053 0
    endloop
  endfacet
  facet normal 0 0 -1
    outer loop
      vertex 5.62918 31.6413 0
      vertex 0 33 0
      vertex 11 33 0
    endloop
  endfacet
  facet normal 0 0 -1
    outer loop
      vertex 5.02919 31.2053 0
      vertex 0 33 0
      vertex 5.62918 31.6413 0
    endloop
  endfacet
  facet normal -0 0 1
    outer loop
      vertex 11 41 8
      vertex 16 33 8
      vertex 16 41 8
    endloop
  endfacet
  facet normal 0 0 1
    outer loop
      vertex 16 33 8
      vertex 11 41 8
      vertex 11 33 8
    endloop
  endfacet
  facet normal 0 1 0
    outer loop
      vertex 11 33 0
      vertex 0 33 5
      vertex 11 33 5
    endloop
  endfacet
  facet normal 0 1 0
    outer loop
      vertex 0 33 5
      vertex 11 33 0
      vertex 0 33 0
    endloop
  endfacet
  facet normal 0 -1 0
    outer loop
      vertex 11 33 5
      vertex 16 33 8
      vertex 11 33 8
    endloop
  endfacet
  facet normal 0 -1 -0
    outer loop
      vertex 16 33 8
      vertex 11 33 5
      vertex 16 33 5
    endloop
  endfacet
  facet normal 0 1 0
    outer loop
      vertex 16 41 0
      vertex 11 41 8
      vertex 16 41 8
    endloop
  endfacet
  facet normal 0 1 0
    outer loop
      vertex 11 41 8
      vertex 16 41 0
      vertex 11 41 0
    endloop
  endfacet
  facet normal 1 -3.19423e-07 1.19209e-07
    outer loop
      vertex 16 41 8
      vertex 16 39.8532 4.92705
      vertex 16 41 0
    endloop
  endfacet
  facet normal 1 0 0
    outer loop
      vertex 16 41 8
      vertex 16 38.7634 6.42705
      vertex 16 39.8532 4.92705
    endloop
  endfacet
  facet normal 1 0 0
    outer loop
      vertex 16 41 8
      vertex 16 37 7
      vertex 16 38.7634 6.42705
    endloop
  endfacet
  facet normal 1 0 0
    outer loop
      vertex 16 35.2366 6.42705
      vertex 16 33 5
      vertex 16 34.1468 4.92705
    endloop
  endfacet
  facet normal 1 0 0
    outer loop
      vertex 16 33 5
      vertex 16 35.2366 6.42705
      vertex 16 33 8
    endloop
  endfacet
  facet normal 1 0 0
    outer loop
      vertex 16 37 7
      vertex 16 33 8
      vertex 16 35.2366 6.42705
    endloop
  endfacet
  facet normal 1 -0 0
    outer loop
      vertex 16 33 8
      vertex 16 37 7
      vertex 16 41 8
    endloop
  endfacet
  facet normal 1 1.37823e-06 5.14359e-07
    outer loop
      vertex 16 39.8532 3.07295
      vertex 16 41 0
      vertex 16 39.8532 4.92705
    endloop
  endfacet
  facet normal 1 -0 0
    outer loop
      vertex 16 38.7634 1.57295
      vertex 16 41 0
      vertex 16 39.8532 3.07295
    endloop
  endfacet
  facet normal 1 -0 0
    outer loop
      vertex 16 37 1
      vertex 16 41 0
      vertex 16 38.7634 1.57295
    endloop
  endfacet
  facet normal 1 3.27182e-08 5.14359e-07
    outer loop
      vertex 16 34.1468 4.92705
      vertex 16 33 5
      vertex 16 34.1468 3.07295
    endloop
  endfacet
  facet normal 1 0 0
    outer loop
      vertex 16 37 1
      vertex 16 33 0
      vertex 16 41 0
    endloop
  endfacet
  facet normal 1 0 0
    outer loop
      vertex 16 35.2366 1.57295
      vertex 16 33 0
      vertex 16 37 1
    endloop
  endfacet
  facet normal 1 0 0
    outer loop
      vertex 16 34.1468 3.07295
      vertex 16 33 0
      vertex 16 35.2366 1.57295
    endloop
  endfacet
  facet normal 1 -5.11078e-07 1.90735e-07
    outer loop
      vertex 16 33 0
      vertex 16 34.1468 3.07295
      vertex 16 33 5
    endloop
  endfacet
  facet normal 0 0 1
    outer loop
      vertex 12.25 5 5
      vertex 6.97081 3.20534 5
      vertex 7.2 2.5 5
    endloop
  endfacet
  facet normal 0 0 1
    outer loop
      vertex 12.25 5 5
      vertex 6.37082 3.64127 5
      vertex 6.97081 3.20534 5
    endloop
  endfacet
  facet normal 0 0 1
    outer loop
      vertex 12.25 5 5
      vertex 5.62918 3.64127 5
      vertex 6.37082 3.64127 5
    endloop
  endfacet
  facet normal 0 0 1
    outer loop
      vertex 5.02919 3.20534 5
      vertex 0 5 5
      vertex 4.8 2.5 5
    endloop
  endfacet
  facet normal 0 0 1
    outer loop
      vertex 5.62918 3.64127 5
      vertex 0 5 5
      vertex 5.02919 3.20534 5
    endloop
  endfacet
  facet normal -0 0 1
    outer loop
      vertex 0 5 5
      vertex 5.62918 3.64127 5
      vertex 12.25 5 5
    endloop
  endfacet
  facet normal 0 0 1
    outer loop
      vertex 11 33 5
      vertex 6.97081 31.2053 5
      vertex 7.2 30.5 5
    endloop
  endfacet
  facet normal 0 0 1
    outer loop
      vertex 11 33 5
      vertex 6.37082 31.6413 5
      vertex 6.97081 31.2053 5
    endloop
  endfacet
  facet normal 0 0 1
    outer loop
      vertex 11 33 5
      vertex 5.62918 31.6413 5
      vertex 6.37082 31.6413 5
    endloop
  endfacet
  facet normal 0 0 1
    outer loop
      vertex 5.02919 31.2053 5
      vertex 0 33 5
      vertex 4.8 30.5 5
    endloop
  endfacet
  facet normal 0 0 1
    outer loop
      vertex 5.62918 31.6413 5
      vertex 0 33 5
      vertex 5.02919 31.2053 5
    endloop
  endfacet
  facet normal -0 0 1
    outer loop
      vertex 0 33 5
      vertex 5.62918 31.6413 5
      vertex 11 33 5
    endloop
  endfacet
  facet normal -0 0 1
    outer loop
      vertex 11 33 5
      vertex 12.25 28.5 5
      vertex 16 33 5
    endloop
  endfacet
  facet normal -0 0 1
    outer loop
      vertex 7.2 30.5 5
      vertex 12.25 28.5 5
      vertex 11 33 5
    endloop
  endfacet
  facet normal -0 0 1
    outer loop
      vertex 6.97081 29.7946 5
      vertex 12.25 28.5 5
      vertex 7.2 30.5 5
    endloop
  endfacet
  facet normal -0 0 1
    outer loop
      vertex 6.37082 29.3587 5
      vertex 12.25 28.5 5
      vertex 6.97081 29.7946 5
    endloop
  endfacet
  facet normal -0 0 1
    outer loop
      vertex 5.62918 29.3587 5
      vertex 12.25 28.5 5
      vertex 6.37082 29.3587 5
    endloop
  endfacet
  facet normal 0 0 1
    outer loop
      vertex 0 28.5 5
      vertex 4.8 30.5 5
      vertex 0 33 5
    endloop
  endfacet
  facet normal 0 0 1
    outer loop
      vertex 4.8 30.5 5
      vertex 0 28.5 5
      vertex 5.02919 29.7946 5
    endloop
  endfacet
  facet normal 0 0 1
    outer loop
      vertex 5.62918 29.3587 5
      vertex 0 28.5 5
      vertex 12.25 28.5 5
    endloop
  endfacet
  facet normal 0 0 1
    outer loop
      vertex 5.02919 29.7946 5
      vertex 0 28.5 5
      vertex 5.62918 29.3587 5
    endloop
  endfacet
  facet normal 0 0 1
    outer loop
      vertex 16 33 5
      vertex 12.25 28.5 5
      vertex 12.25 5 5
    endloop
  endfacet
  facet normal 0 0 1
    outer loop
      vertex 16 33 5
      vertex 12.25 5 5
      vertex 16 0 5
    endloop
  endfacet
  facet normal 0 0 1
    outer loop
      vertex 6.97081 1.79466 5
      vertex 12.25 5 5
      vertex 7.2 2.5 5
    endloop
  endfacet
  facet normal 0 0 1
    outer loop
      vertex 12.25 5 5
      vertex 6.97081 1.79466 5
      vertex 16 0 5
    endloop
  endfacet
  facet normal -0 0 1
    outer loop
      vertex 6.37082 1.35873 5
      vertex 16 0 5
      vertex 6.97081 1.79466 5
    endloop
  endfacet
  facet normal 0 0 1
    outer loop
      vertex 0 0 5
      vertex 6.37082 1.35873 5
      vertex 5.62918 1.35873 5
    endloop
  endfacet
  facet normal 0 0 1
    outer loop
      vertex 0 0 5
      vertex 4.8 2.5 5
      vertex 0 5 5
    endloop
  endfacet
  facet normal 0 0 1
    outer loop
      vertex 4.8 2.5 5
      vertex 0 0 5
      vertex 5.02919 1.79466 5
    endloop
  endfacet
  facet normal 0 0 1
    outer loop
      vertex 6.37082 1.35873 5
      vertex 0 0 5
      vertex 16 0 5
    endloop
  endfacet
  facet normal 0 0 1
    outer loop
      vertex 5.02919 1.79466 5
      vertex 0 0 5
      vertex 5.62918 1.35873 5
    endloop
  endfacet
  facet normal -1 0 0
    outer loop
      vertex 0 28.5 0
      vertex 0 33 5
      vertex 0 33 0
    endloop
  endfacet
  facet normal -1 -0 0
    outer loop
      vertex 0 33 5
      vertex 0 28.5 0
      vertex 0 28.5 5
    endloop
  endfacet
  facet normal 0 -1 0
    outer loop
      vertex 0 28.5 0
      vertex 12.25 28.5 5
      vertex 0 28.5 5
    endloop
  endfacet
  facet normal 0 -1 -0
    outer loop
      vertex 12.25 28.5 5
      vertex 0 28.5 0
      vertex 12.25 28.5 0
    endloop
  endfacet
  facet normal -1 0 0
    outer loop
      vertex 12.25 5 0
      vertex 12.25 28.5 5
      vertex 12.25 28.5 0
    endloop
  endfacet
  facet normal -1 -0 0
    outer loop
      vertex 12.25 28.5 5
      vertex 12.25 5 0
      vertex 12.25 5 5
    endloop
  endfacet
  facet normal 0 1 -0
    outer loop
      vertex 12.25 5 0
      vertex 0 5 5
      vertex 12.25 5 5
    endloop
  endfacet
  facet normal 0 1 0
    outer loop
      vertex 0 5 5
      vertex 12.25 5 0
      vertex 0 5 0
    endloop
  endfacet
  facet normal -1 0 0
    outer loop
      vertex 0 0 0
      vertex 0 5 5
      vertex 0 5 0
    endloop
  endfacet
  facet normal -1 -0 0
    outer loop
      vertex 0 5 5
      vertex 0 0 0
      vertex 0 0 5
    endloop
  endfacet
  facet normal 0 -1 0
    outer loop
      vertex 0 0 0
      vertex 16 0 5
      vertex 0 0 5
    endloop
  endfacet
  facet normal 0 -1 -0
    outer loop
      vertex 16 0 5
      vertex 0 0 0
      vertex 16 0 0
    endloop
  endfacet
  facet normal 1 -0 0
    outer loop
      vertex 16 0 5
      vertex 16 33 0
      vertex 16 33 5
    endloop
  endfacet
  facet normal 1 0 0
    outer loop
      vertex 16 33 0
      vertex 16 0 5
      vertex 16 0 0
    endloop
  endfacet
  facet normal 0.587794 0.809011 -0
    outer loop
      vertex 5.62918 29.3587 0
      vertex 5.02919 29.7946 5
      vertex 5.62918 29.3587 5
    endloop
  endfacet
  facet normal 0.587794 0.809011 0
    outer loop
      vertex 5.02919 29.7946 5
      vertex 5.62918 29.3587 0
      vertex 5.02919 29.7946 0
    endloop
  endfacet
  facet normal 0.951055 0.309022 0
    outer loop
      vertex 5.02919 29.7946 5
      vertex 4.8 30.5 0
      vertex 4.8 30.5 5
    endloop
  endfacet
  facet normal 0.951055 0.309022 0
    outer loop
      vertex 4.8 30.5 0
      vertex 5.02919 29.7946 5
      vertex 5.02919 29.7946 0
    endloop
  endfacet
  facet normal 0.951053 -0.309028 0
    outer loop
      vertex 4.8 30.5 5
      vertex 5.02919 31.2053 0
      vertex 5.02919 31.2053 5
    endloop
  endfacet
  facet normal 0.951053 -0.309028 0
    outer loop
      vertex 5.02919 31.2053 0
      vertex 4.8 30.5 5
      vertex 4.8 30.5 0
    endloop
  endfacet
  facet normal 0.587794 -0.809011 0
    outer loop
      vertex 5.02919 31.2053 0
      vertex 5.62918 31.6413 5
      vertex 5.02919 31.2053 5
    endloop
  endfacet
  facet normal 0.587794 -0.809011 0
    outer loop
      vertex 5.62918 31.6413 5
      vertex 5.02919 31.2053 0
      vertex 5.62918 31.6413 0
    endloop
  endfacet
  facet normal 0 -1 0
    outer loop
      vertex 5.62918 31.6413 0
      vertex 6.37082 31.6413 5
      vertex 5.62918 31.6413 5
    endloop
  endfacet
  facet normal 0 -1 -0
    outer loop
      vertex 6.37082 31.6413 5
      vertex 5.62918 31.6413 0
      vertex 6.37082 31.6413 0
    endloop
  endfacet
  facet normal -0.587794 -0.809011 0
    outer loop
      vertex 6.37082 31.6413 0
      vertex 6.97081 31.2053 5
      vertex 6.37082 31.6413 5
    endloop
  endfacet
  facet normal -0.587794 -0.809011 -0
    outer loop
      vertex 6.97081 31.2053 5
      vertex 6.37082 31.6413 0
      vertex 6.97081 31.2053 0
    endloop
  endfacet
  facet normal -0.951053 -0.309028 0
    outer loop
      vertex 7.2 30.5 0
      vertex 6.97081 31.2053 5
      vertex 6.97081 31.2053 0
    endloop
  endfacet
  facet normal -0.951053 -0.309028 0
    outer loop
      vertex 6.97081 31.2053 5
      vertex 7.2 30.5 0
      vertex 7.2 30.5 5
    endloop
  endfacet
  facet normal -0.951055 0.309022 0
    outer loop
      vertex 6.97081 29.7946 0
      vertex 7.2 30.5 5
      vertex 7.2 30.5 0
    endloop
  endfacet
  facet normal -0.951055 0.309022 0
    outer loop
      vertex 7.2 30.5 5
      vertex 6.97081 29.7946 0
      vertex 6.97081 29.7946 5
    endloop
  endfacet
  facet normal -0.587794 0.809011 0
    outer loop
      vertex 6.97081 29.7946 0
      vertex 6.37082 29.3587 5
      vertex 6.97081 29.7946 5
    endloop
  endfacet
  facet normal -0.587794 0.809011 0
    outer loop
      vertex 6.37082 29.3587 5
      vertex 6.97081 29.7946 0
      vertex 6.37082 29.3587 0
    endloop
  endfacet
  facet normal 0 1 -0
    outer loop
      vertex 6.37082 29.3587 0
      vertex 5.62918 29.3587 5
      vertex 6.37082 29.3587 5
    endloop
  endfacet
  facet normal 0 1 0
    outer loop
      vertex 5.62918 29.3587 5
      vertex 6.37082 29.3587 0
      vertex 5.62918 29.3587 0
    endloop
  endfacet
  facet normal 0.587794 0.809011 -0
    outer loop
      vertex 5.62918 1.35873 0
      vertex 5.02919 1.79466 5
      vertex 5.62918 1.35873 5
    endloop
  endfacet
  facet normal 0.587794 0.809011 0
    outer loop
      vertex 5.02919 1.79466 5
      vertex 5.62918 1.35873 0
      vertex 5.02919 1.79466 0
    endloop
  endfacet
  facet normal 0.951053 0.309028 0
    outer loop
      vertex 5.02919 1.79466 5
      vertex 4.8 2.5 0
      vertex 4.8 2.5 5
    endloop
  endfacet
  facet normal 0.951053 0.309028 0
    outer loop
      vertex 4.8 2.5 0
      vertex 5.02919 1.79466 5
      vertex 5.02919 1.79466 0
    endloop
  endfacet
  facet normal 0.951053 -0.309028 0
    outer loop
      vertex 4.8 2.5 5
      vertex 5.02919 3.20534 0
      vertex 5.02919 3.20534 5
    endloop
  endfacet
  facet normal 0.951053 -0.309028 0
    outer loop
      vertex 5.02919 3.20534 0
      vertex 4.8 2.5 5
      vertex 4.8 2.5 0
    endloop
  endfacet
  facet normal 0.587794 -0.809011 0
    outer loop
      vertex 5.02919 3.20534 0
      vertex 5.62918 3.64127 5
      vertex 5.02919 3.20534 5
    endloop
  endfacet
  facet normal 0.587794 -0.809011 0
    outer loop
      vertex 5.62918 3.64127 5
      vertex 5.02919 3.20534 0
      vertex 5.62918 3.64127 0
    endloop
  endfacet
  facet normal 0 -1 0
    outer loop
      vertex 5.62918 3.64127 0
      vertex 6.37082 3.64127 5
      vertex 5.62918 3.64127 5
    endloop
  endfacet
  facet normal 0 -1 -0
    outer loop
      vertex 6.37082 3.64127 5
      vertex 5.62918 3.64127 0
      vertex 6.37082 3.64127 0
    endloop
  endfacet
  facet normal -0.587794 -0.809011 0
    outer loop
      vertex 6.37082 3.64127 0
      vertex 6.97081 3.20534 5
      vertex 6.37082 3.64127 5
    endloop
  endfacet
  facet normal -0.587794 -0.809011 -0
    outer loop
      vertex 6.97081 3.20534 5
      vertex 6.37082 3.64127 0
      vertex 6.97081 3.20534 0
    endloop
  endfacet
  facet normal -0.951053 -0.309028 0
    outer loop
      vertex 7.2 2.5 0
      vertex 6.97081 3.20534 5
      vertex 6.97081 3.20534 0
    endloop
  endfacet
  facet normal -0.951053 -0.309028 0
    outer loop
      vertex 6.97081 3.20534 5
      vertex 7.2 2.5 0
      vertex 7.2 2.5 5
    endloop
  endfacet
  facet normal -0.951053 0.309028 0
    outer loop
      vertex 6.97081 1.79466 0
      vertex 7.2 2.5 5
      vertex 7.2 2.5 0
    endloop
  endfacet
  facet normal -0.951053 0.309028 0
    outer loop
      vertex 7.2 2.5 5
      vertex 6.97081 1.79466 0
      vertex 6.97081 1.79466 5
    endloop
  endfacet
  facet normal -0.587794 0.809011 0
    outer loop
      vertex 6.97081 1.79466 0
      vertex 6.37082 1.35873 5
      vertex 6.97081 1.79466 5
    endloop
  endfacet
  facet normal -0.587794 0.809011 0
    outer loop
      vertex 6.37082 1.35873 5
      vertex 6.97081 1.79466 0
      vertex 6.37082 1.35873 0
    endloop
  endfacet
  facet normal 0 1 -0
    outer loop
      vertex 6.37082 1.35873 0
      vertex 5.62918 1.35873 5
      vertex 6.37082 1.35873 5
    endloop
  endfacet
  facet normal 0 1 0
    outer loop
      vertex 5.62918 1.35873 5
      vertex 6.37082 1.35873 0
      vertex 5.62918 1.35873 0
    endloop
  endfacet
endsolid OpenSCAD_Model
