solid OpenSCAD_Model
  facet normal -0 0.309017 0.951057
    outer loop
      vertex 11 37 2.8
      vertex 14 36.2947 3.02918
      vertex 14 37 2.8
    endloop
  endfacet
  facet normal 0 0.309017 0.951057
    outer loop
      vertex 14 36.2947 3.02918
      vertex 11 37 2.8
      vertex 11 36.2947 3.02918
    endloop
  endfacet
  facet normal 0 -0.809017 0.587785
    outer loop
      vertex 11 37.7053 3.02918
      vertex 14 38.1413 3.62918
      vertex 11 38.1413 3.62918
    endloop
  endfacet
  facet normal 0 -0.809017 0.587785
    outer loop
      vertex 14 38.1413 3.62918
      vertex 11 37.7053 3.02918
      vertex 14 37.7053 3.02918
    endloop
  endfacet
  facet normal 0 0.309017 -0.951057
    outer loop
      vertex 11 36.2947 4.97082
      vertex 14 37 5.2
      vertex 14 36.2947 4.97082
    endloop
  endfacet
  facet normal 0 0.309017 -0.951057
    outer loop
      vertex 14 37 5.2
      vertex 11 36.2947 4.97082
      vertex 11 37 5.2
    endloop
  endfacet
  facet normal 0 -0.309018 0.951056
    outer loop
      vertex 11 37.7053 3.02918
      vertex 14 37 2.8
      vertex 14 37.7053 3.02918
    endloop
  endfacet
  facet normal 0 -0.309018 0.951056
    outer loop
      vertex 14 37 2.8
      vertex 11 37.7053 3.02918
      vertex 11 37 2.8
    endloop
  endfacet
  facet normal 0 -0.809017 -0.587785
    outer loop
      vertex 11 38.1413 4.37082
      vertex 14 37.7053 4.97082
      vertex 11 37.7053 4.97082
    endloop
  endfacet
  facet normal 0 -0.809017 -0.587785
    outer loop
      vertex 14 37.7053 4.97082
      vertex 11 38.1413 4.37082
      vertex 14 38.1413 4.37082
    endloop
  endfacet
  facet normal 0 0.809017 -0.587785
    outer loop
      vertex 14 35.8587 4.37082
      vertex 11 36.2947 4.97082
      vertex 14 36.2947 4.97082
    endloop
  endfacet
  facet normal 0 0.809017 -0.587785
    outer loop
      vertex 11 36.2947 4.97082
      vertex 14 35.8587 4.37082
      vertex 11 35.8587 4.37082
    endloop
  endfacet
  facet normal 0 0.809017 0.587785
    outer loop
      vertex 14 36.2947 3.02918
      vertex 11 35.8587 3.62918
      vertex 14 35.8587 3.62918
    endloop
  endfacet
  facet normal 0 0.809017 0.587785
    outer loop
      vertex 11 35.8587 3.62918
      vertex 14 36.2947 3.02918
      vertex 11 36.2947 3.02918
    endloop
  endfacet
  facet normal 0 -0.309018 -0.951056
    outer loop
      vertex 11 37 5.2
      vertex 14 37.7053 4.97082
      vertex 14 37 5.2
    endloop
  endfacet
  facet normal -0 -0.309018 -0.951056
    outer loop
      vertex 14 37.7053 4.97082
      vertex 11 37 5.2
      vertex 11 37.7053 4.97082
    endloop
  endfacet
  facet normal 1 0 0
    outer loop
      vertex 14 38.1413 4.37082
      vertex 14 39.8532 4.92705
      vertex 14 38.7634 6.42705
    endloop
  endfacet
  facet normal 1 0 0
    outer loop
      vertex 14 39.8532 4.92705
      vertex 14 38.1413 4.37082
      vertex 14 39.8532 3.07295
    endloop
  endfacet
  facet normal 1 -0 0
    outer loop
      vertex 14 38.1413 3.62918
      vertex 14 39.8532 3.07295
      vertex 14 38.1413 4.37082
    endloop
  endfacet
  facet normal 1 0 0
    outer loop
      vertex 14 38.7634 6.42705
      vertex 14 37.7053 4.97082
      vertex 14 38.1413 4.37082
    endloop
  endfacet
  facet normal 1 0 0
    outer loop
      vertex 14 37 7
      vertex 14 37.7053 4.97082
      vertex 14 38.7634 6.42705
    endloop
  endfacet
  facet normal 1 0 0
    outer loop
      vertex 14 37 7
      vertex 14 37 5.2
      vertex 14 37.7053 4.97082
    endloop
  endfacet
  facet normal 1 0 0
    outer loop
      vertex 14 37 7
      vertex 14 36.2947 4.97082
      vertex 14 37 5.2
    endloop
  endfacet
  facet normal 1 -0 0
    outer loop
      vertex 14 35.2366 6.42705
      vertex 14 36.2947 4.97082
      vertex 14 37 7
    endloop
  endfacet
  facet normal 1 -0 0
    outer loop
      vertex 14 34.1468 4.92705
      vertex 14 35.8587 4.37082
      vertex 14 35.2366 6.42705
    endloop
  endfacet
  facet normal 1 0 0
    outer loop
      vertex 14 36.2947 4.97082
      vertex 14 35.2366 6.42705
      vertex 14 35.8587 4.37082
    endloop
  endfacet
  facet normal 1 0 0
    outer loop
      vertex 14 39.8532 3.07295
      vertex 14 38.1413 3.62918
      vertex 14 38.7634 1.57295
    endloop
  endfacet
  facet normal 1 -0 0
    outer loop
      vertex 14 37.7053 3.02918
      vertex 14 38.7634 1.57295
      vertex 14 38.1413 3.62918
    endloop
  endfacet
  facet normal 1 -0 0
    outer loop
      vertex 14 37 2.8
      vertex 14 38.7634 1.57295
      vertex 14 37.7053 3.02918
    endloop
  endfacet
  facet normal 1 0 0
    outer loop
      vertex 14 37 2.8
      vertex 14 37 1
      vertex 14 38.7634 1.57295
    endloop
  endfacet
  facet normal 1 0 0
    outer loop
      vertex 14 36.2947 3.02918
      vertex 14 37 1
      vertex 14 37 2.8
    endloop
  endfacet
  facet normal 1 0 0
    outer loop
      vertex 14 35.2366 1.57295
      vertex 14 36.2947 3.02918
      vertex 14 35.8587 3.62918
    endloop
  endfacet
  facet normal 1 0 0
    outer loop
      vertex 14 36.2947 3.02918
      vertex 14 35.2366 1.57295
      vertex 14 37 1
    endloop
  endfacet
  facet normal 1 0 0
    outer loop
      vertex 14 35.8587 4.37082
      vertex 14 34.1468 4.92705
      vertex 14 35.8587 3.62918
    endloop
  endfacet
  facet normal 1 0 0
    outer loop
      vertex 14 34.1468 3.07295
      vertex 14 35.8587 3.62918
      vertex 14 34.1468 4.92705
    endloop
  endfacet
  facet normal 1 0 0
    outer loop
      vertex 14 35.8587 3.62918
      vertex 14 34.1468 3.07295
      vertex 14 35.2366 1.57295
    endloop
  endfacet
  facet normal 0 -1 0
    outer loop
      vertex 11 38.1413 3.62918
      vertex 14 38.1413 4.37082
      vertex 11 38.1413 4.37082
    endloop
  endfacet
  facet normal 0 -1 -0
    outer loop
      vertex 14 38.1413 4.37082
      vertex 11 38.1413 3.62918
      vertex 14 38.1413 3.62918
    endloop
  endfacet
  facet normal 0 1 -0
    outer loop
      vertex 14 35.8587 3.62918
      vertex 11 35.8587 4.37082
      vertex 14 35.8587 4.37082
    endloop
  endfacet
  facet normal 0 1 0
    outer loop
      vertex 11 35.8587 4.37082
      vertex 14 35.8587 3.62918
      vertex 11 35.8587 3.62918
    endloop
  endfacet
  facet normal 0 -0.809017 0.587785
    outer loop
      vertex 14 38.7634 1.57295
      vertex 16 39.8532 3.07295
      vertex 14 39.8532 3.07295
    endloop
  endfacet
  facet normal 0 -0.809017 0.587785
    outer loop
      vertex 16 39.8532 3.07295
      vertex 14 38.7634 1.57295
      vertex 16 38.7634 1.57295
    endloop
  endfacet
  facet normal 0 0.309017 -0.951056
    outer loop
      vertex 14 35.2366 6.42705
      vertex 16 37 7
      vertex 16 35.2366 6.42705
    endloop
  endfacet
  facet normal 0 0.309017 -0.951056
    outer loop
      vertex 16 37 7
      vertex 14 35.2366 6.42705
      vertex 14 37 7
    endloop
  endfacet
  facet normal 0 -0.309017 0.951057
    outer loop
      vertex 14 38.7634 1.57295
      vertex 16 37 1
      vertex 16 38.7634 1.57295
    endloop
  endfacet
  facet normal 0 -0.309017 0.951057
    outer loop
      vertex 16 37 1
      vertex 14 38.7634 1.57295
      vertex 14 37 1
    endloop
  endfacet
  facet normal 0 -0.809017 -0.587785
    outer loop
      vertex 14 39.8532 4.92705
      vertex 16 38.7634 6.42705
      vertex 14 38.7634 6.42705
    endloop
  endfacet
  facet normal 0 -0.809017 -0.587785
    outer loop
      vertex 16 38.7634 6.42705
      vertex 14 39.8532 4.92705
      vertex 16 39.8532 4.92705
    endloop
  endfacet
  facet normal 0 0.809016 -0.587786
    outer loop
      vertex 16 34.1468 4.92705
      vertex 14 35.2366 6.42705
      vertex 16 35.2366 6.42705
    endloop
  endfacet
  facet normal 0 0.809016 -0.587786
    outer loop
      vertex 14 35.2366 6.42705
      vertex 16 34.1468 4.92705
      vertex 14 34.1468 4.92705
    endloop
  endfacet
  facet normal 0 0.809016 0.587786
    outer loop
      vertex 16 35.2366 1.57295
      vertex 14 34.1468 3.07295
      vertex 16 34.1468 3.07295
    endloop
  endfacet
  facet normal 0 0.809016 0.587786
    outer loop
      vertex 14 34.1468 3.07295
      vertex 16 35.2366 1.57295
      vertex 14 35.2366 1.57295
    endloop
  endfacet
  facet normal 0 -0.309017 -0.951056
    outer loop
      vertex 14 37 7
      vertex 16 38.7634 6.42705
      vertex 16 37 7
    endloop
  endfacet
  facet normal -0 -0.309017 -0.951056
    outer loop
      vertex 16 38.7634 6.42705
      vertex 14 37 7
      vertex 14 38.7634 6.42705
    endloop
  endfacet
  facet normal 0 -1 0
    outer loop
      vertex 14 39.8532 3.07295
      vertex 16 39.8532 4.92705
      vertex 14 39.8532 4.92705
    endloop
  endfacet
  facet normal 0 -1 -0
    outer loop
      vertex 16 39.8532 4.92705
      vertex 14 39.8532 3.07295
      vertex 16 39.8532 3.07295
    endloop
  endfacet
  facet normal 0 1 0
    outer loop
      vertex 16 34.1468 3.07295
      vertex 14 34.1468 4.92705
      vertex 16 34.1468 4.92705
    endloop
  endfacet
  facet normal 0 1 0
    outer loop
      vertex 14 34.1468 4.92705
      vertex 16 34.1468 3.07295
      vertex 14 34.1468 3.07295
    endloop
  endfacet
  facet normal -0 0.309017 0.951057
    outer loop
      vertex 14 37 1
      vertex 16 35.2366 1.57295
      vertex 16 37 1
    endloop
  endfacet
  facet normal 0 0.309017 0.951057
    outer loop
      vertex 16 35.2366 1.57295
      vertex 14 37 1
      vertex 14 35.2366 1.57295
    endloop
  endfacet
  facet normal -1 -1.51337e-07 -1.19209e-07
    outer loop
      vertex 11 41 0
      vertex 11 38.1413 3.62918
      vertex 11 41 8
    endloop
  endfacet
  facet normal -1 0 0
    outer loop
      vertex 11 41 0
      vertex 11 37.7053 3.02918
      vertex 11 38.1413 3.62918
    endloop
  endfacet
  facet normal -1 0 0
    outer loop
      vertex 11 41 0
      vertex 11 37 2.8
      vertex 11 37.7053 3.02918
    endloop
  endfacet
  facet normal -1 0 0
    outer loop
      vertex 11 33 0
      vertex 11 37 2.8
      vertex 11 41 0
    endloop
  endfacet
  facet normal -1 2.42139e-07 -1.90735e-07
    outer loop
      vertex 11 33 5
      vertex 11 35.8587 3.62918
      vertex 11 33 0
    endloop
  endfacet
  facet normal -1 -0 0
    outer loop
      vertex 11 36.2947 3.02918
      vertex 11 33 0
      vertex 11 35.8587 3.62918
    endloop
  endfacet
  facet normal -1 -0 0
    outer loop
      vertex 11 37 2.8
      vertex 11 33 0
      vertex 11 36.2947 3.02918
    endloop
  endfacet
  facet normal -1 1.63245e-06 -1.2859e-06
    outer loop
      vertex 11 38.1413 4.37082
      vertex 11 41 8
      vertex 11 38.1413 3.62918
    endloop
  endfacet
  facet normal -1 0 0
    outer loop
      vertex 11 37.7053 4.97082
      vertex 11 41 8
      vertex 11 38.1413 4.37082
    endloop
  endfacet
  facet normal -1 0 0
    outer loop
      vertex 11 37 5.2
      vertex 11 41 8
      vertex 11 37.7053 4.97082
    endloop
  endfacet
  facet normal -1 0 0
    outer loop
      vertex 11 33 8
      vertex 11 37 5.2
      vertex 11 36.2947 4.97082
    endloop
  endfacet
  facet normal -1 -2.83014e-07 -1.2859e-06
    outer loop
      vertex 11 35.8587 3.62918
      vertex 11 33 5
      vertex 11 35.8587 4.37082
    endloop
  endfacet
  facet normal -1 0 0
    outer loop
      vertex 11 33 5
      vertex 11 36.2947 4.97082
      vertex 11 35.8587 4.37082
    endloop
  endfacet
  facet normal -1 0 0
    outer loop
      vertex 11 33 8
      vertex 11 36.2947 4.97082
      vertex 11 33 5
    endloop
  endfacet
  facet normal -1 0 0
    outer loop
      vertex 11 37 5.2
      vertex 11 33 8
      vertex 11 41 8
    endloop
  endfacet
  facet normal 0 0 -1
    outer loop
      vertex 12.25 28.5 0
      vertex 7.2 30.5 0
      vertex 11 33 0
    endloop
  endfacet
  facet normal 0 0 -1
    outer loop
      vertex 12.25 28.5 0
      vertex 6.97081 29.7946 0
      vertex 7.2 30.5 0
    endloop
  endfacet
  facet normal 0 0 -1
    outer loop
      vertex 12.25 28.5 0
      vertex 6.37082 29.3587 0
      vertex 6.97081 29.7946 0
    endloop
  endfacet
  facet normal 0 0 -1
    outer loop
      vertex 12.25 28.5 0
      vertex 5.62918 29.3587 0
      vertex 6.37082 29.3587 0
    endloop
  endfacet
  facet normal -0 0 -1
    outer loop
      vertex 5.02919 29.7946 0
      vertex 0 28.5 0
      vertex 4.8 30.5 0
    endloop
  endfacet
  facet normal -0 0 -1
    outer loop
      vertex 5.62918 29.3587 0
      vertex 0 28.5 0
      vertex 5.02919 29.7946 0
    endloop
  endfacet
  facet normal 0 0 -1
    outer loop
      vertex 0 28.5 0
      vertex 5.62918 29.3587 0
      vertex 12.25 28.5 0
    endloop
  endfacet
  facet normal 0 0 -1
    outer loop
      vertex 12.25 5 0
      vertex 16 33 0
      vertex 16 0 0
    endloop
  endfacet
  facet normal 0 0 -1
    outer loop
      vertex 16 33 0
      vertex 12.25 5 0
      vertex 12.25 28.5 0
    endloop
  endfacet
  facet normal 0 0 -1
    outer loop
      vertex 6.97081 1.79466 0
      vertex 12.25 5 0
      vertex 16 0 0
    endloop
  endfacet
  facet normal 0 0 -1
    outer loop
      vertex 12.25 5 0
      vertex 6.97081 1.79466 0
      vertex 7.2 2.5 0
    endloop
  endfacet
  facet normal 0 0 -1
    outer loop
      vertex 16 0 0
      vertex 6.37082 1.35873 0
      vertex 6.97081 1.79466 0
    endloop
  endfacet
  facet normal 0 0 -1
    outer loop
      vertex 0 0 0
      vertex 6.37082 1.35873 0
      vertex 16 0 0
    endloop
  endfacet
  facet normal -0 0 -1
    outer loop
      vertex 5.02919 1.79466 0
      vertex 0 0 0
      vertex 4.8 2.5 0
    endloop
  endfacet
  facet normal -0 0 -1
    outer loop
      vertex 5.62918 1.35873 0
      vertex 0 0 0
      vertex 5.02919 1.79466 0
    endloop
  endfacet
  facet normal -0 0 -1
    outer loop
      vertex 6.37082 1.35873 0
      vertex 0 0 0
      vertex 5.62918 1.35873 0
    endloop
  endfacet
  facet normal 0 0 -1
    outer loop
      vertex 11 33 0
      vertex 16 33 0
      vertex 12.25 28.5 0
    endloop
  endfacet
  facet normal 0 0 -1
    outer loop
      vertex 16 33 0
      vertex 11 33 0
      vertex 16 41 0
    endloop
  endfacet
  facet normal -0 0 -1
    outer loop
      vertex 16 41 0
      vertex 11 33 0
      vertex 11 41 0
    endloop
  endfacet
  facet normal 0 0 -1
    outer loop
      vertex 6.97081 3.20534 0
      vertex 12.25 5 0
      vertex 7.2 2.5 0
    endloop
  endfacet
  facet normal 0 0 -1
    outer loop
      vertex 6.37082 3.64127 0
      vertex 12.25 5 0
      vertex 6.97081 3.20534 0
    endloop
  endfacet
  facet normal 0 0 -1
    outer loop
      vertex 5.62918 3.64127 0
      vertex 12.25 5 0
      vertex 6.37082 3.64127 0
    endloop
  endfacet
  facet normal 0 0 -1
    outer loop
      vertex 0 5 0
      vertex 4.8 2.5 0
      vertex 0 0 0
    endloop
  endfacet
  facet normal 0 0 -1
    outer loop
      vertex 4.8 2.5 0
      vertex 0 5 0
      vertex 5.02919 3.20534 0
    endloop
  endfacet
  facet normal 0 0 -1
    outer loop
      vertex 5.62918 3.64127 0
      vertex 0 5 0
      vertex 12.25 5 0
    endloop
  endfacet
  facet normal 0 0 -1
    outer loop
      vertex 5.02919 3.20534 0
      vertex 0 5 0
      vertex 5.62918 3.64127 0
    endloop
  endfacet
  facet normal 0 0 -1
    outer loop
      vertex 6.97081 31.2053 0
      vertex 11 33 0
      vertex 7.2 30.5 0
    endloop
  endfacet
  facet normal 0 0 -1
    outer loop
      vertex 6.37082 31.6413 0
      vertex 11 33 0
      vertex 6.97081 31.2053 0
    endloop
  endfacet
  facet normal 0 0 -1
    outer loop
      vertex 5.62918 31.6413 0
      vertex 11 33 0
      vertex 6.37082 31.6413 0
    endloop
  endfacet
  facet normal 0 0 -1
    outer loop
      vertex 0 33 0
      vertex 4.8 30.5 0
      vertex 0 28.5 0
    endloop
  endfacet
  facet normal 0 0 -1
    outer loop
      vertex 4.8 30.5 0
      vertex 0 33 0
      vertex 5.02919 31.2053 0
    endloop
  endfacet
  facet normal 0 0 -1
    outer loop
      vertex 5.62918 31.6413 0
      vertex 0 33 0
      vertex 11 33 0
    endloop
  endfacet
  facet normal 0 0 -1
    outer loop
      vertex 5.02919 31.2053 0
      vertex 0 33 0
      vertex 5.62918 31.6413 0
    endloop
  endfacet
  facet normal -0 0 1
    outer loop
      vertex 11 41 8
      vertex 16 33 8
      vertex 16 41 8
    endloop
  endfacet
  facet normal 0 0 1
    outer loop
      vertex 16 33 8
      vertex 11 41 8
      vertex 11 33 8
    endloop
  endfacet
  facet normal 0 1 0
    outer loop
      vertex 11 33 0
      vertex 0 33 5
      vertex 11 33 5
    endloop
  endfacet
  facet normal 0 1 0
    outer loop
      vertex 0 33 5
      vertex 11 33 0
      vertex 0 33 0
    endloop
  endfacet
  facet normal 0 -1 0
    outer loop
      vertex 11 33 5
      vertex 16 33 8
      vertex 11 33 8
    endloop
  endfacet
  facet normal 0 -1 -0
    outer loop
      vertex 16 33 8
      vertex 11 33 5
      vertex 16 33 5
    endloop
  endfacet
  facet normal 0 1 0
    outer loop
      vertex 16 41 0
      vertex 11 41 8
      vertex 16 41 8
    endloop
  endfacet
  facet normal 0 1 0
    outer loop
      vertex 11 41 8
      vertex 16 41 0
      vertex 11 41 0
    endloop
  endfacet
  facet normal 1 -3.19423e-07 1.19209e-07
    outer loop
      vertex 16 41 8
      vertex 16 39.8532 4.92705
      vertex 16 41 0
    endloop
  endfacet
  facet normal 1 0 0
    outer loop
      vertex 16 41 8
      vertex 16 38.7634 6.42705
      vertex 16 39.8532 4.92705
    endloop
  endfacet
  facet normal 1 0 0
    outer loop
      vertex 16 41 8
      vertex 16 37 7
      vertex 16 38.7634 6.42705
    endloop
  endfacet
  facet normal 1 0 0
    outer loop
      vertex 16 35.2366 6.42705
      vertex 16 33 5
      vertex 16 34.1468 4.92705
    endloop
  endfacet
  facet normal 1 0 0
    outer loop
      vertex 16 33 5
      vertex 16 35.2366 6.42705
      vertex 16 33 8
    endloop
  endfacet
  facet normal 1 0 0
    outer loop
      vertex 16 37 7
      vertex 16 33 8
      vertex 16 35.2366 6.42705
    endloop
  endfacet
  facet normal 1 -0 0
    outer loop
      vertex 16 33 8
      vertex 16 37 7
      vertex 16 41 8
    endloop
  endfacet
  facet normal 1 1.37823e-06 5.14359e-07
    outer loop
      vertex 16 39.8532 3.07295
      vertex 16 41 0
      vertex 16 39.8532 4.92705
    endloop
  endfacet
  facet normal 1 -0 0
    outer loop
      vertex 16 38.7634 1.57295
      vertex 16 41 0
      vertex 16 39.8532 3.07295
    endloop
  endfacet
  facet normal 1 -0 0
    outer loop
      vertex 16 37 1
      vertex 16 41 0
      vertex 16 38.7634 1.57295
    endloop
  endfacet
  facet normal 1 3.27182e-08 5.14359e-07
    outer loop
      vertex 16 34.1468 4.92705
      vertex 16 33 5
      vertex 16 34.1468 3.07295
    endloop
  endfacet
  facet normal 1 0 0
    outer loop
      vertex 16 37 1
      vertex 16 33 0
      vertex 16 41 0
    endloop
  endfacet
  facet normal 1 0 0
    outer loop
      vertex 16 35.2366 1.57295
      vertex 16 33 0
      vertex 16 37 1
    endloop
  endfacet
  facet normal 1 0 0
    outer loop
      vertex 16 34.1468 3.07295
      vertex 16 33 0
      vertex 16 35.2366 1.57295
    endloop
  endfacet
  facet normal 1 -5.11078e-07 1.90735e-07
    outer loop
      vertex 16 33 0
      vertex 16 34.1468 3.07295
      vertex 16 33 5
    endloop
  endfacet
  facet normal 1 -0 0
    outer loop
      vertex 15 2.02917 3.72437
      vertex 15 2.302 3.43469
      vertex 15 2.302 3.72437
    endloop
  endfacet
  facet normal 1 0 0
    outer loop
      vertex 15 2.302 3.43469
      vertex 15 2.02917 3.72437
      vertex 15 2.02917 3.43469
    endloop
  endfacet
  facet normal 1 -0 0
    outer loop
      vertex 15 2.302 4.26782
      vertex 15 2.67188 3.72437
      vertex 15 2.67188 4.49121
    endloop
  endfacet
  facet normal 1 0 0
    outer loop
      vertex 15 2.67188 3.72437
      vertex 15 2.302 3.72437
      vertex 15 2.67188 3.43469
    endloop
  endfacet
  facet normal 1 0 0
    outer loop
      vertex 15 2.302 2.172
      vertex 15 2.67188 3.43469
      vertex 15 2.302 3.43469
    endloop
  endfacet
  facet normal 1 0 0
    outer loop
      vertex 15 2.67188 3.43469
      vertex 15 2.302 2.172
      vertex 15 2.67188 2.15112
    endloop
  endfacet
  facet normal 1 0 0
    outer loop
      vertex 15 2.67188 3.72437
      vertex 15 2.302 4.26782
      vertex 15 2.302 3.72437
    endloop
  endfacet
  facet normal 1 0 0
    outer loop
      vertex 15 2.67188 3.43469
      vertex 15 2.302 3.72437
      vertex 15 2.302 3.43469
    endloop
  endfacet
  facet normal 1 0 -0
    outer loop
      vertex 15 2.34741 1.73254
      vertex 15 2.67188 2.15112
      vertex 15 2.302 2.172
    endloop
  endfacet
  facet normal 1 0 0
    outer loop
      vertex 15 2.67188 2.15112
      vertex 15 2.34741 1.73254
      vertex 15 2.50452 1.56409
    endloop
  endfacet
  facet normal 1 -0 0
    outer loop
      vertex 15 2.67188 3.72437
      vertex 15 3.04614 3.43469
      vertex 15 3.04614 3.72437
    endloop
  endfacet
  facet normal 1 0 0
    outer loop
      vertex 15 3.04614 3.43469
      vertex 15 2.67188 3.72437
      vertex 15 2.67188 3.43469
    endloop
  endfacet
  facet normal 1 -0 0
    outer loop
      vertex 15 2.88281 1.84753
      vertex 15 3.09998 1.53333
      vertex 15 3.04614 1.86182
    endloop
  endfacet
  facet normal 1 0 0
    outer loop
      vertex 15 2.88281 1.84753
      vertex 15 2.81873 1.5
      vertex 15 3.09998 1.53333
    endloop
  endfacet
  facet normal 1 0 0
    outer loop
      vertex 15 2.75574 1.87427
      vertex 15 2.81873 1.5
      vertex 15 2.88281 1.84753
    endloop
  endfacet
  facet normal 1 0 0
    outer loop
      vertex 15 2.50452 1.56409
      vertex 15 2.75574 1.87427
      vertex 15 2.69165 1.94641
    endloop
  endfacet
  facet normal 1 0 0
    outer loop
      vertex 15 2.75574 1.87427
      vertex 15 2.50452 1.56409
      vertex 15 2.81873 1.5
    endloop
  endfacet
  facet normal 1 0 0
    outer loop
      vertex 15 2.50452 1.56409
      vertex 15 2.69165 1.94641
      vertex 15 2.67188 2.15112
    endloop
  endfacet
  facet normal -1 0 0
    outer loop
      vertex 16 2.02917 3.43469
      vertex 16 2.302 3.72437
      vertex 16 2.302 3.43469
    endloop
  endfacet
  facet normal -1 -0 0
    outer loop
      vertex 16 2.302 3.72437
      vertex 16 2.02917 3.43469
      vertex 16 2.02917 3.72437
    endloop
  endfacet
  facet normal -1 0 0
    outer loop
      vertex 16 2.302 3.43469
      vertex 16 2.67188 3.43469
      vertex 16 2.67188 2.67188
    endloop
  endfacet
  facet normal -1 0 0
    outer loop
      vertex 16 2.67188 3.43469
      vertex 16 2.302 3.43469
      vertex 16 2.67188 3.72437
    endloop
  endfacet
  facet normal -1 0 0
    outer loop
      vertex 16 2.302 3.43469
      vertex 16 2.67188 2.67188
      vertex 16 2.302 2.302
    endloop
  endfacet
  facet normal -1 0 0
    outer loop
      vertex 16 2.302 3.72437
      vertex 16 2.67188 3.72437
      vertex 16 2.302 3.43469
    endloop
  endfacet
  facet normal -1 0 0
    outer loop
      vertex 16 2.302 4.26782
      vertex 16 2.67188 3.72437
      vertex 16 2.302 3.72437
    endloop
  endfacet
  facet normal -1 0 0
    outer loop
      vertex 16 2.67188 3.72437
      vertex 16 2.302 4.26782
      vertex 16 2.67188 4.49121
    endloop
  endfacet
  facet normal -1 0 0
    outer loop
      vertex 16 2.67188 3.43469
      vertex 16 3.04614 3.72437
      vertex 16 3.04614 3.43469
    endloop
  endfacet
  facet normal -1 -0 0
    outer loop
      vertex 16 3.04614 3.72437
      vertex 16 2.67188 3.43469
      vertex 16 2.67188 3.72437
    endloop
  endfacet
  facet normal 0 -0.986836 -0.161722
    outer loop
      vertex 15 3.09998 1.53333
      vertex 16 3.04614 1.86182
      vertex 15 3.04614 1.86182
    endloop
  endfacet
  facet normal 0 -0.986836 -0.161722
    outer loop
      vertex 16 3.04614 1.86182
      vertex 15 3.09998 1.53333
      vertex 16 3.09998 1.53333
    endloop
  endfacet
  facet normal 0 0.0871115 -0.996199
    outer loop
      vertex 15 2.88281 1.84753
      vertex 16 3.04614 1.86182
      vertex 16 2.88281 1.84753
    endloop
  endfacet
  facet normal 0 0.0871115 -0.996199
    outer loop
      vertex 16 3.04614 1.86182
      vertex 15 2.88281 1.84753
      vertex 15 3.04614 1.86182
    endloop
  endfacet
  facet normal 0 -0.205868 -0.97858
    outer loop
      vertex 15 2.75574 1.87427
      vertex 16 2.88281 1.84753
      vertex 16 2.75574 1.87427
    endloop
  endfacet
  facet normal -0 -0.205868 -0.97858
    outer loop
      vertex 16 2.88281 1.84753
      vertex 15 2.75574 1.87427
      vertex 15 2.88281 1.84753
    endloop
  endfacet
  facet normal 0 -0.747619 -0.664128
    outer loop
      vertex 15 2.75574 1.87427
      vertex 16 2.69165 1.94641
      vertex 15 2.69165 1.94641
    endloop
  endfacet
  facet normal 0 -0.747619 -0.664128
    outer loop
      vertex 16 2.69165 1.94641
      vertex 15 2.75574 1.87427
      vertex 16 2.75574 1.87427
    endloop
  endfacet
  facet normal 0 -0.995367 -0.0961535
    outer loop
      vertex 15 2.69165 1.94641
      vertex 16 2.67188 2.15112
      vertex 15 2.67188 2.15112
    endloop
  endfacet
  facet normal 0 -0.995367 -0.0961535
    outer loop
      vertex 16 2.67188 2.15112
      vertex 15 2.69165 1.94641
      vertex 16 2.69165 1.94641
    endloop
  endfacet
  facet normal 0 -1 0
    outer loop
      vertex 15 2.67188 3.43469
      vertex 16 2.67188 2.67188
      vertex 16 2.67188 3.43469
    endloop
  endfacet
  facet normal 0 -1 0
    outer loop
      vertex 15 2.67188 2.15112
      vertex 16 2.67188 2.67188
      vertex 15 2.67188 3.43469
    endloop
  endfacet
  facet normal 0 -1 -0
    outer loop
      vertex 16 2.67188 2.67188
      vertex 15 2.67188 2.15112
      vertex 16 2.67188 2.15112
    endloop
  endfacet
  facet normal -0 0 1
    outer loop
      vertex 15 3.04614 3.43469
      vertex 16 2.67188 3.43469
      vertex 16 3.04614 3.43469
    endloop
  endfacet
  facet normal 0 0 1
    outer loop
      vertex 16 2.67188 3.43469
      vertex 15 3.04614 3.43469
      vertex 15 2.67188 3.43469
    endloop
  endfacet
  facet normal 0 -1 0
    outer loop
      vertex 15 3.04614 3.43469
      vertex 16 3.04614 3.72437
      vertex 15 3.04614 3.72437
    endloop
  endfacet
  facet normal 0 -1 -0
    outer loop
      vertex 16 3.04614 3.72437
      vertex 15 3.04614 3.43469
      vertex 16 3.04614 3.43469
    endloop
  endfacet
  facet normal 0 0 -1
    outer loop
      vertex 15 2.67188 3.72437
      vertex 16 3.04614 3.72437
      vertex 16 2.67188 3.72437
    endloop
  endfacet
  facet normal -0 0 -1
    outer loop
      vertex 16 3.04614 3.72437
      vertex 15 2.67188 3.72437
      vertex 15 3.04614 3.72437
    endloop
  endfacet
  facet normal 0 -1 0
    outer loop
      vertex 15 2.67188 3.72437
      vertex 16 2.67188 4.49121
      vertex 15 2.67188 4.49121
    endloop
  endfacet
  facet normal 0 -1 -0
    outer loop
      vertex 16 2.67188 4.49121
      vertex 15 2.67188 3.72437
      vertex 16 2.67188 3.72437
    endloop
  endfacet
  facet normal 0 0.516986 -0.855994
    outer loop
      vertex 15 2.302 4.26782
      vertex 16 2.67188 4.49121
      vertex 16 2.302 4.26782
    endloop
  endfacet
  facet normal 0 0.516986 -0.855994
    outer loop
      vertex 16 2.67188 4.49121
      vertex 15 2.302 4.26782
      vertex 15 2.67188 4.49121
    endloop
  endfacet
  facet normal 0 1 -0
    outer loop
      vertex 16 2.302 3.72437
      vertex 15 2.302 4.26782
      vertex 16 2.302 4.26782
    endloop
  endfacet
  facet normal 0 1 0
    outer loop
      vertex 15 2.302 4.26782
      vertex 16 2.302 3.72437
      vertex 15 2.302 3.72437
    endloop
  endfacet
  facet normal 0 0 -1
    outer loop
      vertex 15 2.02917 3.72437
      vertex 16 2.302 3.72437
      vertex 16 2.02917 3.72437
    endloop
  endfacet
  facet normal -0 0 -1
    outer loop
      vertex 16 2.302 3.72437
      vertex 15 2.02917 3.72437
      vertex 15 2.302 3.72437
    endloop
  endfacet
  facet normal 0 1 -0
    outer loop
      vertex 16 2.02917 3.43469
      vertex 15 2.02917 3.72437
      vertex 16 2.02917 3.72437
    endloop
  endfacet
  facet normal 0 1 0
    outer loop
      vertex 15 2.02917 3.72437
      vertex 16 2.02917 3.43469
      vertex 15 2.02917 3.43469
    endloop
  endfacet
  facet normal -0 0 1
    outer loop
      vertex 15 2.302 3.43469
      vertex 16 2.02917 3.43469
      vertex 16 2.302 3.43469
    endloop
  endfacet
  facet normal 0 0 1
    outer loop
      vertex 16 2.02917 3.43469
      vertex 15 2.302 3.43469
      vertex 15 2.02917 3.43469
    endloop
  endfacet
  facet normal 0 1 -0
    outer loop
      vertex 16 2.302 2.302
      vertex 15 2.302 3.43469
      vertex 16 2.302 3.43469
    endloop
  endfacet
  facet normal 0 1 0
    outer loop
      vertex 15 2.302 2.172
      vertex 16 2.302 2.302
      vertex 16 2.302 2.172
    endloop
  endfacet
  facet normal 0 1 0
    outer loop
      vertex 16 2.302 2.302
      vertex 15 2.302 2.172
      vertex 15 2.302 3.43469
    endloop
  endfacet
  facet normal 0 0.994703 0.102786
    outer loop
      vertex 16 2.34741 1.73254
      vertex 15 2.302 2.172
      vertex 16 2.302 2.172
    endloop
  endfacet
  facet normal 0 0.994703 0.102786
    outer loop
      vertex 15 2.302 2.172
      vertex 16 2.34741 1.73254
      vertex 15 2.34741 1.73254
    endloop
  endfacet
  facet normal 0 0.73132 0.682035
    outer loop
      vertex 16 2.50452 1.56409
      vertex 15 2.34741 1.73254
      vertex 16 2.34741 1.73254
    endloop
  endfacet
  facet normal 0 0.73132 0.682035
    outer loop
      vertex 15 2.34741 1.73254
      vertex 16 2.50452 1.56409
      vertex 15 2.50452 1.56409
    endloop
  endfacet
  facet normal -0 0.199848 0.979827
    outer loop
      vertex 15 2.81873 1.5
      vertex 16 2.50452 1.56409
      vertex 16 2.81873 1.5
    endloop
  endfacet
  facet normal 0 0.199848 0.979827
    outer loop
      vertex 16 2.50452 1.56409
      vertex 15 2.81873 1.5
      vertex 15 2.50452 1.56409
    endloop
  endfacet
  facet normal 0 -0.117666 0.993053
    outer loop
      vertex 15 3.09998 1.53333
      vertex 16 2.81873 1.5
      vertex 16 3.09998 1.53333
    endloop
  endfacet
  facet normal 0 -0.117666 0.993053
    outer loop
      vertex 16 2.81873 1.5
      vertex 15 3.09998 1.53333
      vertex 15 2.81873 1.5
    endloop
  endfacet
  facet normal 1 0 0
    outer loop
      vertex 15 5.61951 2.67847
      vertex 15 5.05188 3.27686
      vertex 15 5.23682 2.65979
    endloop
  endfacet
  facet normal 1 0 0
    outer loop
      vertex 15 4.59192 3.79468
      vertex 15 5.05188 3.27686
      vertex 15 5.33203 3.49805
    endloop
  endfacet
  facet normal 1 0 0
    outer loop
      vertex 15 4.59192 3.79468
      vertex 15 4.59192 3.48669
      vertex 15 5.05188 3.27686
    endloop
  endfacet
  facet normal 1 -0 0
    outer loop
      vertex 15 3.90161 3.55078
      vertex 15 4.59192 3.48669
      vertex 15 4.59192 3.79468
    endloop
  endfacet
  facet normal 1 0 0
    outer loop
      vertex 15 3.5625 2.64734
      vertex 15 4.12903 3.27795
      vertex 15 3.90161 3.55078
    endloop
  endfacet
  facet normal 1 0 0
    outer loop
      vertex 15 4.59192 3.48669
      vertex 15 3.90161 3.55078
      vertex 15 4.12903 3.27795
    endloop
  endfacet
  facet normal 1 -0 0
    outer loop
      vertex 15 5.05188 3.27686
      vertex 15 5.61951 2.67847
      vertex 15 5.33203 3.49805
    endloop
  endfacet
  facet normal 1 0 0
    outer loop
      vertex 15 5.61951 2.67847
      vertex 15 5.23682 2.65979
      vertex 15 5.49207 2.0116
    endloop
  endfacet
  facet normal 1 -0 0
    outer loop
      vertex 15 5.05298 2.01672
      vertex 15 5.49207 2.0116
      vertex 15 5.23682 2.65979
    endloop
  endfacet
  facet normal 1 0 0
    outer loop
      vertex 15 5.49207 2.0116
      vertex 15 5.05298 2.01672
      vertex 15 5.12219 1.6344
    endloop
  endfacet
  facet normal 1 -0 0
    outer loop
      vertex 15 4.59192 1.80615
      vertex 15 5.12219 1.6344
      vertex 15 5.05298 2.01672
    endloop
  endfacet
  facet normal 1 0 0
    outer loop
      vertex 15 4.59192 1.80615
      vertex 15 4.59192 1.5
      vertex 15 5.12219 1.6344
    endloop
  endfacet
  facet normal 1 0 0
    outer loop
      vertex 15 4.12903 2.01599
      vertex 15 4.59192 1.5
      vertex 15 4.59192 1.80615
    endloop
  endfacet
  facet normal 1 0 0
    outer loop
      vertex 15 4.12903 2.01599
      vertex 15 3.84668 1.79553
      vertex 15 4.59192 1.5
    endloop
  endfacet
  facet normal 1 -0 0
    outer loop
      vertex 15 3.5625 2.64734
      vertex 15 4.12903 2.01599
      vertex 15 3.94519 2.64734
    endloop
  endfacet
  facet normal 1 0 0
    outer loop
      vertex 15 4.12903 3.27795
      vertex 15 3.5625 2.64734
      vertex 15 3.94519 2.64734
    endloop
  endfacet
  facet normal 1 0 0
    outer loop
      vertex 15 4.12903 2.01599
      vertex 15 3.5625 2.64734
      vertex 15 3.84668 1.79553
    endloop
  endfacet
  facet normal 0 -0.714005 0.700141
    outer loop
      vertex 15 5.12219 1.6344
      vertex 16 5.49207 2.0116
      vertex 15 5.49207 2.0116
    endloop
  endfacet
  facet normal 0 -0.714005 0.700141
    outer loop
      vertex 16 5.49207 2.0116
      vertex 15 5.12219 1.6344
      vertex 16 5.12219 1.6344
    endloop
  endfacet
  facet normal 0 -0.982225 0.187707
    outer loop
      vertex 15 5.49207 2.0116
      vertex 16 5.61951 2.67847
      vertex 15 5.61951 2.67847
    endloop
  endfacet
  facet normal 0 -0.982225 0.187707
    outer loop
      vertex 16 5.61951 2.67847
      vertex 15 5.49207 2.0116
      vertex 16 5.49207 2.0116
    endloop
  endfacet
  facet normal 0 -0.943635 -0.330989
    outer loop
      vertex 15 5.61951 2.67847
      vertex 16 5.33203 3.49805
      vertex 15 5.33203 3.49805
    endloop
  endfacet
  facet normal 0 -0.943635 -0.330989
    outer loop
      vertex 16 5.33203 3.49805
      vertex 15 5.61951 2.67847
      vertex 16 5.61951 2.67847
    endloop
  endfacet
  facet normal 0 -0.372024 -0.928223
    outer loop
      vertex 15 4.59192 3.79468
      vertex 16 5.33203 3.49805
      vertex 16 4.59192 3.79468
    endloop
  endfacet
  facet normal -0 -0.372024 -0.928223
    outer loop
      vertex 16 5.33203 3.49805
      vertex 15 4.59192 3.79468
      vertex 15 5.33203 3.49805
    endloop
  endfacet
  facet normal 0 0.333134 -0.942879
    outer loop
      vertex 15 3.90161 3.55078
      vertex 16 4.59192 3.79468
      vertex 16 3.90161 3.55078
    endloop
  endfacet
  facet normal 0 0.333134 -0.942879
    outer loop
      vertex 16 4.59192 3.79468
      vertex 15 3.90161 3.55078
      vertex 15 4.59192 3.79468
    endloop
  endfacet
  facet normal 0 0.93622 -0.351415
    outer loop
      vertex 16 3.5625 2.64734
      vertex 15 3.90161 3.55078
      vertex 16 3.90161 3.55078
    endloop
  endfacet
  facet normal 0 0.93622 -0.351415
    outer loop
      vertex 15 3.90161 3.55078
      vertex 16 3.5625 2.64734
      vertex 15 3.5625 2.64734
    endloop
  endfacet
  facet normal 0 0.948602 0.316472
    outer loop
      vertex 16 3.84668 1.79553
      vertex 15 3.5625 2.64734
      vertex 16 3.5625 2.64734
    endloop
  endfacet
  facet normal 0 0.948602 0.316472
    outer loop
      vertex 15 3.5625 2.64734
      vertex 16 3.84668 1.79553
      vertex 15 3.84668 1.79553
    endloop
  endfacet
  facet normal -0 0.368633 0.929575
    outer loop
      vertex 15 4.59192 1.5
      vertex 16 3.84668 1.79553
      vertex 16 4.59192 1.5
    endloop
  endfacet
  facet normal 0 0.368633 0.929575
    outer loop
      vertex 16 3.84668 1.79553
      vertex 15 4.59192 1.5
      vertex 15 3.84668 1.79553
    endloop
  endfacet
  facet normal 0 -0.245685 0.96935
    outer loop
      vertex 15 5.12219 1.6344
      vertex 16 4.59192 1.5
      vertex 16 5.12219 1.6344
    endloop
  endfacet
  facet normal 0 -0.245685 0.96935
    outer loop
      vertex 16 4.59192 1.5
      vertex 15 5.12219 1.6344
      vertex 15 4.59192 1.5
    endloop
  endfacet
  facet normal 0 -0.960125 -0.279572
    outer loop
      vertex 15 4.12903 2.01599
      vertex 16 3.94519 2.64734
      vertex 15 3.94519 2.64734
    endloop
  endfacet
  facet normal 0 -0.960125 -0.279572
    outer loop
      vertex 16 3.94519 2.64734
      vertex 15 4.12903 2.01599
      vertex 16 4.12903 2.01599
    endloop
  endfacet
  facet normal 0 -0.960037 0.279872
    outer loop
      vertex 15 3.94519 2.64734
      vertex 16 4.12903 3.27795
      vertex 15 4.12903 3.27795
    endloop
  endfacet
  facet normal 0 -0.960037 0.279872
    outer loop
      vertex 16 4.12903 3.27795
      vertex 15 3.94519 2.64734
      vertex 16 3.94519 2.64734
    endloop
  endfacet
  facet normal 0 -0.411084 0.911597
    outer loop
      vertex 15 4.59192 3.48669
      vertex 16 4.12903 3.27795
      vertex 16 4.59192 3.48669
    endloop
  endfacet
  facet normal 0 -0.411084 0.911597
    outer loop
      vertex 16 4.12903 3.27795
      vertex 15 4.59192 3.48669
      vertex 15 4.12903 3.27795
    endloop
  endfacet
  facet normal -0 0.415058 0.909795
    outer loop
      vertex 15 5.05188 3.27686
      vertex 16 4.59192 3.48669
      vertex 16 5.05188 3.27686
    endloop
  endfacet
  facet normal 0 0.415058 0.909795
    outer loop
      vertex 16 4.59192 3.48669
      vertex 15 5.05188 3.27686
      vertex 15 4.59192 3.48669
    endloop
  endfacet
  facet normal 0 0.957904 0.287087
    outer loop
      vertex 16 5.23682 2.65979
      vertex 15 5.05188 3.27686
      vertex 16 5.05188 3.27686
    endloop
  endfacet
  facet normal 0 0.957904 0.287087
    outer loop
      vertex 15 5.05188 3.27686
      vertex 16 5.23682 2.65979
      vertex 15 5.23682 2.65979
    endloop
  endfacet
  facet normal 0 0.961483 -0.274866
    outer loop
      vertex 16 5.05298 2.01672
      vertex 15 5.23682 2.65979
      vertex 16 5.23682 2.65979
    endloop
  endfacet
  facet normal 0 0.961483 -0.274866
    outer loop
      vertex 15 5.23682 2.65979
      vertex 16 5.05298 2.01672
      vertex 15 5.05298 2.01672
    endloop
  endfacet
  facet normal 0 0.415435 -0.909623
    outer loop
      vertex 15 4.59192 1.80615
      vertex 16 5.05298 2.01672
      vertex 16 4.59192 1.80615
    endloop
  endfacet
  facet normal 0 0.415435 -0.909623
    outer loop
      vertex 16 5.05298 2.01672
      vertex 15 4.59192 1.80615
      vertex 15 5.05298 2.01672
    endloop
  endfacet
  facet normal 0 -0.41288 -0.910786
    outer loop
      vertex 15 4.12903 2.01599
      vertex 16 4.59192 1.80615
      vertex 16 4.12903 2.01599
    endloop
  endfacet
  facet normal -0 -0.41288 -0.910786
    outer loop
      vertex 16 4.59192 1.80615
      vertex 15 4.12903 2.01599
      vertex 15 4.59192 1.80615
    endloop
  endfacet
  facet normal 1 -0 0
    outer loop
      vertex 15 5.625 3.68994
      vertex 15 5.96411 3.40466
      vertex 15 5.96411 3.68994
    endloop
  endfacet
  facet normal 1 0 0
    outer loop
      vertex 15 5.96411 3.40466
      vertex 15 5.625 3.68994
      vertex 15 5.96191 2.57996
    endloop
  endfacet
  facet normal 1 -0 0
    outer loop
      vertex 15 7.15063 2.61072
      vertex 15 7.53076 2.60889
      vertex 15 7.42126 3.1864
    endloop
  endfacet
  facet normal 1 0 0
    outer loop
      vertex 15 7.53076 2.60889
      vertex 15 7.15063 2.61072
      vertex 15 7.40991 2.00208
    endloop
  endfacet
  facet normal 1 -0 0
    outer loop
      vertex 15 6.97815 3.23914
      vertex 15 7.42126 3.1864
      vertex 15 7.0968 3.59473
    endloop
  endfacet
  facet normal 1 0 0
    outer loop
      vertex 15 7.42126 3.1864
      vertex 15 6.97815 3.23914
      vertex 15 7.15063 2.61072
    endloop
  endfacet
  facet normal 1 0 0
    outer loop
      vertex 15 6.5658 3.44788
      vertex 15 7.0968 3.59473
      vertex 15 6.60059 3.73938
    endloop
  endfacet
  facet normal 1 0 0
    outer loop
      vertex 15 7.0968 3.59473
      vertex 15 6.5658 3.44788
      vertex 15 6.97815 3.23914
    endloop
  endfacet
  facet normal 1 -0 0
    outer loop
      vertex 15 6.23474 3.65588
      vertex 15 6.5658 3.44788
      vertex 15 6.60059 3.73938
    endloop
  endfacet
  facet normal 1 0 0
    outer loop
      vertex 15 6.23474 3.65588
      vertex 15 6.14502 3.22595
      vertex 15 6.5658 3.44788
    endloop
  endfacet
  facet normal 1 -0 0
    outer loop
      vertex 15 5.96411 3.40466
      vertex 15 6.14502 3.22595
      vertex 15 6.23474 3.65588
    endloop
  endfacet
  facet normal 1 0 0
    outer loop
      vertex 15 6.14502 3.22595
      vertex 15 5.96411 3.40466
      vertex 15 5.96191 2.57996
    endloop
  endfacet
  facet normal 1 0 0
    outer loop
      vertex 15 6.97375 1.96069
      vertex 15 7.40991 2.00208
      vertex 15 7.15063 2.61072
    endloop
  endfacet
  facet normal 1 0 0
    outer loop
      vertex 15 7.40991 2.00208
      vertex 15 6.97375 1.96069
      vertex 15 7.05872 1.58862
    endloop
  endfacet
  facet normal 1 -0 0
    outer loop
      vertex 15 6.54895 1.75085
      vertex 15 7.05872 1.58862
      vertex 15 6.97375 1.96069
    endloop
  endfacet
  facet normal 1 0 0
    outer loop
      vertex 15 7.05872 1.58862
      vertex 15 6.54895 1.75085
      vertex 15 6.57385 1.44507
    endloop
  endfacet
  facet normal 1 0 0
    outer loop
      vertex 15 6.54895 1.75085
      vertex 15 6.24023 1.52344
      vertex 15 6.57385 1.44507
    endloop
  endfacet
  facet normal 1 0 0
    outer loop
      vertex 15 6.13367 1.95337
      vertex 15 6.24023 1.52344
      vertex 15 6.54895 1.75085
    endloop
  endfacet
  facet normal 1 0 0
    outer loop
      vertex 15 6.13367 1.95337
      vertex 15 5.99707 1.72192
      vertex 15 6.24023 1.52344
    endloop
  endfacet
  facet normal 1 0 0
    outer loop
      vertex 15 5.96191 2.57996
      vertex 15 5.99707 1.72192
      vertex 15 6.13367 1.95337
    endloop
  endfacet
  facet normal 1 0 0
    outer loop
      vertex 15 5.625 0.65332
      vertex 15 5.99707 1.72192
      vertex 15 5.96191 2.57996
    endloop
  endfacet
  facet normal 1 0 0
    outer loop
      vertex 15 5.625 0.65332
      vertex 15 5.96191 2.57996
      vertex 15 5.625 3.68994
    endloop
  endfacet
  facet normal 1 0 0
    outer loop
      vertex 15 5.99707 1.72192
      vertex 15 5.625 0.65332
      vertex 15 5.99707 0.65332
    endloop
  endfacet
  facet normal -0 0.632348 0.774685
    outer loop
      vertex 15 6.24023 1.52344
      vertex 16 5.99707 1.72192
      vertex 16 6.24023 1.52344
    endloop
  endfacet
  facet normal 0 0.632348 0.774685
    outer loop
      vertex 16 5.99707 1.72192
      vertex 15 6.24023 1.52344
      vertex 15 5.99707 1.72192
    endloop
  endfacet
  facet normal -0 0.228682 0.973501
    outer loop
      vertex 15 6.57385 1.44507
      vertex 16 6.24023 1.52344
      vertex 16 6.57385 1.44507
    endloop
  endfacet
  facet normal 0 0.228682 0.973501
    outer loop
      vertex 16 6.24023 1.52344
      vertex 15 6.57385 1.44507
      vertex 15 6.24023 1.52344
    endloop
  endfacet
  facet normal 0 -0.283891 0.958857
    outer loop
      vertex 15 7.05872 1.58862
      vertex 16 6.57385 1.44507
      vertex 16 7.05872 1.58862
    endloop
  endfacet
  facet normal 0 -0.283891 0.958857
    outer loop
      vertex 16 6.57385 1.44507
      vertex 15 7.05872 1.58862
      vertex 15 6.57385 1.44507
    endloop
  endfacet
  facet normal 0 -0.762156 0.647394
    outer loop
      vertex 15 7.05872 1.58862
      vertex 16 7.40991 2.00208
      vertex 15 7.40991 2.00208
    endloop
  endfacet
  facet normal 0 -0.762156 0.647394
    outer loop
      vertex 16 7.40991 2.00208
      vertex 15 7.05872 1.58862
      vertex 16 7.05872 1.58862
    endloop
  endfacet
  facet normal 0 -0.98074 0.195319
    outer loop
      vertex 15 7.40991 2.00208
      vertex 16 7.53076 2.60889
      vertex 15 7.53076 2.60889
    endloop
  endfacet
  facet normal 0 -0.98074 0.195319
    outer loop
      vertex 16 7.53076 2.60889
      vertex 15 7.40991 2.00208
      vertex 16 7.40991 2.00208
    endloop
  endfacet
  facet normal 0 -0.982496 -0.186282
    outer loop
      vertex 15 7.53076 2.60889
      vertex 16 7.42126 3.1864
      vertex 15 7.42126 3.1864
    endloop
  endfacet
  facet normal 0 -0.982496 -0.186282
    outer loop
      vertex 16 7.42126 3.1864
      vertex 15 7.53076 2.60889
      vertex 16 7.53076 2.60889
    endloop
  endfacet
  facet normal 0 -0.78292 -0.622123
    outer loop
      vertex 15 7.42126 3.1864
      vertex 16 7.0968 3.59473
      vertex 15 7.0968 3.59473
    endloop
  endfacet
  facet normal 0 -0.78292 -0.622123
    outer loop
      vertex 16 7.0968 3.59473
      vertex 15 7.42126 3.1864
      vertex 16 7.42126 3.1864
    endloop
  endfacet
  facet normal 0 -0.279864 -0.96004
    outer loop
      vertex 15 6.60059 3.73938
      vertex 16 7.0968 3.59473
      vertex 16 6.60059 3.73938
    endloop
  endfacet
  facet normal -0 -0.279864 -0.96004
    outer loop
      vertex 16 7.0968 3.59473
      vertex 15 6.60059 3.73938
      vertex 15 7.0968 3.59473
    endloop
  endfacet
  facet normal 0 0.222507 -0.974931
    outer loop
      vertex 15 6.23474 3.65588
      vertex 16 6.60059 3.73938
      vertex 16 6.23474 3.65588
    endloop
  endfacet
  facet normal 0 0.222507 -0.974931
    outer loop
      vertex 16 6.60059 3.73938
      vertex 15 6.23474 3.65588
      vertex 15 6.60059 3.73938
    endloop
  endfacet
  facet normal 0 0.680337 -0.732899
    outer loop
      vertex 15 5.96411 3.40466
      vertex 16 6.23474 3.65588
      vertex 16 5.96411 3.40466
    endloop
  endfacet
  facet normal 0 0.680337 -0.732899
    outer loop
      vertex 16 6.23474 3.65588
      vertex 15 5.96411 3.40466
      vertex 15 6.23474 3.65588
    endloop
  endfacet
  facet normal 0 -1 0
    outer loop
      vertex 15 5.96411 3.40466
      vertex 16 5.96411 3.68994
      vertex 15 5.96411 3.68994
    endloop
  endfacet
  facet normal 0 -1 -0
    outer loop
      vertex 16 5.96411 3.68994
      vertex 15 5.96411 3.40466
      vertex 16 5.96411 3.40466
    endloop
  endfacet
  facet normal 0 0 -1
    outer loop
      vertex 15 5.625 3.68994
      vertex 16 5.96411 3.68994
      vertex 16 5.625 3.68994
    endloop
  endfacet
  facet normal -0 0 -1
    outer loop
      vertex 16 5.96411 3.68994
      vertex 15 5.625 3.68994
      vertex 15 5.96411 3.68994
    endloop
  endfacet
  facet normal 0 1 -0
    outer loop
      vertex 16 5.625 0.65332
      vertex 15 5.625 3.68994
      vertex 16 5.625 3.68994
    endloop
  endfacet
  facet normal 0 1 0
    outer loop
      vertex 15 5.625 3.68994
      vertex 16 5.625 0.65332
      vertex 15 5.625 0.65332
    endloop
  endfacet
  facet normal -0 0 1
    outer loop
      vertex 15 5.99707 0.65332
      vertex 16 5.625 0.65332
      vertex 16 5.99707 0.65332
    endloop
  endfacet
  facet normal 0 0 1
    outer loop
      vertex 16 5.625 0.65332
      vertex 15 5.99707 0.65332
      vertex 15 5.625 0.65332
    endloop
  endfacet
  facet normal 0 -1 0
    outer loop
      vertex 15 5.99707 0.65332
      vertex 16 5.99707 1.72192
      vertex 15 5.99707 1.72192
    endloop
  endfacet
  facet normal 0 -1 -0
    outer loop
      vertex 16 5.99707 1.72192
      vertex 15 5.99707 0.65332
      vertex 16 5.99707 0.65332
    endloop
  endfacet
  facet normal 0 -0.964425 -0.264357
    outer loop
      vertex 15 6.13367 1.95337
      vertex 16 5.96191 2.57996
      vertex 15 5.96191 2.57996
    endloop
  endfacet
  facet normal 0 -0.964425 -0.264357
    outer loop
      vertex 16 5.96191 2.57996
      vertex 15 6.13367 1.95337
      vertex 16 6.13367 1.95337
    endloop
  endfacet
  facet normal 0 -0.962098 0.272704
    outer loop
      vertex 15 5.96191 2.57996
      vertex 16 6.14502 3.22595
      vertex 15 6.14502 3.22595
    endloop
  endfacet
  facet normal 0 -0.962098 0.272704
    outer loop
      vertex 16 6.14502 3.22595
      vertex 15 5.96191 2.57996
      vertex 16 5.96191 2.57996
    endloop
  endfacet
  facet normal 0 -0.466508 0.884517
    outer loop
      vertex 15 6.5658 3.44788
      vertex 16 6.14502 3.22595
      vertex 16 6.5658 3.44788
    endloop
  endfacet
  facet normal 0 -0.466508 0.884517
    outer loop
      vertex 16 6.14502 3.22595
      vertex 15 6.5658 3.44788
      vertex 15 6.14502 3.22595
    endloop
  endfacet
  facet normal -0 0.451645 0.892198
    outer loop
      vertex 15 6.97815 3.23914
      vertex 16 6.5658 3.44788
      vertex 16 6.97815 3.23914
    endloop
  endfacet
  facet normal 0 0.451645 0.892198
    outer loop
      vertex 16 6.5658 3.44788
      vertex 15 6.97815 3.23914
      vertex 15 6.5658 3.44788
    endloop
  endfacet
  facet normal 0 0.964335 0.264686
    outer loop
      vertex 16 7.15063 2.61072
      vertex 15 6.97815 3.23914
      vertex 16 6.97815 3.23914
    endloop
  endfacet
  facet normal 0 0.964335 0.264686
    outer loop
      vertex 15 6.97815 3.23914
      vertex 16 7.15063 2.61072
      vertex 15 7.15063 2.61072
    endloop
  endfacet
  facet normal 0 0.964914 -0.262565
    outer loop
      vertex 16 6.97375 1.96069
      vertex 15 7.15063 2.61072
      vertex 16 7.15063 2.61072
    endloop
  endfacet
  facet normal 0 0.964914 -0.262565
    outer loop
      vertex 15 7.15063 2.61072
      vertex 16 6.97375 1.96069
      vertex 15 6.97375 1.96069
    endloop
  endfacet
  facet normal 0 0.44288 -0.896581
    outer loop
      vertex 15 6.54895 1.75085
      vertex 16 6.97375 1.96069
      vertex 16 6.54895 1.75085
    endloop
  endfacet
  facet normal 0 0.44288 -0.896581
    outer loop
      vertex 16 6.97375 1.96069
      vertex 15 6.54895 1.75085
      vertex 15 6.97375 1.96069
    endloop
  endfacet
  facet normal 0 -0.438314 -0.898822
    outer loop
      vertex 15 6.13367 1.95337
      vertex 16 6.54895 1.75085
      vertex 16 6.13367 1.95337
    endloop
  endfacet
  facet normal -0 -0.438314 -0.898822
    outer loop
      vertex 16 6.54895 1.75085
      vertex 15 6.13367 1.95337
      vertex 15 6.54895 1.75085
    endloop
  endfacet
  facet normal 0 0 1
    outer loop
      vertex 12.25 5 5
      vertex 6.97081 3.20534 5
      vertex 7.2 2.5 5
    endloop
  endfacet
  facet normal 0 0 1
    outer loop
      vertex 12.25 5 5
      vertex 6.37082 3.64127 5
      vertex 6.97081 3.20534 5
    endloop
  endfacet
  facet normal 0 0 1
    outer loop
      vertex 12.25 5 5
      vertex 5.62918 3.64127 5
      vertex 6.37082 3.64127 5
    endloop
  endfacet
  facet normal 0 0 1
    outer loop
      vertex 5.02919 3.20534 5
      vertex 0 5 5
      vertex 4.8 2.5 5
    endloop
  endfacet
  facet normal 0 0 1
    outer loop
      vertex 5.62918 3.64127 5
      vertex 0 5 5
      vertex 5.02919 3.20534 5
    endloop
  endfacet
  facet normal -0 0 1
    outer loop
      vertex 0 5 5
      vertex 5.62918 3.64127 5
      vertex 12.25 5 5
    endloop
  endfacet
  facet normal 0 0 1
    outer loop
      vertex 11 33 5
      vertex 6.97081 31.2053 5
      vertex 7.2 30.5 5
    endloop
  endfacet
  facet normal 0 0 1
    outer loop
      vertex 11 33 5
      vertex 6.37082 31.6413 5
      vertex 6.97081 31.2053 5
    endloop
  endfacet
  facet normal 0 0 1
    outer loop
      vertex 11 33 5
      vertex 5.62918 31.6413 5
      vertex 6.37082 31.6413 5
    endloop
  endfacet
  facet normal 0 0 1
    outer loop
      vertex 5.02919 31.2053 5
      vertex 0 33 5
      vertex 4.8 30.5 5
    endloop
  endfacet
  facet normal 0 0 1
    outer loop
      vertex 5.62918 31.6413 5
      vertex 0 33 5
      vertex 5.02919 31.2053 5
    endloop
  endfacet
  facet normal -0 0 1
    outer loop
      vertex 0 33 5
      vertex 5.62918 31.6413 5
      vertex 11 33 5
    endloop
  endfacet
  facet normal -0 0 1
    outer loop
      vertex 11 33 5
      vertex 12.25 28.5 5
      vertex 16 33 5
    endloop
  endfacet
  facet normal -0 0 1
    outer loop
      vertex 7.2 30.5 5
      vertex 12.25 28.5 5
      vertex 11 33 5
    endloop
  endfacet
  facet normal -0 0 1
    outer loop
      vertex 6.97081 29.7946 5
      vertex 12.25 28.5 5
      vertex 7.2 30.5 5
    endloop
  endfacet
  facet normal -0 0 1
    outer loop
      vertex 6.37082 29.3587 5
      vertex 12.25 28.5 5
      vertex 6.97081 29.7946 5
    endloop
  endfacet
  facet normal -0 0 1
    outer loop
      vertex 5.62918 29.3587 5
      vertex 12.25 28.5 5
      vertex 6.37082 29.3587 5
    endloop
  endfacet
  facet normal 0 0 1
    outer loop
      vertex 0 28.5 5
      vertex 4.8 30.5 5
      vertex 0 33 5
    endloop
  endfacet
  facet normal 0 0 1
    outer loop
      vertex 4.8 30.5 5
      vertex 0 28.5 5
      vertex 5.02919 29.7946 5
    endloop
  endfacet
  facet normal 0 0 1
    outer loop
      vertex 5.62918 29.3587 5
      vertex 0 28.5 5
      vertex 12.25 28.5 5
    endloop
  endfacet
  facet normal 0 0 1
    outer loop
      vertex 5.02919 29.7946 5
      vertex 0 28.5 5
      vertex 5.62918 29.3587 5
    endloop
  endfacet
  facet normal 0 0 1
    outer loop
      vertex 16 33 5
      vertex 12.25 28.5 5
      vertex 12.25 5 5
    endloop
  endfacet
  facet normal 0 0 1
    outer loop
      vertex 16 33 5
      vertex 12.25 5 5
      vertex 16 0 5
    endloop
  endfacet
  facet normal 0 0 1
    outer loop
      vertex 6.97081 1.79466 5
      vertex 12.25 5 5
      vertex 7.2 2.5 5
    endloop
  endfacet
  facet normal 0 0 1
    outer loop
      vertex 12.25 5 5
      vertex 6.97081 1.79466 5
      vertex 16 0 5
    endloop
  endfacet
  facet normal -0 0 1
    outer loop
      vertex 6.37082 1.35873 5
      vertex 16 0 5
      vertex 6.97081 1.79466 5
    endloop
  endfacet
  facet normal 0 0 1
    outer loop
      vertex 0 0 5
      vertex 6.37082 1.35873 5
      vertex 5.62918 1.35873 5
    endloop
  endfacet
  facet normal 0 0 1
    outer loop
      vertex 0 0 5
      vertex 4.8 2.5 5
      vertex 0 5 5
    endloop
  endfacet
  facet normal 0 0 1
    outer loop
      vertex 4.8 2.5 5
      vertex 0 0 5
      vertex 5.02919 1.79466 5
    endloop
  endfacet
  facet normal 0 0 1
    outer loop
      vertex 6.37082 1.35873 5
      vertex 0 0 5
      vertex 16 0 5
    endloop
  endfacet
  facet normal 0 0 1
    outer loop
      vertex 5.02919 1.79466 5
      vertex 0 0 5
      vertex 5.62918 1.35873 5
    endloop
  endfacet
  facet normal -1 0 0
    outer loop
      vertex 0 28.5 0
      vertex 0 33 5
      vertex 0 33 0
    endloop
  endfacet
  facet normal -1 -0 0
    outer loop
      vertex 0 33 5
      vertex 0 28.5 0
      vertex 0 28.5 5
    endloop
  endfacet
  facet normal 0 -1 0
    outer loop
      vertex 0 28.5 0
      vertex 12.25 28.5 5
      vertex 0 28.5 5
    endloop
  endfacet
  facet normal 0 -1 -0
    outer loop
      vertex 12.25 28.5 5
      vertex 0 28.5 0
      vertex 12.25 28.5 0
    endloop
  endfacet
  facet normal -1 0 0
    outer loop
      vertex 12.25 5 0
      vertex 12.25 28.5 5
      vertex 12.25 28.5 0
    endloop
  endfacet
  facet normal -1 -0 0
    outer loop
      vertex 12.25 28.5 5
      vertex 12.25 5 0
      vertex 12.25 5 5
    endloop
  endfacet
  facet normal 0 1 -0
    outer loop
      vertex 12.25 5 0
      vertex 0 5 5
      vertex 12.25 5 5
    endloop
  endfacet
  facet normal 0 1 0
    outer loop
      vertex 0 5 5
      vertex 12.25 5 0
      vertex 0 5 0
    endloop
  endfacet
  facet normal -1 0 0
    outer loop
      vertex 0 0 0
      vertex 0 5 5
      vertex 0 5 0
    endloop
  endfacet
  facet normal -1 -0 0
    outer loop
      vertex 0 5 5
      vertex 0 0 0
      vertex 0 0 5
    endloop
  endfacet
  facet normal 0 -1 0
    outer loop
      vertex 0 0 0
      vertex 16 0 5
      vertex 0 0 5
    endloop
  endfacet
  facet normal 0 -1 -0
    outer loop
      vertex 16 0 5
      vertex 0 0 0
      vertex 16 0 0
    endloop
  endfacet
  facet normal 1 0 0
    outer loop
      vertex 16 33 5
      vertex 16 7.53076 2.60889
      vertex 16 33 0
    endloop
  endfacet
  facet normal 1 0 0
    outer loop
      vertex 16 33 5
      vertex 16 7.42126 3.1864
      vertex 16 7.53076 2.60889
    endloop
  endfacet
  facet normal 1 0 0
    outer loop
      vertex 16 33 5
      vertex 16 7.0968 3.59473
      vertex 16 7.42126 3.1864
    endloop
  endfacet
  facet normal 1 0 0
    outer loop
      vertex 16 33 5
      vertex 16 6.60059 3.73938
      vertex 16 7.0968 3.59473
    endloop
  endfacet
  facet normal 1 0 0
    outer loop
      vertex 16 6.60059 3.73938
      vertex 16 5.96411 3.68994
      vertex 16 6.23474 3.65588
    endloop
  endfacet
  facet normal 1 0 0
    outer loop
      vertex 16 6.60059 3.73938
      vertex 16 5.625 3.68994
      vertex 16 5.96411 3.68994
    endloop
  endfacet
  facet normal 1 0 0
    outer loop
      vertex 16 5.625 3.68994
      vertex 16 5.61951 2.67847
      vertex 16 5.625 0.65332
    endloop
  endfacet
  facet normal 1 0 0
    outer loop
      vertex 16 5.625 3.68994
      vertex 16 5.33203 3.49805
      vertex 16 5.61951 2.67847
    endloop
  endfacet
  facet normal 1 0 0
    outer loop
      vertex 16 5.625 3.68994
      vertex 16 4.59192 3.79468
      vertex 16 5.33203 3.49805
    endloop
  endfacet
  facet normal 1 0 0
    outer loop
      vertex 16 6.60059 3.73938
      vertex 16 4.59192 3.79468
      vertex 16 5.625 3.68994
    endloop
  endfacet
  facet normal 1 -0 0
    outer loop
      vertex 16 0 5
      vertex 16 6.60059 3.73938
      vertex 16 33 5
    endloop
  endfacet
  facet normal 1 -0 0
    outer loop
      vertex 16 2.67188 2.67188
      vertex 16 3.5625 2.64734
      vertex 16 3.90161 3.55078
    endloop
  endfacet
  facet normal 1 0 0
    outer loop
      vertex 16 3.5625 2.64734
      vertex 16 3.04614 1.86182
      vertex 16 3.09998 1.53333
    endloop
  endfacet
  facet normal 1 0 0
    outer loop
      vertex 16 2.67188 2.15112
      vertex 16 3.5625 2.64734
      vertex 16 2.67188 2.67188
    endloop
  endfacet
  facet normal 1 0 0
    outer loop
      vertex 16 3.5625 2.64734
      vertex 16 2.67188 2.15112
      vertex 16 3.04614 1.86182
    endloop
  endfacet
  facet normal 1 -0 -0
    outer loop
      vertex 16 2.69165 1.94641
      vertex 16 2.88281 1.84753
      vertex 16 2.67188 2.15112
    endloop
  endfacet
  facet normal 1 0 0
    outer loop
      vertex 16 3.04614 1.86182
      vertex 16 2.67188 2.15112
      vertex 16 2.88281 1.84753
    endloop
  endfacet
  facet normal 1 0 0
    outer loop
      vertex 16 0 0
      vertex 16 2.302 2.302
      vertex 16 0 5
    endloop
  endfacet
  facet normal 1 0 0
    outer loop
      vertex 16 2.67188 2.67188
      vertex 16 0 5
      vertex 16 2.302 2.302
    endloop
  endfacet
  facet normal 1 0 0
    outer loop
      vertex 16 3.90161 3.55078
      vertex 16 0 5
      vertex 16 2.67188 2.67188
    endloop
  endfacet
  facet normal 1 0 0
    outer loop
      vertex 16 4.59192 3.79468
      vertex 16 0 5
      vertex 16 3.90161 3.55078
    endloop
  endfacet
  facet normal 1 0 0
    outer loop
      vertex 16 6.60059 3.73938
      vertex 16 0 5
      vertex 16 4.59192 3.79468
    endloop
  endfacet
  facet normal 1 -0 0
    outer loop
      vertex 16 7.40991 2.00208
      vertex 16 33 0
      vertex 16 7.53076 2.60889
    endloop
  endfacet
  facet normal 1 -0 0
    outer loop
      vertex 16 7.05872 1.58862
      vertex 16 33 0
      vertex 16 7.40991 2.00208
    endloop
  endfacet
  facet normal 1 0 0
    outer loop
      vertex 16 5.99707 0.65332
      vertex 16 7.05872 1.58862
      vertex 16 6.57385 1.44507
    endloop
  endfacet
  facet normal 1 0 0
    outer loop
      vertex 16 5.99707 0.65332
      vertex 16 6.24023 1.52344
      vertex 16 5.99707 1.72192
    endloop
  endfacet
  facet normal 1 0 0
    outer loop
      vertex 16 5.99707 0.65332
      vertex 16 6.57385 1.44507
      vertex 16 6.24023 1.52344
    endloop
  endfacet
  facet normal 1 0 0
    outer loop
      vertex 16 7.05872 1.58862
      vertex 16 5.99707 0.65332
      vertex 16 33 0
    endloop
  endfacet
  facet normal 1 0 0
    outer loop
      vertex 16 0 0
      vertex 16 5.99707 0.65332
      vertex 16 5.625 0.65332
    endloop
  endfacet
  facet normal 1 -0 0
    outer loop
      vertex 16 5.49207 2.0116
      vertex 16 5.625 0.65332
      vertex 16 5.61951 2.67847
    endloop
  endfacet
  facet normal 1 -0 0
    outer loop
      vertex 16 5.12219 1.6344
      vertex 16 5.625 0.65332
      vertex 16 5.49207 2.0116
    endloop
  endfacet
  facet normal 1 -0 0
    outer loop
      vertex 16 4.59192 1.5
      vertex 16 5.625 0.65332
      vertex 16 5.12219 1.6344
    endloop
  endfacet
  facet normal 1 -0 0
    outer loop
      vertex 16 3.09998 1.53333
      vertex 16 4.59192 1.5
      vertex 16 3.84668 1.79553
    endloop
  endfacet
  facet normal 1 0 0
    outer loop
      vertex 16 3.09998 1.53333
      vertex 16 3.84668 1.79553
      vertex 16 3.5625 2.64734
    endloop
  endfacet
  facet normal 1 0 0
    outer loop
      vertex 16 4.59192 1.5
      vertex 16 3.09998 1.53333
      vertex 16 5.625 0.65332
    endloop
  endfacet
  facet normal 1 -0 0
    outer loop
      vertex 16 2.81873 1.5
      vertex 16 5.625 0.65332
      vertex 16 3.09998 1.53333
    endloop
  endfacet
  facet normal 1 0 0
    outer loop
      vertex 16 0 0
      vertex 16 2.81873 1.5
      vertex 16 2.50452 1.56409
    endloop
  endfacet
  facet normal 1 0 0
    outer loop
      vertex 16 2.302 2.302
      vertex 16 0 0
      vertex 16 2.302 2.172
    endloop
  endfacet
  facet normal 1 0 0
    outer loop
      vertex 16 5.99707 0.65332
      vertex 16 0 0
      vertex 16 33 0
    endloop
  endfacet
  facet normal 1 0 0
    outer loop
      vertex 16 2.81873 1.5
      vertex 16 0 0
      vertex 16 5.625 0.65332
    endloop
  endfacet
  facet normal 1 0 0
    outer loop
      vertex 16 2.34741 1.73254
      vertex 16 0 0
      vertex 16 2.50452 1.56409
    endloop
  endfacet
  facet normal 1 0 0
    outer loop
      vertex 16 2.302 2.172
      vertex 16 0 0
      vertex 16 2.34741 1.73254
    endloop
  endfacet
  facet normal 1 0 0
    outer loop
      vertex 16 6.23474 3.65588
      vertex 16 5.96411 3.68994
      vertex 16 5.96411 3.40466
    endloop
  endfacet
  facet normal 1 0 0
    outer loop
      vertex 16 2.88281 1.84753
      vertex 16 2.69165 1.94641
      vertex 16 2.75574 1.87427
    endloop
  endfacet
  facet normal 1 0 0
    outer loop
      vertex 16 3.94519 2.64734
      vertex 16 5.23682 2.65979
      vertex 16 5.05188 3.27686
    endloop
  endfacet
  facet normal 1 -0 0
    outer loop
      vertex 16 4.12903 3.27795
      vertex 16 5.05188 3.27686
      vertex 16 4.59192 3.48669
    endloop
  endfacet
  facet normal 1 0 0
    outer loop
      vertex 16 5.23682 2.65979
      vertex 16 3.94519 2.64734
      vertex 16 5.05298 2.01672
    endloop
  endfacet
  facet normal 1 0 0
    outer loop
      vertex 16 5.05188 3.27686
      vertex 16 4.12903 3.27795
      vertex 16 3.94519 2.64734
    endloop
  endfacet
  facet normal 1 0 -0
    outer loop
      vertex 16 4.12903 2.01599
      vertex 16 5.05298 2.01672
      vertex 16 3.94519 2.64734
    endloop
  endfacet
  facet normal 1 0 0
    outer loop
      vertex 16 5.05298 2.01672
      vertex 16 4.12903 2.01599
      vertex 16 4.59192 1.80615
    endloop
  endfacet
  facet normal 1 -0 0
    outer loop
      vertex 16 6.14502 3.22595
      vertex 16 7.15063 2.61072
      vertex 16 6.97815 3.23914
    endloop
  endfacet
  facet normal 1 0 0
    outer loop
      vertex 16 6.14502 3.22595
      vertex 16 6.97815 3.23914
      vertex 16 6.5658 3.44788
    endloop
  endfacet
  facet normal 1 0 0
    outer loop
      vertex 16 7.15063 2.61072
      vertex 16 5.96191 2.57996
      vertex 16 6.97375 1.96069
    endloop
  endfacet
  facet normal 1 0 0
    outer loop
      vertex 16 7.15063 2.61072
      vertex 16 6.14502 3.22595
      vertex 16 5.96191 2.57996
    endloop
  endfacet
  facet normal 1 0 -0
    outer loop
      vertex 16 6.13367 1.95337
      vertex 16 6.97375 1.96069
      vertex 16 5.96191 2.57996
    endloop
  endfacet
  facet normal 1 0 0
    outer loop
      vertex 16 6.97375 1.96069
      vertex 16 6.13367 1.95337
      vertex 16 6.54895 1.75085
    endloop
  endfacet
  facet normal 0.587794 0.809011 -0
    outer loop
      vertex 5.62918 29.3587 0
      vertex 5.02919 29.7946 5
      vertex 5.62918 29.3587 5
    endloop
  endfacet
  facet normal 0.587794 0.809011 0
    outer loop
      vertex 5.02919 29.7946 5
      vertex 5.62918 29.3587 0
      vertex 5.02919 29.7946 0
    endloop
  endfacet
  facet normal 0.951055 0.309022 0
    outer loop
      vertex 5.02919 29.7946 5
      vertex 4.8 30.5 0
      vertex 4.8 30.5 5
    endloop
  endfacet
  facet normal 0.951055 0.309022 0
    outer loop
      vertex 4.8 30.5 0
      vertex 5.02919 29.7946 5
      vertex 5.02919 29.7946 0
    endloop
  endfacet
  facet normal 0.951053 -0.309028 0
    outer loop
      vertex 4.8 30.5 5
      vertex 5.02919 31.2053 0
      vertex 5.02919 31.2053 5
    endloop
  endfacet
  facet normal 0.951053 -0.309028 0
    outer loop
      vertex 5.02919 31.2053 0
      vertex 4.8 30.5 5
      vertex 4.8 30.5 0
    endloop
  endfacet
  facet normal 0.587794 -0.809011 0
    outer loop
      vertex 5.02919 31.2053 0
      vertex 5.62918 31.6413 5
      vertex 5.02919 31.2053 5
    endloop
  endfacet
  facet normal 0.587794 -0.809011 0
    outer loop
      vertex 5.62918 31.6413 5
      vertex 5.02919 31.2053 0
      vertex 5.62918 31.6413 0
    endloop
  endfacet
  facet normal 0 -1 0
    outer loop
      vertex 5.62918 31.6413 0
      vertex 6.37082 31.6413 5
      vertex 5.62918 31.6413 5
    endloop
  endfacet
  facet normal 0 -1 -0
    outer loop
      vertex 6.37082 31.6413 5
      vertex 5.62918 31.6413 0
      vertex 6.37082 31.6413 0
    endloop
  endfacet
  facet normal -0.587794 -0.809011 0
    outer loop
      vertex 6.37082 31.6413 0
      vertex 6.97081 31.2053 5
      vertex 6.37082 31.6413 5
    endloop
  endfacet
  facet normal -0.587794 -0.809011 -0
    outer loop
      vertex 6.97081 31.2053 5
      vertex 6.37082 31.6413 0
      vertex 6.97081 31.2053 0
    endloop
  endfacet
  facet normal -0.951053 -0.309028 0
    outer loop
      vertex 7.2 30.5 0
      vertex 6.97081 31.2053 5
      vertex 6.97081 31.2053 0
    endloop
  endfacet
  facet normal -0.951053 -0.309028 0
    outer loop
      vertex 6.97081 31.2053 5
      vertex 7.2 30.5 0
      vertex 7.2 30.5 5
    endloop
  endfacet
  facet normal -0.951055 0.309022 0
    outer loop
      vertex 6.97081 29.7946 0
      vertex 7.2 30.5 5
      vertex 7.2 30.5 0
    endloop
  endfacet
  facet normal -0.951055 0.309022 0
    outer loop
      vertex 7.2 30.5 5
      vertex 6.97081 29.7946 0
      vertex 6.97081 29.7946 5
    endloop
  endfacet
  facet normal -0.587794 0.809011 0
    outer loop
      vertex 6.97081 29.7946 0
      vertex 6.37082 29.3587 5
      vertex 6.97081 29.7946 5
    endloop
  endfacet
  facet normal -0.587794 0.809011 0
    outer loop
      vertex 6.37082 29.3587 5
      vertex 6.97081 29.7946 0
      vertex 6.37082 29.3587 0
    endloop
  endfacet
  facet normal 0 1 -0
    outer loop
      vertex 6.37082 29.3587 0
      vertex 5.62918 29.3587 5
      vertex 6.37082 29.3587 5
    endloop
  endfacet
  facet normal 0 1 0
    outer loop
      vertex 5.62918 29.3587 5
      vertex 6.37082 29.3587 0
      vertex 5.62918 29.3587 0
    endloop
  endfacet
  facet normal 0.587794 0.809011 -0
    outer loop
      vertex 5.62918 1.35873 0
      vertex 5.02919 1.79466 5
      vertex 5.62918 1.35873 5
    endloop
  endfacet
  facet normal 0.587794 0.809011 0
    outer loop
      vertex 5.02919 1.79466 5
      vertex 5.62918 1.35873 0
      vertex 5.02919 1.79466 0
    endloop
  endfacet
  facet normal 0.951053 0.309028 0
    outer loop
      vertex 5.02919 1.79466 5
      vertex 4.8 2.5 0
      vertex 4.8 2.5 5
    endloop
  endfacet
  facet normal 0.951053 0.309028 0
    outer loop
      vertex 4.8 2.5 0
      vertex 5.02919 1.79466 5
      vertex 5.02919 1.79466 0
    endloop
  endfacet
  facet normal 0.951053 -0.309028 0
    outer loop
      vertex 4.8 2.5 5
      vertex 5.02919 3.20534 0
      vertex 5.02919 3.20534 5
    endloop
  endfacet
  facet normal 0.951053 -0.309028 0
    outer loop
      vertex 5.02919 3.20534 0
      vertex 4.8 2.5 5
      vertex 4.8 2.5 0
    endloop
  endfacet
  facet normal 0.587794 -0.809011 0
    outer loop
      vertex 5.02919 3.20534 0
      vertex 5.62918 3.64127 5
      vertex 5.02919 3.20534 5
    endloop
  endfacet
  facet normal 0.587794 -0.809011 0
    outer loop
      vertex 5.62918 3.64127 5
      vertex 5.02919 3.20534 0
      vertex 5.62918 3.64127 0
    endloop
  endfacet
  facet normal 0 -1 0
    outer loop
      vertex 5.62918 3.64127 0
      vertex 6.37082 3.64127 5
      vertex 5.62918 3.64127 5
    endloop
  endfacet
  facet normal 0 -1 -0
    outer loop
      vertex 6.37082 3.64127 5
      vertex 5.62918 3.64127 0
      vertex 6.37082 3.64127 0
    endloop
  endfacet
  facet normal -0.587794 -0.809011 0
    outer loop
      vertex 6.37082 3.64127 0
      vertex 6.97081 3.20534 5
      vertex 6.37082 3.64127 5
    endloop
  endfacet
  facet normal -0.587794 -0.809011 -0
    outer loop
      vertex 6.97081 3.20534 5
      vertex 6.37082 3.64127 0
      vertex 6.97081 3.20534 0
    endloop
  endfacet
  facet normal -0.951053 -0.309028 0
    outer loop
      vertex 7.2 2.5 0
      vertex 6.97081 3.20534 5
      vertex 6.97081 3.20534 0
    endloop
  endfacet
  facet normal -0.951053 -0.309028 0
    outer loop
      vertex 6.97081 3.20534 5
      vertex 7.2 2.5 0
      vertex 7.2 2.5 5
    endloop
  endfacet
  facet normal -0.951053 0.309028 0
    outer loop
      vertex 6.97081 1.79466 0
      vertex 7.2 2.5 5
      vertex 7.2 2.5 0
    endloop
  endfacet
  facet normal -0.951053 0.309028 0
    outer loop
      vertex 7.2 2.5 5
      vertex 6.97081 1.79466 0
      vertex 6.97081 1.79466 5
    endloop
  endfacet
  facet normal -0.587794 0.809011 0
    outer loop
      vertex 6.97081 1.79466 0
      vertex 6.37082 1.35873 5
      vertex 6.97081 1.79466 5
    endloop
  endfacet
  facet normal -0.587794 0.809011 0
    outer loop
      vertex 6.37082 1.35873 5
      vertex 6.97081 1.79466 0
      vertex 6.37082 1.35873 0
    endloop
  endfacet
  facet normal 0 1 -0
    outer loop
      vertex 6.37082 1.35873 0
      vertex 5.62918 1.35873 5
      vertex 6.37082 1.35873 5
    endloop
  endfacet
  facet normal 0 1 0
    outer loop
      vertex 5.62918 1.35873 5
      vertex 6.37082 1.35873 0
      vertex 5.62918 1.35873 0
    endloop
  endfacet
endsolid OpenSCAD_Model
