solid OpenSCAD_Model
  facet normal 0 0 -1
    outer loop
      vertex 0 8 0
      vertex 3.43785 6.94685 0
      vertex 3.25392 6.90575 0
    endloop
  endfacet
  facet normal 0 0 -1
    outer loop
      vertex 8 8 0
      vertex 6.94685 4.56213 0
      vertex 6.90575 4.74606 0
    endloop
  endfacet
  facet normal 0 0 -1
    outer loop
      vertex 8 0 0
      vertex 3.99998 1 0
      vertex 4.18837 1.00591 0
    endloop
  endfacet
  facet normal 0 -0 -1
    outer loop
      vertex 3.99998 1 0
      vertex 8 0 0
      vertex 0 0 0
    endloop
  endfacet
  facet normal 0 -0 -1
    outer loop
      vertex 3.81161 1.00591 0
      vertex 3.99998 1 0
      vertex 0 0 0
    endloop
  endfacet
  facet normal 0 -0 -1
    outer loop
      vertex 3.62399 1.02365 0
      vertex 3.81161 1.00591 0
      vertex 0 0 0
    endloop
  endfacet
  facet normal 0 -0 -1
    outer loop
      vertex 3.43785 1.05313 0
      vertex 3.62399 1.02365 0
      vertex 0 0 0
    endloop
  endfacet
  facet normal 0 -0 -1
    outer loop
      vertex 3.25392 1.09424 0
      vertex 3.43785 1.05313 0
      vertex 0 0 0
    endloop
  endfacet
  facet normal 0 -0 -1
    outer loop
      vertex 3.07294 1.14682 0
      vertex 3.25392 1.09424 0
      vertex 0 0 0
    endloop
  endfacet
  facet normal 0 -0 -1
    outer loop
      vertex 2.89561 1.21066 0
      vertex 3.07294 1.14682 0
      vertex 0 0 0
    endloop
  endfacet
  facet normal 0 -0 -1
    outer loop
      vertex 2.72266 1.28551 0
      vertex 2.89561 1.21066 0
      vertex 0 0 0
    endloop
  endfacet
  facet normal 0 -0 -1
    outer loop
      vertex 2.55473 1.37108 0
      vertex 2.72266 1.28551 0
      vertex 0 0 0
    endloop
  endfacet
  facet normal 0 -0 -1
    outer loop
      vertex 2.39252 1.46701 0
      vertex 2.55473 1.37108 0
      vertex 0 0 0
    endloop
  endfacet
  facet normal 0 -0 -1
    outer loop
      vertex 2.23663 1.57294 0
      vertex 2.39252 1.46701 0
      vertex 0 0 0
    endloop
  endfacet
  facet normal 0 -0 -1
    outer loop
      vertex 2.08772 1.68845 0
      vertex 2.23663 1.57294 0
      vertex 0 0 0
    endloop
  endfacet
  facet normal 0 -0 -1
    outer loop
      vertex 1.94635 1.81308 0
      vertex 2.08772 1.68845 0
      vertex 0 0 0
    endloop
  endfacet
  facet normal 0 -0 -1
    outer loop
      vertex 1.81308 1.94635 0
      vertex 1.94635 1.81308 0
      vertex 0 0 0
    endloop
  endfacet
  facet normal 0 -0 -1
    outer loop
      vertex 1.68845 2.08772 0
      vertex 1.81308 1.94635 0
      vertex 0 0 0
    endloop
  endfacet
  facet normal 0 -0 -1
    outer loop
      vertex 1.57294 2.23663 0
      vertex 1.68845 2.08772 0
      vertex 0 0 0
    endloop
  endfacet
  facet normal 0 -0 -1
    outer loop
      vertex 1.46701 2.39252 0
      vertex 1.57294 2.23663 0
      vertex 0 0 0
    endloop
  endfacet
  facet normal 0 -0 -1
    outer loop
      vertex 1.37108 2.55473 0
      vertex 1.46701 2.39252 0
      vertex 0 0 0
    endloop
  endfacet
  facet normal 0 -0 -1
    outer loop
      vertex 1.28551 2.72266 0
      vertex 1.37108 2.55473 0
      vertex 0 0 0
    endloop
  endfacet
  facet normal 0 -0 -1
    outer loop
      vertex 1.21066 2.89561 0
      vertex 1.28551 2.72266 0
      vertex 0 0 0
    endloop
  endfacet
  facet normal 0 -0 -1
    outer loop
      vertex 1.14682 3.07294 0
      vertex 1.21066 2.89561 0
      vertex 0 0 0
    endloop
  endfacet
  facet normal 0 -0 -1
    outer loop
      vertex 1.05313 3.43785 0
      vertex 1.09424 3.25392 0
      vertex 0 0 0
    endloop
  endfacet
  facet normal 0 -0 -1
    outer loop
      vertex 1.09424 3.25392 0
      vertex 1.14682 3.07294 0
      vertex 0 0 0
    endloop
  endfacet
  facet normal 0 -0 -1
    outer loop
      vertex 1.02365 3.62399 0
      vertex 1.05313 3.43785 0
      vertex 0 0 0
    endloop
  endfacet
  facet normal 0 -0 -1
    outer loop
      vertex 1.00591 3.81161 0
      vertex 1.02365 3.62399 0
      vertex 0 0 0
    endloop
  endfacet
  facet normal 0 -0 -1
    outer loop
      vertex 1 4 0
      vertex 1.00591 3.81161 0
      vertex 0 0 0
    endloop
  endfacet
  facet normal 0 0 -1
    outer loop
      vertex 0 8 0
      vertex 1 4 0
      vertex 0 0 0
    endloop
  endfacet
  facet normal 0 0 -1
    outer loop
      vertex 0 8 0
      vertex 1.00591 4.18837 0
      vertex 1 4 0
    endloop
  endfacet
  facet normal 0 0 -1
    outer loop
      vertex 0 8 0
      vertex 1.02365 4.37599 0
      vertex 1.00591 4.18837 0
    endloop
  endfacet
  facet normal 0 0 -1
    outer loop
      vertex 0 8 0
      vertex 1.05313 4.56213 0
      vertex 1.02365 4.37599 0
    endloop
  endfacet
  facet normal 0 0 -1
    outer loop
      vertex 0 8 0
      vertex 1.09424 4.74606 0
      vertex 1.05313 4.56213 0
    endloop
  endfacet
  facet normal 0 0 -1
    outer loop
      vertex 0 8 0
      vertex 1.14682 4.92705 0
      vertex 1.09424 4.74606 0
    endloop
  endfacet
  facet normal 0 0 -1
    outer loop
      vertex 0 8 0
      vertex 1.21066 5.10437 0
      vertex 1.14682 4.92705 0
    endloop
  endfacet
  facet normal 0 0 -1
    outer loop
      vertex 0 8 0
      vertex 1.28551 5.27733 0
      vertex 1.21066 5.10437 0
    endloop
  endfacet
  facet normal 0 0 -1
    outer loop
      vertex 0 8 0
      vertex 1.37108 5.44525 0
      vertex 1.28551 5.27733 0
    endloop
  endfacet
  facet normal 0 0 -1
    outer loop
      vertex 0 8 0
      vertex 1.46701 5.60747 0
      vertex 1.37108 5.44525 0
    endloop
  endfacet
  facet normal 0 0 -1
    outer loop
      vertex 0 8 0
      vertex 1.57294 5.76335 0
      vertex 1.46701 5.60747 0
    endloop
  endfacet
  facet normal 0 0 -1
    outer loop
      vertex 0 8 0
      vertex 1.68845 5.91226 0
      vertex 1.57294 5.76335 0
    endloop
  endfacet
  facet normal 0 0 -1
    outer loop
      vertex 0 8 0
      vertex 1.81308 6.05363 0
      vertex 1.68845 5.91226 0
    endloop
  endfacet
  facet normal 0 0 -1
    outer loop
      vertex 0 8 0
      vertex 1.94635 6.1869 0
      vertex 1.81308 6.05363 0
    endloop
  endfacet
  facet normal 0 0 -1
    outer loop
      vertex 0 8 0
      vertex 2.08772 6.31154 0
      vertex 1.94635 6.1869 0
    endloop
  endfacet
  facet normal 0 0 -1
    outer loop
      vertex 0 8 0
      vertex 2.23663 6.42705 0
      vertex 2.08772 6.31154 0
    endloop
  endfacet
  facet normal 0 0 -1
    outer loop
      vertex 0 8 0
      vertex 2.39252 6.53297 0
      vertex 2.23663 6.42705 0
    endloop
  endfacet
  facet normal 0 0 -1
    outer loop
      vertex 0 8 0
      vertex 2.55473 6.62891 0
      vertex 2.39252 6.53297 0
    endloop
  endfacet
  facet normal 0 0 -1
    outer loop
      vertex 0 8 0
      vertex 2.72266 6.71448 0
      vertex 2.55473 6.62891 0
    endloop
  endfacet
  facet normal 0 0 -1
    outer loop
      vertex 0 8 0
      vertex 2.89561 6.78932 0
      vertex 2.72266 6.71448 0
    endloop
  endfacet
  facet normal 0 0 -1
    outer loop
      vertex 0 8 0
      vertex 3.07294 6.85316 0
      vertex 2.89561 6.78932 0
    endloop
  endfacet
  facet normal 0 0 -1
    outer loop
      vertex 0 8 0
      vertex 3.25392 6.90575 0
      vertex 3.07294 6.85316 0
    endloop
  endfacet
  facet normal -0 0 -1
    outer loop
      vertex 3.62399 6.97633 0
      vertex 3.43785 6.94685 0
      vertex 0 8 0
    endloop
  endfacet
  facet normal -0 0 -1
    outer loop
      vertex 3.81161 6.99408 0
      vertex 3.62399 6.97633 0
      vertex 0 8 0
    endloop
  endfacet
  facet normal -0 0 -1
    outer loop
      vertex 4 7 0
      vertex 3.81161 6.99408 0
      vertex 0 8 0
    endloop
  endfacet
  facet normal -0 0 -1
    outer loop
      vertex 8 8 0
      vertex 4 7 0
      vertex 0 8 0
    endloop
  endfacet
  facet normal 0 0 -1
    outer loop
      vertex 8 8 0
      vertex 4.18837 6.99408 0
      vertex 4 7 0
    endloop
  endfacet
  facet normal 0 0 -1
    outer loop
      vertex 8 8 0
      vertex 4.37599 6.97633 0
      vertex 4.18837 6.99408 0
    endloop
  endfacet
  facet normal 0 0 -1
    outer loop
      vertex 8 8 0
      vertex 4.56213 6.94685 0
      vertex 4.37599 6.97633 0
    endloop
  endfacet
  facet normal 0 0 -1
    outer loop
      vertex 8 8 0
      vertex 4.74606 6.90575 0
      vertex 4.56213 6.94685 0
    endloop
  endfacet
  facet normal 0 0 -1
    outer loop
      vertex 8 8 0
      vertex 4.92705 6.85316 0
      vertex 4.74606 6.90575 0
    endloop
  endfacet
  facet normal 0 0 -1
    outer loop
      vertex 8 8 0
      vertex 5.10437 6.78932 0
      vertex 4.92705 6.85316 0
    endloop
  endfacet
  facet normal 0 0 -1
    outer loop
      vertex 8 8 0
      vertex 5.27733 6.71448 0
      vertex 5.10437 6.78932 0
    endloop
  endfacet
  facet normal 0 0 -1
    outer loop
      vertex 8 8 0
      vertex 5.44525 6.62891 0
      vertex 5.27733 6.71448 0
    endloop
  endfacet
  facet normal 0 0 -1
    outer loop
      vertex 8 8 0
      vertex 5.60747 6.53297 0
      vertex 5.44525 6.62891 0
    endloop
  endfacet
  facet normal 0 0 -1
    outer loop
      vertex 8 8 0
      vertex 5.76335 6.42705 0
      vertex 5.60747 6.53297 0
    endloop
  endfacet
  facet normal 0 0 -1
    outer loop
      vertex 8 8 0
      vertex 5.91226 6.31154 0
      vertex 5.76335 6.42705 0
    endloop
  endfacet
  facet normal 0 0 -1
    outer loop
      vertex 8 8 0
      vertex 6.05363 6.1869 0
      vertex 5.91226 6.31154 0
    endloop
  endfacet
  facet normal 0 0 -1
    outer loop
      vertex 8 8 0
      vertex 6.1869 6.05363 0
      vertex 6.05363 6.1869 0
    endloop
  endfacet
  facet normal 0 0 -1
    outer loop
      vertex 8 8 0
      vertex 6.31154 5.91226 0
      vertex 6.1869 6.05363 0
    endloop
  endfacet
  facet normal 0 0 -1
    outer loop
      vertex 8 8 0
      vertex 6.42705 5.76335 0
      vertex 6.31154 5.91226 0
    endloop
  endfacet
  facet normal 0 0 -1
    outer loop
      vertex 8 8 0
      vertex 6.53297 5.60747 0
      vertex 6.42705 5.76335 0
    endloop
  endfacet
  facet normal 0 0 -1
    outer loop
      vertex 8 8 0
      vertex 6.62891 5.44525 0
      vertex 6.53297 5.60747 0
    endloop
  endfacet
  facet normal 0 0 -1
    outer loop
      vertex 8 8 0
      vertex 6.71448 5.27733 0
      vertex 6.62891 5.44525 0
    endloop
  endfacet
  facet normal 0 0 -1
    outer loop
      vertex 8 8 0
      vertex 6.78932 5.10437 0
      vertex 6.71448 5.27733 0
    endloop
  endfacet
  facet normal 0 0 -1
    outer loop
      vertex 8 8 0
      vertex 6.85316 4.92705 0
      vertex 6.78932 5.10437 0
    endloop
  endfacet
  facet normal 0 0 -1
    outer loop
      vertex 8 8 0
      vertex 6.90575 4.74606 0
      vertex 6.85316 4.92705 0
    endloop
  endfacet
  facet normal 0 0 -1
    outer loop
      vertex 6.97633 4.37599 0
      vertex 6.94685 4.56213 0
      vertex 8 8 0
    endloop
  endfacet
  facet normal 0 0 -1
    outer loop
      vertex 6.99408 4.18837 0
      vertex 6.97633 4.37599 0
      vertex 8 8 0
    endloop
  endfacet
  facet normal 0 0 -1
    outer loop
      vertex 7 4 0
      vertex 6.99408 4.18837 0
      vertex 8 8 0
    endloop
  endfacet
  facet normal 0 0 -1
    outer loop
      vertex 8 0 0
      vertex 7 4 0
      vertex 8 8 0
    endloop
  endfacet
  facet normal 0 0 -1
    outer loop
      vertex 8 0 0
      vertex 6.99408 3.81161 0
      vertex 7 4 0
    endloop
  endfacet
  facet normal 0 0 -1
    outer loop
      vertex 8 0 0
      vertex 6.97633 3.62399 0
      vertex 6.99408 3.81161 0
    endloop
  endfacet
  facet normal 0 0 -1
    outer loop
      vertex 8 0 0
      vertex 6.94685 3.43785 0
      vertex 6.97633 3.62399 0
    endloop
  endfacet
  facet normal 0 0 -1
    outer loop
      vertex 8 0 0
      vertex 6.90575 3.25392 0
      vertex 6.94685 3.43785 0
    endloop
  endfacet
  facet normal 0 0 -1
    outer loop
      vertex 8 0 0
      vertex 6.85316 3.07294 0
      vertex 6.90575 3.25392 0
    endloop
  endfacet
  facet normal 0 0 -1
    outer loop
      vertex 8 0 0
      vertex 6.78932 2.89561 0
      vertex 6.85316 3.07294 0
    endloop
  endfacet
  facet normal 0 0 -1
    outer loop
      vertex 8 0 0
      vertex 6.71448 2.72266 0
      vertex 6.78932 2.89561 0
    endloop
  endfacet
  facet normal 0 0 -1
    outer loop
      vertex 8 0 0
      vertex 6.62891 2.55473 0
      vertex 6.71448 2.72266 0
    endloop
  endfacet
  facet normal 0 0 -1
    outer loop
      vertex 8 0 0
      vertex 6.53297 2.39252 0
      vertex 6.62891 2.55473 0
    endloop
  endfacet
  facet normal 0 0 -1
    outer loop
      vertex 8 0 0
      vertex 6.42705 2.23663 0
      vertex 6.53297 2.39252 0
    endloop
  endfacet
  facet normal 0 0 -1
    outer loop
      vertex 8 0 0
      vertex 6.31154 2.08772 0
      vertex 6.42705 2.23663 0
    endloop
  endfacet
  facet normal 0 0 -1
    outer loop
      vertex 8 0 0
      vertex 6.1869 1.94635 0
      vertex 6.31154 2.08772 0
    endloop
  endfacet
  facet normal 0 0 -1
    outer loop
      vertex 8 0 0
      vertex 6.05363 1.81308 0
      vertex 6.1869 1.94635 0
    endloop
  endfacet
  facet normal 0 0 -1
    outer loop
      vertex 8 0 0
      vertex 5.91226 1.68845 0
      vertex 6.05363 1.81308 0
    endloop
  endfacet
  facet normal 0 0 -1
    outer loop
      vertex 8 0 0
      vertex 5.76335 1.57294 0
      vertex 5.91226 1.68845 0
    endloop
  endfacet
  facet normal 0 0 -1
    outer loop
      vertex 8 0 0
      vertex 5.60747 1.46701 0
      vertex 5.76335 1.57294 0
    endloop
  endfacet
  facet normal 0 0 -1
    outer loop
      vertex 8 0 0
      vertex 5.44525 1.37108 0
      vertex 5.60747 1.46701 0
    endloop
  endfacet
  facet normal 0 0 -1
    outer loop
      vertex 8 0 0
      vertex 5.27733 1.28551 0
      vertex 5.44525 1.37108 0
    endloop
  endfacet
  facet normal 0 0 -1
    outer loop
      vertex 8 0 0
      vertex 5.10437 1.21066 0
      vertex 5.27733 1.28551 0
    endloop
  endfacet
  facet normal 0 0 -1
    outer loop
      vertex 8 0 0
      vertex 4.92705 1.14682 0
      vertex 5.10437 1.21066 0
    endloop
  endfacet
  facet normal 0 0 -1
    outer loop
      vertex 8 0 0
      vertex 4.74606 1.09424 0
      vertex 4.92705 1.14682 0
    endloop
  endfacet
  facet normal 0 0 -1
    outer loop
      vertex 8 0 0
      vertex 4.56213 1.05313 0
      vertex 4.74606 1.09424 0
    endloop
  endfacet
  facet normal 0 0 -1
    outer loop
      vertex 8 0 0
      vertex 4.37599 1.02365 0
      vertex 4.56213 1.05313 0
    endloop
  endfacet
  facet normal 0 0 -1
    outer loop
      vertex 8 0 0
      vertex 4.18837 1.00591 0
      vertex 4.37599 1.02365 0
    endloop
  endfacet
  facet normal 0 -0 1
    outer loop
      vertex 3.25392 6.90575 3
      vertex 3.43785 6.94685 3
      vertex 0 8 3
    endloop
  endfacet
  facet normal -0 0 1
    outer loop
      vertex 6.90575 4.74606 3
      vertex 6.94685 4.56213 3
      vertex 8 8 3
    endloop
  endfacet
  facet normal 0 0 1
    outer loop
      vertex 4.18837 1.00591 3
      vertex 3.99998 1 3
      vertex 8 0 3
    endloop
  endfacet
  facet normal 0 0 1
    outer loop
      vertex 0 0 3
      vertex 8 0 3
      vertex 3.99998 1 3
    endloop
  endfacet
  facet normal 0 0 1
    outer loop
      vertex 0 0 3
      vertex 3.99998 1 3
      vertex 3.81161 1.00591 3
    endloop
  endfacet
  facet normal 0 0 1
    outer loop
      vertex 0 0 3
      vertex 3.81161 1.00591 3
      vertex 3.62399 1.02365 3
    endloop
  endfacet
  facet normal 0 0 1
    outer loop
      vertex 0 0 3
      vertex 3.62399 1.02365 3
      vertex 3.43785 1.05313 3
    endloop
  endfacet
  facet normal 0 0 1
    outer loop
      vertex 0 0 3
      vertex 3.43785 1.05313 3
      vertex 3.25392 1.09424 3
    endloop
  endfacet
  facet normal 0 0 1
    outer loop
      vertex 0 0 3
      vertex 3.25392 1.09424 3
      vertex 3.07294 1.14682 3
    endloop
  endfacet
  facet normal 0 0 1
    outer loop
      vertex 0 0 3
      vertex 3.07294 1.14682 3
      vertex 2.89561 1.21066 3
    endloop
  endfacet
  facet normal 0 0 1
    outer loop
      vertex 0 0 3
      vertex 2.89561 1.21066 3
      vertex 2.72266 1.28551 3
    endloop
  endfacet
  facet normal 0 0 1
    outer loop
      vertex 0 0 3
      vertex 2.72266 1.28551 3
      vertex 2.55473 1.37108 3
    endloop
  endfacet
  facet normal 0 0 1
    outer loop
      vertex 0 0 3
      vertex 2.55473 1.37108 3
      vertex 2.39252 1.46701 3
    endloop
  endfacet
  facet normal 0 0 1
    outer loop
      vertex 0 0 3
      vertex 2.39252 1.46701 3
      vertex 2.23663 1.57294 3
    endloop
  endfacet
  facet normal 0 0 1
    outer loop
      vertex 0 0 3
      vertex 2.23663 1.57294 3
      vertex 2.08772 1.68845 3
    endloop
  endfacet
  facet normal 0 0 1
    outer loop
      vertex 0 0 3
      vertex 2.08772 1.68845 3
      vertex 1.94635 1.81308 3
    endloop
  endfacet
  facet normal 0 0 1
    outer loop
      vertex 0 0 3
      vertex 1.94635 1.81308 3
      vertex 1.81308 1.94635 3
    endloop
  endfacet
  facet normal 0 0 1
    outer loop
      vertex 0 0 3
      vertex 1.81308 1.94635 3
      vertex 1.68845 2.08772 3
    endloop
  endfacet
  facet normal 0 0 1
    outer loop
      vertex 0 0 3
      vertex 1.68845 2.08772 3
      vertex 1.57294 2.23663 3
    endloop
  endfacet
  facet normal 0 0 1
    outer loop
      vertex 0 0 3
      vertex 1.57294 2.23663 3
      vertex 1.46701 2.39252 3
    endloop
  endfacet
  facet normal 0 0 1
    outer loop
      vertex 0 0 3
      vertex 1.46701 2.39252 3
      vertex 1.37108 2.55473 3
    endloop
  endfacet
  facet normal 0 0 1
    outer loop
      vertex 0 0 3
      vertex 1.37108 2.55473 3
      vertex 1.28551 2.72266 3
    endloop
  endfacet
  facet normal 0 0 1
    outer loop
      vertex 0 0 3
      vertex 1.28551 2.72266 3
      vertex 1.21066 2.89561 3
    endloop
  endfacet
  facet normal 0 0 1
    outer loop
      vertex 0 0 3
      vertex 1.21066 2.89561 3
      vertex 1.14682 3.07294 3
    endloop
  endfacet
  facet normal 0 0 1
    outer loop
      vertex 0 0 3
      vertex 1.09424 3.25392 3
      vertex 1.05313 3.43785 3
    endloop
  endfacet
  facet normal 0 0 1
    outer loop
      vertex 0 0 3
      vertex 1.14682 3.07294 3
      vertex 1.09424 3.25392 3
    endloop
  endfacet
  facet normal 0 0 1
    outer loop
      vertex 0 0 3
      vertex 1.05313 3.43785 3
      vertex 1.02365 3.62399 3
    endloop
  endfacet
  facet normal 0 0 1
    outer loop
      vertex 0 0 3
      vertex 1.02365 3.62399 3
      vertex 1.00591 3.81161 3
    endloop
  endfacet
  facet normal 0 0 1
    outer loop
      vertex 0 0 3
      vertex 1.00591 3.81161 3
      vertex 1 4 3
    endloop
  endfacet
  facet normal 0 0 1
    outer loop
      vertex 0 0 3
      vertex 1 4 3
      vertex 0 8 3
    endloop
  endfacet
  facet normal 0 -0 1
    outer loop
      vertex 1 4 3
      vertex 1.00591 4.18837 3
      vertex 0 8 3
    endloop
  endfacet
  facet normal 0 -0 1
    outer loop
      vertex 1.00591 4.18837 3
      vertex 1.02365 4.37599 3
      vertex 0 8 3
    endloop
  endfacet
  facet normal 0 -0 1
    outer loop
      vertex 1.02365 4.37599 3
      vertex 1.05313 4.56213 3
      vertex 0 8 3
    endloop
  endfacet
  facet normal 0 -0 1
    outer loop
      vertex 1.05313 4.56213 3
      vertex 1.09424 4.74606 3
      vertex 0 8 3
    endloop
  endfacet
  facet normal 0 -0 1
    outer loop
      vertex 1.09424 4.74606 3
      vertex 1.14682 4.92705 3
      vertex 0 8 3
    endloop
  endfacet
  facet normal 0 -0 1
    outer loop
      vertex 1.14682 4.92705 3
      vertex 1.21066 5.10437 3
      vertex 0 8 3
    endloop
  endfacet
  facet normal 0 -0 1
    outer loop
      vertex 1.21066 5.10437 3
      vertex 1.28551 5.27733 3
      vertex 0 8 3
    endloop
  endfacet
  facet normal 0 -0 1
    outer loop
      vertex 1.28551 5.27733 3
      vertex 1.37108 5.44525 3
      vertex 0 8 3
    endloop
  endfacet
  facet normal 0 -0 1
    outer loop
      vertex 1.37108 5.44525 3
      vertex 1.46701 5.60747 3
      vertex 0 8 3
    endloop
  endfacet
  facet normal 0 -0 1
    outer loop
      vertex 1.46701 5.60747 3
      vertex 1.57294 5.76335 3
      vertex 0 8 3
    endloop
  endfacet
  facet normal 0 -0 1
    outer loop
      vertex 1.57294 5.76335 3
      vertex 1.68845 5.91226 3
      vertex 0 8 3
    endloop
  endfacet
  facet normal 0 -0 1
    outer loop
      vertex 1.68845 5.91226 3
      vertex 1.81308 6.05363 3
      vertex 0 8 3
    endloop
  endfacet
  facet normal 0 -0 1
    outer loop
      vertex 1.81308 6.05363 3
      vertex 1.94635 6.1869 3
      vertex 0 8 3
    endloop
  endfacet
  facet normal 0 -0 1
    outer loop
      vertex 1.94635 6.1869 3
      vertex 2.08772 6.31154 3
      vertex 0 8 3
    endloop
  endfacet
  facet normal 0 -0 1
    outer loop
      vertex 2.08772 6.31154 3
      vertex 2.23663 6.42705 3
      vertex 0 8 3
    endloop
  endfacet
  facet normal 0 -0 1
    outer loop
      vertex 2.23663 6.42705 3
      vertex 2.39252 6.53297 3
      vertex 0 8 3
    endloop
  endfacet
  facet normal 0 -0 1
    outer loop
      vertex 2.39252 6.53297 3
      vertex 2.55473 6.62891 3
      vertex 0 8 3
    endloop
  endfacet
  facet normal 0 -0 1
    outer loop
      vertex 2.55473 6.62891 3
      vertex 2.72266 6.71448 3
      vertex 0 8 3
    endloop
  endfacet
  facet normal 0 -0 1
    outer loop
      vertex 2.72266 6.71448 3
      vertex 2.89561 6.78932 3
      vertex 0 8 3
    endloop
  endfacet
  facet normal 0 -0 1
    outer loop
      vertex 2.89561 6.78932 3
      vertex 3.07294 6.85316 3
      vertex 0 8 3
    endloop
  endfacet
  facet normal 0 -0 1
    outer loop
      vertex 3.07294 6.85316 3
      vertex 3.25392 6.90575 3
      vertex 0 8 3
    endloop
  endfacet
  facet normal 0 0 1
    outer loop
      vertex 0 8 3
      vertex 3.43785 6.94685 3
      vertex 3.62399 6.97633 3
    endloop
  endfacet
  facet normal 0 0 1
    outer loop
      vertex 0 8 3
      vertex 3.62399 6.97633 3
      vertex 3.81161 6.99408 3
    endloop
  endfacet
  facet normal 0 0 1
    outer loop
      vertex 0 8 3
      vertex 3.81161 6.99408 3
      vertex 4 7 3
    endloop
  endfacet
  facet normal -0 0 1
    outer loop
      vertex 0 8 3
      vertex 4 7 3
      vertex 8 8 3
    endloop
  endfacet
  facet normal -0 0 1
    outer loop
      vertex 4 7 3
      vertex 4.18837 6.99408 3
      vertex 8 8 3
    endloop
  endfacet
  facet normal -0 0 1
    outer loop
      vertex 4.18837 6.99408 3
      vertex 4.37599 6.97633 3
      vertex 8 8 3
    endloop
  endfacet
  facet normal -0 0 1
    outer loop
      vertex 4.37599 6.97633 3
      vertex 4.56213 6.94685 3
      vertex 8 8 3
    endloop
  endfacet
  facet normal -0 0 1
    outer loop
      vertex 4.56213 6.94685 3
      vertex 4.74606 6.90575 3
      vertex 8 8 3
    endloop
  endfacet
  facet normal -0 0 1
    outer loop
      vertex 4.74606 6.90575 3
      vertex 4.92705 6.85316 3
      vertex 8 8 3
    endloop
  endfacet
  facet normal -0 0 1
    outer loop
      vertex 4.92705 6.85316 3
      vertex 5.10437 6.78932 3
      vertex 8 8 3
    endloop
  endfacet
  facet normal -0 0 1
    outer loop
      vertex 5.10437 6.78932 3
      vertex 5.27733 6.71448 3
      vertex 8 8 3
    endloop
  endfacet
  facet normal -0 0 1
    outer loop
      vertex 5.27733 6.71448 3
      vertex 5.44525 6.62891 3
      vertex 8 8 3
    endloop
  endfacet
  facet normal -0 0 1
    outer loop
      vertex 5.44525 6.62891 3
      vertex 5.60747 6.53297 3
      vertex 8 8 3
    endloop
  endfacet
  facet normal -0 0 1
    outer loop
      vertex 5.60747 6.53297 3
      vertex 5.76335 6.42705 3
      vertex 8 8 3
    endloop
  endfacet
  facet normal -0 0 1
    outer loop
      vertex 5.76335 6.42705 3
      vertex 5.91226 6.31154 3
      vertex 8 8 3
    endloop
  endfacet
  facet normal -0 0 1
    outer loop
      vertex 5.91226 6.31154 3
      vertex 6.05363 6.1869 3
      vertex 8 8 3
    endloop
  endfacet
  facet normal -0 0 1
    outer loop
      vertex 6.05363 6.1869 3
      vertex 6.1869 6.05363 3
      vertex 8 8 3
    endloop
  endfacet
  facet normal -0 0 1
    outer loop
      vertex 6.1869 6.05363 3
      vertex 6.31154 5.91226 3
      vertex 8 8 3
    endloop
  endfacet
  facet normal -0 0 1
    outer loop
      vertex 6.31154 5.91226 3
      vertex 6.42705 5.76335 3
      vertex 8 8 3
    endloop
  endfacet
  facet normal -0 0 1
    outer loop
      vertex 6.42705 5.76335 3
      vertex 6.53297 5.60747 3
      vertex 8 8 3
    endloop
  endfacet
  facet normal -0 0 1
    outer loop
      vertex 6.53297 5.60747 3
      vertex 6.62891 5.44525 3
      vertex 8 8 3
    endloop
  endfacet
  facet normal -0 0 1
    outer loop
      vertex 6.62891 5.44525 3
      vertex 6.71448 5.27733 3
      vertex 8 8 3
    endloop
  endfacet
  facet normal -0 0 1
    outer loop
      vertex 6.71448 5.27733 3
      vertex 6.78932 5.10437 3
      vertex 8 8 3
    endloop
  endfacet
  facet normal -0 0 1
    outer loop
      vertex 6.78932 5.10437 3
      vertex 6.85316 4.92705 3
      vertex 8 8 3
    endloop
  endfacet
  facet normal -0 0 1
    outer loop
      vertex 6.85316 4.92705 3
      vertex 6.90575 4.74606 3
      vertex 8 8 3
    endloop
  endfacet
  facet normal 0 0 1
    outer loop
      vertex 8 8 3
      vertex 6.94685 4.56213 3
      vertex 6.97633 4.37599 3
    endloop
  endfacet
  facet normal 0 0 1
    outer loop
      vertex 8 8 3
      vertex 6.97633 4.37599 3
      vertex 6.99408 4.18837 3
    endloop
  endfacet
  facet normal 0 0 1
    outer loop
      vertex 8 8 3
      vertex 6.99408 4.18837 3
      vertex 7 4 3
    endloop
  endfacet
  facet normal 0 0 1
    outer loop
      vertex 8 8 3
      vertex 7 4 3
      vertex 8 0 3
    endloop
  endfacet
  facet normal 0 0 1
    outer loop
      vertex 7 4 3
      vertex 6.99408 3.81161 3
      vertex 8 0 3
    endloop
  endfacet
  facet normal 0 0 1
    outer loop
      vertex 6.99408 3.81161 3
      vertex 6.97633 3.62399 3
      vertex 8 0 3
    endloop
  endfacet
  facet normal 0 0 1
    outer loop
      vertex 6.97633 3.62399 3
      vertex 6.94685 3.43785 3
      vertex 8 0 3
    endloop
  endfacet
  facet normal 0 0 1
    outer loop
      vertex 6.94685 3.43785 3
      vertex 6.90575 3.25392 3
      vertex 8 0 3
    endloop
  endfacet
  facet normal 0 0 1
    outer loop
      vertex 6.90575 3.25392 3
      vertex 6.85316 3.07294 3
      vertex 8 0 3
    endloop
  endfacet
  facet normal 0 0 1
    outer loop
      vertex 6.85316 3.07294 3
      vertex 6.78932 2.89561 3
      vertex 8 0 3
    endloop
  endfacet
  facet normal 0 0 1
    outer loop
      vertex 6.78932 2.89561 3
      vertex 6.71448 2.72266 3
      vertex 8 0 3
    endloop
  endfacet
  facet normal 0 0 1
    outer loop
      vertex 6.71448 2.72266 3
      vertex 6.62891 2.55473 3
      vertex 8 0 3
    endloop
  endfacet
  facet normal 0 0 1
    outer loop
      vertex 6.62891 2.55473 3
      vertex 6.53297 2.39252 3
      vertex 8 0 3
    endloop
  endfacet
  facet normal 0 0 1
    outer loop
      vertex 6.53297 2.39252 3
      vertex 6.42705 2.23663 3
      vertex 8 0 3
    endloop
  endfacet
  facet normal 0 0 1
    outer loop
      vertex 6.42705 2.23663 3
      vertex 6.31154 2.08772 3
      vertex 8 0 3
    endloop
  endfacet
  facet normal 0 0 1
    outer loop
      vertex 6.31154 2.08772 3
      vertex 6.1869 1.94635 3
      vertex 8 0 3
    endloop
  endfacet
  facet normal 0 0 1
    outer loop
      vertex 6.1869 1.94635 3
      vertex 6.05363 1.81308 3
      vertex 8 0 3
    endloop
  endfacet
  facet normal 0 0 1
    outer loop
      vertex 6.05363 1.81308 3
      vertex 5.91226 1.68845 3
      vertex 8 0 3
    endloop
  endfacet
  facet normal 0 0 1
    outer loop
      vertex 5.91226 1.68845 3
      vertex 5.76335 1.57294 3
      vertex 8 0 3
    endloop
  endfacet
  facet normal 0 0 1
    outer loop
      vertex 5.76335 1.57294 3
      vertex 5.60747 1.46701 3
      vertex 8 0 3
    endloop
  endfacet
  facet normal 0 0 1
    outer loop
      vertex 5.60747 1.46701 3
      vertex 5.44525 1.37108 3
      vertex 8 0 3
    endloop
  endfacet
  facet normal 0 0 1
    outer loop
      vertex 5.44525 1.37108 3
      vertex 5.27733 1.28551 3
      vertex 8 0 3
    endloop
  endfacet
  facet normal 0 0 1
    outer loop
      vertex 5.27733 1.28551 3
      vertex 5.10437 1.21066 3
      vertex 8 0 3
    endloop
  endfacet
  facet normal 0 0 1
    outer loop
      vertex 5.10437 1.21066 3
      vertex 4.92705 1.14682 3
      vertex 8 0 3
    endloop
  endfacet
  facet normal 0 0 1
    outer loop
      vertex 4.92705 1.14682 3
      vertex 4.74606 1.09424 3
      vertex 8 0 3
    endloop
  endfacet
  facet normal 0 0 1
    outer loop
      vertex 4.74606 1.09424 3
      vertex 4.56213 1.05313 3
      vertex 8 0 3
    endloop
  endfacet
  facet normal 0 0 1
    outer loop
      vertex 4.56213 1.05313 3
      vertex 4.37599 1.02365 3
      vertex 8 0 3
    endloop
  endfacet
  facet normal 0 0 1
    outer loop
      vertex 4.37599 1.02365 3
      vertex 4.18837 1.00591 3
      vertex 8 0 3
    endloop
  endfacet
  facet normal 0 1 0
    outer loop
      vertex 0 8 0
      vertex 8 8 3
      vertex 8 8 0
    endloop
  endfacet
  facet normal 0 1 0
    outer loop
      vertex 0 8 0
      vertex 0 8 3
      vertex 8 8 3
    endloop
  endfacet
  facet normal -1 0 0
    outer loop
      vertex 0 0 0
      vertex 0 8 3
      vertex 0 8 0
    endloop
  endfacet
  facet normal -1 0 0
    outer loop
      vertex 0 0 0
      vertex 0 0 3
      vertex 0 8 3
    endloop
  endfacet
  facet normal 0 -1 0
    outer loop
      vertex 8 0 0
      vertex 0 0 3
      vertex 0 0 0
    endloop
  endfacet
  facet normal 0 -1 0
    outer loop
      vertex 8 0 0
      vertex 8 0 3
      vertex 0 0 3
    endloop
  endfacet
  facet normal 1 0 0
    outer loop
      vertex 8 8 0
      vertex 8 0 3
      vertex 8 0 0
    endloop
  endfacet
  facet normal 1 0 -0
    outer loop
      vertex 8 8 0
      vertex 8 8 3
      vertex 8 0 3
    endloop
  endfacet
  facet normal 0.0941633 0.995557 -0
    outer loop
      vertex 3.62399 1.02365 0
      vertex 3.62399 1.02365 3
      vertex 3.81161 1.00591 0
    endloop
  endfacet
  facet normal 0.0941633 0.995557 0
    outer loop
      vertex 3.81161 1.00591 3
      vertex 3.81161 1.00591 0
      vertex 3.62399 1.02365 3
    endloop
  endfacet
  facet normal 0.156424 0.98769 -0
    outer loop
      vertex 3.43785 1.05313 0
      vertex 3.43785 1.05313 3
      vertex 3.62399 1.02365 0
    endloop
  endfacet
  facet normal 0.156424 0.98769 0
    outer loop
      vertex 3.62399 1.02365 3
      vertex 3.62399 1.02365 0
      vertex 3.43785 1.05313 3
    endloop
  endfacet
  facet normal 0.218113 0.975923 -0
    outer loop
      vertex 3.25392 1.09424 0
      vertex 3.25392 1.09424 3
      vertex 3.43785 1.05313 0
    endloop
  endfacet
  facet normal 0.218113 0.975923 0
    outer loop
      vertex 3.43785 1.05313 3
      vertex 3.43785 1.05313 0
      vertex 3.25392 1.09424 3
    endloop
  endfacet
  facet normal 0.278996 0.960292 -0
    outer loop
      vertex 3.07294 1.14682 0
      vertex 3.07294 1.14682 3
      vertex 3.25392 1.09424 0
    endloop
  endfacet
  facet normal 0.278996 0.960292 0
    outer loop
      vertex 3.25392 1.09424 3
      vertex 3.25392 1.09424 0
      vertex 3.07294 1.14682 3
    endloop
  endfacet
  facet normal 0.338751 0.940876 -0
    outer loop
      vertex 2.89561 1.21066 0
      vertex 2.89561 1.21066 3
      vertex 3.07294 1.14682 0
    endloop
  endfacet
  facet normal 0.338751 0.940876 0
    outer loop
      vertex 3.07294 1.14682 3
      vertex 3.07294 1.14682 0
      vertex 2.89561 1.21066 3
    endloop
  endfacet
  facet normal 0.397142 0.917757 -0
    outer loop
      vertex 2.72266 1.28551 0
      vertex 2.72266 1.28551 3
      vertex 2.89561 1.21066 0
    endloop
  endfacet
  facet normal 0.397142 0.917757 0
    outer loop
      vertex 2.89561 1.21066 3
      vertex 2.89561 1.21066 0
      vertex 2.72266 1.28551 3
    endloop
  endfacet
  facet normal 0.454034 0.890985 -0
    outer loop
      vertex 2.55473 1.37108 0
      vertex 2.55473 1.37108 3
      vertex 2.72266 1.28551 0
    endloop
  endfacet
  facet normal 0.454034 0.890985 0
    outer loop
      vertex 2.72266 1.28551 3
      vertex 2.72266 1.28551 0
      vertex 2.55473 1.37108 3
    endloop
  endfacet
  facet normal 0.509032 0.860748 -0
    outer loop
      vertex 2.39252 1.46701 0
      vertex 2.39252 1.46701 3
      vertex 2.55473 1.37108 0
    endloop
  endfacet
  facet normal 0.509032 0.860748 0
    outer loop
      vertex 2.55473 1.37108 3
      vertex 2.55473 1.37108 0
      vertex 2.39252 1.46701 3
    endloop
  endfacet
  facet normal 0.56204 0.82711 -0
    outer loop
      vertex 2.23663 1.57294 0
      vertex 2.23663 1.57294 3
      vertex 2.39252 1.46701 0
    endloop
  endfacet
  facet normal 0.56204 0.82711 0
    outer loop
      vertex 2.39252 1.46701 3
      vertex 2.39252 1.46701 0
      vertex 2.23663 1.57294 3
    endloop
  endfacet
  facet normal 0.612914 0.790149 -0
    outer loop
      vertex 2.08772 1.68845 0
      vertex 2.08772 1.68845 3
      vertex 2.23663 1.57294 0
    endloop
  endfacet
  facet normal 0.612914 0.790149 0
    outer loop
      vertex 2.23663 1.57294 3
      vertex 2.23663 1.57294 0
      vertex 2.08772 1.68845 3
    endloop
  endfacet
  facet normal 0.661303 0.750119 -0
    outer loop
      vertex 1.94635 1.81308 0
      vertex 1.94635 1.81308 3
      vertex 2.08772 1.68845 0
    endloop
  endfacet
  facet normal 0.661303 0.750119 0
    outer loop
      vertex 2.08772 1.68845 3
      vertex 2.08772 1.68845 0
      vertex 1.94635 1.81308 3
    endloop
  endfacet
  facet normal 0.707107 0.707107 -0
    outer loop
      vertex 1.81308 1.94635 0
      vertex 1.81308 1.94635 3
      vertex 1.94635 1.81308 0
    endloop
  endfacet
  facet normal 0.707107 0.707107 0
    outer loop
      vertex 1.94635 1.81308 3
      vertex 1.94635 1.81308 0
      vertex 1.81308 1.94635 3
    endloop
  endfacet
  facet normal 0.750119 0.661303 -0
    outer loop
      vertex 1.68845 2.08772 0
      vertex 1.68845 2.08772 3
      vertex 1.81308 1.94635 0
    endloop
  endfacet
  facet normal 0.750119 0.661303 0
    outer loop
      vertex 1.81308 1.94635 3
      vertex 1.81308 1.94635 0
      vertex 1.68845 2.08772 3
    endloop
  endfacet
  facet normal 0.790149 0.612914 -0
    outer loop
      vertex 1.57294 2.23663 0
      vertex 1.57294 2.23663 3
      vertex 1.68845 2.08772 0
    endloop
  endfacet
  facet normal 0.790149 0.612914 0
    outer loop
      vertex 1.68845 2.08772 3
      vertex 1.68845 2.08772 0
      vertex 1.57294 2.23663 3
    endloop
  endfacet
  facet normal 0.82711 0.56204 -0
    outer loop
      vertex 1.46701 2.39252 0
      vertex 1.46701 2.39252 3
      vertex 1.57294 2.23663 0
    endloop
  endfacet
  facet normal 0.82711 0.56204 0
    outer loop
      vertex 1.57294 2.23663 3
      vertex 1.57294 2.23663 0
      vertex 1.46701 2.39252 3
    endloop
  endfacet
  facet normal 0.860748 0.509032 -0
    outer loop
      vertex 1.37108 2.55473 0
      vertex 1.37108 2.55473 3
      vertex 1.46701 2.39252 0
    endloop
  endfacet
  facet normal 0.860748 0.509032 0
    outer loop
      vertex 1.46701 2.39252 3
      vertex 1.46701 2.39252 0
      vertex 1.37108 2.55473 3
    endloop
  endfacet
  facet normal 0.890985 0.454034 -0
    outer loop
      vertex 1.28551 2.72266 0
      vertex 1.28551 2.72266 3
      vertex 1.37108 2.55473 0
    endloop
  endfacet
  facet normal 0.890985 0.454034 0
    outer loop
      vertex 1.37108 2.55473 3
      vertex 1.37108 2.55473 0
      vertex 1.28551 2.72266 3
    endloop
  endfacet
  facet normal 0.917757 0.397142 -0
    outer loop
      vertex 1.21066 2.89561 0
      vertex 1.21066 2.89561 3
      vertex 1.28551 2.72266 0
    endloop
  endfacet
  facet normal 0.917757 0.397142 0
    outer loop
      vertex 1.28551 2.72266 3
      vertex 1.28551 2.72266 0
      vertex 1.21066 2.89561 3
    endloop
  endfacet
  facet normal 0.940876 0.338751 -0
    outer loop
      vertex 1.14682 3.07294 0
      vertex 1.14682 3.07294 3
      vertex 1.21066 2.89561 0
    endloop
  endfacet
  facet normal 0.940876 0.338751 0
    outer loop
      vertex 1.21066 2.89561 3
      vertex 1.21066 2.89561 0
      vertex 1.14682 3.07294 3
    endloop
  endfacet
  facet normal 0.960292 0.278996 -0
    outer loop
      vertex 1.09424 3.25392 0
      vertex 1.09424 3.25392 3
      vertex 1.14682 3.07294 0
    endloop
  endfacet
  facet normal 0.960292 0.278996 0
    outer loop
      vertex 1.14682 3.07294 3
      vertex 1.14682 3.07294 0
      vertex 1.09424 3.25392 3
    endloop
  endfacet
  facet normal 0.975923 0.218113 -0
    outer loop
      vertex 1.05313 3.43785 0
      vertex 1.05313 3.43785 3
      vertex 1.09424 3.25392 0
    endloop
  endfacet
  facet normal 0.975923 0.218113 0
    outer loop
      vertex 1.09424 3.25392 3
      vertex 1.09424 3.25392 0
      vertex 1.05313 3.43785 3
    endloop
  endfacet
  facet normal 0.98769 0.156424 -0
    outer loop
      vertex 1.02365 3.62399 0
      vertex 1.02365 3.62399 3
      vertex 1.05313 3.43785 0
    endloop
  endfacet
  facet normal 0.98769 0.156424 0
    outer loop
      vertex 1.05313 3.43785 3
      vertex 1.05313 3.43785 0
      vertex 1.02365 3.62399 3
    endloop
  endfacet
  facet normal 0.995557 0.0941633 -0
    outer loop
      vertex 1.00591 3.81161 0
      vertex 1.00591 3.81161 3
      vertex 1.02365 3.62399 0
    endloop
  endfacet
  facet normal 0.995557 0.0941633 0
    outer loop
      vertex 1.02365 3.62399 3
      vertex 1.02365 3.62399 0
      vertex 1.00591 3.81161 3
    endloop
  endfacet
  facet normal 0.999509 0.0313308 -0
    outer loop
      vertex 1 4 0
      vertex 1 4 3
      vertex 1.00591 3.81161 0
    endloop
  endfacet
  facet normal 0.999509 0.0313308 0
    outer loop
      vertex 1.00591 3.81161 3
      vertex 1.00591 3.81161 0
      vertex 1 4 3
    endloop
  endfacet
  facet normal 0.999509 -0.0313333 0
    outer loop
      vertex 1.00591 4.18837 0
      vertex 1.00591 4.18837 3
      vertex 1 4 0
    endloop
  endfacet
  facet normal 0.999509 -0.0313333 0
    outer loop
      vertex 1 4 3
      vertex 1 4 0
      vertex 1.00591 4.18837 3
    endloop
  endfacet
  facet normal 0.995557 -0.0941633 0
    outer loop
      vertex 1.02365 4.37599 0
      vertex 1.02365 4.37599 3
      vertex 1.00591 4.18837 0
    endloop
  endfacet
  facet normal 0.995557 -0.0941633 0
    outer loop
      vertex 1.00591 4.18837 3
      vertex 1.00591 4.18837 0
      vertex 1.02365 4.37599 3
    endloop
  endfacet
  facet normal 0.98769 -0.156424 0
    outer loop
      vertex 1.05313 4.56213 0
      vertex 1.05313 4.56213 3
      vertex 1.02365 4.37599 0
    endloop
  endfacet
  facet normal 0.98769 -0.156424 0
    outer loop
      vertex 1.02365 4.37599 3
      vertex 1.02365 4.37599 0
      vertex 1.05313 4.56213 3
    endloop
  endfacet
  facet normal 0.975923 -0.218113 0
    outer loop
      vertex 1.09424 4.74606 0
      vertex 1.09424 4.74606 3
      vertex 1.05313 4.56213 0
    endloop
  endfacet
  facet normal 0.975923 -0.218113 0
    outer loop
      vertex 1.05313 4.56213 3
      vertex 1.05313 4.56213 0
      vertex 1.09424 4.74606 3
    endloop
  endfacet
  facet normal 0.960292 -0.278996 0
    outer loop
      vertex 1.14682 4.92705 0
      vertex 1.14682 4.92705 3
      vertex 1.09424 4.74606 0
    endloop
  endfacet
  facet normal 0.960292 -0.278996 0
    outer loop
      vertex 1.09424 4.74606 3
      vertex 1.09424 4.74606 0
      vertex 1.14682 4.92705 3
    endloop
  endfacet
  facet normal 0.940876 -0.338751 0
    outer loop
      vertex 1.21066 5.10437 0
      vertex 1.21066 5.10437 3
      vertex 1.14682 4.92705 0
    endloop
  endfacet
  facet normal 0.940876 -0.338751 0
    outer loop
      vertex 1.14682 4.92705 3
      vertex 1.14682 4.92705 0
      vertex 1.21066 5.10437 3
    endloop
  endfacet
  facet normal 0.917757 -0.397142 0
    outer loop
      vertex 1.28551 5.27733 0
      vertex 1.28551 5.27733 3
      vertex 1.21066 5.10437 0
    endloop
  endfacet
  facet normal 0.917757 -0.397142 0
    outer loop
      vertex 1.21066 5.10437 3
      vertex 1.21066 5.10437 0
      vertex 1.28551 5.27733 3
    endloop
  endfacet
  facet normal 0.890985 -0.454034 0
    outer loop
      vertex 1.37108 5.44525 0
      vertex 1.37108 5.44525 3
      vertex 1.28551 5.27733 0
    endloop
  endfacet
  facet normal 0.890985 -0.454034 0
    outer loop
      vertex 1.28551 5.27733 3
      vertex 1.28551 5.27733 0
      vertex 1.37108 5.44525 3
    endloop
  endfacet
  facet normal 0.860748 -0.509032 0
    outer loop
      vertex 1.46701 5.60747 0
      vertex 1.46701 5.60747 3
      vertex 1.37108 5.44525 0
    endloop
  endfacet
  facet normal 0.860748 -0.509032 0
    outer loop
      vertex 1.37108 5.44525 3
      vertex 1.37108 5.44525 0
      vertex 1.46701 5.60747 3
    endloop
  endfacet
  facet normal 0.82711 -0.56204 0
    outer loop
      vertex 1.57294 5.76335 0
      vertex 1.57294 5.76335 3
      vertex 1.46701 5.60747 0
    endloop
  endfacet
  facet normal 0.82711 -0.56204 0
    outer loop
      vertex 1.46701 5.60747 3
      vertex 1.46701 5.60747 0
      vertex 1.57294 5.76335 3
    endloop
  endfacet
  facet normal 0.790149 -0.612914 0
    outer loop
      vertex 1.68845 5.91226 0
      vertex 1.68845 5.91226 3
      vertex 1.57294 5.76335 0
    endloop
  endfacet
  facet normal 0.790149 -0.612914 0
    outer loop
      vertex 1.57294 5.76335 3
      vertex 1.57294 5.76335 0
      vertex 1.68845 5.91226 3
    endloop
  endfacet
  facet normal 0.750119 -0.661303 0
    outer loop
      vertex 1.81308 6.05363 0
      vertex 1.81308 6.05363 3
      vertex 1.68845 5.91226 0
    endloop
  endfacet
  facet normal 0.750119 -0.661303 0
    outer loop
      vertex 1.68845 5.91226 3
      vertex 1.68845 5.91226 0
      vertex 1.81308 6.05363 3
    endloop
  endfacet
  facet normal 0.707107 -0.707107 0
    outer loop
      vertex 1.94635 6.1869 0
      vertex 1.94635 6.1869 3
      vertex 1.81308 6.05363 0
    endloop
  endfacet
  facet normal 0.707107 -0.707107 0
    outer loop
      vertex 1.81308 6.05363 3
      vertex 1.81308 6.05363 0
      vertex 1.94635 6.1869 3
    endloop
  endfacet
  facet normal 0.661303 -0.750119 0
    outer loop
      vertex 2.08772 6.31154 0
      vertex 2.08772 6.31154 3
      vertex 1.94635 6.1869 0
    endloop
  endfacet
  facet normal 0.661303 -0.750119 0
    outer loop
      vertex 1.94635 6.1869 3
      vertex 1.94635 6.1869 0
      vertex 2.08772 6.31154 3
    endloop
  endfacet
  facet normal 0.612914 -0.790149 0
    outer loop
      vertex 2.23663 6.42705 0
      vertex 2.23663 6.42705 3
      vertex 2.08772 6.31154 0
    endloop
  endfacet
  facet normal 0.612914 -0.790149 0
    outer loop
      vertex 2.08772 6.31154 3
      vertex 2.08772 6.31154 0
      vertex 2.23663 6.42705 3
    endloop
  endfacet
  facet normal 0.56204 -0.82711 0
    outer loop
      vertex 2.39252 6.53297 0
      vertex 2.39252 6.53297 3
      vertex 2.23663 6.42705 0
    endloop
  endfacet
  facet normal 0.56204 -0.82711 0
    outer loop
      vertex 2.23663 6.42705 3
      vertex 2.23663 6.42705 0
      vertex 2.39252 6.53297 3
    endloop
  endfacet
  facet normal 0.509032 -0.860748 0
    outer loop
      vertex 2.55473 6.62891 0
      vertex 2.55473 6.62891 3
      vertex 2.39252 6.53297 0
    endloop
  endfacet
  facet normal 0.509032 -0.860748 0
    outer loop
      vertex 2.39252 6.53297 3
      vertex 2.39252 6.53297 0
      vertex 2.55473 6.62891 3
    endloop
  endfacet
  facet normal 0.454034 -0.890985 0
    outer loop
      vertex 2.72266 6.71448 0
      vertex 2.72266 6.71448 3
      vertex 2.55473 6.62891 0
    endloop
  endfacet
  facet normal 0.454034 -0.890985 0
    outer loop
      vertex 2.55473 6.62891 3
      vertex 2.55473 6.62891 0
      vertex 2.72266 6.71448 3
    endloop
  endfacet
  facet normal 0.397142 -0.917757 0
    outer loop
      vertex 2.89561 6.78932 0
      vertex 2.89561 6.78932 3
      vertex 2.72266 6.71448 0
    endloop
  endfacet
  facet normal 0.397142 -0.917757 0
    outer loop
      vertex 2.72266 6.71448 3
      vertex 2.72266 6.71448 0
      vertex 2.89561 6.78932 3
    endloop
  endfacet
  facet normal 0.338751 -0.940876 0
    outer loop
      vertex 3.07294 6.85316 0
      vertex 3.07294 6.85316 3
      vertex 2.89561 6.78932 0
    endloop
  endfacet
  facet normal 0.338751 -0.940876 0
    outer loop
      vertex 2.89561 6.78932 3
      vertex 2.89561 6.78932 0
      vertex 3.07294 6.85316 3
    endloop
  endfacet
  facet normal 0.278996 -0.960292 0
    outer loop
      vertex 3.25392 6.90575 0
      vertex 3.25392 6.90575 3
      vertex 3.07294 6.85316 0
    endloop
  endfacet
  facet normal 0.278996 -0.960292 0
    outer loop
      vertex 3.07294 6.85316 3
      vertex 3.07294 6.85316 0
      vertex 3.25392 6.90575 3
    endloop
  endfacet
  facet normal 0.218113 -0.975923 0
    outer loop
      vertex 3.43785 6.94685 0
      vertex 3.43785 6.94685 3
      vertex 3.25392 6.90575 0
    endloop
  endfacet
  facet normal 0.218113 -0.975923 0
    outer loop
      vertex 3.25392 6.90575 3
      vertex 3.25392 6.90575 0
      vertex 3.43785 6.94685 3
    endloop
  endfacet
  facet normal 0.156424 -0.98769 0
    outer loop
      vertex 3.62399 6.97633 0
      vertex 3.62399 6.97633 3
      vertex 3.43785 6.94685 0
    endloop
  endfacet
  facet normal 0.156424 -0.98769 0
    outer loop
      vertex 3.43785 6.94685 3
      vertex 3.43785 6.94685 0
      vertex 3.62399 6.97633 3
    endloop
  endfacet
  facet normal 0.0941633 -0.995557 0
    outer loop
      vertex 3.81161 6.99408 0
      vertex 3.81161 6.99408 3
      vertex 3.62399 6.97633 0
    endloop
  endfacet
  facet normal 0.0941633 -0.995557 0
    outer loop
      vertex 3.62399 6.97633 3
      vertex 3.62399 6.97633 0
      vertex 3.81161 6.99408 3
    endloop
  endfacet
  facet normal 0.0314117 -0.999507 0
    outer loop
      vertex 4 7 0
      vertex 4 7 3
      vertex 3.81161 6.99408 0
    endloop
  endfacet
  facet normal 0.0314117 -0.999507 0
    outer loop
      vertex 3.81161 6.99408 3
      vertex 3.81161 6.99408 0
      vertex 4 7 3
    endloop
  endfacet
  facet normal -0.0314142 -0.999506 0
    outer loop
      vertex 4.18837 6.99408 0
      vertex 4.18837 6.99408 3
      vertex 4 7 0
    endloop
  endfacet
  facet normal -0.0314142 -0.999506 -0
    outer loop
      vertex 4 7 3
      vertex 4 7 0
      vertex 4.18837 6.99408 3
    endloop
  endfacet
  facet normal -0.0941633 -0.995557 0
    outer loop
      vertex 4.37599 6.97633 0
      vertex 4.37599 6.97633 3
      vertex 4.18837 6.99408 0
    endloop
  endfacet
  facet normal -0.0941633 -0.995557 -0
    outer loop
      vertex 4.18837 6.99408 3
      vertex 4.18837 6.99408 0
      vertex 4.37599 6.97633 3
    endloop
  endfacet
  facet normal -0.156424 -0.98769 0
    outer loop
      vertex 4.56213 6.94685 0
      vertex 4.56213 6.94685 3
      vertex 4.37599 6.97633 0
    endloop
  endfacet
  facet normal -0.156424 -0.98769 -0
    outer loop
      vertex 4.37599 6.97633 3
      vertex 4.37599 6.97633 0
      vertex 4.56213 6.94685 3
    endloop
  endfacet
  facet normal -0.218113 -0.975923 0
    outer loop
      vertex 4.74606 6.90575 0
      vertex 4.74606 6.90575 3
      vertex 4.56213 6.94685 0
    endloop
  endfacet
  facet normal -0.218113 -0.975923 -0
    outer loop
      vertex 4.56213 6.94685 3
      vertex 4.56213 6.94685 0
      vertex 4.74606 6.90575 3
    endloop
  endfacet
  facet normal -0.278996 -0.960292 0
    outer loop
      vertex 4.92705 6.85316 0
      vertex 4.92705 6.85316 3
      vertex 4.74606 6.90575 0
    endloop
  endfacet
  facet normal -0.278996 -0.960292 -0
    outer loop
      vertex 4.74606 6.90575 3
      vertex 4.74606 6.90575 0
      vertex 4.92705 6.85316 3
    endloop
  endfacet
  facet normal -0.338751 -0.940876 0
    outer loop
      vertex 5.10437 6.78932 0
      vertex 5.10437 6.78932 3
      vertex 4.92705 6.85316 0
    endloop
  endfacet
  facet normal -0.338751 -0.940876 -0
    outer loop
      vertex 4.92705 6.85316 3
      vertex 4.92705 6.85316 0
      vertex 5.10437 6.78932 3
    endloop
  endfacet
  facet normal -0.397142 -0.917757 0
    outer loop
      vertex 5.27733 6.71448 0
      vertex 5.27733 6.71448 3
      vertex 5.10437 6.78932 0
    endloop
  endfacet
  facet normal -0.397142 -0.917757 -0
    outer loop
      vertex 5.10437 6.78932 3
      vertex 5.10437 6.78932 0
      vertex 5.27733 6.71448 3
    endloop
  endfacet
  facet normal -0.454034 -0.890985 0
    outer loop
      vertex 5.44525 6.62891 0
      vertex 5.44525 6.62891 3
      vertex 5.27733 6.71448 0
    endloop
  endfacet
  facet normal -0.454034 -0.890985 -0
    outer loop
      vertex 5.27733 6.71448 3
      vertex 5.27733 6.71448 0
      vertex 5.44525 6.62891 3
    endloop
  endfacet
  facet normal -0.509032 -0.860748 0
    outer loop
      vertex 5.60747 6.53297 0
      vertex 5.60747 6.53297 3
      vertex 5.44525 6.62891 0
    endloop
  endfacet
  facet normal -0.509032 -0.860748 -0
    outer loop
      vertex 5.44525 6.62891 3
      vertex 5.44525 6.62891 0
      vertex 5.60747 6.53297 3
    endloop
  endfacet
  facet normal -0.56204 -0.82711 0
    outer loop
      vertex 5.76335 6.42705 0
      vertex 5.76335 6.42705 3
      vertex 5.60747 6.53297 0
    endloop
  endfacet
  facet normal -0.56204 -0.82711 -0
    outer loop
      vertex 5.60747 6.53297 3
      vertex 5.60747 6.53297 0
      vertex 5.76335 6.42705 3
    endloop
  endfacet
  facet normal -0.612914 -0.790149 0
    outer loop
      vertex 5.91226 6.31154 0
      vertex 5.91226 6.31154 3
      vertex 5.76335 6.42705 0
    endloop
  endfacet
  facet normal -0.612914 -0.790149 -0
    outer loop
      vertex 5.76335 6.42705 3
      vertex 5.76335 6.42705 0
      vertex 5.91226 6.31154 3
    endloop
  endfacet
  facet normal -0.661303 -0.750119 0
    outer loop
      vertex 6.05363 6.1869 0
      vertex 6.05363 6.1869 3
      vertex 5.91226 6.31154 0
    endloop
  endfacet
  facet normal -0.661303 -0.750119 -0
    outer loop
      vertex 5.91226 6.31154 3
      vertex 5.91226 6.31154 0
      vertex 6.05363 6.1869 3
    endloop
  endfacet
  facet normal -0.707107 -0.707107 0
    outer loop
      vertex 6.1869 6.05363 0
      vertex 6.1869 6.05363 3
      vertex 6.05363 6.1869 0
    endloop
  endfacet
  facet normal -0.707107 -0.707107 -0
    outer loop
      vertex 6.05363 6.1869 3
      vertex 6.05363 6.1869 0
      vertex 6.1869 6.05363 3
    endloop
  endfacet
  facet normal -0.750119 -0.661303 0
    outer loop
      vertex 6.31154 5.91226 0
      vertex 6.31154 5.91226 3
      vertex 6.1869 6.05363 0
    endloop
  endfacet
  facet normal -0.750119 -0.661303 -0
    outer loop
      vertex 6.1869 6.05363 3
      vertex 6.1869 6.05363 0
      vertex 6.31154 5.91226 3
    endloop
  endfacet
  facet normal -0.790149 -0.612914 0
    outer loop
      vertex 6.42705 5.76335 0
      vertex 6.42705 5.76335 3
      vertex 6.31154 5.91226 0
    endloop
  endfacet
  facet normal -0.790149 -0.612914 -0
    outer loop
      vertex 6.31154 5.91226 3
      vertex 6.31154 5.91226 0
      vertex 6.42705 5.76335 3
    endloop
  endfacet
  facet normal -0.82711 -0.56204 0
    outer loop
      vertex 6.53297 5.60747 0
      vertex 6.53297 5.60747 3
      vertex 6.42705 5.76335 0
    endloop
  endfacet
  facet normal -0.82711 -0.56204 -0
    outer loop
      vertex 6.42705 5.76335 3
      vertex 6.42705 5.76335 0
      vertex 6.53297 5.60747 3
    endloop
  endfacet
  facet normal -0.860748 -0.509032 0
    outer loop
      vertex 6.62891 5.44525 0
      vertex 6.62891 5.44525 3
      vertex 6.53297 5.60747 0
    endloop
  endfacet
  facet normal -0.860748 -0.509032 -0
    outer loop
      vertex 6.53297 5.60747 3
      vertex 6.53297 5.60747 0
      vertex 6.62891 5.44525 3
    endloop
  endfacet
  facet normal -0.890985 -0.454034 0
    outer loop
      vertex 6.71448 5.27733 0
      vertex 6.71448 5.27733 3
      vertex 6.62891 5.44525 0
    endloop
  endfacet
  facet normal -0.890985 -0.454034 -0
    outer loop
      vertex 6.62891 5.44525 3
      vertex 6.62891 5.44525 0
      vertex 6.71448 5.27733 3
    endloop
  endfacet
  facet normal -0.917757 -0.397142 0
    outer loop
      vertex 6.78932 5.10437 0
      vertex 6.78932 5.10437 3
      vertex 6.71448 5.27733 0
    endloop
  endfacet
  facet normal -0.917757 -0.397142 -0
    outer loop
      vertex 6.71448 5.27733 3
      vertex 6.71448 5.27733 0
      vertex 6.78932 5.10437 3
    endloop
  endfacet
  facet normal -0.940876 -0.338751 0
    outer loop
      vertex 6.85316 4.92705 0
      vertex 6.85316 4.92705 3
      vertex 6.78932 5.10437 0
    endloop
  endfacet
  facet normal -0.940876 -0.338751 -0
    outer loop
      vertex 6.78932 5.10437 3
      vertex 6.78932 5.10437 0
      vertex 6.85316 4.92705 3
    endloop
  endfacet
  facet normal -0.960292 -0.278996 0
    outer loop
      vertex 6.90575 4.74606 0
      vertex 6.90575 4.74606 3
      vertex 6.85316 4.92705 0
    endloop
  endfacet
  facet normal -0.960292 -0.278996 -0
    outer loop
      vertex 6.85316 4.92705 3
      vertex 6.85316 4.92705 0
      vertex 6.90575 4.74606 3
    endloop
  endfacet
  facet normal -0.975923 -0.218113 0
    outer loop
      vertex 6.94685 4.56213 0
      vertex 6.94685 4.56213 3
      vertex 6.90575 4.74606 0
    endloop
  endfacet
  facet normal -0.975923 -0.218113 -0
    outer loop
      vertex 6.90575 4.74606 3
      vertex 6.90575 4.74606 0
      vertex 6.94685 4.56213 3
    endloop
  endfacet
  facet normal -0.98769 -0.156424 0
    outer loop
      vertex 6.97633 4.37599 0
      vertex 6.97633 4.37599 3
      vertex 6.94685 4.56213 0
    endloop
  endfacet
  facet normal -0.98769 -0.156424 -0
    outer loop
      vertex 6.94685 4.56213 3
      vertex 6.94685 4.56213 0
      vertex 6.97633 4.37599 3
    endloop
  endfacet
  facet normal -0.995557 -0.0941633 0
    outer loop
      vertex 6.99408 4.18837 0
      vertex 6.99408 4.18837 3
      vertex 6.97633 4.37599 0
    endloop
  endfacet
  facet normal -0.995557 -0.0941633 -0
    outer loop
      vertex 6.97633 4.37599 3
      vertex 6.97633 4.37599 0
      vertex 6.99408 4.18837 3
    endloop
  endfacet
  facet normal -0.999506 -0.0314142 0
    outer loop
      vertex 7 4 0
      vertex 7 4 3
      vertex 6.99408 4.18837 0
    endloop
  endfacet
  facet normal -0.999506 -0.0314142 -0
    outer loop
      vertex 6.99408 4.18837 3
      vertex 6.99408 4.18837 0
      vertex 7 4 3
    endloop
  endfacet
  facet normal -0.999507 0.0314117 0
    outer loop
      vertex 6.99408 3.81161 0
      vertex 6.99408 3.81161 3
      vertex 7 4 0
    endloop
  endfacet
  facet normal -0.999507 0.0314117 0
    outer loop
      vertex 7 4 3
      vertex 7 4 0
      vertex 6.99408 3.81161 3
    endloop
  endfacet
  facet normal -0.995557 0.0941633 0
    outer loop
      vertex 6.97633 3.62399 0
      vertex 6.97633 3.62399 3
      vertex 6.99408 3.81161 0
    endloop
  endfacet
  facet normal -0.995557 0.0941633 0
    outer loop
      vertex 6.99408 3.81161 3
      vertex 6.99408 3.81161 0
      vertex 6.97633 3.62399 3
    endloop
  endfacet
  facet normal -0.98769 0.156424 0
    outer loop
      vertex 6.94685 3.43785 0
      vertex 6.94685 3.43785 3
      vertex 6.97633 3.62399 0
    endloop
  endfacet
  facet normal -0.98769 0.156424 0
    outer loop
      vertex 6.97633 3.62399 3
      vertex 6.97633 3.62399 0
      vertex 6.94685 3.43785 3
    endloop
  endfacet
  facet normal -0.975923 0.218113 0
    outer loop
      vertex 6.90575 3.25392 0
      vertex 6.90575 3.25392 3
      vertex 6.94685 3.43785 0
    endloop
  endfacet
  facet normal -0.975923 0.218113 0
    outer loop
      vertex 6.94685 3.43785 3
      vertex 6.94685 3.43785 0
      vertex 6.90575 3.25392 3
    endloop
  endfacet
  facet normal -0.960292 0.278996 0
    outer loop
      vertex 6.85316 3.07294 0
      vertex 6.85316 3.07294 3
      vertex 6.90575 3.25392 0
    endloop
  endfacet
  facet normal -0.960292 0.278996 0
    outer loop
      vertex 6.90575 3.25392 3
      vertex 6.90575 3.25392 0
      vertex 6.85316 3.07294 3
    endloop
  endfacet
  facet normal -0.940876 0.338751 0
    outer loop
      vertex 6.78932 2.89561 0
      vertex 6.78932 2.89561 3
      vertex 6.85316 3.07294 0
    endloop
  endfacet
  facet normal -0.940876 0.338751 0
    outer loop
      vertex 6.85316 3.07294 3
      vertex 6.85316 3.07294 0
      vertex 6.78932 2.89561 3
    endloop
  endfacet
  facet normal -0.917757 0.397142 0
    outer loop
      vertex 6.71448 2.72266 0
      vertex 6.71448 2.72266 3
      vertex 6.78932 2.89561 0
    endloop
  endfacet
  facet normal -0.917757 0.397142 0
    outer loop
      vertex 6.78932 2.89561 3
      vertex 6.78932 2.89561 0
      vertex 6.71448 2.72266 3
    endloop
  endfacet
  facet normal -0.890985 0.454034 0
    outer loop
      vertex 6.62891 2.55473 0
      vertex 6.62891 2.55473 3
      vertex 6.71448 2.72266 0
    endloop
  endfacet
  facet normal -0.890985 0.454034 0
    outer loop
      vertex 6.71448 2.72266 3
      vertex 6.71448 2.72266 0
      vertex 6.62891 2.55473 3
    endloop
  endfacet
  facet normal -0.860748 0.509032 0
    outer loop
      vertex 6.53297 2.39252 0
      vertex 6.53297 2.39252 3
      vertex 6.62891 2.55473 0
    endloop
  endfacet
  facet normal -0.860748 0.509032 0
    outer loop
      vertex 6.62891 2.55473 3
      vertex 6.62891 2.55473 0
      vertex 6.53297 2.39252 3
    endloop
  endfacet
  facet normal -0.82711 0.56204 0
    outer loop
      vertex 6.42705 2.23663 0
      vertex 6.42705 2.23663 3
      vertex 6.53297 2.39252 0
    endloop
  endfacet
  facet normal -0.82711 0.56204 0
    outer loop
      vertex 6.53297 2.39252 3
      vertex 6.53297 2.39252 0
      vertex 6.42705 2.23663 3
    endloop
  endfacet
  facet normal -0.790149 0.612914 0
    outer loop
      vertex 6.31154 2.08772 0
      vertex 6.31154 2.08772 3
      vertex 6.42705 2.23663 0
    endloop
  endfacet
  facet normal -0.790149 0.612914 0
    outer loop
      vertex 6.42705 2.23663 3
      vertex 6.42705 2.23663 0
      vertex 6.31154 2.08772 3
    endloop
  endfacet
  facet normal -0.750119 0.661303 0
    outer loop
      vertex 6.1869 1.94635 0
      vertex 6.1869 1.94635 3
      vertex 6.31154 2.08772 0
    endloop
  endfacet
  facet normal -0.750119 0.661303 0
    outer loop
      vertex 6.31154 2.08772 3
      vertex 6.31154 2.08772 0
      vertex 6.1869 1.94635 3
    endloop
  endfacet
  facet normal -0.707107 0.707107 0
    outer loop
      vertex 6.05363 1.81308 0
      vertex 6.05363 1.81308 3
      vertex 6.1869 1.94635 0
    endloop
  endfacet
  facet normal -0.707107 0.707107 0
    outer loop
      vertex 6.1869 1.94635 3
      vertex 6.1869 1.94635 0
      vertex 6.05363 1.81308 3
    endloop
  endfacet
  facet normal -0.661303 0.750119 0
    outer loop
      vertex 5.91226 1.68845 0
      vertex 5.91226 1.68845 3
      vertex 6.05363 1.81308 0
    endloop
  endfacet
  facet normal -0.661303 0.750119 0
    outer loop
      vertex 6.05363 1.81308 3
      vertex 6.05363 1.81308 0
      vertex 5.91226 1.68845 3
    endloop
  endfacet
  facet normal -0.612914 0.790149 0
    outer loop
      vertex 5.76335 1.57294 0
      vertex 5.76335 1.57294 3
      vertex 5.91226 1.68845 0
    endloop
  endfacet
  facet normal -0.612914 0.790149 0
    outer loop
      vertex 5.91226 1.68845 3
      vertex 5.91226 1.68845 0
      vertex 5.76335 1.57294 3
    endloop
  endfacet
  facet normal -0.56204 0.82711 0
    outer loop
      vertex 5.60747 1.46701 0
      vertex 5.60747 1.46701 3
      vertex 5.76335 1.57294 0
    endloop
  endfacet
  facet normal -0.56204 0.82711 0
    outer loop
      vertex 5.76335 1.57294 3
      vertex 5.76335 1.57294 0
      vertex 5.60747 1.46701 3
    endloop
  endfacet
  facet normal -0.509032 0.860748 0
    outer loop
      vertex 5.44525 1.37108 0
      vertex 5.44525 1.37108 3
      vertex 5.60747 1.46701 0
    endloop
  endfacet
  facet normal -0.509032 0.860748 0
    outer loop
      vertex 5.60747 1.46701 3
      vertex 5.60747 1.46701 0
      vertex 5.44525 1.37108 3
    endloop
  endfacet
  facet normal -0.454034 0.890985 0
    outer loop
      vertex 5.27733 1.28551 0
      vertex 5.27733 1.28551 3
      vertex 5.44525 1.37108 0
    endloop
  endfacet
  facet normal -0.454034 0.890985 0
    outer loop
      vertex 5.44525 1.37108 3
      vertex 5.44525 1.37108 0
      vertex 5.27733 1.28551 3
    endloop
  endfacet
  facet normal -0.397142 0.917757 0
    outer loop
      vertex 5.10437 1.21066 0
      vertex 5.10437 1.21066 3
      vertex 5.27733 1.28551 0
    endloop
  endfacet
  facet normal -0.397142 0.917757 0
    outer loop
      vertex 5.27733 1.28551 3
      vertex 5.27733 1.28551 0
      vertex 5.10437 1.21066 3
    endloop
  endfacet
  facet normal -0.338751 0.940876 0
    outer loop
      vertex 4.92705 1.14682 0
      vertex 4.92705 1.14682 3
      vertex 5.10437 1.21066 0
    endloop
  endfacet
  facet normal -0.338751 0.940876 0
    outer loop
      vertex 5.10437 1.21066 3
      vertex 5.10437 1.21066 0
      vertex 4.92705 1.14682 3
    endloop
  endfacet
  facet normal -0.278996 0.960292 0
    outer loop
      vertex 4.74606 1.09424 0
      vertex 4.74606 1.09424 3
      vertex 4.92705 1.14682 0
    endloop
  endfacet
  facet normal -0.278996 0.960292 0
    outer loop
      vertex 4.92705 1.14682 3
      vertex 4.92705 1.14682 0
      vertex 4.74606 1.09424 3
    endloop
  endfacet
  facet normal -0.218113 0.975923 0
    outer loop
      vertex 4.56213 1.05313 0
      vertex 4.56213 1.05313 3
      vertex 4.74606 1.09424 0
    endloop
  endfacet
  facet normal -0.218113 0.975923 0
    outer loop
      vertex 4.74606 1.09424 3
      vertex 4.74606 1.09424 0
      vertex 4.56213 1.05313 3
    endloop
  endfacet
  facet normal -0.156424 0.98769 0
    outer loop
      vertex 4.37599 1.02365 0
      vertex 4.37599 1.02365 3
      vertex 4.56213 1.05313 0
    endloop
  endfacet
  facet normal -0.156424 0.98769 0
    outer loop
      vertex 4.56213 1.05313 3
      vertex 4.56213 1.05313 0
      vertex 4.37599 1.02365 3
    endloop
  endfacet
  facet normal -0.0941633 0.995557 0
    outer loop
      vertex 4.18837 1.00591 0
      vertex 4.18837 1.00591 3
      vertex 4.37599 1.02365 0
    endloop
  endfacet
  facet normal -0.0941633 0.995557 0
    outer loop
      vertex 4.37599 1.02365 3
      vertex 4.37599 1.02365 0
      vertex 4.18837 1.00591 3
    endloop
  endfacet
  facet normal -0.0313308 0.999509 0
    outer loop
      vertex 3.99998 1 0
      vertex 3.99998 1 3
      vertex 4.18837 1.00591 0
    endloop
  endfacet
  facet normal -0.0313308 0.999509 0
    outer loop
      vertex 4.18837 1.00591 3
      vertex 4.18837 1.00591 0
      vertex 3.99998 1 3
    endloop
  endfacet
  facet normal 0.0313333 0.999509 -0
    outer loop
      vertex 3.81161 1.00591 0
      vertex 3.81161 1.00591 3
      vertex 3.99998 1 0
    endloop
  endfacet
  facet normal 0.0313333 0.999509 0
    outer loop
      vertex 3.99998 1 3
      vertex 3.99998 1 0
      vertex 3.81161 1.00591 3
    endloop
  endfacet
endsolid OpenSCAD_Model
